<svg width="96" height="138" viewBox="0 0 96 138" fill="none" xmlns="http://www.w3.org/2000/svg">
<path d="M8.05859 72.1638C13.9132 64.7375 18.1267 61.3775 27.7372 57.1909L21.1064 79.2224L8.05859 72.1638Z" fill="#F3F7FF" stroke="#42A8BE" stroke-width="1.05904"/>
<path d="M3.13916 89.7032C4.00969 84.3885 4.80458 81.3596 7.20322 75.7998L19.8232 82.2167C18.1321 86.6958 16.7473 89.1346 13.4063 93.3394C9.18502 92.5651 6.89427 91.8988 3.13916 89.7032Z" fill="#F3F7FF" stroke="#42A8BE" stroke-width="1.05904"/>
<path d="M1.29239 96.6063L2.92392 92.1567C3.13065 91.5929 3.83869 91.4119 4.29063 91.8073L4.59842 92.0767C4.87632 92.3198 4.96686 92.7139 4.82298 93.0539L3.03101 97.2895C2.85227 97.712 2.37215 97.9183 1.94262 97.7572L1.79527 97.702C1.35511 97.5369 1.13056 97.0477 1.29239 96.6063Z" fill="#224B9B" stroke="#2B63A6" stroke-width="1.05904"/>
<path d="M4.28702 98.745L5.91855 94.2954C6.12528 93.7316 6.83332 93.5506 7.28526 93.946L7.59305 94.2153C7.87095 94.4585 7.96149 94.8525 7.81761 95.1926L6.02564 99.4282C5.8469 99.8506 5.36677 100.057 4.93725 99.8959L4.7899 99.8407C4.34974 99.6756 4.12519 99.1863 4.28702 98.745Z" fill="#224B9B" stroke="#2B63A6" stroke-width="1.05904"/>
<path d="M8.13663 100.029L9.76816 95.5791C9.97489 95.0153 10.6829 94.8343 11.1349 95.2297L11.4427 95.499C11.7206 95.7422 11.8111 96.1362 11.6672 96.4763L9.87525 100.712C9.69651 101.134 9.21638 101.341 8.78686 101.18L8.63951 101.124C8.19935 100.959 7.9748 100.47 8.13663 100.029Z" fill="#224B9B" stroke="#2B63A6" stroke-width="1.05904"/>
<path d="M87.8423 72.1638C81.9876 64.7375 77.7742 61.3775 68.1637 57.1909L74.7945 79.2224L87.8423 72.1638Z" fill="#F3F7FF" stroke="#42A8BE" stroke-width="1.05904"/>
<path d="M92.7627 89.7032C91.8922 84.3885 91.0973 81.3596 88.6986 75.7998L76.0787 82.2167C77.7698 86.6958 79.1545 89.1346 82.4956 93.3394C86.7168 92.5651 89.0076 91.8988 92.7627 89.7032Z" fill="#F3F7FF" stroke="#42A8BE" stroke-width="1.05904"/>
<path d="M94.609 96.6063L92.9774 92.1567C92.7707 91.5929 92.0627 91.4119 91.6107 91.8073L91.3029 92.0767C91.025 92.3198 90.9345 92.7139 91.0784 93.0539L92.8704 97.2895C93.0491 97.712 93.5292 97.9183 93.9587 97.7572L94.1061 97.702C94.5463 97.5369 94.7708 97.0477 94.609 96.6063Z" fill="#224B9B" stroke="#2B63A6" stroke-width="1.05904"/>
<path d="M91.6139 98.7455L89.9823 94.2959C89.7756 93.7321 89.0676 93.5511 88.6156 93.9465L88.3078 94.2158C88.0299 94.459 87.9394 94.853 88.0833 95.1931L89.8752 99.4287C90.054 99.8511 90.5341 100.057 90.9636 99.8964L91.111 99.8411C91.5511 99.6761 91.7757 99.1868 91.6139 98.7455Z" fill="#224B9B" stroke="#2B63A6" stroke-width="1.05904"/>
<path d="M87.7642 100.029L86.1327 95.5791C85.926 95.0153 85.2179 94.8343 84.766 95.2297L84.4582 95.499C84.1803 95.7422 84.0898 96.1362 84.2337 96.4763L86.0256 100.712C86.2044 101.134 86.6845 101.341 87.114 101.18L87.2614 101.124C87.7015 100.959 87.9261 100.47 87.7642 100.029Z" fill="#224B9B" stroke="#2B63A6" stroke-width="1.05904"/>
<path d="M15.0231 132.339L18.6293 125C19.0862 124.07 20.334 123.888 21.0378 124.648L21.5172 125.166C21.95 125.634 22.0339 126.326 21.7254 126.884L17.8827 133.827C17.4994 134.519 16.6381 134.786 15.9303 134.432L15.6875 134.311C14.9621 133.948 14.6655 133.067 15.0231 132.339Z" fill="url(#paint0_linear)" stroke="#2B63A6" stroke-width="1.05904"/>
<path d="M26.034 135.218L26.1862 127.041C26.2055 126.005 27.2581 125.311 28.2181 125.701L28.8719 125.967C29.4621 126.207 29.8319 126.798 29.789 127.434L29.2545 135.352C29.2012 136.141 28.5345 136.749 27.7433 136.728L27.4718 136.721C26.661 136.7 26.0189 136.029 26.034 135.218Z" fill="url(#paint1_linear)" stroke="#2B63A6" stroke-width="1.05904"/>
<path d="M38.3744 134.656L34.1746 127.64C33.6425 126.751 34.1678 125.604 35.1887 125.427L35.884 125.306C36.5118 125.197 37.1387 125.503 37.4388 126.065L41.1774 133.065C41.5503 133.763 41.3062 134.631 40.624 135.033L40.39 135.171C39.691 135.582 38.791 135.352 38.3744 134.656Z" fill="url(#paint2_linear)" stroke="#2B63A6" stroke-width="1.05904"/>
<path d="M18.8347 119.477C20.6015 110.963 22.29 105.967 26.4528 97.8315L39.5006 106.174C40.9262 112.363 40.9045 116.002 39.7455 121.875C39.604 122.592 39.0117 123.134 38.2857 123.215C31.3594 123.994 26.9476 123.744 19.9422 121.415C19.1347 121.146 18.6618 120.31 18.8347 119.477Z" fill="url(#paint3_linear)" stroke="url(#paint4_linear)" stroke-width="1.05904"/>
<path d="M80.8533 132.339L77.2472 125C76.7902 124.07 75.5424 123.888 74.8386 124.648L74.3593 125.166C73.9265 125.634 73.8426 126.326 74.1511 126.884L77.9938 133.827C78.3771 134.519 79.2383 134.786 79.9462 134.432L80.189 134.311C80.9144 133.948 81.211 133.067 80.8533 132.339Z" fill="url(#paint5_linear)" stroke="#2B63A6" stroke-width="1.05904"/>
<path d="M69.8434 135.218L69.6912 127.041C69.6719 126.005 68.6193 125.311 67.6593 125.701L67.0056 125.967C66.4153 126.207 66.0455 126.798 66.0884 127.434L66.6229 135.352C66.6762 136.141 67.3429 136.749 68.1341 136.728L68.4056 136.721C69.2164 136.7 69.8585 136.029 69.8434 135.218Z" fill="url(#paint6_linear)" stroke="#2B63A6" stroke-width="1.05904"/>
<path d="M57.503 134.656L61.7028 127.64C62.235 126.751 61.7096 125.604 60.6887 125.427L59.9934 125.306C59.3657 125.197 58.7388 125.503 58.4386 126.065L54.7001 133.065C54.3272 133.763 54.5713 134.631 55.2534 135.033L55.4874 135.171C56.1864 135.582 57.0865 135.352 57.503 134.656Z" fill="url(#paint7_linear)" stroke="#2B63A6" stroke-width="1.05904"/>
<path d="M77.0418 119.477C75.275 110.963 73.5864 105.967 69.4237 97.8315L56.3759 106.174C54.9503 112.363 54.972 116.002 56.131 121.875C56.2725 122.592 56.8647 123.134 57.5907 123.215C64.5171 123.994 68.9289 123.744 75.9342 121.415C76.7417 121.146 77.2147 120.31 77.0418 119.477Z" fill="url(#paint8_linear)" stroke="url(#paint9_linear)" stroke-width="1.05904"/>
<path d="M21.2559 13.0636L27.9724 17.4203C28.2247 17.5839 28.5443 17.6031 28.8144 17.4708L38.3808 12.7852C38.6741 12.6416 38.8601 12.3435 38.8601 12.0168V7.04385C38.8601 6.74435 38.7035 6.46666 38.4472 6.31169L30.306 1.38912C29.938 1.16658 29.4619 1.25185 29.194 1.58831L21.0522 11.8129C20.7375 12.2081 20.832 12.7887 21.2559 13.0636Z" fill="#F3F7FF" stroke="#6FCCDD" stroke-width="1.05904"/>
<path d="M74.6459 13.0636L67.9294 17.4203C67.6772 17.5839 67.3575 17.6031 67.0875 17.4708L57.521 12.7852C57.2277 12.6416 57.0418 12.3435 57.0418 12.0168V7.04385C57.0418 6.74435 57.1984 6.46666 57.4547 6.31169L65.5959 1.38912C65.9639 1.16658 66.4399 1.25185 66.7079 1.58831L74.8496 11.8129C75.1644 12.2081 75.0698 12.7887 74.6459 13.0636Z" fill="#F3F7FF" stroke="#6FCCDD" stroke-width="1.05904"/>
<path d="M64.4069 9.65905C64.5367 9.65879 64.6544 9.73559 64.7063 9.85458L73.5172 30.0216C73.554 30.1058 73.5535 30.2017 73.5159 30.2856L64.5506 50.2651C64.4981 50.3821 64.3819 50.4574 64.2537 50.4577L31.9047 50.5218C31.7781 50.5221 31.6628 50.4491 31.6089 50.3345L22.1867 30.2979C22.1451 30.2095 22.1453 30.1071 22.1874 30.0189L31.7672 9.90904C31.8211 9.79572 31.9354 9.72345 32.0609 9.7232L64.4069 9.65905Z" fill="url(#paint10_linear)" stroke="#6FCCDD" stroke-width="1.05904"/>
<path d="M59.3754 34.2397H36.7896C36.2201 34.2397 35.8096 34.7857 35.9676 35.3328L39.7984 48.5945C39.9041 48.9606 40.2393 49.2126 40.6203 49.2126H56.1495C56.5441 49.2126 56.8875 48.9427 56.9808 48.5592L60.2067 35.2976C60.3377 34.7589 59.9297 34.2397 59.3754 34.2397Z" fill="url(#paint11_linear)" stroke="#6FCCDD" stroke-width="1.05904"/>
<path d="M40.2882 29.2262C39.2526 28.0965 37.3994 28.0965 36.3638 29.2262C35.4145 30.2618 35.4145 31.7879 36.3638 32.8235C37.3994 33.9532 39.2526 33.9532 40.2882 32.8235C41.2374 31.7879 41.2374 30.2618 40.2882 29.2262Z" fill="black"/>
<path d="M60.3951 29.2262C59.3595 28.0965 57.5063 28.0965 56.4708 29.2262C55.5215 30.2618 55.5215 31.7879 56.4708 32.8235C57.5063 33.9532 59.3595 33.9532 60.3951 32.8235C61.3444 31.7879 61.3444 30.2618 60.3951 29.2262Z" fill="black"/>
<path d="M48.0661 40.3208C48.2008 40.4436 48.407 40.4436 48.5417 40.3208L53.4391 35.8563C53.6774 35.6391 53.5237 35.2424 53.2013 35.2424H43.4065C43.0841 35.2424 42.9304 35.6391 43.1687 35.8563L48.0661 40.3208Z" fill="black"/>
<path d="M64.6741 50.2713C64.7912 50.271 64.8995 50.3335 64.9578 50.4352L81.203 78.7523C81.2608 78.8531 81.2606 78.977 81.2025 79.0776L64.797 107.493C64.7389 107.593 64.6317 107.656 64.5155 107.656L31.8696 107.746C31.7524 107.746 31.6441 107.684 31.5858 107.582L15.3407 79.2648L14.8814 79.5283L15.3407 79.2648C15.2829 79.164 15.2831 79.0401 15.3411 78.9395L31.7467 50.5243C31.8048 50.4237 31.912 50.3616 32.0282 50.3612L64.6741 50.2713Z" fill="url(#paint12_linear)" stroke="#42A8BE" stroke-width="1.05904"/>
<path fill-rule="evenodd" clip-rule="evenodd" d="M55.2188 68.2577L59.1697 64L59.1699 94.6562L55.319 90.4721L55.2188 68.2577Z" fill="url(#paint13_linear)"/>
<path fill-rule="evenodd" clip-rule="evenodd" d="M36.2544 69.9609V64L59.1696 88.6953V94.6562L36.2544 69.9609Z" fill="url(#paint14_linear)"/>
<path fill-rule="evenodd" clip-rule="evenodd" d="M36.2544 64.2124L40.2053 68.2574L40.2053 90.3984L36.2544 94.6562L36.2544 64.2124Z" fill="url(#paint15_linear)"/>
<path fill-rule="evenodd" clip-rule="evenodd" d="M36.2544 94.6555L45.9341 84.4371L43.1685 81.4568L36.2546 88.4819L36.2544 94.6555Z" fill="url(#paint16_linear)"/>
<defs>
<linearGradient id="paint0_linear" x1="19.0269" y1="123.012" x2="17.7473" y2="135.124" gradientUnits="userSpaceOnUse">
<stop stop-color="#003078"/>
<stop offset="1" stop-color="#003078"/>
</linearGradient>
<linearGradient id="paint1_linear" x1="25.703" y1="125.073" x2="29.6823" y2="136.584" gradientUnits="userSpaceOnUse">
<stop stop-color="#003078"/>
<stop offset="1" stop-color="#003078"/>
</linearGradient>
<linearGradient id="paint2_linear" x1="32.7223" y1="126.225" x2="42.1928" y2="133.884" gradientUnits="userSpaceOnUse">
<stop stop-color="#003078"/>
<stop offset="1" stop-color="#003078"/>
</linearGradient>
<linearGradient id="paint3_linear" x1="29.2399" y1="105.139" x2="29.2399" y2="147.5" gradientUnits="userSpaceOnUse">
<stop stop-color="#CFECF7"/>
<stop offset="1" stop-color="#003078"/>
</linearGradient>
<linearGradient id="paint4_linear" x1="29.5663" y1="97.8315" x2="29.5663" y2="123.613" gradientUnits="userSpaceOnUse">
<stop stop-color="#42A8BE"/>
<stop offset="1" stop-color="#262662"/>
</linearGradient>
<linearGradient id="paint5_linear" x1="76.8496" y1="123.012" x2="78.1291" y2="135.124" gradientUnits="userSpaceOnUse">
<stop stop-color="#003078"/>
<stop offset="1" stop-color="#003078"/>
</linearGradient>
<linearGradient id="paint6_linear" x1="70.1744" y1="125.073" x2="66.1951" y2="136.584" gradientUnits="userSpaceOnUse">
<stop stop-color="#003078"/>
<stop offset="1" stop-color="#003078"/>
</linearGradient>
<linearGradient id="paint7_linear" x1="63.1551" y1="126.225" x2="53.6846" y2="133.884" gradientUnits="userSpaceOnUse">
<stop stop-color="#003078"/>
<stop offset="1" stop-color="#003078"/>
</linearGradient>
<linearGradient id="paint8_linear" x1="66.66" y1="104.786" x2="66.66" y2="153.148" gradientUnits="userSpaceOnUse">
<stop stop-color="#CFECF7"/>
<stop offset="1" stop-color="#003078"/>
</linearGradient>
<linearGradient id="paint9_linear" x1="66.3101" y1="97.8315" x2="66.3101" y2="123.613" gradientUnits="userSpaceOnUse">
<stop stop-color="#42A8BE"/>
<stop offset="1" stop-color="#262662"/>
</linearGradient>
<linearGradient id="paint10_linear" x1="47.5984" y1="24.6521" x2="47.5984" y2="95.9605" gradientUnits="userSpaceOnUse">
<stop stop-color="#F3F7FF"/>
<stop offset="1" stop-color="#95DAEA"/>
</linearGradient>
<linearGradient id="paint11_linear" x1="48.3041" y1="52.187" x2="48.3041" y2="39.8316" gradientUnits="userSpaceOnUse">
<stop stop-color="#95DAEA"/>
<stop offset="1" stop-color="#F3F7FF"/>
</linearGradient>
<linearGradient id="paint12_linear" x1="48.3041" y1="71.9555" x2="51.1282" y2="133.733" gradientUnits="userSpaceOnUse">
<stop stop-color="#F3F7FF"/>
<stop offset="1" stop-color="#95DAEA"/>
</linearGradient>
<linearGradient id="paint13_linear" x1="55.7439" y1="65.5546" x2="55.7439" y2="94.7743" gradientUnits="userSpaceOnUse">
<stop stop-color="#20FFAF"/>
<stop offset="1" stop-color="#01DACC"/>
</linearGradient>
<linearGradient id="paint14_linear" x1="39.3002" y1="65.5546" x2="39.3002" y2="94.7743" gradientUnits="userSpaceOnUse">
<stop stop-color="#20FFAF"/>
<stop offset="1" stop-color="#01DACC"/>
</linearGradient>
<linearGradient id="paint15_linear" x1="36.7795" y1="65.7563" x2="36.7795" y2="94.7735" gradientUnits="userSpaceOnUse">
<stop stop-color="#20FFAF"/>
<stop offset="1" stop-color="#01DACC"/>
</linearGradient>
<linearGradient id="paint16_linear" x1="37.7916" y1="81.8824" x2="37.1676" y2="94.7519" gradientUnits="userSpaceOnUse">
<stop stop-color="#20FFAF"/>
<stop offset="1" stop-color="#01DACC"/>
</linearGradient>
</defs>
</svg>
