<svg width="674" height="390" viewBox="0 0 674 390" fill="none" xmlns="http://www.w3.org/2000/svg">
<path d="M364.063 298.061C364.063 298.061 373.977 300.259 380.425 300.272C390.111 300.292 395.092 294.612 404.746 295.408C417.369 296.448 429.259 297.785 433.931 309.558C440.824 326.93 400.254 347.043 391.037 330.784C388.497 326.302 387.942 326.804 387.942 321.498C387.942 311.233 416.595 314.128 426.855 314.422C443.687 314.906 441.855 333.437 458.694 333.437C471.075 333.437 490.532 333.437 490.532 348.472C490.532 360.924 395.459 358.642 395.459 373.235C395.459 387.827 526.981 393.091 556.861 385.174C567.158 382.446 577.274 382.153 586.931 377.657" stroke="url(#paint0_linear)" stroke-width="1.76879"/>
<path d="M109.357 358.469L156.672 323.708L206.199 331.226L171.425 369.255L109.357 358.469Z" fill="#4CACE2"/>
<path d="M71.3291 340.512L112.896 312.653L151.367 321.055L127.046 343.165L108.031 348.914L94.3234 346.482L71.3291 340.512Z" fill="#BFD1DB"/>
<path d="M110.242 341.396L108.031 348.914L127.046 343.165L110.242 341.396Z" fill="#78B5C9"/>
<path d="M210.621 334.763L199.566 358.642" stroke="#FF8717" stroke-width="2.65318"/>
<path d="M150.925 315.749L125.277 329.457" stroke="#6D6D6D" stroke-width="2.65318"/>
<path d="M654.646 361.115L588.7 382.078L551.151 371.189C549.39 370.679 549.473 368.157 551.263 367.763L598.76 357.315L611.36 326.299C611.571 325.782 612.013 325.394 612.553 325.253L671.213 309.969C672.595 309.609 673.812 310.95 673.32 312.291L655.771 360.04C655.582 360.553 655.167 360.95 654.646 361.115Z" fill="url(#paint1_linear)"/>
<path d="M563.871 369.18L590.744 377.018L597.024 361.592L563.871 369.18Z" fill="#665262"/>
<g filter="url(#filter0_d)">
<path d="M637.644 337.542C637.726 337.406 637.93 337.438 637.967 337.591L639.395 343.471C639.424 343.593 639.321 343.706 639.197 343.688L638.596 343.6C638.468 343.581 638.364 343.701 638.401 343.825L639.315 346.911C639.349 347.024 639.264 347.138 639.146 347.138L638.531 347.138C638.422 347.138 638.339 347.237 638.357 347.344L638.857 350.3C638.872 350.391 638.816 350.478 638.727 350.501L631.585 352.372C631.43 352.413 631.305 352.242 631.391 352.106L634.021 347.943C634.105 347.811 633.988 347.643 633.835 347.676L632.907 347.875C632.751 347.909 632.634 347.735 632.723 347.603L634.911 344.373C634.997 344.247 634.894 344.08 634.743 344.099L633.961 344.198C633.814 344.217 633.711 344.058 633.787 343.931L637.644 337.542Z" fill="white"/>
</g>
<g filter="url(#filter1_i)">
<path d="M229.535 356.228C223.584 352.562 218.467 354.614 215.431 357.773C212.683 361.187 211.298 366.523 215.691 371.959C220.272 377.629 229.461 375.67 231.855 376.575L236.168 371.674C234.966 369.415 235.741 360.051 229.535 356.228Z" fill="url(#paint2_linear)" fill-opacity="0.49"/>
</g>
<path d="M234.695 373.68C233.726 372.827 232.412 372.038 232.099 370.745C231.964 370.187 231.76 369.641 231.65 369.078C231.513 368.374 231.429 367.672 231.276 366.968C230.922 365.34 230.549 363.859 229.128 362.775C228.36 362.19 227.961 362.115 227.426 362.702C227.288 362.854 226.793 363.829 226.763 364.044C226.728 364.288 226.57 365.125 226.629 365.37C226.629 365.37 226.391 366.167 225.783 366.666C225.35 367.021 224.939 367.249 224.458 367.524C224.018 367.775 223.425 368.207 222.877 368.059C222.417 367.935 221.41 368.403 221.115 368.7C220.764 369.054 221.061 369.432 221.363 369.958C221.557 370.297 222.049 370.677 222.389 370.825C224.07 371.555 225.758 372.249 227.435 372.986C228.935 373.644 230.435 374.222 231.84 375.082C232.197 375.3 232.61 375.41 232.938 375.677C233.155 375.853 233.252 375.932 233.518 376.023" stroke="#ABABAB" stroke-width="0.707515" stroke-linecap="round" stroke-linejoin="round"/>
<path d="M236.349 371.469L231.675 376.78L236.929 381.404C237.296 381.727 237.854 381.691 238.177 381.324L241.683 377.341C242.005 376.974 241.97 376.415 241.603 376.093L236.349 371.469Z" fill="#5C6871"/>
<path d="M362.877 362.945C362.617 362.02 363.143 361.058 364.061 360.776L378.618 356.308C379.004 356.19 379.419 356.207 379.793 356.357L382.399 357.399C383.131 357.692 383.581 358.435 383.502 359.22L383.152 362.674C383.084 363.341 382.645 363.913 382.018 364.15L368.568 369.237C368.299 369.338 368.01 369.373 367.725 369.338L365.728 369.091C365.02 369.003 364.435 368.499 364.242 367.813L362.877 362.945Z" fill="#5C5C5C"/>
<path d="M365.541 363.896C365.277 362.956 365.826 361.979 366.767 361.715L381.313 357.636C382.254 357.372 383.23 357.92 383.494 358.861L384.688 363.119C384.952 364.059 384.403 365.036 383.463 365.299L368.916 369.379C367.975 369.643 366.999 369.094 366.735 368.154L365.541 363.896Z" fill="black"/>
<circle cx="372.139" cy="364.085" r="1.76879" fill="#888888"/>
<circle cx="378.329" cy="362.316" r="1.76879" fill="#888888"/>
<path d="M569.685 351.125L528.118 323.266L489.647 331.668L506.671 347.366L512.641 352.009L552.439 355.547L569.685 351.125Z" fill="#DADBBF"/>
<path d="M512.641 352.009L521.042 348.914L527.675 344.492C527.675 344.492 536.594 353.067 542.268 354.22C545.577 354.893 550.536 355.374 552.01 355.509L552.438 355.547C552.438 355.547 552.285 355.534 552.01 355.509L512.641 352.009Z" fill="#B2B577"/>
<g style="mix-blend-mode:multiply">
<path d="M71.418 332.125C46.5273 327.986 31.6222 323.517 15.7462 312.322C-31.4168 279.066 123.639 277.129 200.6 270.988C258.72 266.351 350.493 274.191 350.493 274.191C350.493 274.191 472.795 267.611 540.426 284.295C561.916 289.597 592.5 298.028 592.5 312.322C592.5 322 574.222 327.292 547.488 334.349C523.826 340.594 506.666 334.2 480.561 335.108C429.695 336.879 402.217 344.512 351.303 345.568C292.45 346.787 258.979 344.412 201.364 338.279C179.88 335.992 168.579 332.742 146.836 331.269C117.663 329.292 99.4743 336.791 71.418 332.125Z" fill="#E6DDE3"/>
</g>
<path d="M214.973 245.214C219.595 244.9 228.858 241.018 228.858 241.018C228.858 241.018 242.768 255.865 238.577 263.397C234.071 271.498 222.629 268.569 214.973 263.397C210.917 260.657 211.104 258.024 208.956 253.606C207.142 249.878 206.642 241.018 206.642 241.018C206.642 241.018 209.324 245.597 214.973 245.214Z" fill="url(#paint3_linear)"/>
<path d="M253.583 152.438C258.61 142.395 268.239 127.844 268.239 127.844H326.864C326.864 127.844 336.635 161.711 340.017 170.984C343.399 180.257 349.788 216.382 349.788 218.962C349.788 221.543 353.295 255.786 340.017 266.537C326.739 277.289 321.979 275.407 321.979 275.407H298.679H270.494C270.494 275.407 258.098 274.27 253.583 272.585C248.846 270.817 245.766 269.465 241.557 266.537C228.533 257.476 225.6 242.137 226.983 225.541C228.309 209.621 233.453 198.668 238.927 182.273C242.917 170.323 247.985 163.622 253.583 152.438Z" fill="url(#paint4_linear)"/>
<path d="M291.696 143.178C291.696 143.178 287.532 161.36 284.029 175.46C278.451 197.918 259.367 213.835 262.239 236.796C264.263 252.975 278.658 275.571 278.658 275.571H314.975C314.975 275.571 326.397 263.114 330.838 253.744C342.061 230.062 323.612 208.815 321.153 182.724C319.397 164.081 315.1 139.143 315.1 139.143L291.696 143.178Z" fill="#F3E8E8"/>
<path d="M258.19 228.228C267.294 231.977 277.723 243.713 280.321 253.211C283.609 265.233 279.385 270.577 275.771 272.496C278.166 273.782 280.321 276.647 280.321 276.647C282.6 281.532 275.37 281.069 272.717 281.511C272.717 281.511 261.662 281.511 257.24 278.518C257.24 278.518 246.565 279.167 242.734 274.229C237.405 267.36 237.61 265.338 237.61 257.685V228.228C237.61 228.228 250.759 225.167 258.19 228.228Z" fill="url(#paint5_linear)"/>
<path d="M332.225 250.746C334.121 241.904 332.88 230.395 337.893 226.801C341.984 223.867 349.224 226.801 349.224 226.801C349.224 226.801 359.615 237.983 355.661 253.841C353.756 261.486 345.238 270.729 345.238 270.729C347.436 272.817 347.789 272.79 348.586 275.067C350.55 280.679 332.225 277.72 332.225 277.72C332.225 277.72 329.13 277.278 328.245 275.067C326.034 275.067 325.592 275.951 314.979 275.067L320.728 269.318C320.728 269.318 330.708 257.821 332.225 250.746Z" fill="url(#paint6_linear)"/>
<path d="M267.484 204.514C262.479 190.582 261.97 178.688 259.817 167.39H278.379C278.379 167.39 281.351 186.178 284.029 198.058C286.828 210.475 289.883 216.946 292.503 229.532C295.024 234.102 296.941 242.041 296.941 242.041L290.485 245.673L284.029 236.392C278.917 226.842 272.227 217.714 267.484 204.514Z" fill="url(#paint7_linear)"/>
<path d="M336.444 207.867C340.688 194.797 339.93 194.13 341.755 183.531L324.932 173.288C324.932 173.288 322.412 190.914 320.142 202.059C317.769 213.709 315.179 219.779 312.958 231.587C310.82 235.874 309.195 243.322 309.195 243.322L316.943 246.48L322.417 237.773C326.751 228.814 332.423 220.25 336.444 207.867Z" fill="url(#paint8_linear)"/>
<path d="M252.182 56.204C258.968 60.92 273.077 64.3854 275.141 64.8753C275.316 64.9169 275.485 64.9353 275.665 64.9291C277.343 64.8711 286.086 64.2293 280.836 57.1366C275.046 49.3138 273.136 45.7699 261.868 42.1469C256.469 40.411 247.824 39.5348 242.632 39.1423C240.734 38.9989 239.526 40.9965 240.559 42.5949C243.219 46.7122 247.806 53.1626 252.182 56.204Z" fill="url(#paint9_linear)"/>
<path d="M320.275 42.6546C316.381 46.5071 310.383 55.0639 310.383 55.0639C310.383 55.0639 313.501 62.3835 317.704 63.6689C323.991 65.5915 338.239 47.4713 338.239 47.4713C338.239 47.4713 346.606 34.2225 343.229 33.7598C339.852 33.2971 326.823 36.1757 320.275 42.6546Z" fill="url(#paint10_linear)"/>
<path d="M330.764 100.331C328.429 98.2814 326.257 98.8688 326.257 98.8688L318.596 112.025C320.398 116.735 323.914 126.448 323.553 127.617C323.193 128.786 326.408 140.773 328.06 146.62L334.82 155.878L336.173 164.161H339.327L337.525 155.878L339.327 152.955L342.482 164.161L345.186 162.7L343.384 151.98L345.186 151.005L346.989 159.776L349.693 158.314L346.989 146.62L348.792 143.697L350.595 155.878L353.299 152.955C353.299 152.955 352.072 139.618 348.792 132.002C345.656 124.723 334.82 113.974 334.82 113.974C334.82 113.974 334.783 103.857 330.764 100.331Z" fill="#9B7EED"/>
<path d="M268.876 69.351C270.628 63.976 277.098 57.7358 277.098 57.7358C277.098 57.7358 282.33 53.6159 286.815 51.728C294.664 48.4243 302.591 48.9575 306.249 50.1259C311.697 51.8661 314.807 53.5722 318.957 57.7358C324.818 63.6163 326.374 69.0085 328.3 77.3614C330.331 86.1685 331.29 90.9792 329.795 96.987C328.465 102.33 322.768 109.686 322.768 109.686C322.768 109.686 314.012 117.197 308.241 118.563C299.267 120.688 284.836 116.016 284.836 116.016C284.836 116.016 275.411 105.957 272.239 100.592C269.113 95.303 267.659 92.7947 267.007 86.5734C266.371 80.5115 266.998 75.1098 268.876 69.351Z" fill="url(#paint11_linear)"/>
<path d="M293.589 102.006C294.682 100.025 299.448 95.5777 302.063 94.7424C302.063 94.7424 310.113 91.1743 314.976 92.7248C316.655 93.26 317.597 93.6919 319.011 94.7424C321.748 96.775 323.376 98.6303 323.854 102.006C324.466 106.333 323.45 108.059 318.608 111.287C313.766 114.515 310.6 114.484 305.292 114.515C305.292 114.515 296.871 113.555 294.61 109.282C293.062 106.357 292.497 103.987 293.589 102.006Z" fill="#F3E8E8"/>
<path d="M302.336 97.292C301.807 100.759 311.852 103.705 311.852 103.705C311.852 103.705 320.168 98.5982 318.477 95.6483C317.665 94.2315 316.58 94.0342 314.845 94.0342L311.213 94.0342C311.213 94.0342 308.342 94.1892 306.309 94.5006C304.162 94.8293 302.639 95.3027 302.336 97.292Z" fill="url(#paint12_linear)"/>
<path d="M310.289 111.126C308.295 110.24 307.19 109.632 306.336 108.93C305.884 108.559 306.063 107.863 306.618 107.679L310.13 106.508C310.23 106.475 310.335 106.461 310.439 106.468L314.538 106.741C315.234 106.788 315.545 107.632 315.026 108.097C313.888 109.12 312.792 109.94 311.047 111.067C310.821 111.213 310.535 111.235 310.289 111.126Z" fill="#EFAEAE"/>
<path d="M297.386 104.805C300.732 107.028 304.031 108.378 308.096 107.558C309.064 107.362 311.055 106.034 312.019 106.448C314.743 107.621 316.748 106.52 318.506 104.294" stroke="#97483E" stroke-width="1.61409" stroke-linecap="round" stroke-linejoin="round"/>
<path d="M311.358 105.821C311.42 103.36 311.724 104.259 311.724 105.821" stroke="#964747" stroke-width="1.61409" stroke-linecap="round" stroke-linejoin="round"/>
<path d="M255.803 113.217C255.803 113.217 263.848 100.744 270.33 103.129C275.887 105.174 276.786 116.849 276.786 116.849L270.33 134.604L259.435 150.341L255.803 160.026H252.978L255.803 150.341L253.785 149.534L251.364 157.605H248.136L251.364 147.92L250.154 145.903L246.522 155.587L244.101 153.166L247.329 143.078L246.522 141.06L242.89 150.341L240.066 148.727L244.101 138.639L242.89 137.832L240.066 145.903L237.645 143.078C237.645 143.078 240.815 133.349 244.101 127.744C247.785 121.46 255.803 113.217 255.803 113.217Z" fill="url(#paint13_linear)"/>
<path d="M284.922 111.3C274.027 105.651 272.009 96.3697 267.57 96.3698C263.131 96.3698 265.956 109.686 265.956 109.686C265.956 109.686 258.007 115.77 257.482 121.388C256.828 128.395 260.358 130.84 267.57 136.319C274.783 141.797 290.527 148.15 290.889 147.214C294.44 147.536 310.747 146.81 316.397 145.196C322.046 143.582 336.327 140.963 333.344 133.494V128.652C333.344 128.652 339.096 121.73 338.59 115.335C338.149 109.757 333.344 101.616 330.923 103.23C328.502 104.844 321.795 112.499 308.326 115.335C299.25 117.246 295.817 116.949 284.922 111.3Z" fill="url(#paint14_linear)"/>
<path d="M291.72 86.599C289.437 85.6092 286.39 85.465 285.457 87.068C284.524 88.6711 285.822 90.7159 288.256 92.2754C290.69 93.8348 292.477 93.2816 292.726 93.2792C292.975 93.2768 296.312 93.5425 295.992 92.1996C295.008 88.0638 294.207 87.677 291.72 86.599Z" fill="black"/>
<path d="M319.205 84.7174C320.721 83.7525 324.067 83.4571 324.576 84.2641C324.576 84.2641 325.247 84.7174 324.576 87.658C324.142 89.5575 323.062 90.4321 321.555 91.0187C319.763 91.7162 316.34 92.017 316.856 89.7584C317.527 86.8178 319.205 84.7174 319.205 84.7174Z" fill="black"/>
<path d="M285.505 57.7192C285.505 57.7192 273.564 27.4227 248.55 30.3463C244.932 30.7692 241.887 31.3518 239.28 32.0371M164.785 9.20874C164.785 9.20874 171.42 23.7888 178.193 30.3465C186.304 38.2006 193.479 41.3056 202.834 42.5424M202.834 42.5424C205.297 42.8681 207.912 43.0643 210.735 43.1834C223.733 43.7322 223.861 36.0893 239.28 32.0371M202.834 42.5424C197.92 52.0238 180.065 53.912 168.315 49.0997M239.28 32.0371C237.249 24.0239 232.346 17.3584 208.712 20.8728" stroke="url(#paint15_linear)" stroke-width="6.19076" stroke-linecap="round" stroke-linejoin="round"/>
<path d="M309.855 54.3993C309.855 54.3993 311.908 40.097 318.159 33.5572C326.347 24.9912 336.526 21.0832 348.064 23.1231C349.581 23.3914 342.926 22.3893 344.215 22.6582M412.224 5.20218C397.996 5.52018 384.721 15.1804 379.787 21.2769M379.787 21.2769C378.279 23.1395 376.291 24.6211 373.264 25.3244C364.953 27.2552 352.729 24.4342 344.215 22.6582M379.787 21.2769C390.435 29.3348 398.299 34.0679 409.108 28.5316M344.215 22.6582C353.789 18.9342 356.434 15.0628 356.684 5.2281" stroke="url(#paint16_linear)" stroke-width="6.19076" stroke-linecap="round" stroke-linejoin="round"/>
<path d="M245.169 177.705C244.592 178.196 243.093 179.13 243.31 180.107C243.444 180.708 244.561 180.109 244.772 179.898C246.162 178.508 245.546 176.123 244.25 178.478C243.774 179.344 243.681 181.977 245.002 180.295C245.844 179.224 246.316 177.322 244.229 178.311C242.631 179.068 243.36 181.18 245.002 179.585C245.609 178.995 246.728 176.324 244.877 177.037C244.006 177.371 243.744 179.66 244.71 179.042C245.12 178.779 246.509 176.488 245.378 177.12C244.061 177.856 242.577 181.453 245.148 179.376C247.229 177.695 245.31 177.154 244.814 178.478C244.138 180.28 245.386 180.237 246.088 178.833C246.654 177.701 245.519 176.427 244.626 177.726C244.094 178.499 243.578 181.431 245.169 179.794C245.466 179.488 247.576 175.741 246.005 176.285C245.067 176.609 242.634 179.613 243.373 180.629C243.904 181.359 245.748 178.976 245.921 178.457" stroke="#FFEBC5" stroke-width="0.807046" stroke-linecap="round" stroke-linejoin="round"/>
<path d="M253.065 168.306C249.481 168.575 252.397 171.396 253.273 169.35C253.464 168.905 253.602 165.607 252.313 166.969C251.307 168.031 252.516 171.711 253.273 170.018C253.553 169.394 253.945 163.871 252.313 165.737C251.421 166.755 251.499 170.066 253.044 168.264C254.081 167.054 253.364 164.901 251.582 165.904C250.052 166.764 250.809 168.582 252.48 168.264C254.222 167.932 253.417 164.524 251.937 165.382C250.558 166.18 250.992 169.942 253.065 169.35C254.174 169.033 254.903 165.597 253.441 165.674C251.989 165.75 251.718 169.723 252.772 170.102C254.3 170.652 254.814 166.77 253.441 166.28C252.307 165.875 251.47 168.89 252.501 168.661C253.727 168.388 252.616 166.025 252.334 168.285C252.132 169.899 253.228 167.859 253.044 167.032C252.827 166.055 252.012 170.337 252.689 168.306" stroke="#FFEBC5" stroke-width="0.807046" stroke-linecap="round" stroke-linejoin="round"/>
<path d="M251.937 182.217C251.004 182.854 249.074 184.287 249.722 185.747C250.15 186.708 251.734 184.824 251.937 184.556C253.627 182.319 251.877 179.41 250.516 182.969C248.79 187.484 252.452 185.339 253.273 182.509C253.359 182.212 253.75 179.558 253.169 179.647C251.3 179.935 250.692 182.125 250.286 183.658C249.316 187.325 254.833 181.481 253.211 180.399C251.784 179.448 249.123 185.687 251.54 182.969C251.814 182.66 252.63 180.982 251.853 182.008C251.3 182.737 250.322 185.318 250.83 184.556C250.977 184.335 251.848 182.63 251.686 182.467C251.611 182.392 250.118 183.72 251.185 183.72" stroke="#FFEBC5" stroke-width="0.807046" stroke-linecap="round" stroke-linejoin="round"/>
<path d="M242.537 189.36C238.966 190.253 242.611 191.166 242.684 190.948C243.183 189.449 241.168 187.249 240.699 189.36C240.359 190.889 241.601 191.149 242.579 190.112C243.478 189.159 241.975 186.004 241.033 186.895C240.242 187.645 239.821 190.366 240.866 191.031C242.083 191.805 242.736 189.465 242.328 188.65C241.761 187.515 241.049 188.771 241.033 189.444C240.99 191.276 241.445 190.771 241.409 189.277C241.358 187.099 240.584 190.07 241.242 190.446C242.298 191.049 242.631 189.069 242.516 188.441C242.376 187.67 241.409 187.673 241.409 188.525C241.409 189.208 242.661 189.172 242.454 188.525C241.253 184.773 241.408 192.426 242.725 189.527C243.72 187.34 239.673 187.87 242.161 189.736" stroke="#FFEBC5" stroke-width="0.807046" stroke-linecap="round" stroke-linejoin="round"/>
<path d="M259.839 55.2106C255.142 52.2063 249.348 45.526 249.348 45.526C249.348 45.526 262.492 47.0002 268.717 51.9824C272.387 54.92 276.384 61.2634 276.384 61.2634C276.384 61.2634 265.635 58.9173 259.839 55.2106Z" fill="#F3E8E8"/>
<path d="M325.948 45.1994C322.289 49.3114 320.364 58.1405 320.364 58.1405C320.364 58.1405 328.447 53.2935 332.277 48.786C335.442 45.0614 338.699 38.0435 338.699 38.0435C338.699 38.0435 329.744 40.9336 325.948 45.1994Z" fill="#F3E8E8"/>
<path d="M320.004 89.1433C320.004 90.0347 320.727 90.7574 321.618 90.7574C322.51 90.7574 323.232 90.0347 323.232 89.1433C323.232 88.2519 322.51 87.9327 321.618 87.9327C320.727 87.9327 320.004 88.2519 320.004 89.1433Z" fill="#7B7373"/>
<path d="M291.428 91.5646C291.428 92.456 292.151 93.1787 293.042 93.1787C293.934 93.1787 294.656 92.456 294.656 91.5646C294.656 90.6731 293.934 90.354 293.042 90.354C292.151 90.354 291.428 90.6731 291.428 91.5646Z" fill="#7B7373"/>
<path d="M587.972 251.141C584.747 251.886 581.027 256.068 581.027 256.068L579.945 280.237C579.945 280.237 588.258 282.571 592.776 280.052C597.36 277.496 599.467 269.149 599.467 269.149C599.467 269.149 601.667 259.344 598.055 255.352C595.336 252.346 592.497 250.095 587.972 251.141Z" fill="#A15043"/>
<path d="M442.823 64.1251C446.456 56.8617 451.543 47.556 462.192 41.9313C472.363 36.5589 484.65 36.2746 496.088 37.4926C507.552 38.7134 511.818 40.6363 520.703 47.9842C532.488 57.7305 534.122 69.7747 540.879 83.4942C554.829 111.819 565.422 126.52 576.389 156.128C588.296 188.277 603.733 207.51 597.775 241.272C593.538 265.285 587.931 280.958 569.529 296.958C547.233 316.342 525.458 318.315 496.088 315.116C484.461 313.85 467.034 307.853 467.034 307.853C467.034 307.853 440.631 303.037 424.664 296.958C413.925 292.869 406.166 292.565 398.032 284.449C379.295 265.752 388.565 237.572 405.295 217.06C408.394 213.261 411.13 212.027 414.173 208.183C420.123 200.666 424.664 185.989 424.664 185.989C424.664 185.989 409.98 179.883 401.26 174.69C388.53 167.11 380.061 163.306 371.399 151.286C366.166 144.025 358.742 139.28 361.311 130.706C362.328 127.314 363.66 125.554 366.153 123.039C374.943 114.173 398.032 125.461 398.032 125.461C398.032 125.461 411.7 131.446 421.032 132.724C428.527 133.75 433.625 136.084 440.402 132.724C442.831 131.52 444.232 130.7 446.051 128.689C451.759 122.377 448.087 115.161 446.051 106.898C444.699 101.414 441.56 99.1111 440.402 93.5822C438.063 82.4206 437.721 74.3244 442.823 64.1251Z" fill="url(#paint17_linear)"/>
<path d="M434.753 280.816C434.753 280.816 436.626 247.935 440.806 246.245C444.986 244.555 445.428 245.44 445.428 245.44C445.428 245.44 446.711 243 449.541 243L454.796 243C454.796 243 456.16 240.34 458.434 239.754C462.434 238.724 468.137 246.245 468.137 246.245L474.606 252.728C489.565 233.726 523.255 263.57 524.739 266.183C524.739 266.183 531.072 274.542 532.983 280.816C536.854 293.527 538.801 304.357 527.677 311.622C520.566 316.265 505.567 315.307 505.567 315.307L480.266 311.622C480.266 311.622 472.878 320.846 466.52 322.286C459.116 323.963 454.085 321.256 447.923 316.258C437.916 308.143 434.753 280.816 434.753 280.816Z" fill="url(#paint18_linear)"/>
<path d="M362.522 255.829C362.522 255.829 366.011 225.442 368.575 223.943C371.139 222.445 373.35 222.887 373.35 222.887C373.35 222.887 374.48 220.95 377.311 220.95L382.565 220.95C382.565 220.95 383.929 218.497 386.203 217.956C390.203 217.006 395.906 223.943 395.906 223.943L400.453 226.427C414.269 214.461 428.7 226.427 433.542 239.453L419.822 282.999L412.559 288.519C412.559 288.519 400.648 292.75 394.289 294.078C386.885 295.625 378.656 290.101 375.692 288.519C361.455 280.917 362.522 255.829 362.522 255.829Z" fill="url(#paint19_linear)"/>
<path d="M474.612 239.691C469.445 241.413 469.949 241.867 466.709 244.134C466.594 244.214 466.437 244.135 466.439 243.995C466.455 242.91 466.625 239.417 468.14 238.103C470.292 236.235 479.919 237.922 474.612 239.691Z" fill="url(#paint20_linear)"/>
<path d="M475.055 247.651C473.102 251.824 471.186 249.974 469.77 255.232C469.727 255.392 469.512 255.416 469.445 255.265C468.89 254.011 467.439 250.399 468.144 248.331C469.174 245.312 477.064 243.357 475.055 247.651Z" fill="url(#paint21_linear)"/>
<path d="M483.307 249.453C482.877 251.176 480.241 254.423 478.248 258.558C478.183 258.692 477.994 258.693 477.933 258.557C477.421 257.418 475.858 253.646 476.584 251.516C477.614 248.496 483.749 247.684 483.307 249.453Z" fill="url(#paint22_linear)"/>
<path d="M493.192 249.866L486.673 258.486C486.575 258.615 486.374 258.559 486.364 258.398C486.279 257.068 486.135 253.148 487.223 251.368C488.8 248.788 495.845 246.358 493.192 249.866Z" fill="url(#paint23_linear)"/>
<path d="M480.155 211.185C483.67 195.583 482.388 182.792 492.727 172.706C500.624 165.001 517.539 163.795 517.539 163.795C517.539 163.795 534.897 179.29 534.412 193.363C534.219 198.964 532.84 201.947 531.104 207.135C525.822 222.915 519.556 230.927 507.945 240.348C503.354 244.074 498.049 248.093 498.049 248.093C498.049 248.093 489.647 255.092 484.783 251.63C484.477 251.412 484.341 250.746 484.341 250.746C484.341 250.746 477.92 254.723 475.497 249.861C472.402 252.082 468.422 248.093 468.864 245.44C468.864 243.229 469.306 243.671 468.864 241.46C468.422 239.249 469.55 236.43 475.497 230.847C475.497 230.847 478.362 219.141 480.155 211.185Z" fill="url(#paint24_linear)"/>
<path d="M447.778 77.0931C446.142 77.8111 445.104 79.2425 445.104 81.1044C445.104 82.0475 445.844 83.494 446.919 83.6135C449.082 83.8538 451.235 83.4709 452.169 81.2529C452.719 79.9472 451.334 77.4937 449.99 77.1096C448.995 76.8254 446.582 77.1977 446.309 78.4302C446.237 78.7528 445.598 79.6857 446.292 79.7673C446.847 79.8325 447.844 80.5263 448.141 79.7012C448.391 79.007 448.54 78.4757 447.926 77.9845C447.848 77.9214 449.347 77.7956 449.544 79.173C449.788 80.879 449.005 78.3753 449.329 78.0505C449.93 77.4495 450.401 81.3673 449.858 80.8237C449.682 80.6483 449.426 79.3736 449.412 79.3876C448.976 79.824 448.946 81.1281 448.669 81.7152C448.469 82.1385 448.433 82.5067 448.223 81.9628C448.054 81.5212 448.323 80.206 448.009 80.5596C447.933 80.6445 447.458 83.0739 447.183 82.1113C446.427 79.4653 446.268 82.7828 447.332 83.0192C448.239 83.2209 447.649 80.9925 446.952 80.7247C445.553 80.1865 446.752 83.4853 447.117 82.1443C447.234 81.7166 447.014 79.445 446.16 80.5431C444.813 82.2755 448.249 83.0522 449.346 82.2929C450.076 81.7878 448.792 78.7846 448.223 81.4015C447.638 84.0939 449.987 82.4183 450.138 80.5266C450.264 78.9567 449.306 78.2703 449.263 80.1304C449.25 80.7365 449.082 81.9133 449.874 82.1113C450.876 82.3618 451.046 81.4313 451.046 80.6587C451.046 79.7947 450.768 79.3244 450.287 78.6448C450.011 78.2555 450.155 79.904 450.155 80.18C450.155 80.4167 450.315 81.7558 450.914 81.1209C451.406 80.6 450.842 79.4064 450.617 78.8924C449.848 77.1345 451.121 79.4375 451.277 80.0644C451.362 80.4025 451.221 81.2226 451.063 80.5101C450.941 79.9633 451.343 80.1197 451.343 80.6587C451.343 82.0884 449.331 83.7005 450.155 81.6161C450.528 80.6717 451.046 78.2429 451.046 80.3615" stroke="black" stroke-width="0.807046" stroke-linecap="round" stroke-linejoin="round"/>
<path d="M449.791 80.0665C448.363 81.5838 449.791 81.99 449.791 80.3644C449.791 79.842 449.743 79.3195 449.259 79.0027C449.047 78.8643 448.517 79.2406 448.684 79.4495C449.875 80.9378 449.51 78.8738 449.025 78.0772C448.159 76.6547 448.267 79.4465 449.206 79.2899C449.487 79.243 449.63 78.8255 449.557 78.5772C449.465 78.2688 448.597 77.8538 448.918 77.8538C449.049 77.8538 449.681 78.2172 449.408 77.9601C449.246 77.808 448.573 77.5772 448.876 77.5772C449.148 77.5772 449.946 77.7474 449.674 77.7474C449.55 77.7474 448.803 77.445 449.046 77.3963C449.953 77.215 448.942 77.3857 448.535 77.3857C447.849 77.3857 448.817 77.4993 449.025 77.5346C449.599 77.6322 450.456 77.6516 450.706 78.3006C451.015 79.1057 449.714 78.4305 449.823 77.7793C449.918 77.2064 450.828 78.0526 450.94 78.1942C451.116 78.4172 451.385 79.6225 451.131 79.258C450.969 79.0242 450.786 78.167 451.323 78.5772C451.997 79.0928 452.117 80.0014 452.089 80.7899C452.055 81.7226 450.965 80.0327 451.791 80.2686C452.374 80.4351 451.144 82.499 451.525 80.4069C451.537 80.3386 451.742 80.9003 451.578 81.2154C451.173 81.9935 450.287 82.1576 449.493 82.1729C448.585 82.1904 449.3 82.1729 449.748 82.1729C449.904 82.1729 449.041 82.4523 448.833 82.5133C447.56 82.8878 450.463 82.871 450.067 82.758C449.626 82.6319 448.99 82.7347 448.535 82.7474C447.94 82.7639 448.561 82.9511 448.557 82.9814C448.512 83.3429 446.235 83.6739 446.142 82.9282C446.124 82.7848 445.787 81.7122 446.259 82.0984C446.807 82.5469 446.583 82.4765 446.153 82.0771C445.697 81.6538 445.835 81.0044 445.429 80.5984C445.337 80.5066 447.167 81.0336 447.684 80.7899C447.988 80.6468 447.308 80.6649 447.429 80.6303C447.952 80.4809 448.428 80.2592 448.727 79.7899C448.903 79.5139 448.819 77.7752 449.301 78.258C450.655 79.6115 446.75 80.4495 446.078 80.4495C445.396 80.4495 445.585 79.5079 445.918 80.258C446.03 80.5089 446.515 81.0638 447.45 81.024C448.177 80.993 448.956 80.4157 449.397 79.8644C449.934 79.1933 449.685 78.9798 449.333 78.3538C449 77.7612 450.061 78.5675 450.174 78.9069C450.493 79.8637 448.831 78.5069 448.493 78.1942C448.247 77.9663 446.942 77.8883 447.876 77.5772" stroke="black" stroke-width="0.807046" stroke-linecap="round" stroke-linejoin="round"/>
<path d="M461.569 80.1336C457.312 80.476 454.65 80.7112 451.005 82.806C447.071 85.0675 444.706 87.0814 443.286 91.205C440.901 98.1341 443.6 104.679 449.38 109.53C455.609 114.757 463.759 115.7 471.726 113.348C480.475 110.765 486.643 104.379 485.946 95.7863C485.464 89.8454 482.662 86.1487 477.414 82.806C472.21 79.4916 467.833 79.6297 461.569 80.1336Z" fill="#EEA98C"/>
<path d="M466.616 102.617L470.453 99.4483L471.472 98.0208C471.472 98.0208 473.495 100.112 474.183 101.525C474.812 102.817 474.466 103.884 473.742 105.111C472.482 107.244 470.067 107.172 467.456 107.169C464.903 107.166 461.326 103.584 461.326 103.584L466.616 102.617Z" fill="#DF3741" stroke="#CD2323" stroke-width="0.807046"/>
<path d="M448.76 98.2523C451.162 101.835 453.973 103.714 458.331 103.966C461.831 104.169 465.637 103.34 468.509 101.27C470.007 100.19 470.992 98.6579 472.027 97.163C472.553 96.4032 471.577 96.7549 471.259 96.9666" stroke="#964747" stroke-width="1.61409" stroke-linecap="round" stroke-linejoin="round"/>
<path d="M459.688 104.038C458.369 101.769 457.486 99.5573 457.116 96.9666" stroke="#964747" stroke-width="1.61409" stroke-linecap="round" stroke-linejoin="round"/>
<path d="M454.303 97.187C450.203 95.7448 447.868 92.4867 447.819 88.1404C447.735 80.5613 467.143 80.3452 467.227 87.9243C467.296 94.1333 460.161 99.2473 454.303 97.187Z" fill="#260C07"/>
<path d="M475.786 71.1712C475.843 69.575 479.37 68.1433 483.664 67.9734C487.957 67.8036 489.836 69.0214 489.778 70.6175C489.721 72.2137 487.783 72.6205 483.49 72.7904C479.197 72.9602 475.728 72.7674 475.786 71.1712Z" fill="#29150C"/>
<path d="M444.322 71.3134C444.077 69.952 446.311 68.8561 449.312 68.8656C452.313 68.8751 453.858 69.983 454.103 71.3444C454.348 72.7058 453.052 72.9835 450.051 72.974C447.05 72.9645 444.567 72.6748 444.322 71.3134Z" fill="#29150C"/>
<path d="M367.469 137.766C366.907 133.467 368.629 129.546 372.185 128.035C374.085 127.227 375.434 127.361 377.373 128.035C380.741 129.205 383.528 131.57 383.505 135.604C383.488 138.537 382.14 140.174 380.203 142.092C377.733 144.537 375.268 146.019 372.185 144.795C369.301 143.649 367.916 141.191 367.469 137.766Z" fill="#DE997C"/>
<path d="M368.544 253.849C367.616 243.983 370.098 234.956 375.362 231.436C378.174 229.555 380.186 229.844 383.088 231.364C388.129 234.005 392.329 239.398 392.381 248.662C392.418 255.398 390.445 259.177 387.602 263.607C383.975 269.257 380.334 272.694 375.718 269.925C371.398 267.334 369.283 261.708 368.544 253.849Z" fill="#DE997C"/>
<path d="M442.793 277.225C441.865 267.359 444.347 258.331 449.611 254.811C452.423 252.931 454.435 253.219 457.337 254.74C462.378 257.381 466.578 262.774 466.63 272.038C466.667 278.774 464.694 282.552 461.851 286.982C458.224 292.633 454.583 296.07 449.967 293.301C445.647 290.71 443.532 285.084 442.793 277.225Z" fill="#DE997C"/>
<path d="M372.725 124.629C370.774 123.654 368.486 118.971 364.506 117.645C364.506 117.645 369.129 116.404 371.703 117.127C375.119 118.087 374.676 125.604 372.725 124.629Z" fill="url(#paint25_linear)"/>
<path d="M386.173 129.142C385.289 131.353 379.098 124.72 375.561 123.153C375.561 123.153 381.322 121.816 383.236 123.153C384.847 124.278 387.058 126.931 386.173 129.142Z" fill="url(#paint26_linear)"/>
<path d="M366.044 128.412C362.574 127.88 359.64 124.705 355.538 122.329C355.538 122.329 360.571 120.392 363.017 121.472C365.936 122.761 369.513 128.944 366.044 128.412Z" fill="url(#paint27_linear)"/>
<path d="M364.032 134.864C360.526 134.448 360.968 135.775 353.893 131.795C353.893 131.795 357.899 129.077 360.036 129.531C362.587 130.072 367.538 135.28 364.032 134.864Z" fill="url(#paint28_linear)"/>
<path d="M368.894 227.994C365.39 225.099 366.485 224.541 364.433 221.198C364.433 221.198 369.403 221.689 370.748 223.411C372.353 225.466 372.397 230.89 368.894 227.994Z" fill="url(#paint29_linear)"/>
<path d="M376.466 226.152C374.563 222.722 373.371 221.73 373.813 217.308C373.813 217.308 377.35 217.751 378.677 219.962C380.019 222.198 378.369 229.583 376.466 226.152Z" fill="url(#paint30_linear)"/>
<path d="M386.384 224.639C384.667 220.619 385.288 215.37 385.288 214.486C385.288 214.486 388.257 214.839 389.531 218.408C390.407 220.864 388.101 228.658 386.384 224.639Z" fill="url(#paint31_linear)"/>
<path d="M440.901 249.597C437.397 246.702 438.492 246.144 436.44 242.801C436.44 242.801 441.409 243.292 442.755 245.014C444.36 247.069 444.404 252.493 440.901 249.597Z" fill="url(#paint32_linear)"/>
<path d="M448.473 247.755C446.57 244.325 445.377 243.334 445.82 238.912C445.82 238.912 449.357 239.354 450.684 241.565C452.025 243.801 450.375 251.186 448.473 247.755Z" fill="url(#paint33_linear)"/>
<path d="M458.392 246.242C456.674 242.222 457.296 236.973 457.296 236.089C457.296 236.089 460.265 236.442 461.539 240.011C462.415 242.467 460.109 250.261 458.392 246.242Z" fill="url(#paint34_linear)"/>
<path d="M483.733 77.3903C481.167 77.8713 480.34 80.5384 481.125 83.0358C481.746 85.014 486.002 84.4652 487.001 83.3C488.606 81.4275 488.484 79.7038 487.133 77.9846C486.369 77.0121 484.453 76.7119 483.436 77.3903" stroke="black" stroke-width="0.807046" stroke-linecap="round" stroke-linejoin="round"/>
<path d="M484.028 77.3904C482.127 78.205 480.734 79.4954 481.073 81.6988C481.371 83.6351 484.91 83.2549 486.092 82.5902C488.764 81.0869 485.852 78.3891 484.028 78.2818C482.893 78.215 485.261 77.9847 485.613 77.9847C486.086 77.9847 484.648 78.0982 484.193 77.9681C483.744 77.8398 485.425 77.7348 485.762 77.8526C486.886 78.2462 485.729 78.0519 485.217 77.8526C484.228 77.468 484.217 77.5979 484.755 78.2818C485.923 79.769 483.849 80.3622 482.691 80.8074C482.164 81.0101 480.17 80.7163 481.948 81.1871C484.361 81.8256 482.245 80.0996 482.245 82.1445C482.245 83.2678 484.392 80.989 483.12 80.989C482.548 80.989 482.244 82.0382 482.873 82.128C483.472 82.2137 484.899 82.0419 485.184 81.4017C485.689 80.2641 481.179 81.6535 482.311 82.6728C483.396 83.6488 484.99 81.5108 483.962 81.5503C481.694 81.6375 483.957 84.0855 485.514 82.4417C486.77 81.1159 483.54 81.0918 482.906 82.8048C482.22 84.6561 488.103 83.3853 486.521 81.4512C485.431 80.1195 482.663 82.8063 483.467 83.0359C484.823 83.4235 488.779 82.1617 487.231 80.1967C485.933 78.5494 483.275 81.8474 484.986 81.8474C487.44 81.8474 486.985 78.8827 486.257 79.2062C484.99 79.7692 486.405 82.43 486.405 79.4703C486.405 77.8957 485.894 82.5464 486.092 79.883C486.192 78.5262 486.138 78.0109 486.851 79.4373C487.059 79.8538 487.578 80.3756 487.297 79.6024C486.808 78.2595 485.665 82.7955 484.623 82.2436C483.98 81.9036 484.571 80.3272 485.085 81.022C485.58 81.6915 484.604 82.6725 483.962 82.7388C483.498 82.7868 482.682 82.8912 482.411 82.4252C482.233 82.1204 482.359 81.4117 481.816 81.5668C481.287 81.718 481.667 82.4337 481.668 82.4417C481.777 83.2033 482.697 83.4836 483.269 83.0029C484.428 82.0295 484.373 80.6118 484.325 79.2392C484.247 76.9764 483.11 80.3362 483.962 80.2297C483.97 80.2286 484.306 79.0226 484.325 78.8761C484.381 78.4609 484.669 79.8255 484.854 79.2722C485.547 77.1915 485.022 80.4537 485.514 79.4703" stroke="black" stroke-width="0.807046" stroke-linecap="round" stroke-linejoin="round"/>
<path d="M485.792 78.3431C485.932 78.4288 486.993 79.2658 486.749 78.875C486.667 78.7439 486.452 78.1839 486.855 78.3857C486.954 78.4347 486.206 79.1247 486.185 79.5133C486.15 80.1909 486.358 81.7899 485.217 81.7899C484.34 81.7899 485.579 80.093 485.579 79.7793C485.579 79.3757 483.951 78.694 483.643 78.3857C483.436 78.1786 482.575 78.1516 483.026 78.1516C484.211 78.1516 484.612 79.737 483.983 80.5452C483.612 81.023 484.223 79.867 484.249 79.6835C484.316 79.2131 484.077 79.4836 483.877 79.6835C483.706 79.8539 483.329 80.4492 483.387 80.2154C483.451 79.9611 483.945 79.9208 483.983 79.6197C484.019 79.3328 483.556 80.0586 483.504 80.3431C483.431 80.7489 482.728 80.8601 482.728 81.2154C482.728 81.8427 483.494 82.308 483.494 83.0346C483.494 83.7077 482.256 83.0532 482.238 83.1729C482.16 83.7206 484.26 84.1784 484.26 83.1303" stroke="black" stroke-width="0.807046" stroke-linecap="round" stroke-linejoin="round"/>
<path d="M481.58 78.5348C479.839 79.2566 480.019 80.7527 480.771 82.1731C480.95 82.5113 481.285 82.8416 481.676 82.9284C482.665 83.1482 481.108 82.7591 481.048 82.705C480.242 81.98 480.239 80.3185 480.239 79.3007C480.239 78.549 481.438 77.7683 482.069 77.588C483.04 77.3106 483.56 77.5387 484.548 77.7582C484.632 77.7768 485.516 78.2249 485.516 78.1518C485.516 77.978 484.571 77.7156 484.452 77.6731C483.782 77.4337 481.443 77.4317 483.314 77.1199C484.29 76.9571 485.601 77.4442 485.601 78.5348" stroke="black" stroke-width="0.807046" stroke-linecap="round" stroke-linejoin="round"/>
<path d="M449.988 129.69C454.449 125.841 463.806 134.451 463.806 134.451V144.502C459.2 146.266 454.437 152.506 449.988 148.735C446.993 146.196 447.764 141.681 446.652 138.683C445.541 135.686 447.287 132.021 449.988 129.69Z" fill="#692824" fill-opacity="0.5"/>
<path d="M482.505 130.643C478.013 126.928 466.848 134.989 466.848 134.989V144.691C471.486 146.393 476.282 152.416 480.761 148.776C483.777 146.326 484.12 146.903 484.12 139.074C484.12 131.245 485.225 132.892 482.505 130.643Z" fill="#692824" fill-opacity="0.5"/>
<path d="M468.858 140.591C468.345 145.578 466.229 145.198 463.415 144.733C460.602 144.268 460 144.198 460.512 139.21C461.025 134.222 462.053 133.682 464.867 134.147C467.68 134.612 469.37 135.603 468.858 140.591Z" fill="#803831"/>
<path d="M458.947 140.247C457.422 140.833 455.344 141.21 454.001 139.651C452.84 138.303 455.453 138.817 455.849 138.817C456.113 138.817 458.592 139.402 458.592 139.889C458.592 140.283 456.433 139.832 456.259 139.77" stroke="#A20000" stroke-width="0.807046" stroke-linecap="round" stroke-linejoin="round"/>
<path d="M455.923 139.77H455.755C455.43 139.77 454.278 139.69 454.318 139.717C454.721 139.986 455.49 139.77 455.923 139.77Z" fill="#692824" fill-opacity="0.5"/>
<path d="M454.916 139.77C455.089 139.77 456.905 139.77 455.923 139.77C455.49 139.77 454.721 139.986 454.318 139.717C454.278 139.69 455.43 139.77 455.755 139.77" stroke="#A20000" stroke-width="0.807046" stroke-linecap="round" stroke-linejoin="round"/>
<path d="M472.553 140.088C474.532 140.675 477.231 141.051 478.973 139.492C480.48 138.144 477.089 138.658 476.575 138.658C476.231 138.658 473.014 139.244 473.014 139.73C473.014 140.124 475.816 139.673 476.042 139.611" stroke="#A20000" stroke-width="0.807046" stroke-linecap="round" stroke-linejoin="round"/>
<path d="M476.479 139.611H476.697C477.119 139.611 478.615 139.531 478.562 139.558C478.039 139.827 477.041 139.611 476.479 139.611Z" fill="#692824" fill-opacity="0.5"/>
<path d="M477.787 139.611C477.562 139.611 475.204 139.611 476.479 139.611C477.041 139.611 478.039 139.827 478.562 139.558C478.615 139.531 477.119 139.611 476.697 139.611" stroke="#A20000" stroke-width="0.807046" stroke-linecap="round" stroke-linejoin="round"/>
<path d="M448.74 128.307C453.474 125.087 463.402 132.289 463.402 132.289V140.697C458.515 142.172 453.461 147.392 448.74 144.237C445.562 142.114 446.38 138.337 445.201 135.829C444.021 133.322 445.873 130.256 448.74 128.307Z" fill="url(#paint35_linear)"/>
<path d="M483.243 129.104C478.477 125.996 466.63 132.739 466.63 132.739V140.855C471.551 142.279 476.64 147.317 481.393 144.272C484.593 142.222 483.9 137.986 484.957 136.157C486.014 134.327 486.129 130.985 483.243 129.104Z" fill="url(#paint36_linear)"/>
<path d="M468.763 137.425C468.219 141.597 465.973 141.279 462.987 140.89C460.002 140.501 459.364 140.442 459.907 136.27C460.451 132.098 461.542 131.646 464.528 132.035C467.513 132.424 469.306 133.253 468.763 137.425Z" fill="url(#paint37_radial)"/>
<path d="M458.246 137.137C456.629 137.628 454.423 137.943 452.999 136.639C451.767 135.511 454.539 135.941 454.959 135.941C455.24 135.941 457.87 136.431 457.87 136.838C457.87 137.167 455.579 136.79 455.395 136.739" stroke="#CA5048" stroke-width="0.807046" stroke-linecap="round" stroke-linejoin="round"/>
<path d="M453.97 136.739C454.154 136.739 456.081 136.739 455.039 136.739C454.58 136.739 453.763 136.919 453.336 136.694C453.293 136.672 454.516 136.739 454.861 136.739" stroke="#CA5048" stroke-width="0.807046" stroke-linecap="round" stroke-linejoin="round"/>
<path d="M472.683 137.004C474.783 137.495 477.646 137.81 479.495 136.506C481.094 135.378 477.496 135.808 476.95 135.808C476.585 135.808 473.171 136.298 473.171 136.705C473.171 137.034 476.145 136.657 476.384 136.606" stroke="#CA5048" stroke-width="0.807046" stroke-linecap="round" stroke-linejoin="round"/>
<path d="M478.237 136.606C477.998 136.606 475.496 136.606 476.848 136.606C477.445 136.606 478.504 136.786 479.059 136.561C479.115 136.539 477.528 136.606 477.08 136.606" stroke="#CA5048" stroke-width="0.807046" stroke-linecap="round" stroke-linejoin="round"/>
<path d="M494.231 35.6421C493.481 38.8662 495.6 44.0458 495.6 44.0458L516.829 55.6509C516.829 55.6509 523.428 46.6444 522.664 41.5276C521.485 33.6273 516.621 30.9741 516.621 30.9741C516.621 30.9741 511.899 28.3227 506.523 28.6149C503.798 28.7631 495.282 31.1177 494.231 35.6421Z" fill="#D1775B"/>
<path d="M436.808 53.6736C438.678 58.6377 447.824 61.2739 449.179 61.3438L463.292 47.5599C463.292 47.5599 462.235 40.0379 458.231 37.7236C452.934 34.6613 446.506 36.165 441.497 40.1514C436.748 43.9311 434.908 48.6309 436.808 53.6736Z" fill="#D1775B"/>
<path d="M64.8074 251.856C99.562 256.557 106.05 254.694 106.05 254.694L123.14 292.278C123.14 292.278 94.8005 303.678 75.4008 305.807C58.4925 307.662 47.7922 309.491 31.8617 304.284C19.6298 300.286 10.4262 297.905 4.21501 287.755C-9.26344 265.728 30.0529 247.155 64.8074 251.856Z" fill="#854C44"/>
<path d="M61.3219 247.504C94.0899 252.325 100.201 250.457 100.201 250.457L116.389 288.442C116.389 288.442 89.7022 299.893 71.4215 302.001C55.4885 303.838 45.4068 305.662 30.3804 300.371C18.8427 296.308 10.1627 293.884 4.28678 283.622C-8.46424 261.353 28.5539 242.683 61.3219 247.504Z" fill="url(#paint38_linear)"/>
<g style="mix-blend-mode:multiply">
<path d="M9.92383 261.082C19.1524 270.47 27.2149 280.53 33.6564 291.904C35.8679 295.809 39.4124 299.899 40.986 304.02" stroke="url(#paint39_linear)" stroke-width="1.38955" stroke-linecap="round" stroke-linejoin="round"/>
<path d="M3.14062 275.195C8.88468 280.203 13.8977 285.575 17.8934 291.655C19.2652 293.743 21.47 295.926 22.4423 298.131" stroke="url(#paint40_linear)" stroke-width="1.38955" stroke-linecap="round" stroke-linejoin="round"/>
<path d="M23.6768 252.913C34.9445 264.257 44.7877 276.414 52.6506 290.16C55.3501 294.879 59.6776 299.822 61.5979 304.803" stroke="url(#paint41_linear)" stroke-width="1.38955" stroke-linecap="round" stroke-linejoin="round"/>
<path d="M42.127 248.79C53.1351 260.337 62.7544 272.709 70.4437 286.693C73.0836 291.495 77.3121 296.525 79.1921 301.591" stroke="url(#paint42_linear)" stroke-width="1.38955" stroke-linecap="round" stroke-linejoin="round"/>
<path d="M60.7188 249.086C71.4555 260.128 79.8787 270.782 87.3748 284.159C89.9484 288.751 94.0723 293.561 95.9041 298.408" stroke="url(#paint43_linear)" stroke-width="1.38955" stroke-linecap="round" stroke-linejoin="round"/>
<path d="M82.5732 251.959C91.0917 261.031 98.5363 270.749 104.489 281.734C106.532 285.505 109.805 289.456 111.261 293.435" stroke="url(#paint44_linear)" stroke-width="1.38955" stroke-linecap="round" stroke-linejoin="round"/>
<path d="M100.361 257.989C91.5659 268.024 84.001 278.66 78.1711 290.514C76.1696 294.584 72.8226 298.925 71.4845 303.172" stroke="url(#paint45_linear)" stroke-width="1.38955" stroke-linecap="round" stroke-linejoin="round"/>
<path d="M105.78 274.771C99.7903 280.566 94.6319 286.702 90.6446 293.532C89.2756 295.877 86.9945 298.382 86.0744 300.826" stroke="url(#paint46_linear)" stroke-width="1.38955" stroke-linecap="round" stroke-linejoin="round"/>
<path d="M86.5098 252.776C77.1663 264.074 69.1342 276.052 62.9515 289.407C60.8288 293.992 57.2743 298.881 55.8583 303.666" stroke="url(#paint47_linear)" stroke-width="1.38955" stroke-linecap="round" stroke-linejoin="round"/>
<path d="M69.7861 249.538C60.7561 261.449 52.9996 274.082 47.0404 288.175C44.9944 293.013 41.5608 298.168 40.2007 303.22" stroke="url(#paint48_linear)" stroke-width="1.38955" stroke-linecap="round" stroke-linejoin="round"/>
<path d="M55.3867 248.37C45.8915 259.396 37.726 271.084 31.4354 284.112C29.2757 288.585 25.6627 293.356 24.2198 298.023" stroke="url(#paint49_linear)" stroke-width="1.38955" stroke-linecap="round" stroke-linejoin="round"/>
<path d="M36.7061 249.539C28.795 259.196 21.9948 269.435 16.7614 280.852C14.9647 284.772 11.9552 288.951 10.7571 293.042" stroke="url(#paint50_linear)" stroke-width="1.38955" stroke-linecap="round" stroke-linejoin="round"/>
</g>
<path d="M256.167 252.519C251.697 239.771 233.918 215.42 228.332 213.258L225.391 241.376L247.766 256.908L248.65 258.674L250.419 256.908L251.745 258.674L253.514 256.056L255.283 256.056L256.167 252.519Z" fill="url(#paint51_linear)"/>
<path d="M199.351 146.602C195.668 153.251 195.055 153.657 197.886 156.451C200.372 158.904 207.075 156.802 207.075 156.802C207.075 156.802 215.204 153.134 215.384 148.739C215.575 144.062 211.941 140.948 209.589 140.658C207.238 140.367 203.034 139.953 199.351 146.602Z" fill="#DE997C"/>
<path d="M152.042 148.985C152.042 148.985 144.811 156.756 141.455 161.89C130.935 177.985 117.695 203.288 117.695 203.288C117.695 203.288 96.3927 232.14 98.5805 252.499C101.59 280.502 117.13 296.687 145.921 302.959C159.134 305.837 167.112 302.888 180.634 301.86C196.116 300.682 202.483 303.479 215.161 294.9C231.041 284.154 237.015 269.911 238.415 251.424C239.559 236.323 230.618 213.54 230.618 213.54C230.618 213.54 211.386 161.771 210.441 159.706C209.496 157.641 207.123 152.316 203.505 149.031C200.373 146.188 195.397 143.003 195.397 143.003L184.772 140.825C171.784 140.265 168.418 140.33 159.806 144.13L152.042 148.985Z" fill="url(#paint52_radial)"/>
<ellipse cx="170.608" cy="111.653" rx="8.07045" ry="6.85988" transform="rotate(-1.81344 170.608 111.653)" fill="#9AE1FF"/>
<path d="M164.173 109.137L163.734 108.009L164.942 107.971L164.906 106.83L166.92 106.766L170.923 105.878L171.705 105.092L171.729 105.853C171.981 105.337 172.571 104.456 172.913 105.054C173.254 105.652 173.103 106.824 172.985 107.335L177.085 109.489L177.89 109.463L177.121 110.63C177.381 110.368 177.988 109.993 178.329 110.591C178.671 111.189 178.243 112.116 177.987 112.505L178.413 113.253L176.4 113.316L177.015 115.58L167.257 117.412L165.99 117.452L166.357 116.544L165.219 116.715L165.598 115.942L163.89 112.951L163.454 112.38L163.854 111.811" stroke="#9AE1FF" stroke-width="0.694776"/>
<path d="M151.515 133.43C150.502 137.007 149.972 141.848 149.972 141.848L148.989 148.574L170.25 143.801L180.248 142.145L188.488 143.223L200.571 144.849C200.571 144.849 201.272 137.07 198.987 131.927C197.026 127.512 192.42 123.363 187.77 120.566C182.955 117.669 176.875 117.153 176.875 117.153C176.875 117.153 171.311 115.597 165.93 118.746C160.806 121.745 152.92 128.469 151.515 133.43Z" fill="url(#paint53_linear)"/>
<path d="M168.846 136.251C162.632 136.895 152.809 141.688 152.809 141.688L159.621 148.198C159.621 148.198 163.563 146.709 167.061 145.804C170.559 144.899 178.215 143.464 185.373 143.929C191.818 144.348 200.134 146.246 200.134 146.246C200.134 146.246 204.292 141.996 202.299 138.91C200.933 136.795 189.705 135.711 188.45 135.631C181.455 135.183 175.818 135.529 168.846 136.251Z" fill="url(#paint54_linear)"/>
<path d="M145.568 154.024C148.427 158.479 152.268 157.397 152.268 157.397L160.341 151.8C160.341 151.8 160.628 147.321 157.786 144.554C154.237 141.099 149.566 138.128 145.355 140.859C140.877 143.764 142.754 149.639 145.568 154.024Z" fill="url(#paint55_linear)"/>
<path d="M145.979 150.811C147.266 153.35 151.44 154.93 151.44 154.93L155.467 152.087C155.467 152.087 155.413 148.699 153.988 147.028C152.208 144.941 149.727 143.003 147.014 144.033C144.128 145.129 144.713 148.312 145.979 150.811Z" fill="#EAC6BE"/>
<path d="M199.504 299.107L217.485 300.668L220.554 300.934L224.032 288.237L216.577 287.59L199.504 299.107Z" fill="url(#paint56_linear)"/>
<path d="M144.906 301.443L162.603 304.814L165.624 305.39L170.463 293.311L163.125 291.913L144.906 301.443Z" fill="url(#paint57_linear)"/>
<path d="M160.99 305.023L170.316 307.239C170.316 307.239 180.082 309.44 183.578 308.493C184.777 308.168 186.316 297.526 186.316 297.526C186.316 297.526 188.743 285.998 184.131 284.205C182.064 283.402 180.52 283.682 178.407 284.387C174.6 285.656 172.041 292.12 172.041 292.12L163.636 291.131L160.99 305.023Z" fill="url(#paint58_linear)"/>
<path d="M215.989 300.921L223.073 301.952C223.073 301.952 232.84 304.154 236.336 303.206C237.535 302.881 239.074 292.24 239.074 292.24C239.074 292.24 241.5 280.711 236.889 278.919C234.822 278.115 233.277 278.396 231.165 279.1C227.358 280.369 224.799 286.833 224.799 286.833L218.634 287.029L215.989 300.921Z" fill="url(#paint59_linear)"/>
<path d="M194.611 171.253C190.296 171.408 184.309 171.609 180.84 171.684C179.717 171.708 179.016 172.997 179.706 173.884C180.444 174.835 181.37 175.89 182.304 176.59C183.984 177.849 187.001 178.949 188.22 179.363C188.561 179.479 188.93 179.449 189.248 179.278C190.263 178.733 192.585 177.415 193.802 176.154C194.596 175.332 195.314 174.127 195.842 173.108C196.303 172.217 195.614 171.217 194.611 171.253Z" fill="url(#paint60_linear)"/>
<path d="M189.123 179.961L181.026 181.774L182.337 188.7C185.209 189.577 191.975 189.83 193.748 188.791L194.713 181.997L189.123 179.961Z" fill="#FFFAFA"/>
<path d="M175.134 178.124C176.356 179.65 182.975 184.038 187.637 179.399C187.896 179.141 188.305 179.097 188.605 179.305C194.459 183.361 197.438 179.805 198.968 178.58" stroke="#964747" stroke-width="1.38955" stroke-linecap="round" stroke-linejoin="round"/>
<path d="M165.946 168.484C168.346 167.048 171.059 166.14 173.512 168.089C173.68 168.223 175.564 169.993 174.594 170.066C173.71 170.132 166.533 169.227 166.537 169.204C166.747 167.857 170.237 168.348 170.983 168.324C171.022 168.323 174.417 168.165 174.037 169.018C173.546 170.117 169.822 169.595 169.04 169.554C168.691 169.536 164.836 169.467 166.326 168.54C168.022 167.486 171.058 166.773 172.822 167.956C174.412 169.023 170.074 168.944 169.69 168.915C163.507 168.443 172.461 166.058 172.983 168.415C173.142 169.135 166.233 167.61 172.313 167.99C173.746 168.079 170.99 168.453 170.578 168.406C169.618 168.295 172.254 168.284 172.759 168.268" stroke="black" stroke-width="0.694776" stroke-linecap="round" stroke-linejoin="round"/>
<path d="M171.485 167.811C172.152 168.014 173.413 168.166 173.83 168.831C174.157 169.354 173.036 168.556 172.94 168.489C172.469 168.159 173.891 168.844 173.461 168.858" stroke="black" stroke-width="0.694776" stroke-linecap="round" stroke-linejoin="round"/>
<path d="M168.359 168.163C169.855 168.116 170.887 168.242 172.289 168.521C172.671 168.597 173.261 169.022 173.606 168.953C175.04 168.665 171.696 167.736 171.755 167.734C172.834 167.7 173.604 167.634 174.331 168.296C174.652 168.588 175.229 169.094 174.467 169.247C173.657 169.409 172.946 168.661 171.999 168.691" stroke="black" stroke-width="0.694776" stroke-linecap="round" stroke-linejoin="round"/>
<path d="M167.008 168.267C166.852 168.323 164.418 169.059 165.131 167.842C165.933 166.473 168.304 166.442 169.672 166.778C170.222 166.914 171.805 167.461 170.445 167.504C169.295 167.541 167.401 167.208 166.519 168.113C165.681 168.972 166.378 167.445 167.416 167.382C168.126 167.339 171.072 166.833 171.537 167.591C171.816 168.046 168.982 167.768 168.747 167.776C168.215 167.793 167.683 167.809 167.151 167.826C166.479 167.848 168.497 167.784 169.17 167.762" stroke="black" stroke-width="0.694776" stroke-linecap="round" stroke-linejoin="round"/>
<path d="M172.709 169.407C171.939 168.849 172.816 169.033 173.348 169.016C173.654 169.006 172.429 168.812 172.21 168.819C171.604 168.838 172.274 169.263 172.568 169.281C173.243 169.321 173.242 168.892 172.612 168.73C172.354 168.664 170.458 168.171 170.735 168.845C170.912 169.274 171.925 169.307 172.115 168.863C172.432 168.124 167.886 167.306 167.759 168.452C167.687 169.098 169.464 168.633 169.668 168.508C170.677 167.888 168.725 167.467 168.4 167.464C167.497 167.456 166.755 167.846 166.211 168.556C165.882 168.986 167.875 168.626 168.096 168.489C168.99 167.937 168.839 167.649 167.867 167.529C167.147 167.44 166.279 167.399 165.938 168.139C165.358 169.395 169.862 168.013 167.64 167.303C166.83 167.044 165.275 167.414 165.393 168.499C165.493 169.418 168.404 168.123 166.852 167.767C166.446 167.674 165.927 167.721 165.625 168.025C165.534 168.117 165.204 168.496 165.517 168.523C165.798 168.547 165.916 168.757 166.238 168.747C166.453 168.74 166.668 168.733 166.882 168.727C167.345 168.712 167.265 168.723 166.848 168.508C166.488 168.323 165.826 168.03 165.411 168.183C164.62 168.475 165.606 169.003 165.972 169.002C166.867 169 167.591 168.704 168.486 168.676" stroke="black" stroke-width="0.694776" stroke-linecap="round" stroke-linejoin="round"/>
<path d="M174.416 168.735C175.322 169.398 174.914 168.861 174.945 169.83" stroke="black" stroke-width="0.694776" stroke-linecap="round" stroke-linejoin="round"/>
<path d="M168.803 166.937C170.408 166.913 172.457 167.156 173.546 168.516" stroke="black" stroke-width="0.694776" stroke-linecap="round" stroke-linejoin="round"/>
<path d="M168.671 166.694C170.72 166.262 172.881 167.325 174.533 168.484" stroke="black" stroke-width="0.694776" stroke-linecap="round" stroke-linejoin="round"/>
<path d="M204.548 166.56C202.285 165.363 199.8 164.721 197.831 166.896C197.696 167.045 196.211 168.986 197.075 168.966C197.862 168.947 204.105 167.356 204.099 167.334C203.778 166.014 200.747 166.838 200.086 166.886C200.052 166.889 197.04 167.058 197.461 167.87C198.005 168.916 201.239 168.038 201.925 167.923C202.232 167.871 205.627 167.432 204.218 166.653C202.615 165.768 199.864 165.35 198.426 166.697C197.131 167.911 200.951 167.416 201.287 167.349C206.697 166.285 198.554 164.773 198.331 167.169C198.263 167.9 204.207 165.719 198.879 166.681C197.623 166.908 200.093 167.015 200.452 166.928C201.288 166.726 198.961 166.968 198.513 167.001" stroke="black" stroke-width="0.694776" stroke-linecap="round" stroke-linejoin="round"/>
<path d="M199.592 166.423C199.024 166.69 197.926 166.962 197.626 167.664C197.389 168.215 198.298 167.314 198.376 167.238C198.758 166.864 197.573 167.683 197.954 167.655" stroke="black" stroke-width="0.694776" stroke-linecap="round" stroke-linejoin="round"/>
<path d="M202.387 166.474C201.061 166.571 200.163 166.796 198.954 167.208C198.625 167.32 198.147 167.799 197.836 167.764C196.54 167.616 199.399 166.37 199.346 166.374C198.39 166.444 197.705 166.452 197.129 167.18C196.875 167.502 196.418 168.061 197.105 168.139C197.836 168.223 198.389 167.41 199.227 167.349" stroke="black" stroke-width="0.694776" stroke-linecap="round" stroke-linejoin="round"/>
<path d="M203.589 166.447C203.732 166.488 205.955 166.986 205.203 165.844C204.356 164.559 202.261 164.756 201.088 165.222C200.616 165.41 199.274 166.107 200.479 166.019C201.497 165.944 203.135 165.431 204.005 166.246C204.831 167.021 204.062 165.569 203.14 165.606C202.509 165.632 199.858 165.411 199.524 166.21C199.323 166.689 201.797 166.141 202.004 166.126C202.476 166.091 202.947 166.057 203.418 166.022C204.014 165.979 202.226 166.109 201.63 166.153" stroke="black" stroke-width="0.694776" stroke-linecap="round" stroke-linejoin="round"/>
<path d="M198.672 168.129C199.295 167.5 198.54 167.767 198.068 167.802C197.797 167.822 198.86 167.51 199.053 167.496C199.59 167.457 199.041 167.945 198.784 167.99C198.192 168.095 198.15 167.668 198.69 167.447C198.91 167.357 200.534 166.684 200.357 167.38C200.244 167.824 199.354 167.955 199.141 167.531C198.787 166.827 202.717 165.575 202.944 166.703C203.073 167.339 201.457 167.048 201.265 166.943C200.312 166.423 201.992 165.816 202.279 165.782C203.075 165.687 203.769 166.004 204.321 166.658C204.655 167.054 202.859 166.887 202.65 166.773C201.806 166.309 201.911 166.008 202.756 165.796C203.382 165.638 204.145 165.513 204.52 166.217C205.158 167.411 201.044 166.469 202.933 165.549C203.623 165.213 205.032 165.432 205.037 166.523C205.041 167.446 202.342 166.438 203.676 165.935C204.025 165.803 204.488 165.8 204.785 166.074C204.874 166.157 205.204 166.501 204.93 166.558C204.685 166.609 204.601 166.83 204.316 166.851C204.126 166.864 203.936 166.878 203.746 166.892C203.336 166.922 203.408 166.925 203.754 166.672C204.053 166.453 204.608 166.098 204.99 166.21C205.717 166.424 204.9 167.045 204.577 167.079C203.787 167.163 203.118 166.938 202.325 166.996" stroke="black" stroke-width="0.694776" stroke-linecap="round" stroke-linejoin="round"/>
<path d="M197.098 167.625C196.365 168.371 196.671 167.798 196.741 168.765" stroke="black" stroke-width="0.694776" stroke-linecap="round" stroke-linejoin="round"/>
<path d="M201.871 165.296C200.452 165.427 198.668 165.865 197.844 167.323" stroke="black" stroke-width="0.694776" stroke-linecap="round" stroke-linejoin="round"/>
<path d="M201.963 165.042C200.112 164.81 198.311 166.075 196.971 167.387" stroke="black" stroke-width="0.694776" stroke-linecap="round" stroke-linejoin="round"/>
<path d="M174.905 245.004L184.449 234.643L187.68 237.323L178.136 247.685L177.196 250.281L161.986 266.913C159.448 266.348 158.318 265.512 157.075 262.659L172.345 246.081L174.905 245.004Z" fill="url(#paint61_linear)"/>
<path d="M191.528 239.847L187.473 239.175L183.499 235.877C183.499 235.877 183.353 233.731 181.593 231.604C178.605 227.994 170.808 225.315 170.808 225.315L175.712 224.034C175.712 224.034 183.751 224.012 187.876 226.052C190.95 227.572 194.499 231.547 194.499 231.547L194.596 234.604L197.69 238.232L199.717 238.568L202.367 240.766C201.081 242.959 200.01 244.101 197.536 245.999L194.887 243.801L194.177 242.046L191.528 239.847Z" fill="url(#paint62_radial)"/>
<path d="M176.973 253.006C168.578 252.013 155.073 221.074 149.913 218.612C144.753 216.151 134.977 223.637 133.082 229.217C131.04 235.227 133.52 243.051 135.349 245.229C135.349 245.229 150.215 255.951 156.438 257.853C162.66 259.754 171.429 258.637 171.429 258.637L173.614 258.148L173.095 255.647L176.173 255.549L174.801 253.914L176.973 253.006Z" fill="url(#paint63_linear)"/>
<path d="M362.131 53.9755L332.226 174.246" stroke="#8F553C" stroke-width="4.03523" stroke-linecap="round" stroke-linejoin="round"/>
<path d="M383.793 64.1935C375.673 62.7336 364.587 57.6203 360.69 55.7414C359.896 55.3586 358.941 55.6655 358.553 56.4567C355.377 62.9274 343.05 89.9005 351.969 101.883C358.491 110.644 368.543 112.444 376.429 111.468C387.759 110.066 396.368 107.998 405.12 115.937L408.057 118.615C408.897 119.382 410.245 119.062 410.652 118L427.279 74.5867C427.531 73.9292 427.33 73.1863 426.775 72.7533C424.171 70.7224 416.76 65.0449 413.295 63.4583C402.758 58.633 395.089 66.2245 383.793 64.1935Z" fill="url(#paint64_linear)"/>
<path d="M376.095 92.323C376.062 92.532 375.917 92.7142 375.661 92.8696C375.413 93.0264 375.099 93.159 374.719 93.2673C374.35 93.368 373.941 93.4532 373.493 93.523C373.055 93.5851 372.625 93.6297 372.202 93.6569C371.788 93.6855 371.409 93.6963 371.066 93.6894C370.721 93.6915 370.467 93.6798 370.304 93.6544C369.995 93.6062 369.714 93.5253 369.462 93.4116C369.219 93.2993 369.014 93.1556 368.845 92.9805C368.679 92.7963 368.559 92.5777 368.487 92.3245C368.424 92.0727 368.418 91.7787 368.471 91.4425C368.849 89.0168 369.234 86.6015 369.627 84.1967C370.021 81.792 370.408 79.3676 370.788 76.9237C370.848 76.5421 370.897 76.1636 370.937 75.7883C370.977 75.413 371.027 75.0345 371.086 74.6529C371.1 74.5621 371.121 74.4583 371.149 74.3416C371.178 74.2158 371.218 74.1058 371.27 74.0115C371.323 73.9082 371.392 73.8258 371.476 73.7644C371.56 73.7031 371.665 73.6823 371.793 73.7021C371.92 73.7219 372.049 73.7606 372.179 73.8182C372.319 73.8772 372.442 73.9522 372.549 74.0433C372.665 74.1358 372.76 74.2436 372.834 74.3668C372.918 74.4823 372.972 74.6117 372.997 74.7551C373.017 74.9257 373.007 75.1057 372.968 75.2951C372.94 75.4768 372.911 75.663 372.881 75.8538C372.55 78.2776 372.208 80.6811 371.856 83.0642C371.512 85.4488 371.152 87.8495 370.776 90.2661C370.733 90.5387 370.691 90.8113 370.648 91.0838C370.615 91.3578 370.591 91.6332 370.576 91.91C370.822 91.9391 371.128 91.9449 371.494 91.9274C371.86 91.91 372.228 91.8743 372.6 91.8205C372.981 91.759 373.343 91.6803 373.683 91.5845C374.024 91.4886 374.298 91.3731 374.505 91.2379C374.599 91.1689 374.698 91.1005 374.802 91.0329C374.907 90.9562 375.028 90.9285 375.164 90.9497C375.282 90.9681 375.398 91.0281 375.513 91.1297C375.636 91.2327 375.743 91.3563 375.832 91.5004C375.923 91.6355 375.994 91.7769 376.045 91.9245C376.097 92.0721 376.113 92.2049 376.095 92.323ZM389.775 85.6322C389.711 86.0411 389.562 86.3155 389.326 86.4556C389.091 86.5866 388.778 86.6587 388.385 86.6719C388.249 88.0838 388.082 89.4816 387.885 90.8654C387.697 92.2506 387.494 93.6428 387.276 95.042C387.242 95.26 387.171 95.421 387.061 95.525C386.952 95.6289 386.78 95.6625 386.543 95.6257C386.343 95.5946 386.147 95.5407 385.954 95.4641C385.771 95.389 385.609 95.294 385.468 95.1791C385.329 95.0551 385.222 94.9081 385.146 94.738C385.081 94.5604 385.066 94.3534 385.103 94.1172L385.766 89.8653C385.849 89.3292 385.933 88.7932 386.016 88.2572C386.1 87.7211 386.174 87.1837 386.239 86.6448C385.441 86.6321 384.645 86.6058 383.851 86.5659C383.058 86.5169 382.269 86.4451 381.483 86.3507C381.209 88.2901 380.962 90.2337 380.743 92.1816C380.708 92.5856 380.674 92.9805 380.642 93.3664C380.619 93.7536 380.577 94.138 380.518 94.5196C380.49 94.7013 380.418 94.8298 380.304 94.9051C380.19 94.9804 380.042 95.0039 379.861 94.9756C379.724 94.9543 379.58 94.9226 379.429 94.8804C379.279 94.8291 379.131 94.7641 378.985 94.6855C378.848 94.6084 378.722 94.519 378.608 94.4174C378.493 94.3159 378.409 94.2004 378.354 94.0709C378.334 94.0213 378.333 93.8814 378.35 93.6515C378.367 93.4215 378.394 93.1325 378.429 92.7844C378.474 92.4378 378.526 92.0457 378.585 91.6082C378.643 91.1707 378.709 90.7202 378.781 90.2569C378.853 89.7935 378.924 89.3393 378.993 88.8941C379.064 88.4398 379.129 88.0219 379.189 87.6403C379.248 87.2587 379.3 86.9271 379.344 86.6455C379.388 86.3638 379.418 86.1685 379.435 86.0595C379.308 86.0397 379.198 85.9947 379.107 85.9246C379.017 85.8455 378.983 85.7378 379.004 85.6015C379.029 85.4379 379.099 85.2906 379.212 85.1594C379.336 85.0205 379.474 84.9117 379.626 84.833L380.908 76.6017C380.937 76.42 380.991 76.2796 381.072 76.1805C381.161 76.0828 381.301 76.0488 381.492 76.0785C381.801 76.1266 382.039 76.2102 382.207 76.3294C382.384 76.45 382.505 76.5991 382.57 76.7768C382.646 76.9468 382.68 77.1475 382.672 77.3789C382.674 77.6026 382.66 77.8424 382.629 78.0982C382.484 79.2108 382.329 80.322 382.166 81.4319C382.002 82.5417 381.848 83.6529 381.702 84.7656C382.495 84.8146 383.283 84.8629 384.067 84.9105C384.852 84.9491 385.647 84.952 386.452 84.9192C386.557 83.9491 386.646 82.9859 386.721 82.0298C386.805 81.075 386.858 80.1062 386.881 79.1233C386.879 78.6577 386.862 78.1946 386.832 77.7338C386.803 77.264 386.824 76.7974 386.896 76.334C386.922 76.1705 386.997 76.0752 387.122 76.0482C387.257 76.0226 387.392 76.0204 387.528 76.0416C387.746 76.0756 387.959 76.1459 388.165 76.2525C388.381 76.3606 388.543 76.5161 388.651 76.719C388.714 76.8499 388.762 77.1132 388.793 77.5089C388.826 77.8956 388.838 78.3535 388.83 78.8827C388.831 79.4132 388.822 79.984 388.801 80.595C388.78 81.2059 388.754 81.7927 388.722 82.3554C388.692 82.9091 388.66 83.4113 388.627 83.8621C388.604 84.3053 388.582 84.6275 388.56 84.8288C388.673 84.8185 388.791 84.8135 388.911 84.8137C389.034 84.8049 389.15 84.8089 389.259 84.8259C389.477 84.8599 389.625 84.9528 389.704 85.1046C389.784 85.2474 389.808 85.4233 389.775 85.6322ZM402.009 88.4035C401.858 89.3756 401.622 90.3206 401.303 91.2386C400.984 92.1475 400.561 92.9797 400.034 93.7351C399.516 94.4919 398.882 95.1562 398.133 95.728C397.384 96.2908 396.509 96.7128 395.507 96.994C395.253 97.0662 394.979 97.1258 394.683 97.1728C394.396 97.2212 394.098 97.2539 393.788 97.2708C393.488 97.2891 393.189 97.2937 392.893 97.2848C392.596 97.2759 392.321 97.2516 392.067 97.2119C391.967 97.1964 391.854 97.1741 391.728 97.1452C391.61 97.1268 391.499 97.091 391.396 97.0377C391.291 96.9934 391.208 96.9293 391.147 96.8453C391.085 96.7613 391.065 96.6557 391.084 96.5285C391.101 96.4195 391.142 96.3094 391.206 96.1984C391.269 96.0874 391.346 95.983 391.436 95.8853C391.535 95.789 391.636 95.7071 391.739 95.6395C391.844 95.5628 391.95 95.5095 392.057 95.4796C392.023 95.3999 392.01 95.1884 392.017 94.8451C392.033 94.5033 392.063 94.0706 392.107 93.5471C392.161 93.025 392.223 92.4439 392.295 91.8036C392.368 91.1543 392.444 90.4869 392.523 89.8012C392.611 89.117 392.698 88.4373 392.785 87.7622C392.882 87.0794 392.971 86.4511 393.051 85.8773C393.131 85.3035 393.199 84.8069 393.255 84.3876C393.321 83.9606 393.369 83.6517 393.399 83.4609C393.532 82.6069 393.677 81.7686 393.833 80.9461C393.989 80.1236 394.133 79.2853 394.266 78.4313C394.166 78.4157 394.075 78.3736 393.993 78.3049C393.92 78.2377 393.891 78.1495 393.908 78.0405C393.931 77.8952 393.988 77.7691 394.079 77.6623C394.172 77.5464 394.279 77.4516 394.403 77.3777C394.535 77.3052 394.673 77.2569 394.816 77.2327C394.97 77.2008 395.11 77.1948 395.238 77.2146C395.365 77.2344 395.485 77.2672 395.599 77.3128C395.714 77.3494 395.834 77.3912 395.956 77.4383C397.12 77.9172 398.128 78.5256 398.98 79.2633C399.833 80.001 400.512 80.8419 401.016 81.7859C401.53 82.7313 401.872 83.7617 402.042 84.877C402.213 85.9924 402.202 87.1679 402.009 88.4035ZM400.031 87.844C400.172 86.9354 400.196 86.0644 400.103 85.231C400.011 84.3884 399.798 83.6016 399.465 82.8704C399.143 82.1316 398.695 81.4568 398.12 80.8461C397.555 80.2278 396.872 79.684 396.071 79.2148L396.062 79.2694C395.697 81.6134 395.371 83.9449 395.084 86.2638C394.808 88.5752 394.565 90.9103 394.356 93.2693C394.328 93.6279 394.295 93.9857 394.258 94.3429C394.232 94.6924 394.219 95.044 394.22 95.3977C395.118 95.2491 395.903 94.9248 396.577 94.4248C397.25 93.9249 397.818 93.3247 398.281 92.6244C398.754 91.9165 399.13 91.1468 399.408 90.3154C399.697 89.4764 399.905 88.6526 400.031 87.844Z" fill="white"/>
<path d="M392.514 246.459C399.404 247.638 401.889 252.559 402.081 256.937C401.889 261.314 399.404 266.235 392.514 267.414C385.33 268.644 379.726 261.103 377.331 260.201L377.331 253.672C379.726 252.771 385.33 245.23 392.514 246.459Z" fill="url(#paint65_radial)"/>
<path d="M377.11 256.151C378.402 256.151 379.909 256.426 380.998 255.663C381.469 255.333 381.983 255.058 382.437 254.708C383.005 254.27 383.532 253.798 384.112 253.371C385.453 252.383 386.711 251.517 388.494 251.642C389.457 251.71 389.806 251.918 389.82 252.712C389.823 252.917 389.551 253.976 389.432 254.157C389.296 254.364 388.862 255.096 388.656 255.241C388.656 255.241 388.308 255.996 388.435 256.773C388.525 257.326 388.683 257.769 388.863 258.292C389.027 258.771 389.187 259.487 389.696 259.739C390.123 259.949 390.57 260.966 390.595 261.384C390.625 261.882 390.152 261.969 389.578 262.165C389.209 262.291 388.589 262.251 388.236 262.137C386.491 261.575 384.765 260.981 383.02 260.426C381.459 259.93 379.951 259.373 378.328 259.089C377.916 259.017 377.533 258.827 377.11 258.811C376.831 258.8 376.706 258.795 376.446 258.687" stroke="#826060" stroke-width="0.707515" stroke-linecap="round" stroke-linejoin="round"/>
<rect x="377.331" y="253.399" width="7.07515" height="5.30636" transform="rotate(90 377.331 253.399)" fill="#7D7878"/>
<path d="M267.393 301.599C267.393 301.599 224.791 303.439 221.749 323.692C217.869 349.529 246.755 354.262 267.393 359.634C292.933 366.283 316.178 340.589 342.265 341.164C356.837 341.485 371.139 359.634 371.139 359.634" stroke="black" stroke-width="1.76879"/>
<path d="M268.107 297.177C268.107 297.177 240.266 296.551 233.174 306.463C224.104 319.138 235.321 334.135 245.113 346.261C261.303 366.307 293.973 335.785 329.131 335.648C351.771 335.559 355.662 351.567 368.928 361.295" stroke="#F32424" stroke-width="1.76879"/>
<path d="M372.023 240.133H366.717C365.74 240.133 364.948 240.925 364.948 241.902V271.971C364.948 272.948 365.74 273.74 366.717 273.74H372.023C373 273.74 373.792 272.948 373.792 271.971V241.902C373.792 240.925 373 240.133 372.023 240.133Z" fill="#FF4E4E"/>
<path d="M366.275 229.028C366.275 212.667 265.013 211.34 265.012 229.028C265.011 246.716 265.012 308.181 265.012 308.181H366.275V229.028Z" fill="url(#paint66_linear)"/>
<path d="M294.305 280.023L321.69 239.28L335.212 246.544L308.288 284.196L294.305 280.023Z" fill="#E8E8E8" fill-opacity="0.8"/>
<path fill-rule="evenodd" clip-rule="evenodd" d="M314.98 290.544C330.854 290.544 343.723 277.675 343.723 261.801C343.723 245.927 330.854 233.058 314.98 233.058C299.106 233.058 286.237 245.927 286.237 261.801C286.237 277.675 299.106 290.544 314.98 290.544ZM314.98 282.584C326.458 282.584 335.763 273.279 335.763 261.801C335.763 250.323 326.458 241.018 314.98 241.018C303.502 241.018 294.197 250.323 294.197 261.801C294.197 273.279 303.502 282.584 314.98 282.584Z" fill="url(#paint67_linear)"/>
<rect x="262.358" y="308.231" width="107.012" height="9.72833" rx="1.76879" fill="#9E9E9E"/>
<rect x="257.052" y="313.538" width="117.624" height="9.72833" rx="0.884394" fill="#818181"/>
<path d="M275.624 220.677V308.232" stroke="#6F6F6F" stroke-width="1.76879"/>
<path d="M352.566 220.677V308.232" stroke="#6F6F6F" stroke-width="1.76879"/>
<circle cx="270.76" cy="302.483" r="0.884394" fill="#C4C4C4" stroke="#6E6E6E" stroke-width="0.884394"/>
<circle cx="280.489" cy="302.483" r="0.884394" fill="#C4C4C4" stroke="#6E6E6E" stroke-width="0.884394"/>
<circle cx="347.703" cy="301.599" r="0.884394" fill="#C4C4C4" stroke="#6E6E6E" stroke-width="0.884394"/>
<circle cx="357.431" cy="301.599" r="0.884394" fill="#C4C4C4" stroke="#6E6E6E" stroke-width="0.884394"/>
<circle cx="283.142" cy="234.385" r="3.09538" fill="#FF4E4E"/>
<circle cx="291.986" cy="234.385" r="3.09538" fill="#67D572"/>
<path d="M275.624 228.194C306.313 224.497 323.121 224.619 352.566 228.194" stroke="#6E6E6E" stroke-width="1.76879"/>
<path d="M297.953 197.749L300.102 196.864C300.209 196.82 300.323 196.798 300.438 196.798H328.638C328.753 196.798 328.868 196.82 328.974 196.864L331.123 197.749C331.854 198.049 331.854 199.084 331.123 199.384L328.974 200.269C328.868 200.313 328.753 200.335 328.638 200.335H300.438C300.323 200.335 300.209 200.313 300.102 200.269L297.953 199.384C297.223 199.084 297.223 198.049 297.953 197.749Z" fill="#999999"/>
<path d="M301.054 194.241L302.793 193.356C302.917 193.293 303.055 193.26 303.194 193.26H325.881C326.021 193.26 326.158 193.293 326.282 193.356L328.022 194.241C328.666 194.568 328.666 195.49 328.022 195.817L326.282 196.702C326.158 196.765 326.021 196.798 325.881 196.798H303.194C303.055 196.798 302.917 196.765 302.793 196.702L301.054 195.817C300.409 195.49 300.409 194.568 301.054 194.241Z" fill="#5B5151"/>
<path d="M297.953 201.286L300.102 200.402C300.209 200.358 300.323 200.335 300.438 200.335H328.638C328.753 200.335 328.868 200.358 328.974 200.402L331.123 201.286C331.854 201.587 331.854 202.621 331.123 202.922L328.974 203.806C328.868 203.85 328.753 203.873 328.638 203.873H300.438C300.323 203.873 300.209 203.85 300.102 203.806L297.953 202.922C297.223 202.621 297.223 201.587 297.953 201.286Z" fill="#C4C4C4"/>
<path d="M297.953 211.899L300.102 211.015C300.209 210.971 300.323 210.948 300.438 210.948H328.638C328.753 210.948 328.868 210.971 328.974 211.015L331.123 211.899C331.854 212.2 331.854 213.234 331.123 213.535L328.974 214.419C328.868 214.463 328.753 214.486 328.638 214.486H300.438C300.323 214.486 300.209 214.463 300.102 214.419L297.953 213.535C297.223 213.234 297.223 212.2 297.953 211.899Z" fill="#999999"/>
<path d="M297.953 215.437L300.102 214.552C300.209 214.508 300.323 214.486 300.438 214.486H328.638C328.753 214.486 328.868 214.508 328.974 214.552L331.123 215.437C331.854 215.737 331.854 216.772 331.123 217.072L328.974 217.957C328.868 218.001 328.753 218.023 328.638 218.023H300.438C300.323 218.023 300.209 218.001 300.102 217.957L297.953 217.072C297.223 216.772 297.223 215.737 297.953 215.437Z" fill="#C4C4C4"/>
<path d="M297.953 204.824L300.102 203.939C300.209 203.896 300.323 203.873 300.438 203.873H328.638C328.753 203.873 328.868 203.896 328.974 203.939L331.123 204.824C331.854 205.124 331.854 206.159 331.123 206.46L328.974 207.344C328.868 207.388 328.753 207.411 328.638 207.411H300.438C300.323 207.411 300.209 207.388 300.102 207.344L297.953 206.46C297.223 206.159 297.223 205.124 297.953 204.824Z" fill="#999999"/>
<path d="M297.953 208.361L300.102 207.477C300.209 207.433 300.323 207.411 300.438 207.411H328.638C328.753 207.411 328.868 207.433 328.974 207.477L331.123 208.361C331.854 208.662 331.854 209.697 331.123 209.997L328.974 210.882C328.868 210.925 328.753 210.948 328.638 210.948H300.438C300.323 210.948 300.209 210.925 300.102 210.882L297.953 209.997C297.223 209.697 297.223 208.662 297.953 208.361Z" fill="#C4C4C4"/>
<path d="M295.504 192.27L268.482 158.663C267.086 156.926 268.322 154.347 270.549 154.347H357.642C359.869 154.347 361.105 156.927 359.709 158.663L332.687 192.27C332.184 192.896 331.423 193.26 330.62 193.26H297.571C296.768 193.26 296.007 192.896 295.504 192.27Z" fill="url(#paint68_linear)"/>
<path d="M304.06 173.655C305.239 166.765 310.16 164.28 314.538 164.088C318.915 164.28 323.836 166.765 325.015 173.655C326.245 180.839 318.703 186.443 317.802 188.838H311.273C310.372 186.443 302.83 180.839 304.06 173.655Z" fill="url(#paint69_radial)"/>
<path d="M313.752 189.059C313.752 187.767 314.027 186.26 313.264 185.171C312.935 184.7 312.659 184.186 312.309 183.732C311.871 183.164 311.399 182.637 310.972 182.057C309.984 180.716 309.118 179.458 309.244 177.675C309.311 176.712 309.519 176.363 310.313 176.349C310.518 176.346 311.577 176.618 311.759 176.737C311.965 176.873 312.697 177.307 312.843 177.513C312.843 177.513 313.598 177.861 314.374 177.734C314.927 177.644 315.37 177.486 315.893 177.306C316.372 177.142 317.089 176.982 317.34 176.473C317.55 176.046 318.567 175.599 318.985 175.574C319.483 175.544 319.57 176.017 319.766 176.591C319.892 176.96 319.852 177.581 319.739 177.933C319.176 179.678 318.582 181.404 318.027 183.149C317.531 184.71 316.974 186.218 316.69 187.841C316.619 188.253 316.428 188.636 316.412 189.059C316.401 189.338 316.396 189.463 316.288 189.723" stroke="#826060" stroke-width="0.707515" stroke-linecap="round" stroke-linejoin="round"/>
<rect x="311" y="188.838" width="7.07515" height="4.42197" fill="#7D7878"/>
<path d="M201.761 316.526L205.745 319.515" stroke="#808080" stroke-width="1.76879"/>
<path d="M204.01 315.169C204.661 315.72 204.487 316.996 203.622 318.021C202.756 319.046 201.526 319.43 200.875 318.88C200.223 318.33 200.397 317.053 201.263 316.028C202.129 315.004 203.358 314.619 204.01 315.169Z" fill="#C4C4C4"/>
<path d="M248.814 317.308L244.192 315.453" stroke="#808080" stroke-width="1.76879"/>
<path d="M246.994 319.201C246.222 318.838 246.06 317.56 246.631 316.346C247.202 315.132 248.29 314.443 249.062 314.806C249.833 315.169 249.996 316.447 249.425 317.661C248.854 318.875 247.766 319.564 246.994 319.201Z" fill="#808080"/>
<path d="M243.107 232.483C251.807 237.431 255.302 240.354 260.425 245.684C237.43 260.222 243.082 257.474 226.136 248.451L233.202 247.402L243.107 232.483Z" fill="#C4C4C4"/>
<path d="M245.376 234.842C254.076 239.79 257.571 242.713 262.693 248.043C239.699 262.581 247.024 259.769 230.078 250.746L235.471 249.761L245.376 234.842Z" fill="url(#paint70_linear)"/>
<path d="M455.303 338.305L423.377 317.183C418.613 324.462 415.056 327.832 403.861 327.688C402.044 333.8 396.548 342.561 387.5 350.682C406.174 352.361 437.935 360.148 437.935 360.148C437.935 360.148 457.294 348.526 472.401 341.838L455.303 338.305Z" fill="url(#paint71_linear)"/>
<path d="M371.655 345.615L392.949 353.661L437.911 360.092L416.28 339.185L397.648 340.01L366.717 330.25L371.655 345.615Z" fill="url(#paint72_linear)"/>
<defs>
<filter id="filter0_d" x="627.825" y="333.918" width="15.1122" height="21.9972" filterUnits="userSpaceOnUse" color-interpolation-filters="sRGB">
<feFlood flood-opacity="0" result="BackgroundImageFix"/>
<feColorMatrix in="SourceAlpha" type="matrix" values="0 0 0 0 0 0 0 0 0 0 0 0 0 0 0 0 0 0 127 0"/>
<feOffset/>
<feGaussianBlur stdDeviation="1.76879"/>
<feColorMatrix type="matrix" values="0 0 0 0 1 0 0 0 0 1 0 0 0 0 1 0 0 0 0.25 0"/>
<feBlend mode="normal" in2="BackgroundImageFix" result="effect1_dropShadow"/>
<feBlend mode="normal" in="SourceGraphic" in2="effect1_dropShadow" result="shape"/>
</filter>
<filter id="filter1_i" x="208.42" y="349.806" width="32.6028" height="32.2853" filterUnits="userSpaceOnUse" color-interpolation-filters="sRGB">
<feFlood flood-opacity="0" result="BackgroundImageFix"/>
<feBlend mode="normal" in="SourceGraphic" in2="BackgroundImageFix" result="shape"/>
<feColorMatrix in="SourceAlpha" type="matrix" values="0 0 0 0 0 0 0 0 0 0 0 0 0 0 0 0 0 0 127 0" result="hardAlpha"/>
<feOffset/>
<feGaussianBlur stdDeviation="2.21098"/>
<feComposite in2="hardAlpha" operator="arithmetic" k2="-1" k3="1"/>
<feColorMatrix type="matrix" values="0 0 0 0 0 0 0 0 0 0 0 0 0 0 0 0 0 0 0.05 0"/>
<feBlend mode="normal" in2="shape" result="effect1_innerShadow"/>
</filter>
<linearGradient id="paint0_linear" x1="414.032" y1="342.723" x2="614.347" y2="390.48" gradientUnits="userSpaceOnUse">
<stop/>
<stop offset="1" stop-color="#D4C0C9"/>
</linearGradient>
<linearGradient id="paint1_linear" x1="632.035" y1="382.521" x2="618.77" y2="322.824" gradientUnits="userSpaceOnUse">
<stop stop-color="#C0AAB5"/>
<stop offset="1" stop-color="#DBC8D1"/>
</linearGradient>
<linearGradient id="paint2_linear" x1="232.289" y1="375.003" x2="224.329" y2="359.526" gradientUnits="userSpaceOnUse">
<stop stop-color="#878787"/>
<stop offset="1" stop-color="#D7E5ED" stop-opacity="0.53"/>
</linearGradient>
<linearGradient id="paint3_linear" x1="223.003" y1="241.018" x2="223.003" y2="268.434" gradientUnits="userSpaceOnUse">
<stop stop-color="#E8B091"/>
<stop offset="1" stop-color="white"/>
</linearGradient>
<linearGradient id="paint4_linear" x1="222.311" y1="151.652" x2="262.664" y2="165.372" gradientUnits="userSpaceOnUse">
<stop stop-color="#CA6D6D"/>
<stop offset="1" stop-color="#F1C59C"/>
</linearGradient>
<linearGradient id="paint5_linear" x1="255.769" y1="255.667" x2="288.051" y2="292.791" gradientUnits="userSpaceOnUse">
<stop stop-color="#F1C59C"/>
<stop offset="1" stop-color="#BF4D47"/>
</linearGradient>
<linearGradient id="paint6_linear" x1="333.94" y1="234.412" x2="325.785" y2="291.844" gradientUnits="userSpaceOnUse">
<stop stop-color="#F1C59C"/>
<stop offset="1" stop-color="#C35651"/>
</linearGradient>
<linearGradient id="paint7_linear" x1="286.853" y1="173.039" x2="305.012" y2="231.146" gradientUnits="userSpaceOnUse">
<stop stop-color="#F1C59C"/>
<stop offset="1" stop-color="#97483E"/>
</linearGradient>
<linearGradient id="paint8_linear" x1="320.023" y1="178.339" x2="301.541" y2="231.785" gradientUnits="userSpaceOnUse">
<stop stop-color="#F1C59C"/>
<stop offset="1" stop-color="#97483E"/>
</linearGradient>
<linearGradient id="paint9_linear" x1="239.217" y1="33.8505" x2="264.035" y2="68.809" gradientUnits="userSpaceOnUse">
<stop stop-color="#B73838"/>
<stop offset="1" stop-color="#F1C59C"/>
</linearGradient>
<linearGradient id="paint10_linear" x1="334.288" y1="31.3531" x2="335.981" y2="52.2413" gradientUnits="userSpaceOnUse">
<stop stop-color="#C04D4D"/>
<stop offset="1" stop-color="#F1C59C"/>
</linearGradient>
<linearGradient id="paint11_linear" x1="306.904" y1="77.4412" x2="312.957" y2="143.619" gradientUnits="userSpaceOnUse">
<stop stop-color="#F1C59C"/>
<stop offset="1" stop-color="#F9997B"/>
</linearGradient>
<linearGradient id="paint12_linear" x1="310.475" y1="94.0427" x2="310.587" y2="103.72" gradientUnits="userSpaceOnUse">
<stop stop-color="#29150C"/>
<stop offset="1" stop-color="#C96C5F"/>
</linearGradient>
<linearGradient id="paint13_linear" x1="268.716" y1="137.832" x2="243.697" y2="159.623" gradientUnits="userSpaceOnUse">
<stop stop-color="#9B7EED"/>
<stop offset="1" stop-color="#F1ACEA"/>
</linearGradient>
<linearGradient id="paint14_linear" x1="298.009" y1="96.3698" x2="287.257" y2="147.214" gradientUnits="userSpaceOnUse">
<stop stop-color="#B5A1ED"/>
<stop offset="1" stop-color="#9A82E1"/>
</linearGradient>
<linearGradient id="paint15_linear" x1="227.163" y1="16.7331" x2="223.127" y2="50.1949" gradientUnits="userSpaceOnUse">
<stop stop-color="#964747"/>
<stop offset="1" stop-color="#D58D6E"/>
</linearGradient>
<linearGradient id="paint16_linear" x1="354.594" y1="4.16378" x2="353.994" y2="54.9207" gradientUnits="userSpaceOnUse">
<stop stop-color="#964747"/>
<stop offset="1" stop-color="#DE997C"/>
</linearGradient>
<linearGradient id="paint17_linear" x1="479.941" y1="36.8988" x2="479.919" y2="294.966" gradientUnits="userSpaceOnUse">
<stop stop-color="#D3795D"/>
<stop offset="1" stop-color="#97483E"/>
</linearGradient>
<linearGradient id="paint18_linear" x1="452.774" y1="239.754" x2="502.203" y2="290.957" gradientUnits="userSpaceOnUse">
<stop stop-color="#C96C5F"/>
<stop offset="1" stop-color="#97483E"/>
</linearGradient>
<linearGradient id="paint19_linear" x1="380.543" y1="217.956" x2="424.589" y2="269.626" gradientUnits="userSpaceOnUse">
<stop stop-color="#C96C5F"/>
<stop offset="1" stop-color="#994A3F"/>
</linearGradient>
<linearGradient id="paint20_linear" x1="466.964" y1="240.117" x2="475.347" y2="242.141" gradientUnits="userSpaceOnUse">
<stop stop-color="#29150C"/>
<stop offset="1" stop-color="#B85B4E"/>
</linearGradient>
<linearGradient id="paint21_linear" x1="468.104" y1="251.189" x2="476.092" y2="249.34" gradientUnits="userSpaceOnUse">
<stop stop-color="#29150C"/>
<stop offset="1" stop-color="#A45246"/>
</linearGradient>
<linearGradient id="paint22_linear" x1="476.556" y1="254.424" x2="484.131" y2="252.67" gradientUnits="userSpaceOnUse">
<stop stop-color="#29150C"/>
<stop offset="1" stop-color="#9D4D42"/>
</linearGradient>
<linearGradient id="paint23_linear" x1="486.514" y1="253.195" x2="493.326" y2="253.802" gradientUnits="userSpaceOnUse">
<stop stop-color="#29150C"/>
<stop offset="1" stop-color="#9D4D42"/>
</linearGradient>
<linearGradient id="paint24_linear" x1="517.948" y1="177.341" x2="495.011" y2="249.687" gradientUnits="userSpaceOnUse">
<stop stop-color="#B4604D"/>
<stop offset="1" stop-color="#C46D5A"/>
</linearGradient>
<linearGradient id="paint25_linear" x1="369.806" y1="116.819" x2="376.887" y2="130.026" gradientUnits="userSpaceOnUse">
<stop stop-color="#29150C"/>
<stop offset="1" stop-color="#97483E"/>
</linearGradient>
<linearGradient id="paint26_linear" x1="376.887" y1="124.278" x2="387.942" y2="133.121" gradientUnits="userSpaceOnUse">
<stop stop-color="#29150C"/>
<stop offset="1" stop-color="#97483E"/>
</linearGradient>
<linearGradient id="paint27_linear" x1="360.976" y1="121.071" x2="370.696" y2="132.679" gradientUnits="userSpaceOnUse">
<stop stop-color="#29150C"/>
<stop offset="1" stop-color="#97483E"/>
</linearGradient>
<linearGradient id="paint28_linear" x1="358.162" y1="129.618" x2="367.159" y2="136.217" gradientUnits="userSpaceOnUse">
<stop stop-color="#29150C"/>
<stop offset="1" stop-color="#97483E"/>
</linearGradient>
<linearGradient id="paint29_linear" x1="368.545" y1="222.072" x2="372.908" y2="233.5" gradientUnits="userSpaceOnUse">
<stop stop-color="#29150C"/>
<stop offset="1" stop-color="#C96C5F"/>
</linearGradient>
<linearGradient id="paint30_linear" x1="377.331" y1="218.368" x2="378.656" y2="229.078" gradientUnits="userSpaceOnUse">
<stop stop-color="#29150C"/>
<stop offset="1" stop-color="#BB6256"/>
</linearGradient>
<linearGradient id="paint31_linear" x1="388.82" y1="217.109" x2="388.826" y2="227.752" gradientUnits="userSpaceOnUse">
<stop stop-color="#29150C"/>
<stop offset="1" stop-color="#AE594D"/>
</linearGradient>
<linearGradient id="paint32_linear" x1="440.552" y1="243.675" x2="445.428" y2="255.61" gradientUnits="userSpaceOnUse">
<stop stop-color="#29150C"/>
<stop offset="1" stop-color="#C96C5F"/>
</linearGradient>
<linearGradient id="paint33_linear" x1="449.338" y1="239.971" x2="449.849" y2="252.072" gradientUnits="userSpaceOnUse">
<stop stop-color="#29150C"/>
<stop offset="1" stop-color="#BB6256"/>
</linearGradient>
<linearGradient id="paint34_linear" x1="460.828" y1="238.712" x2="460.02" y2="249.861" gradientUnits="userSpaceOnUse">
<stop stop-color="#29150C"/>
<stop offset="1" stop-color="#AE594D"/>
</linearGradient>
<linearGradient id="paint35_linear" x1="438.458" y1="138.914" x2="458.689" y2="135.461" gradientUnits="userSpaceOnUse">
<stop stop-color="#FFF282"/>
<stop offset="1" stop-color="#FF994F"/>
</linearGradient>
<linearGradient id="paint36_linear" x1="491.574" y1="139.201" x2="471.398" y2="135.594" gradientUnits="userSpaceOnUse">
<stop stop-color="#FFF282"/>
<stop offset="1" stop-color="#FF994F"/>
</linearGradient>
<radialGradient id="paint37_radial" cx="0" cy="0" r="1" gradientUnits="userSpaceOnUse" gradientTransform="translate(464.375 136.543) rotate(97.9994) scale(9.04829 8.99811)">
<stop stop-color="#FFEB80"/>
<stop offset="1" stop-color="#FF994F"/>
</radialGradient>
<linearGradient id="paint38_linear" x1="112.952" y1="277.959" x2="-30.3933" y2="263.916" gradientUnits="userSpaceOnUse">
<stop stop-color="#964747"/>
<stop offset="1" stop-color="#CBA2A2"/>
</linearGradient>
<linearGradient id="paint39_linear" x1="24.321" y1="259.574" x2="25.7435" y2="304.503" gradientUnits="userSpaceOnUse">
<stop stop-color="#6F5B5B" stop-opacity="0.51"/>
<stop offset="1" stop-color="#BD4545" stop-opacity="0.21"/>
</linearGradient>
<linearGradient id="paint40_linear" x1="12.1473" y1="274.347" x2="12.9099" y2="298.433" gradientUnits="userSpaceOnUse">
<stop stop-color="#6F5B5B" stop-opacity="0.51"/>
<stop offset="1" stop-color="#BD4545" stop-opacity="0.21"/>
</linearGradient>
<linearGradient id="paint41_linear" x1="41.2616" y1="251.085" x2="42.981" y2="305.392" gradientUnits="userSpaceOnUse">
<stop stop-color="#6F5B5B" stop-opacity="0.51"/>
<stop offset="1" stop-color="#BD4545" stop-opacity="0.21"/>
</linearGradient>
<linearGradient id="paint42_linear" x1="59.2812" y1="246.954" x2="61.0293" y2="302.166" gradientUnits="userSpaceOnUse">
<stop stop-color="#6F5B5B" stop-opacity="0.51"/>
<stop offset="1" stop-color="#BD4545" stop-opacity="0.21"/>
</linearGradient>
<linearGradient id="paint43_linear" x1="77.016" y1="247.363" x2="78.6494" y2="298.954" gradientUnits="userSpaceOnUse">
<stop stop-color="#6F5B5B" stop-opacity="0.51"/>
<stop offset="1" stop-color="#BD4545" stop-opacity="0.21"/>
</linearGradient>
<linearGradient id="paint44_linear" x1="95.8404" y1="250.524" x2="97.2131" y2="293.88" gradientUnits="userSpaceOnUse">
<stop stop-color="#6F5B5B" stop-opacity="0.51"/>
<stop offset="1" stop-color="#BD4545" stop-opacity="0.21"/>
</linearGradient>
<linearGradient id="paint45_linear" x1="85.6036" y1="257.396" x2="87.0373" y2="302.679" gradientUnits="userSpaceOnUse">
<stop stop-color="#6F5B5B" stop-opacity="0.51"/>
<stop offset="1" stop-color="#BD4545" stop-opacity="0.21"/>
</linearGradient>
<linearGradient id="paint46_linear" x1="95.7866" y1="274.479" x2="96.6102" y2="300.493" gradientUnits="userSpaceOnUse">
<stop stop-color="#6F5B5B" stop-opacity="0.51"/>
<stop offset="1" stop-color="#BD4545" stop-opacity="0.21"/>
</linearGradient>
<linearGradient id="paint47_linear" x1="70.7978" y1="252.079" x2="72.4145" y2="303.142" gradientUnits="userSpaceOnUse">
<stop stop-color="#6F5B5B" stop-opacity="0.51"/>
<stop offset="1" stop-color="#BD4545" stop-opacity="0.21"/>
</linearGradient>
<linearGradient id="paint48_linear" x1="54.547" y1="248.758" x2="56.2553" y2="302.712" gradientUnits="userSpaceOnUse">
<stop stop-color="#6F5B5B" stop-opacity="0.51"/>
<stop offset="1" stop-color="#BD4545" stop-opacity="0.21"/>
</linearGradient>
<linearGradient id="paint49_linear" x1="39.4443" y1="247.71" x2="41.0205" y2="297.491" gradientUnits="userSpaceOnUse">
<stop stop-color="#6F5B5B" stop-opacity="0.51"/>
<stop offset="1" stop-color="#BD4545" stop-opacity="0.21"/>
</linearGradient>
<linearGradient id="paint50_linear" x1="23.3978" y1="248.938" x2="24.7801" y2="292.598" gradientUnits="userSpaceOnUse">
<stop stop-color="#6F5B5B" stop-opacity="0.51"/>
<stop offset="1" stop-color="#BD4545" stop-opacity="0.21"/>
</linearGradient>
<linearGradient id="paint51_linear" x1="233.303" y1="234.474" x2="267.946" y2="272.772" gradientUnits="userSpaceOnUse">
<stop stop-color="#D58D6E"/>
<stop offset="1" stop-color="#D18361"/>
</linearGradient>
<radialGradient id="paint52_radial" cx="0" cy="0" r="1" gradientUnits="userSpaceOnUse" gradientTransform="translate(186.001 167.696) rotate(106.125) scale(64.6061 55.5263)">
<stop stop-color="#EDAC88"/>
<stop offset="1" stop-color="#D58D6E"/>
</radialGradient>
<linearGradient id="paint53_linear" x1="200.416" y1="136.903" x2="47.7945" y2="169.59" gradientUnits="userSpaceOnUse">
<stop stop-color="#54D3D3"/>
<stop offset="1" stop-color="#54A5D3"/>
</linearGradient>
<linearGradient id="paint54_linear" x1="205.729" y1="140.695" x2="143.049" y2="139.448" gradientUnits="userSpaceOnUse">
<stop stop-color="#70E6E6"/>
<stop offset="1" stop-color="#86DDDD"/>
</linearGradient>
<linearGradient id="paint55_linear" x1="149.394" y1="157.353" x2="161.637" y2="152.964" gradientUnits="userSpaceOnUse">
<stop stop-color="#DB9574"/>
<stop offset="1" stop-color="#E29E7C"/>
</linearGradient>
<linearGradient id="paint56_linear" x1="209.773" y1="293.723" x2="249.131" y2="345.756" gradientUnits="userSpaceOnUse">
<stop stop-color="#D58D6E"/>
<stop offset="1" stop-color="#29150C"/>
</linearGradient>
<linearGradient id="paint57_linear" x1="155.696" y1="297.222" x2="188.534" y2="352.576" gradientUnits="userSpaceOnUse">
<stop stop-color="#D58D6E"/>
<stop offset="1" stop-color="#29150C"/>
</linearGradient>
<linearGradient id="paint58_linear" x1="173.529" y1="283.973" x2="174.32" y2="308.957" gradientUnits="userSpaceOnUse">
<stop stop-color="#FFE55A"/>
<stop offset="1" stop-color="#F3AD44"/>
</linearGradient>
<linearGradient id="paint59_linear" x1="227.387" y1="278.651" x2="228.178" y2="303.635" gradientUnits="userSpaceOnUse">
<stop stop-color="#FFE55A"/>
<stop offset="1" stop-color="#F3AD44"/>
</linearGradient>
<linearGradient id="paint60_linear" x1="187.196" y1="176.531" x2="186.979" y2="169.674" gradientUnits="userSpaceOnUse">
<stop stop-color="#964747"/>
<stop offset="1" stop-color="#D58D6E"/>
</linearGradient>
<linearGradient id="paint61_linear" x1="178.47" y1="244.632" x2="160.004" y2="266.459" gradientUnits="userSpaceOnUse">
<stop stop-color="#C2B6B6"/>
<stop offset="1" stop-color="#9942CE"/>
</linearGradient>
<radialGradient id="paint62_radial" cx="0" cy="0" r="1" gradientUnits="userSpaceOnUse" gradientTransform="translate(198.58 239.392) rotate(-160.588) scale(41.5876 126.988)">
<stop stop-color="#C4C4C4"/>
<stop offset="1" stop-color="#F3E8E8"/>
</radialGradient>
<linearGradient id="paint63_linear" x1="145.366" y1="241.837" x2="187.259" y2="248.793" gradientUnits="userSpaceOnUse">
<stop stop-color="#D58D6E"/>
<stop offset="1" stop-color="#C56F4D"/>
</linearGradient>
<linearGradient id="paint64_linear" x1="396.453" y1="74.8407" x2="243.809" y2="101.4" gradientUnits="userSpaceOnUse">
<stop stop-color="#FF7676"/>
<stop offset="1" stop-color="#F0FBAB"/>
</linearGradient>
<radialGradient id="paint65_radial" cx="0" cy="0" r="1" gradientUnits="userSpaceOnUse" gradientTransform="translate(389.712 256.937) rotate(-180) scale(12.3815 10.6127)">
<stop stop-color="white"/>
<stop offset="1" stop-color="#FBFF2C" stop-opacity="0.15"/>
</radialGradient>
<linearGradient id="paint66_linear" x1="315.644" y1="216.255" x2="315.644" y2="308.181" gradientUnits="userSpaceOnUse">
<stop stop-color="#828282"/>
<stop offset="1" stop-color="#C4C4C4"/>
</linearGradient>
<linearGradient id="paint67_linear" x1="314.98" y1="233.058" x2="314.98" y2="290.544" gradientUnits="userSpaceOnUse">
<stop stop-color="#F5D0AD"/>
<stop offset="1" stop-color="#EFE0D1"/>
</linearGradient>
<linearGradient id="paint68_linear" x1="314.096" y1="154.347" x2="314.096" y2="193.26" gradientUnits="userSpaceOnUse">
<stop stop-color="#E2DFCF"/>
<stop offset="1" stop-color="#989898"/>
</linearGradient>
<radialGradient id="paint69_radial" cx="0" cy="0" r="1" gradientUnits="userSpaceOnUse" gradientTransform="translate(314.538 176.457) rotate(90) scale(12.3815 10.6127)">
<stop stop-color="white"/>
<stop offset="1" stop-color="#FBFF2C" stop-opacity="0.15"/>
</radialGradient>
<linearGradient id="paint70_linear" x1="262.059" y1="250.714" x2="231.792" y2="243.528" gradientUnits="userSpaceOnUse">
<stop stop-color="#868686"/>
<stop offset="1" stop-color="#A4A4A4"/>
</linearGradient>
<linearGradient id="paint71_linear" x1="483.455" y1="336.09" x2="433.045" y2="347.145" gradientUnits="userSpaceOnUse">
<stop stop-color="#868686"/>
<stop offset="1" stop-color="#A4A4A4"/>
</linearGradient>
<linearGradient id="paint72_linear" x1="380.867" y1="328.573" x2="393.691" y2="359.969" gradientUnits="userSpaceOnUse">
<stop stop-color="#C4C4C4"/>
<stop offset="1" stop-color="#767676"/>
</linearGradient>
</defs>
</svg>
