<svg width="1440" height="6042" viewBox="0 0 1440 6042" fill="none" xmlns="http://www.w3.org/2000/svg">
<rect x="-14.2881" y="-239" width="1461.46" height="595.741" fill="#ABD8EC"/>
<g opacity="0.3">
<path d="M1075.62 256.648L764.23 144.556L703.285 163.594L636.945 190.869L613.774 192.58L428.084 256.648H1075.62Z" fill="#7C91C3"/>
<path d="M783.909 173.007L800.733 175.681C800.733 175.681 786.276 166.249 779.148 160.172C772.021 154.094 764.23 144.556 764.23 144.556L1075.62 256.648C1030.86 254.723 996.237 239.02 943.57 228.732C921.669 224.454 859.137 201.565 866.438 207.126C873.739 212.688 888.417 223.05 906.433 232.475C925.47 242.436 961.663 256.648 961.663 256.648H917.86C861.059 224.465 833.275 205.848 783.909 173.007Z" fill="url(#paint0_linear)"/>
</g>
<g opacity="0.8">
<path d="M828.416 247.641L888.445 184.807L900.194 195.479L912.983 210.768L917.45 211.727L953.248 247.641H828.416Z" fill="#7C91C3"/>
<path d="M884.652 200.755L881.408 202.254C881.408 202.254 884.195 196.967 885.569 193.56C886.944 190.153 888.445 184.807 888.445 184.807L828.416 247.641C837.044 246.562 843.719 237.759 853.872 231.992C858.094 229.594 870.149 216.763 868.742 219.881C867.334 222.999 864.504 228.807 861.031 234.091C857.361 239.674 850.384 247.641 850.384 247.641H858.828C869.779 229.6 875.135 219.164 884.652 200.755Z" fill="url(#paint1_linear)"/>
<path d="M900.662 280.729C911.868 263.518 917.075 253.567 923.226 234.932C923.226 234.932 921.445 256.516 917.981 260.39C914.517 264.264 900.662 280.729 900.662 280.729Z" fill="#AB95AE"/>
</g>
<g opacity="0.4">
<path d="M124.833 207.987L210.982 87.509L227.843 107.972L246.196 137.287L252.607 139.126L303.98 207.987H124.833Z" fill="#7C91C3"/>
<path d="M205.537 118.088L200.883 120.962C200.883 120.962 204.882 110.825 206.854 104.293C208.826 97.761 210.982 87.509 210.982 87.509L124.833 207.987C137.215 205.917 146.794 189.04 161.365 177.982C167.424 173.384 184.724 148.782 182.705 154.76C180.685 160.738 176.624 171.875 171.64 182.006C166.373 192.712 156.359 207.987 156.359 207.987H168.478C184.193 173.396 191.879 153.386 205.537 118.088Z" fill="url(#paint2_linear)"/>
<path d="M197.087 183.431C208.292 166.221 213.5 156.269 219.651 137.634C219.651 137.634 217.87 159.218 214.406 163.092C210.942 166.966 197.087 183.431 197.087 183.431Z" fill="#AB95AE"/>
</g>
<g opacity="0.2">
<path d="M1539 267.657L1362.37 100.52L1327.8 128.907L1290.17 169.575L1277.03 172.127L1171.7 267.657H1539Z" fill="#7C91C3"/>
<path d="M1373.54 142.942L1383.08 146.929C1383.08 146.929 1374.88 132.866 1370.83 123.804C1366.79 114.742 1362.37 100.52 1362.37 100.52L1539 267.657C1513.61 264.786 1493.97 241.372 1464.1 226.032C1451.68 219.653 1416.21 185.523 1420.35 193.817C1424.49 202.11 1432.82 217.559 1443.03 231.614C1453.83 246.466 1474.36 267.657 1474.36 267.657H1449.52C1417.3 219.669 1401.54 191.91 1373.54 142.942Z" fill="url(#paint3_linear)"/>
</g>
<g opacity="0.8">
<path d="M934.506 256.648L1060.94 129.543L1085.69 151.132L1112.63 182.059L1122.04 183.999L1197.44 256.648H934.506Z" fill="#7C91C3"/>
<path d="M1052.95 161.805L1046.12 164.837C1046.12 164.837 1051.99 154.142 1054.89 147.251C1057.78 140.359 1060.94 129.543 1060.94 129.543L934.506 256.648C952.679 254.465 966.738 236.659 988.123 224.993C997.016 220.142 1022.41 194.187 1019.44 200.494C1016.48 206.801 1010.52 218.55 1003.2 229.238C995.473 240.533 980.776 256.648 980.776 256.648H998.563C1021.63 220.154 1032.91 199.044 1052.95 161.805Z" fill="url(#paint4_linear)"/>
</g>
<g opacity="0.4">
<path d="M1153.68 206.607L1280.26 69.4941L1305.03 92.7824L1332 126.145L1341.42 128.238L1416.9 206.607H1153.68Z" fill="#7C91C3"/>
<path d="M1272.13 101.755L1265.3 104.787C1265.3 104.787 1271.17 94.0929 1274.06 87.2014C1276.96 80.31 1280.12 69.4941 1280.12 69.4941L1153.68 196.598C1171.86 194.415 1185.92 176.609 1207.3 164.944C1216.19 160.092 1241.58 134.138 1238.62 140.445C1235.66 146.751 1229.7 158.5 1222.38 169.189C1214.65 180.483 1199.95 196.598 1199.95 196.598H1217.74C1240.8 160.105 1252.09 138.995 1272.13 101.755Z" fill="url(#paint5_linear)"/>
</g>
<g opacity="0.3">
<path d="M174.875 228.874L453.535 118.534L508.074 137.275L567.442 164.123L588.178 165.808L754.351 228.874H174.875Z" fill="#7C91C3"/>
<path d="M435.923 146.54L420.868 149.173C420.868 149.173 433.806 139.889 440.184 133.906C446.563 127.924 453.535 118.534 453.535 118.534L174.875 228.874C214.927 226.979 245.912 211.521 293.043 201.394C312.643 197.183 368.602 174.652 362.068 180.127C355.535 185.602 342.399 195.801 326.277 205.079C309.241 214.884 276.851 228.874 276.851 228.874H316.051C366.882 197.194 391.746 178.868 435.923 146.54Z" fill="url(#paint6_linear)"/>
</g>
<g opacity="0.8">
<path opacity="0.8" d="M163.579 243.887L37.1404 133.547L12.394 152.288L-14.5435 179.136L-19.7854 182.087V243.887H163.579Z" fill="#7C91C3"/>
<path d="M45.1315 161.553L51.9625 164.185C51.9625 164.185 46.0923 154.901 43.1982 148.919C40.304 142.936 37.1404 133.547 37.1404 133.547L163.579 243.887C145.406 241.991 131.347 226.534 109.962 216.407C101.069 212.195 75.6778 189.664 78.6422 195.139C81.6066 200.614 87.567 210.813 94.882 220.092C102.612 229.897 117.308 243.887 117.308 243.887H99.522C76.4579 212.206 65.1764 193.88 45.1315 161.553Z" fill="url(#paint7_linear)"/>
</g>
<g style="mix-blend-mode:screen">
<path d="M915.486 140.543C541.315 224.49 285.547 76.9031 285.547 76.9031L1204.22 -0.572794L1373.36 -0.572823C1373.36 -0.572823 1289.66 56.5964 915.486 140.543Z" fill="url(#paint8_linear)"/>
</g>
<g style="mix-blend-mode:screen">
<path d="M482.13 189.083C856.302 273.029 1196.48 123.932 1196.48 123.932L277.802 46.4558L106.322 9.93541C106.322 9.93541 107.959 105.136 482.13 189.083Z" fill="url(#paint9_linear)"/>
</g>
<g style="mix-blend-mode:lighten">
<path d="M1066.61 20.444C1088.86 4.83681 1090.13 -0.573242 1090.13 -0.573242H1172.2C1172.2 -0.573242 1057.38 47.9712 992.551 69.4843C918.452 94.0723 817.407 113.02 817.407 113.02C817.407 113.02 992.584 72.3818 1066.61 20.444Z" fill="url(#paint10_linear)"/>
</g>
<g style="mix-blend-mode:lighten" opacity="0.7">
<path d="M1010.26 178.051C989.316 203.837 819.407 241.626 819.407 241.626C819.407 241.626 938.1 224.091 1010.26 203.837C1077.41 184.987 1114.81 172.452 1175.38 143.819C1254.9 106.225 1357.85 26.4495 1357.85 26.4495C1357.85 26.4495 1267.35 74.2002 1201.1 90.9137C1168.53 99.1307 1132.03 80.4846 1115.55 106.474C1112.4 111.441 1112.82 114.882 1109.57 119.811C1095.26 141.499 1059.26 139.433 1035.38 155.822C1017.7 167.957 1022.69 162.74 1010.26 178.051Z" fill="url(#paint11_linear)"/>
</g>
<path d="M379.548 30.4522C377.332 19.0574 373.505 12.2914 361.032 -0.573242H285.971C321.426 21.0595 342.016 32.1803 379.548 49.9683C437.503 77.4358 533.174 108.016 533.174 108.016C533.174 108.016 381.763 41.8471 379.548 30.4522Z" fill="url(#paint12_linear)"/>
<path opacity="0.7" d="M137.971 49.2265C107.472 28.2435 90.8096 5.43188 90.8096 5.43188C90.8096 5.43188 109.848 24.5834 137.971 49.2265C166.846 69.092 208.122 87.3184 259.401 82.9956C324.868 77.4768 338.773 122.319 338.773 122.319C338.773 122.319 401.176 119.227 410.033 155.458C416.88 183.466 508.679 207.07 555.898 216.368C575.258 219.274 585.771 220.623 582.68 220.609C579.78 220.595 569.76 219.098 555.898 216.368C495.193 207.257 347.501 182.833 259.401 137.101C217.192 115.189 171.229 78.3682 137.971 49.2265Z" fill="url(#paint13_linear)"/>
<rect x="-20.7266" y="900.177" width="1462.2" height="5146.23" fill="url(#paint14_linear)"/>
<path d="M51.7733 240.029C-13.1294 240.029 -14.8707 200.207 -20.2793 180.564V901.177H792.388H1441.42V210.029C1441.42 210.029 1357.05 171.963 1283.79 168.575C1165.38 163.1 1107.58 239.446 989.05 241.135C905.299 242.328 789.909 210.029 776.839 210.029C763.768 210.029 691.753 186.659 635.962 186.268C564.361 185.767 502.444 222.518 456.232 222.518C344.906 222.518 287.558 165.573 227.613 165.573C160.006 166.348 101.126 240.029 51.7733 240.029Z" fill="url(#paint15_linear)"/>
<path d="M442.419 278.562C320.933 272.716 320.78 346.615 199.22 342.615C150.257 341.004 74.868 326.101 74.868 326.101L-49.4844 309.588L511.976 245.535C511.976 245.535 544.949 244.331 566.021 245.535C590.558 246.937 623.789 251.898 642.988 255.548C647.032 256.472 651.057 257.466 655.094 258.535C675.087 263.828 695.363 270.957 719.647 280.564C752.607 293.604 771.422 307.311 798.21 322.176C804.653 325.75 811.556 329.392 819.228 333.107C900.847 372.632 855.257 428.651 814.724 453.171C774.191 477.691 624.819 528.372 582.534 533.237C540.249 538.102 270.588 556.99 118.153 663.844C16.0694 735.402 -6.39346 798.455 -6.39346 798.455C-197.165 986.363 -49.4844 516.758 -49.4844 516.758C-7.44984 503.212 32.9452 486.013 118.153 458.71C244.757 418.142 413.211 398.626 566.021 398.626C612.059 398.626 664.535 368.337 674.736 333.107C676.459 327.158 676.388 319.507 674.109 309.588C671.01 296.097 662.368 286.952 649.996 280.915C597.625 266.26 491.815 280.939 442.419 278.562Z" fill="url(#paint16_linear)"/>
<path d="M130.444 821H73.5335C73.5335 821 70.3067 816.405 71.8736 814.132C73.6068 811.619 76.788 815.062 79.6988 814.132C81.1304 813.675 79.3366 810.512 80.8845 809.396C82.4683 808.254 84.7216 810.721 85.8642 809.87C92.0654 805.25 93.64 793.165 100.566 796.608C105.554 799.088 101.686 806.099 105.783 809.87C107.247 811.217 109.302 810.121 110.763 810.817C112.344 811.57 113.349 814.132 115.505 814.132C117.165 814.132 118.948 806.258 123.093 807.975C127.398 809.758 130.444 821 130.444 821Z" fill="url(#paint17_linear)"/>
<path d="M130.444 821H73.5335C73.5335 821 70.3067 816.405 71.8736 814.132C73.6068 811.619 76.788 815.062 79.6988 814.132C81.1304 813.675 79.3366 810.512 80.8845 809.396C82.4683 808.254 84.7216 810.721 85.8642 809.87C92.0654 805.25 93.64 793.165 100.566 796.608C105.554 799.088 101.686 806.099 105.783 809.87C107.247 811.217 109.302 810.121 110.763 810.817C112.344 811.57 113.349 814.132 115.505 814.132C117.165 814.132 118.948 806.258 123.093 807.975C127.398 809.758 130.444 821 130.444 821Z" fill="url(#paint18_linear)" fill-opacity="0.6"/>
<path d="M1266 323H1209.09C1209.09 323 1205.86 318.405 1207.43 316.132C1209.16 313.619 1212.34 317.062 1215.25 316.132C1216.69 315.675 1214.89 312.512 1216.44 311.396C1218.02 310.254 1220.28 312.721 1221.42 311.87C1227.62 307.25 1229.2 295.165 1236.12 298.608C1241.11 301.088 1237.24 308.099 1241.34 311.87C1242.8 313.217 1244.86 312.121 1246.32 312.817C1247.9 313.57 1248.91 316.132 1251.06 316.132C1252.72 316.132 1254.5 308.258 1258.65 309.975C1262.95 311.758 1266 323 1266 323Z" fill="url(#paint19_linear)"/>
<path d="M1266 323H1209.09C1209.09 323 1205.86 318.405 1207.43 316.132C1209.16 313.619 1212.34 317.062 1215.25 316.132C1216.69 315.675 1214.89 312.512 1216.44 311.396C1218.02 310.254 1220.28 312.721 1221.42 311.87C1227.62 307.25 1229.2 295.165 1236.12 298.608C1241.11 301.088 1237.24 308.099 1241.34 311.87C1242.8 313.217 1244.86 312.121 1246.32 312.817C1247.9 313.57 1248.91 316.132 1251.06 316.132C1252.72 316.132 1254.5 308.258 1258.65 309.975C1262.95 311.758 1266 323 1266 323Z" fill="url(#paint20_linear)" fill-opacity="0.6"/>
<path d="M217.444 385H160.533C160.533 385 157.307 380.405 158.874 378.132C160.607 375.619 163.788 379.062 166.699 378.132C168.13 377.675 166.337 374.512 167.884 373.396C169.468 372.254 171.722 374.721 172.864 373.87C179.065 369.25 180.64 357.165 187.566 360.608C192.554 363.088 188.686 370.099 192.783 373.87C194.247 375.217 196.302 374.121 197.763 374.817C199.344 375.57 200.349 378.132 202.505 378.132C204.165 378.132 205.948 370.258 210.093 371.975C214.398 373.758 217.444 385 217.444 385Z" fill="url(#paint21_linear)"/>
<path d="M217.444 385H160.533C160.533 385 157.307 380.405 158.874 378.132C160.607 375.619 163.788 379.062 166.699 378.132C168.13 377.675 166.337 374.512 167.884 373.396C169.468 372.254 171.722 374.721 172.864 373.87C179.065 369.25 180.64 357.165 187.566 360.608C192.554 363.088 188.686 370.099 192.783 373.87C194.247 375.217 196.302 374.121 197.763 374.817C199.344 375.57 200.349 378.132 202.505 378.132C204.165 378.132 205.948 370.258 210.093 371.975C214.398 373.758 217.444 385 217.444 385Z" fill="url(#paint22_linear)" fill-opacity="0.6"/>
<path d="M186.905 224.052C193.298 220.999 206.256 215.754 212.944 213.489C227.02 208.721 229.444 205.709 243.069 204.551C281.292 201.301 276.221 213.489 276.221 213.489C276.221 213.489 257.448 220.042 245.019 222.427C222.692 226.711 166.267 233.907 186.905 224.052Z" fill="#96A5D1"/>
<path d="M260.444 198H269.444V209.869C265.929 211.414 263.959 211.339 260.444 209.869V198Z" fill="#C18989"/>
<path d="M264.102 109.766C264.473 109.034 265.518 109.035 265.887 109.767L285.846 149.371C286.181 150.036 285.698 150.821 284.953 150.821H280.576C279.796 150.821 279.316 151.674 279.722 152.341L290.966 170.837C291.372 171.504 290.892 172.357 290.112 172.357H283.918C283.138 172.357 282.658 173.21 283.063 173.876L295.648 194.585C296.023 195.203 295.633 196.003 294.916 196.095C271.769 199.063 258.127 199.035 234.975 196.093C234.258 196.002 233.867 195.201 234.242 194.583L246.825 173.876C247.23 173.21 246.751 172.357 245.971 172.357H239.777C238.997 172.357 238.517 171.504 238.922 170.837L250.167 152.341C250.572 151.674 250.093 150.821 249.313 150.821H244.939C244.194 150.821 243.71 150.034 244.047 149.369L264.102 109.766Z" fill="#78AFC9"/>
<path d="M282.259 197.412C281.785 197.463 281.341 197.172 281.198 196.718L273.762 173.048C273.633 172.635 273.783 172.186 274.135 171.935L278.112 169.094C278.511 168.81 278.645 168.278 278.428 167.839L270.365 151.482C270.171 151.089 270.257 150.615 270.576 150.313L274.643 146.471C274.91 146.22 275.017 145.843 274.923 145.488L265.487 109.852C265.425 109.62 265.75 109.497 265.859 109.711L285.845 149.37C286.18 150.035 285.697 150.82 284.952 150.82H280.575C279.795 150.82 279.316 151.673 279.721 152.34L290.966 170.837C291.371 171.503 290.891 172.356 290.111 172.356H283.917C283.137 172.356 282.657 173.209 283.062 173.875L295.626 194.549C296.006 195.175 295.606 195.985 294.877 196.063L282.259 197.412Z" fill="#BFC2CE"/>
<path d="M1226.78 212.952C1221.76 210.636 1211.63 206.755 1206.43 205.133C1195.48 201.72 1193.47 199.242 1183.07 198.921C1153.9 198.021 1158.43 208.288 1158.43 208.288C1158.43 208.288 1173.05 213.008 1182.61 214.447C1199.79 217.031 1242.99 220.429 1226.78 212.952Z" fill="#96A5D1"/>
<path d="M1175.02 194.682H1167.87V204.102C1170.66 205.329 1172.23 205.269 1175.02 204.102V194.682Z" fill="#C18989"/>
<path d="M1171.85 124.137C1171.67 123.771 1171.14 123.771 1170.96 124.138L1154.64 156.514C1154.47 156.846 1154.72 157.239 1155.09 157.239H1159.56C1159.95 157.239 1160.19 157.665 1159.99 157.999L1150.52 173.571C1150.32 173.904 1150.56 174.331 1150.95 174.331H1156.91C1157.3 174.331 1157.54 174.757 1157.34 175.09L1146.84 192.357C1146.66 192.666 1146.85 193.066 1147.21 193.113C1166 195.545 1176.88 195.522 1195.68 193.112C1196.04 193.066 1196.23 192.665 1196.05 192.356L1185.55 175.09C1185.35 174.757 1185.59 174.331 1185.98 174.331H1191.94C1192.33 174.331 1192.57 173.904 1192.37 173.571L1182.9 157.999C1182.7 157.665 1182.94 157.239 1183.33 157.239H1187.8C1188.17 157.239 1188.41 156.846 1188.25 156.513L1171.85 124.137Z" fill="url(#paint23_linear)"/>
<path d="M1157.94 194.242C1158.18 194.267 1158.4 194.122 1158.47 193.894L1164.51 174.676C1164.57 174.47 1164.5 174.245 1164.32 174.119L1160.79 171.597C1160.59 171.454 1160.52 171.188 1160.63 170.969L1167.24 157.569C1167.33 157.372 1167.29 157.135 1167.13 156.985L1163.62 153.667C1163.49 153.541 1163.43 153.352 1163.48 153.175L1170.18 127.885C1170.33 127.305 1169.52 126.996 1169.25 127.532L1154.64 156.513C1154.47 156.846 1154.72 157.238 1155.09 157.238H1159.56C1159.95 157.238 1160.19 157.665 1159.99 157.998L1150.52 173.57C1150.32 173.904 1150.56 174.33 1150.95 174.33H1156.91C1157.3 174.33 1157.54 174.757 1157.34 175.09L1146.85 192.339C1146.66 192.652 1146.86 193.057 1147.23 193.096L1157.94 194.242Z" fill="#BFC2CE"/>
<path d="M624.985 233.285C621.414 230.813 628.09 225.139 640.544 223.568C648.322 222.587 654.301 220.446 667.955 220.896C706.262 222.157 700.777 228.23 700.777 228.23C700.777 228.23 678.929 235.731 666.351 236.47C643.753 237.797 632.051 238.176 624.985 233.285Z" fill="#8194CB"/>
<path d="M667.095 139.835C667.461 139.088 668.527 139.089 668.891 139.837L688.188 179.383C688.512 180.047 688.029 180.821 687.29 180.821H683.107C682.333 180.821 681.853 181.662 682.245 182.328L693.147 200.85C693.54 201.516 693.059 202.357 692.286 202.357H686.343C685.569 202.357 685.089 203.197 685.481 203.864L697.682 224.6C698.044 225.216 697.656 226.003 696.948 226.097C674.551 229.062 661.345 229.034 638.943 226.095C638.234 226.002 637.845 225.215 638.208 224.598L650.408 203.864C650.8 203.197 650.319 202.357 649.546 202.357H643.603C642.829 202.357 642.349 201.516 642.741 200.85L653.643 182.328C654.036 181.662 653.555 180.821 652.782 180.821H648.603C647.863 180.821 647.379 180.045 647.705 179.381L667.095 139.835Z" fill="#92B7D2"/>
<path d="M692.503 225.895C692.156 225.895 691.834 225.716 691.652 225.42L677.082 201.811C676.701 201.195 677.082 200.391 677.8 200.295L685.921 199.204C686.638 199.108 687.018 198.306 686.639 197.69L676.924 181.88C676.589 181.336 676.844 180.622 677.447 180.412L681.982 178.835C682.511 178.651 682.785 178.069 682.592 177.544L667.995 138L688.188 179.382C688.512 180.046 688.029 180.82 687.289 180.82H683.107C682.333 180.82 681.853 181.661 682.245 182.328L693.147 200.849C693.54 201.515 693.059 202.356 692.286 202.356H686.343C685.569 202.356 685.089 203.197 685.481 203.863L697.557 224.388C697.95 225.055 697.469 225.895 696.696 225.895H692.503Z" fill="#DFD9D3"/>
<path d="M757.983 246.926C761.248 244.788 758.206 241.898 753 239C747.172 235.756 733.119 233.763 720.69 234.228C685.822 235.532 689.038 243.04 689.038 243.04C689.038 243.04 685.392 248.333 720.32 249.894C740.888 250.813 751.525 251.154 757.983 246.926Z" fill="#8FA3D8"/>
<path d="M713.445 236.417H726.445V245.166C721.368 246.305 718.522 246.25 713.445 245.166V236.417Z" fill="#C18989"/>
<path d="M719.074 133.184C719.419 132.369 720.574 132.37 720.917 133.185L740.994 180.908C741.271 181.568 740.787 182.296 740.072 182.296H735.428C734.682 182.296 734.198 183.084 734.536 183.749L746.154 206.642C746.492 207.307 746.008 208.094 745.262 208.094H738.77C738.024 208.094 737.54 208.882 737.878 209.547L750.823 235.066C751.13 235.672 750.75 236.402 750.079 236.505C726.779 240.094 713.119 240.061 689.814 236.504C689.142 236.401 688.761 235.67 689.068 235.064L702.013 209.547C702.35 208.882 701.867 208.094 701.121 208.094H694.628C693.882 208.094 693.399 207.307 693.737 206.642L705.355 183.749C705.692 183.084 705.209 182.296 704.463 182.296H699.821C699.105 182.296 698.621 181.566 698.9 180.907L719.074 133.184Z" fill="url(#paint24_linear)"/>
<path d="M548.444 241L499.444 239L294.444 300L402.944 315L548.444 241Z" fill="url(#paint25_linear)" fill-opacity="0.5"/>
<path d="M278.443 367.5C274.293 367.509 375.163 317.041 380.444 313C386.355 308.476 400.853 305.853 413.192 306.019C447.81 306.486 442.292 321.253 442.292 321.253C442.292 321.253 412.34 334.841 400.944 336C380.47 338.081 285.302 367.485 278.443 367.5Z" fill="url(#paint26_linear)"/>
<path d="M414.444 298H424.444V310.782C420.539 312.446 418.35 312.365 414.444 310.782V298Z" fill="#C18989"/>
<path d="M417.401 186.909C417.763 186.147 418.849 186.148 419.209 186.911L443.53 238.438C443.843 239.101 443.359 239.865 442.626 239.865H436.589C435.821 239.865 435.34 240.693 435.72 241.36L449.728 265.963C450.108 266.629 449.626 267.458 448.859 267.458H440.599C439.832 267.458 439.35 268.286 439.73 268.952L455.316 296.337C455.665 296.951 455.276 297.725 454.576 297.821C426.455 301.692 410.043 301.655 381.915 297.82C381.215 297.724 380.824 296.95 381.174 296.335L396.759 268.952C397.138 268.286 396.657 267.458 395.89 267.458H387.63C386.862 267.458 386.381 266.629 386.76 265.963L400.769 241.36C401.149 240.693 400.667 239.865 399.9 239.865H393.866C393.132 239.865 392.648 239.1 392.963 238.436L417.401 186.909Z" fill="#71BFD8"/>
<path d="M445.196 298.917C444.778 298.967 444.373 298.749 444.185 298.372L429.073 268.197C428.858 267.768 428.979 267.246 429.361 266.954L434.375 263.131C434.748 262.847 434.873 262.342 434.677 261.917L424.786 240.494C424.611 240.115 424.69 239.667 424.984 239.371L430.143 234.168C430.389 233.92 430.488 233.562 430.404 233.223L418.929 186.955C418.871 186.721 419.201 186.603 419.304 186.822L443.666 238.437C443.979 239.1 443.495 239.864 442.762 239.864H436.725C435.958 239.864 435.476 240.692 435.856 241.358L449.865 265.962C450.244 266.628 449.763 267.457 448.995 267.457H440.735C439.968 267.457 439.487 268.285 439.866 268.951L455.435 296.306C455.789 296.928 455.394 297.709 454.683 297.794L445.196 298.917Z" fill="#D3D4D9"/>
<path d="M81.9445 252C78.406 249.22 88.4443 243 97.4444 240C104.944 237.5 124.659 228.709 138.329 229.009C176.681 229.851 172.944 240 172.944 240C172.944 240 150.941 248.953 138.329 250C115.672 251.88 88.9445 257.5 81.9445 252Z" fill="#96A5D1"/>
<path d="M150.115 162.609C150.495 161.914 151.493 161.915 151.871 162.61L171.086 197.929C171.449 198.595 170.966 199.407 170.208 199.407H166.21C165.415 199.407 164.938 200.29 165.374 200.955L176.018 217.174C176.455 217.839 175.978 218.722 175.182 218.722H169.446C168.651 218.722 168.174 219.606 168.61 220.271L180.561 238.488C180.968 239.108 180.576 239.94 179.839 240.028C157.545 242.67 144.351 242.645 122.052 240.026C121.315 239.939 120.922 239.107 121.329 238.486L133.279 220.271C133.715 219.606 133.238 218.722 132.443 218.722H126.706C125.911 218.722 125.434 217.839 125.87 217.174L136.514 200.955C136.951 200.29 136.474 199.407 135.678 199.407H131.685C130.926 199.407 130.443 198.593 130.808 197.927L150.115 162.609Z" fill="#6FAECC"/>
<path d="M167.711 241.194C167.248 241.24 166.815 240.961 166.666 240.521L159.52 219.451C159.374 219.021 159.537 218.547 159.915 218.296L163.606 215.855C164.036 215.57 164.179 215.006 163.937 214.551L156.251 200.106C156.032 199.696 156.125 199.189 156.475 198.884L160.277 195.557C160.568 195.302 160.687 194.902 160.58 194.529L151.493 162.742C151.428 162.513 151.747 162.382 151.861 162.592L171.086 197.928C171.449 198.594 170.966 199.406 170.208 199.406H166.21C165.415 199.406 164.938 200.289 165.374 200.954L176.018 217.173C176.455 217.838 175.978 218.721 175.182 218.721H169.446C168.651 218.721 168.174 219.605 168.61 220.27L180.538 238.453C180.951 239.081 180.549 239.923 179.801 239.997L167.711 241.194Z" fill="#BFC2CE"/>
<path d="M1462.98 270.052C1456.59 266.999 1443.63 261.754 1436.95 259.489C1422.87 254.721 1420.45 251.709 1406.82 250.551C1368.6 247.301 1373.67 259.489 1373.67 259.489C1373.67 259.489 1392.44 266.042 1404.87 268.427C1427.2 272.711 1483.62 279.907 1462.98 270.052Z" fill="#92A1D3"/>
<path d="M857.702 323.421C857.702 323.421 847.689 310.339 826.333 296.388C821.43 293.184 814.9 288.591 806.727 289.202C783.797 290.914 788.357 299.13 788.357 299.13C788.357 299.13 793.41 306.013 802.918 309.864C808.552 312.146 841.581 326.319 857.702 323.421Z" fill="url(#paint27_linear)" fill-opacity="0.5"/>
<path d="M1399.5 233.5C1387 224.474 1387.74 224.605 1379.5 220.5C1366 213.772 1355.85 213.983 1341.82 213.317C1302.45 211.448 1307.67 218.456 1307.67 218.456C1307.67 218.456 1339.75 234.889 1352.55 236.26C1371.38 238.276 1418.4 247.149 1399.5 233.5Z" fill="#92A1D3"/>
<path d="M1381.45 242H1390.45V252.956C1386.93 254.382 1384.96 254.313 1381.45 252.956V242Z" fill="#C18989"/>
<path d="M1385.57 154.118C1385.92 153.315 1387.06 153.316 1387.41 154.12L1404.38 193.424C1404.67 194.085 1404.19 194.821 1403.47 194.821H1399.97C1399.22 194.821 1398.73 195.617 1399.08 196.283L1408.78 214.895C1409.13 215.561 1408.64 216.357 1407.89 216.357H1402.83C1402.08 216.357 1401.6 217.153 1401.95 217.819L1412.8 238.658C1413.12 239.266 1412.74 240.005 1412.06 240.106C1392.28 243.067 1380.62 242.954 1360.84 240.1C1360.16 240.002 1359.78 239.26 1360.09 238.65L1370.94 217.819C1371.29 217.153 1370.81 216.357 1370.06 216.357H1365C1364.25 216.357 1363.76 215.561 1364.11 214.895L1373.81 196.283C1374.16 195.617 1373.67 194.821 1372.92 194.821H1369.43C1368.71 194.821 1368.22 194.083 1368.51 193.423L1385.57 154.118Z" fill="#71BFD8"/>
<path d="M1399.89 241.449C1399.64 241.478 1399.4 241.311 1399.35 241.061L1393.88 216.654C1393.84 216.471 1393.91 216.281 1394.05 216.161L1398.04 212.838C1398.21 212.697 1398.27 212.462 1398.18 212.259L1390.94 195.114C1390.86 194.935 1390.9 194.728 1391.03 194.584L1394.95 190.256C1395.06 190.135 1395.11 189.968 1395.07 189.809L1387.69 157.268C1387.55 156.676 1388.39 156.402 1388.63 156.96L1404.68 194.122C1404.83 194.452 1404.59 194.82 1404.23 194.82H1399.14C1398.77 194.82 1398.53 195.218 1398.7 195.551L1409.16 215.625C1409.33 215.958 1409.09 216.356 1408.72 216.356H1402.01C1401.63 216.356 1401.39 216.754 1401.56 217.087L1413.11 239.25C1413.27 239.561 1413.07 239.938 1412.72 239.978L1399.89 241.449Z" fill="url(#paint28_linear)"/>
<path d="M1331.55 121.443C1331.88 120.586 1333.1 120.587 1333.42 121.444L1350.47 166.156C1350.72 166.811 1350.24 167.513 1349.54 167.513H1345.88C1345.15 167.513 1344.67 168.268 1344.97 168.93L1354.89 190.493C1355.19 191.155 1354.71 191.911 1353.98 191.911H1348.74C1348.02 191.911 1347.53 192.666 1347.84 193.329L1358.9 217.399C1359.18 217.995 1358.81 218.69 1358.16 218.8C1338.29 222.177 1326.61 222.048 1306.74 218.793C1306.09 218.687 1305.72 217.989 1305.99 217.391L1317.05 193.329C1317.36 192.666 1316.87 191.911 1316.15 191.911H1310.91C1310.18 191.911 1309.7 191.155 1310 190.493L1319.92 168.93C1320.22 168.268 1319.74 167.513 1319.01 167.513H1315.36C1314.66 167.513 1314.17 166.81 1314.42 166.155L1331.55 121.443Z" fill="#71BFD8"/>
<path d="M1345.97 220.436C1345.7 220.472 1345.46 220.297 1345.41 220.038L1339.87 192.181C1339.84 192.013 1339.89 191.838 1340.02 191.72L1344.08 187.883C1344.23 187.745 1344.28 187.533 1344.21 187.345L1336.91 167.778C1336.85 167.613 1336.88 167.428 1336.99 167.29L1340.98 162.305C1341.08 162.189 1341.11 162.039 1341.08 161.894L1333.67 124.874C1333.55 124.272 1334.41 124.024 1334.62 124.597L1350.73 166.834C1350.85 167.161 1350.61 167.512 1350.26 167.512H1345.1C1344.74 167.512 1344.49 167.89 1344.65 168.221L1355.22 191.201C1355.37 191.532 1355.13 191.91 1354.76 191.91H1347.96C1347.6 191.91 1347.36 192.288 1347.51 192.619L1359.16 217.966C1359.3 218.271 1359.11 218.624 1358.78 218.67L1345.97 220.436Z" fill="url(#paint29_linear)"/>
<path d="M1736.95 744C1783.39 744 1705.36 632.324 1666.45 615.315C1542.95 561.328 1583.95 568.326 1502.05 561.328C1272.31 541.697 1295.57 604.629 1302.79 615.315C1310 626 1374.36 690.33 1450.64 701.184C1585.95 720.436 1706.45 744 1736.95 744Z" fill="#E0D8DF"/>
<path d="M1420.44 610.99H1363.53C1363.53 610.99 1360.31 606.395 1361.87 604.123C1363.61 601.609 1366.79 605.052 1369.7 604.123C1371.13 603.666 1369.34 600.503 1370.88 599.387C1372.47 598.245 1374.72 600.711 1375.86 599.86C1382.07 595.24 1383.64 583.156 1390.57 586.599C1395.55 589.078 1391.69 596.089 1395.78 599.86C1397.25 601.208 1399.3 600.112 1400.76 600.807C1402.34 601.56 1403.35 604.123 1405.51 604.123C1407.17 604.123 1408.95 596.249 1413.09 597.966C1417.4 599.749 1420.44 610.99 1420.44 610.99Z" fill="url(#paint30_linear)"/>
<path d="M1420.44 610.99H1363.53C1363.53 610.99 1360.31 606.395 1361.87 604.123C1363.61 601.609 1366.79 605.052 1369.7 604.123C1371.13 603.666 1369.34 600.503 1370.88 599.387C1372.47 598.245 1374.72 600.711 1375.86 599.86C1382.07 595.24 1383.64 583.156 1390.57 586.599C1395.55 589.078 1391.69 596.089 1395.78 599.86C1397.25 601.208 1399.3 600.112 1400.76 600.807C1402.34 601.56 1403.35 604.123 1405.51 604.123C1407.17 604.123 1408.95 596.249 1413.09 597.966C1417.4 599.749 1420.44 610.99 1420.44 610.99Z" fill="url(#paint31_linear)" fill-opacity="0.6"/>
<path d="M1341.89 544.281H1371.73V572.328C1360.08 575.979 1353.55 575.801 1341.89 572.328V544.281Z" fill="#DD9E9E"/>
<path d="M1355.13 225.351C1355.82 223.724 1358.12 223.726 1358.81 225.354L1421.13 373.001C1421.69 374.32 1420.72 375.779 1419.29 375.779H1402.02C1400.52 375.779 1399.56 377.356 1400.24 378.687L1436.91 450.714C1437.59 452.044 1436.62 453.621 1435.13 453.621H1412.14C1410.64 453.621 1409.68 455.198 1410.35 456.528L1450.92 536.237C1451.54 537.452 1450.77 538.92 1449.42 539.122C1376.61 550.062 1335.17 549.779 1264.21 539.122C1262.86 538.92 1262.08 537.452 1262.7 536.237L1303.27 456.528C1303.95 455.198 1302.98 453.621 1301.49 453.621H1278.5C1277 453.621 1276.04 452.044 1276.71 450.714L1313.39 378.687C1314.07 377.356 1313.1 375.779 1311.61 375.779H1294.34C1292.91 375.779 1291.94 374.317 1292.5 372.998L1355.13 225.351Z" fill="#71BFD8"/>
<path d="M1409.72 543.896C1409.23 543.956 1408.77 543.652 1408.64 543.18L1383.03 454.238C1382.92 453.861 1383.05 453.455 1383.34 453.2L1398.22 440.515C1398.55 440.234 1398.66 439.773 1398.5 439.373L1372.48 376.354C1372.33 376 1372.4 375.595 1372.65 375.309L1387.15 358.963C1387.36 358.723 1387.45 358.396 1387.38 358.083L1359.36 231.748C1359.09 230.559 1360.78 230.021 1361.25 231.143L1421.72 374.387C1422 375.046 1421.51 375.776 1420.8 375.776H1400.39C1399.64 375.776 1399.16 376.565 1399.49 377.23L1437.65 452.165C1437.99 452.83 1437.51 453.618 1436.76 453.618H1410.5C1409.76 453.618 1409.27 454.407 1409.61 455.072L1451.53 537.429C1451.85 538.047 1451.45 538.791 1450.76 538.875L1409.72 543.896Z" fill="url(#paint32_linear)"/>
<path d="M-98.272 484.706C-84.9655 478.356 -57.9951 467.448 -44.0746 462.736C-14.7787 452.82 -9.73219 446.555 18.6255 444.146C98.1809 437.386 87.6276 462.736 87.6276 462.736C83 472.5 44.1607 480.132 22.6845 481.326C-24.5607 483.953 -141.227 505.204 -98.272 484.706Z" fill="#D6D3E3"/>
<path d="M49.3145 437.712H73.9907V457.828C64.353 460.447 58.9517 460.319 49.3145 457.828V437.712Z" fill="#DD9E9E"/>
<path d="M60.3907 202.046C61.1 200.475 63.3311 200.477 64.0376 202.049L112.573 310.038C113.167 311.362 112.199 312.858 110.748 312.858H98.591C97.0751 312.858 96.1103 314.479 96.8328 315.811L124.948 367.67C125.671 369.002 124.706 370.623 123.19 370.623H106.585C105.069 370.623 104.104 372.243 104.827 373.576L136.169 431.41C136.806 432.585 136.114 434.045 134.807 434.319C77.5651 446.332 44.785 446.717 -10.6662 434.345C-11.9588 434.057 -12.6323 432.607 -12.0013 431.443L19.3591 373.576C20.0813 372.243 19.1165 370.623 17.6007 370.623H0.995617C-0.520258 370.623 -1.4851 369.002 -0.762603 367.67L27.3531 315.811C28.0755 314.479 27.1107 312.858 25.5948 312.858H13.4439C11.9914 312.858 11.0234 311.359 11.6212 310.035L60.3907 202.046Z" fill="#71BFD8"/>
<path d="M20.0648 440.324C20.5719 440.424 21.0716 440.121 21.2175 439.625L41.329 371.264C41.4436 370.875 41.3115 370.455 40.9948 370.202L29.5384 361.028C29.1849 360.745 29.0658 360.259 29.248 359.845L49.6378 313.463C49.7996 313.095 49.7254 312.666 49.4495 312.374L38.2272 300.488C37.9963 300.243 37.9038 299.899 37.9811 299.572L59.5619 208.187C59.8405 207.008 58.1734 206.442 57.6766 207.548L10.9803 311.446C10.6829 312.108 11.1669 312.856 11.8924 312.856H27.2751C28.033 312.856 28.5154 313.666 28.1542 314.333L-1.56262 369.144C-1.92387 369.811 -1.44144 370.621 -0.683506 370.621H19.2806C20.0385 370.621 20.5209 371.431 20.1598 372.097L-12.6097 432.565C-12.931 433.157 -12.5854 433.892 -11.9238 434.022L20.0648 440.324Z" fill="url(#paint33_linear)"/>
<rect x="496.446" y="26.9998" width="52" height="214.169" fill="url(#paint34_linear)"/>
<ellipse cx="522.887" cy="62.6948" rx="21.1525" ry="21.5932" fill="white"/>
<path d="M541.616 62.6948C541.616 73.2959 533.217 81.8643 522.887 81.8643C512.557 81.8643 504.158 73.2959 504.158 62.6948C504.158 52.0937 512.557 43.5253 522.887 43.5253C533.217 43.5253 541.616 52.0937 541.616 62.6948Z" stroke="#E4C99B" stroke-width="1.32203"/>
<line x1="523.768" y1="45.5083" x2="523.768" y2="51.6778" stroke="#E4C99B" stroke-width="1.76271"/>
<line x1="523.768" y1="72.8303" x2="523.768" y2="78.9998" stroke="#E4C99B" stroke-width="1.76271"/>
<line x1="533.463" y1="61.3726" x2="539.632" y2="61.3726" stroke="#E4C99B" stroke-width="1.76271"/>
<line x1="506.142" y1="61.3726" x2="512.311" y2="61.3726" stroke="#E4C99B" stroke-width="1.76271"/>
<rect x="508.446" y="89.9995" width="6" height="30" fill="#B58349"/>
<rect x="519.446" y="89.9995" width="6" height="30" fill="#B58349"/>
<rect x="530.446" y="89.9995" width="6" height="30" fill="#B58349"/>
<path d="M1336.45 762.637C1336.45 762.708 1336.44 762.778 1336.43 762.847C1336.43 762.883 1336.45 762.92 1336.45 762.957C1336.45 763.31 1333.66 763.597 1330.21 763.597C1326.77 763.597 1323.98 763.31 1323.98 762.957C1323.98 762.92 1323.99 762.883 1323.99 762.847C1323.98 762.778 1323.98 762.708 1323.98 762.637C1323.98 760.871 1326.77 759.44 1330.21 759.44C1333.66 759.44 1336.45 760.871 1336.45 762.637Z" fill="#E4C7C7"/>
<path d="M1301.11 766.269C1301.11 766.53 1301.1 766.789 1301.07 767.046C1301.05 767.183 1301.11 767.319 1301.11 767.456C1301.11 768.768 1291.81 769.832 1280.33 769.832C1268.85 769.832 1259.54 768.768 1259.54 767.456C1259.54 767.319 1259.6 767.183 1259.59 767.046C1259.56 766.789 1259.54 766.53 1259.54 766.269C1259.54 759.709 1268.85 754.392 1280.33 754.392C1291.81 754.392 1301.11 759.709 1301.11 766.269Z" fill="#E4C7C7"/>
<path d="M1321.9 759.668C1321.9 759.738 1321.9 759.808 1321.89 759.877C1321.89 759.914 1321.9 759.951 1321.9 759.988C1321.9 760.341 1320.04 760.627 1317.74 760.627C1315.45 760.627 1313.58 760.341 1313.58 759.988C1313.58 759.951 1313.6 759.914 1313.59 759.877C1313.59 759.808 1313.58 759.738 1313.58 759.668C1313.58 757.902 1315.45 756.47 1317.74 756.47C1320.04 756.47 1321.9 757.902 1321.9 759.668Z" fill="#E4C7C7"/>
<path d="M1259.55 772.139C1259.55 772.209 1259.54 772.279 1259.53 772.348C1259.53 772.385 1259.55 772.421 1259.55 772.458C1259.55 772.811 1256.75 773.098 1253.31 773.098C1249.87 773.098 1247.08 772.811 1247.08 772.458C1247.08 772.421 1247.09 772.385 1247.09 772.348C1247.08 772.279 1247.08 772.209 1247.08 772.139C1247.08 770.373 1249.87 768.941 1253.31 768.941C1256.75 768.941 1259.55 770.373 1259.55 772.139Z" fill="#E4C7C7"/>
<path d="M1240.84 747.197C1240.84 747.268 1240.84 747.337 1240.83 747.407C1240.83 747.443 1240.84 747.48 1240.84 747.517C1240.84 747.87 1238.98 748.157 1236.68 748.157C1234.39 748.157 1232.53 747.87 1232.53 747.517C1232.53 747.48 1232.54 747.443 1232.53 747.407C1232.53 747.337 1232.53 747.268 1232.53 747.197C1232.53 745.431 1234.39 744 1236.68 744C1238.98 744 1240.84 745.431 1240.84 747.197Z" fill="#E4C7C7"/>
<path d="M1265.78 778.374C1265.78 778.444 1265.78 778.514 1265.77 778.583C1265.77 778.62 1265.78 778.657 1265.78 778.694C1265.78 779.047 1263.92 779.333 1261.62 779.333C1259.33 779.333 1257.47 779.047 1257.47 778.694C1257.47 778.657 1257.48 778.62 1257.48 778.583C1257.47 778.514 1257.47 778.444 1257.47 778.374C1257.47 776.608 1259.33 775.176 1261.62 775.176C1263.92 775.176 1265.78 776.608 1265.78 778.374Z" fill="#E4C7C7"/>
<path d="M1317.74 780.452C1317.74 780.523 1317.74 780.592 1317.73 780.662C1317.72 780.698 1317.74 780.735 1317.74 780.772C1317.74 781.125 1314.95 781.412 1311.51 781.412C1308.06 781.412 1305.27 781.125 1305.27 780.772C1305.27 780.735 1305.29 780.698 1305.28 780.662C1305.27 780.592 1305.27 780.523 1305.27 780.452C1305.27 778.686 1308.06 777.255 1311.51 777.255C1314.95 777.255 1317.74 778.686 1317.74 780.452Z" fill="#E4C7C7"/>
<path d="M1253.31 779.973C1253.31 780.078 1253.3 780.183 1253.29 780.287C1253.28 780.342 1253.31 780.397 1253.31 780.452C1253.31 780.982 1248.19 781.412 1241.88 781.412C1235.57 781.412 1230.45 780.982 1230.45 780.452C1230.45 780.397 1230.48 780.342 1230.47 780.287C1230.46 780.183 1230.45 780.078 1230.45 779.973C1230.45 777.324 1235.57 775.176 1241.88 775.176C1248.19 775.176 1253.31 777.324 1253.31 779.973Z" fill="#E4C7C7"/>
<path d="M1309.43 750.395C1309.43 750.536 1309.42 750.675 1309.41 750.814C1309.4 750.887 1309.43 750.961 1309.43 751.034C1309.43 751.741 1305.71 752.313 1301.11 752.313C1296.52 752.313 1292.8 751.741 1292.8 751.034C1292.8 750.961 1292.82 750.887 1292.82 750.814C1292.81 750.675 1292.8 750.536 1292.8 750.395C1292.8 746.863 1296.52 744 1301.11 744C1305.71 744 1309.43 746.863 1309.43 750.395Z" fill="#E4C7C7"/>
<path d="M901.445 523.637C901.445 523.708 901.441 523.778 901.432 523.847C901.427 523.883 901.445 523.92 901.445 523.957C901.445 524.31 898.654 524.597 895.21 524.597C891.766 524.597 888.975 524.31 888.975 523.957C888.975 523.92 888.992 523.883 888.988 523.847C888.979 523.778 888.975 523.708 888.975 523.637C888.975 521.871 891.766 520.44 895.21 520.44C898.654 520.44 901.445 521.871 901.445 523.637Z" fill="#E8DADA"/>
<path d="M866.112 527.269C866.112 527.53 866.097 527.789 866.068 528.046C866.052 528.183 866.112 528.319 866.112 528.456C866.112 529.768 856.806 530.832 845.327 530.832C833.848 530.832 824.543 529.768 824.543 528.456C824.543 528.319 824.602 528.183 824.587 528.046C824.558 527.789 824.543 527.53 824.543 527.269C824.543 520.709 833.848 515.392 845.327 515.392C856.806 515.392 866.112 520.709 866.112 527.269Z" fill="#E8DADA"/>
<path d="M886.897 520.668C886.897 520.738 886.894 520.808 886.888 520.877C886.885 520.914 886.897 520.951 886.897 520.988C886.897 521.341 885.036 521.627 882.74 521.627C880.444 521.627 878.583 521.341 878.583 520.988C878.583 520.951 878.595 520.914 878.592 520.877C878.586 520.808 878.583 520.738 878.583 520.668C878.583 518.902 880.444 517.47 882.74 517.47C885.036 517.47 886.897 518.902 886.897 520.668Z" fill="#E8DADA"/>
<path d="M824.544 533.139C824.544 533.209 824.539 533.279 824.531 533.348C824.526 533.385 824.544 533.421 824.544 533.458C824.544 533.811 821.752 534.098 818.309 534.098C814.865 534.098 812.073 533.811 812.073 533.458C812.073 533.421 812.091 533.385 812.086 533.348C812.078 533.279 812.073 533.209 812.073 533.139C812.073 531.373 814.865 529.941 818.309 529.941C821.752 529.941 824.544 531.373 824.544 533.139Z" fill="#E8DADA"/>
<path d="M805.837 508.197C805.837 508.268 805.834 508.337 805.828 508.407C805.825 508.443 805.837 508.48 805.837 508.517C805.837 508.87 803.976 509.157 801.68 509.157C799.385 509.157 797.523 508.87 797.523 508.517C797.523 508.48 797.535 508.443 797.532 508.407C797.526 508.337 797.523 508.268 797.523 508.197C797.523 506.431 799.385 505 801.68 505C803.976 505 805.837 506.431 805.837 508.197Z" fill="#E8DADA"/>
<path d="M830.779 539.374C830.779 539.444 830.776 539.514 830.77 539.583C830.767 539.62 830.779 539.657 830.779 539.694C830.779 540.047 828.917 540.333 826.622 540.333C824.326 540.333 822.465 540.047 822.465 539.694C822.465 539.657 822.477 539.62 822.474 539.583C822.468 539.514 822.465 539.444 822.465 539.374C822.465 537.608 824.326 536.176 826.622 536.176C828.917 536.176 830.779 537.608 830.779 539.374Z" fill="#E8DADA"/>
<path d="M882.739 541.452C882.739 541.523 882.735 541.592 882.726 541.662C882.721 541.698 882.739 541.735 882.739 541.772C882.739 542.125 879.948 542.412 876.504 542.412C873.06 542.412 870.269 542.125 870.269 541.772C870.269 541.735 870.286 541.698 870.282 541.662C870.273 541.592 870.269 541.523 870.269 541.452C870.269 539.686 873.06 538.255 876.504 538.255C879.948 538.255 882.739 539.686 882.739 541.452Z" fill="#E8DADA"/>
<path d="M818.308 540.973C818.308 541.078 818.3 541.183 818.284 541.287C818.275 541.342 818.308 541.397 818.308 541.452C818.308 541.982 813.19 542.412 806.877 542.412C800.563 542.412 795.445 541.982 795.445 541.452C795.445 541.397 795.478 541.342 795.469 541.287C795.453 541.183 795.445 541.078 795.445 540.973C795.445 538.324 800.563 536.176 806.877 536.176C813.19 536.176 818.308 538.324 818.308 540.973Z" fill="#E8DADA"/>
<path d="M874.425 511.395C874.425 511.536 874.419 511.675 874.408 511.814C874.402 511.887 874.425 511.961 874.425 512.034C874.425 512.741 870.703 513.313 866.112 513.313C861.52 513.313 857.798 512.741 857.798 512.034C857.798 511.961 857.822 511.887 857.815 511.814C857.804 511.675 857.798 511.536 857.798 511.395C857.798 507.863 861.52 505 866.112 505C870.703 505 874.425 507.863 874.425 511.395Z" fill="#E8DADA"/>
<path d="M8.44445 607.637C8.44445 607.708 8.44888 607.778 8.4576 607.847C8.46223 607.883 8.44445 607.92 8.44445 607.957C8.44445 608.31 11.2361 608.597 14.6797 608.597C18.1234 608.597 20.915 608.31 20.915 607.957C20.915 607.92 20.8973 607.883 20.9019 607.847C20.9106 607.778 20.915 607.708 20.915 607.637C20.915 605.871 18.1234 604.44 14.6797 604.44C11.2361 604.44 8.44445 605.871 8.44445 607.637Z" fill="#E1CDE1"/>
<path d="M22.9929 604.668C22.9929 604.738 22.9959 604.808 23.0017 604.877C23.0048 604.914 22.9929 604.951 22.9929 604.988C22.9929 605.341 24.854 605.627 27.1498 605.627C29.4455 605.627 31.3066 605.341 31.3066 604.988C31.3066 604.951 31.2948 604.914 31.2979 604.877C31.3037 604.808 31.3066 604.738 31.3066 604.668C31.3066 602.902 29.4455 601.47 27.1498 601.47C24.854 601.47 22.9929 602.902 22.9929 604.668Z" fill="#E1CDE1"/>
<path d="M85.3458 617.139C85.3458 617.209 85.3502 617.279 85.359 617.348C85.3636 617.385 85.3458 617.421 85.3458 617.458C85.3458 617.811 88.1375 618.098 91.5811 618.098C95.0248 618.098 97.8164 617.811 97.8164 617.458C97.8164 617.421 97.7986 617.385 97.8033 617.348C97.812 617.279 97.8164 617.209 97.8164 617.139C97.8164 615.373 95.0248 613.941 91.5811 613.941C88.1375 613.941 85.3458 615.373 85.3458 617.139Z" fill="#E1CDE1"/>
<path d="M104.052 592.197C104.052 592.268 104.054 592.337 104.06 592.407C104.063 592.443 104.052 592.48 104.052 592.517C104.052 592.87 105.913 593.157 108.208 593.157C110.504 593.157 112.365 592.87 112.365 592.517C112.365 592.48 112.353 592.443 112.356 592.407C112.362 592.337 112.365 592.268 112.365 592.197C112.365 590.431 110.504 589 108.208 589C105.913 589 104.052 590.431 104.052 592.197Z" fill="#E1CDE1"/>
<path d="M79.1111 623.374C79.1111 623.444 79.114 623.514 79.1198 623.583C79.1229 623.62 79.1111 623.657 79.1111 623.694C79.1111 624.047 80.9722 624.333 83.2679 624.333C85.5637 624.333 87.4248 624.047 87.4248 623.694C87.4248 623.657 87.413 623.62 87.416 623.583C87.4219 623.514 87.4248 623.444 87.4248 623.374C87.4248 621.608 85.5637 620.176 83.2679 620.176C80.9722 620.176 79.1111 621.608 79.1111 623.374Z" fill="#E1CDE1"/>
<path d="M27.1505 625.452C27.1505 625.523 27.1549 625.592 27.1637 625.662C27.1683 625.698 27.1505 625.735 27.1505 625.772C27.1505 626.125 29.9421 626.412 33.3858 626.412C36.8295 626.412 39.6211 626.125 39.6211 625.772C39.6211 625.735 39.6033 625.698 39.6079 625.662C39.6167 625.592 39.6211 625.523 39.6211 625.452C39.6211 623.686 36.8295 622.255 33.3858 622.255C29.9421 622.255 27.1505 623.686 27.1505 625.452Z" fill="#E1CDE1"/>
<path d="M91.5816 624.973C91.5816 625.078 91.5897 625.183 91.6057 625.287C91.6142 625.342 91.5816 625.397 91.5816 625.452C91.5816 625.982 96.6996 626.412 103.013 626.412C109.326 626.412 114.444 625.982 114.444 625.452C114.444 625.397 114.412 625.342 114.42 625.287C114.436 625.183 114.444 625.078 114.444 624.973C114.444 622.324 109.326 620.176 103.013 620.176C96.6996 620.176 91.5816 622.324 91.5816 624.973Z" fill="#E1CDE1"/>
<path d="M35.4643 595.395C35.4643 595.536 35.4703 595.675 35.4819 595.814C35.4881 595.887 35.4643 595.961 35.4643 596.034C35.4643 596.741 39.1865 597.313 43.7781 597.313C48.3696 597.313 52.0918 596.741 52.0918 596.034C52.0918 595.961 52.0681 595.887 52.0743 595.814C52.0859 595.675 52.0918 595.536 52.0918 595.395C52.0918 591.863 48.3696 589 43.7781 589C39.1865 589 35.4643 591.863 35.4643 595.395Z" fill="#E1CDE1"/>
<circle cx="693.45" cy="76" r="49" fill="#FFE0CA" fill-opacity="0.2"/>
<circle cx="693.45" cy="71" r="33" fill="#FFE2B6" fill-opacity="0.67"/>
<circle cx="693.45" cy="66" r="25" fill="#FFF0D9" fill-opacity="0.8"/>
<path d="M796.975 188V231.086C796.975 231.086 780.447 234.603 783.927 243.396C785.542 247.478 806.932 249.551 808.672 251.31C810.412 253.069 808.672 260.983 808.672 266.258C808.672 271.534 808.672 290 808.672 290" stroke="url(#paint35_linear)" stroke-width="5"/>
<path d="M808.605 193V237.899C808.605 237.899 821.448 240.7 823.203 247.157C826.482 259.226 795.445 261.016 795.445 261.016L795.445 270.617L795.445 299" stroke="url(#paint36_linear)" stroke-width="5"/>
<path d="M346.444 246L323.944 241L141.944 300.5L185.944 317.5L346.444 246Z" fill="url(#paint37_linear)" fill-opacity="0.5"/>
<path d="M318.444 187.32C318.444 181.32 324.444 183.32 324.444 183.32L326.444 201.82L318.444 204.82V187.32Z" fill="url(#paint38_linear)"/>
<path d="M354.444 187.32C354.444 181.32 348.444 183.32 348.444 183.32L346.444 201.82L354.444 204.82V187.32Z" fill="url(#paint39_linear)"/>
<path d="M324.444 91.9998C324.444 89.2383 326.683 86.9998 329.444 86.9998H343.444C346.206 86.9998 348.444 89.2383 348.444 91.9998V127.879C348.444 128.7 348.17 129.497 347.665 130.144C346.652 131.443 346.624 133.255 347.596 134.584L347.692 134.716C348.181 135.384 348.444 136.19 348.444 137.018V243C348.444 245.761 346.206 248 343.444 248H329.444C326.683 248 324.444 245.761 324.444 243V137.122C324.444 136.239 324.794 135.393 325.417 134.769L325.522 134.663C326.791 133.39 326.758 131.321 325.449 130.09C324.808 129.487 324.444 128.647 324.444 127.767V91.9998Z" fill="url(#paint40_linear)"/>
<path d="M332.416 62.0937C332.314 58.6171 336.77 56.9998 336.77 56.9998V87.342H330.152C330.152 87.342 333.648 84.0968 331.023 82.691C328.008 81.0771 323.011 85.7917 323.011 85.7917C323.011 85.7917 322.944 85.9998 322.488 87.342C321.952 88.9225 318.483 89.9998 318.483 89.9998C318.483 89.9998 316.147 77.3277 318.483 71.1743C320.365 66.2161 320.621 63.2825 324.734 65.0022C326.836 65.8809 326.564 66.0422 328.584 67.1877C330.883 68.4907 333.287 67.1877 333.287 67.1877C333.287 67.1877 332.499 64.9051 332.416 62.0937Z" fill="url(#paint41_linear)"/>
<path d="M340.776 62.0937C340.878 58.6171 336.77 56.9998 336.77 56.9998V87.342H343.389C343.389 87.342 339.892 84.0968 342.518 82.691C345.532 81.0771 350.529 85.7917 350.529 85.7917C350.529 85.7917 350.529 85.7917 351.052 87.342C351.585 88.9247 355.406 89.9998 355.406 89.9998C355.406 89.9998 357.742 77.3277 355.406 71.1743C353.524 66.2161 353.231 63.2825 349.118 65.0022C347.016 65.8809 346.977 66.0422 344.956 67.1877C342.657 68.4907 340.254 67.1877 340.254 67.1877C340.254 67.1877 340.693 64.9051 340.776 62.0937Z" fill="url(#paint42_linear)"/>
<path d="M324.444 175V153C332.6 160.399 335.198 165.158 335.444 175H324.444Z" fill="url(#paint43_linear)"/>
<path d="M347.444 175V153C339.289 160.399 336.691 165.158 336.444 175H347.444Z" fill="url(#paint44_linear)"/>
<path d="M326.444 129L327.944 133H345.444L346.944 129L336.444 125L326.444 129Z" fill="url(#paint45_linear)"/>
<path d="M326.444 184.997V182C334.147 183.771 338.523 183.824 346.444 182V184.997C338.744 186.342 334.363 186.327 326.444 184.997Z" fill="#CE9E8E"/>
<path d="M344.436 131.638L341.441 126.623V91.5138L339.444 86.9998C339.444 86.9998 345.446 87.0138 346.932 88.5044C348.703 90.2816 348.429 93.0184 348.429 93.0184V126.623L346.432 132.642L348.429 139.663V234.959C348.429 234.959 348.444 244 347.444 246C346.444 248 342.938 248 342.938 248V210.383V188.314L339.943 186.308L342.938 185.807L345.434 183.8L342.938 182.797V162.233V135.651L339.444 132.642L344.436 131.638Z" fill="#EFE1CC" fill-opacity="0.8"/>
<defs>
<linearGradient id="paint0_linear" x1="972.721" y1="256.648" x2="960.179" y2="125.706" gradientUnits="userSpaceOnUse">
<stop offset="0.619792" stop-color="#B5A2B8"/>
<stop offset="1" stop-color="white"/>
</linearGradient>
<linearGradient id="paint1_linear" x1="848.252" y1="247.641" x2="867.397" y2="178.899" gradientUnits="userSpaceOnUse">
<stop offset="0.619792" stop-color="#B5A2B8"/>
<stop offset="1" stop-color="white"/>
</linearGradient>
<linearGradient id="paint2_linear" x1="153.3" y1="207.987" x2="199.722" y2="83.2319" gradientUnits="userSpaceOnUse">
<stop offset="0.619792" stop-color="#B5A2B8"/>
<stop offset="1" stop-color="white"/>
</linearGradient>
<linearGradient id="paint3_linear" x1="1480.64" y1="267.657" x2="1433.98" y2="82.3682" gradientUnits="userSpaceOnUse">
<stop offset="0.619792" stop-color="#B5A2B8"/>
<stop offset="1" stop-color="white"/>
</linearGradient>
<linearGradient id="paint4_linear" x1="976.287" y1="256.648" x2="1013.69" y2="116.812" gradientUnits="userSpaceOnUse">
<stop offset="0.619792" stop-color="#B5A2B8"/>
<stop offset="1" stop-color="white"/>
</linearGradient>
<linearGradient id="paint5_linear" x1="1195.46" y1="196.598" x2="1232.87" y2="56.7624" gradientUnits="userSpaceOnUse">
<stop offset="0.619792" stop-color="#B5A2B8"/>
<stop offset="1" stop-color="white"/>
</linearGradient>
<linearGradient id="paint6_linear" x1="266.956" y1="228.874" x2="280.51" y2="100.225" gradientUnits="userSpaceOnUse">
<stop offset="0.619792" stop-color="#B5A2B8"/>
<stop offset="1" stop-color="white"/>
</linearGradient>
<linearGradient id="paint7_linear" x1="121.798" y1="243.887" x2="93.14" y2="120.464" gradientUnits="userSpaceOnUse">
<stop offset="0.619792" stop-color="#B5A2B8"/>
<stop offset="1" stop-color="white"/>
</linearGradient>
<linearGradient id="paint8_linear" x1="791.992" y1="-21.5398" x2="831.694" y2="182.71" gradientUnits="userSpaceOnUse">
<stop offset="0.46875" stop-color="#C4C4C4" stop-opacity="0"/>
<stop offset="1" stop-color="#D0D9E3"/>
</linearGradient>
<linearGradient id="paint9_linear" x1="690.034" y1="25.4888" x2="650.332" y2="229.739" gradientUnits="userSpaceOnUse">
<stop offset="0.46875" stop-color="#C4C4C4" stop-opacity="0"/>
<stop offset="1" stop-color="#D0D9E3"/>
</linearGradient>
<linearGradient id="paint10_linear" x1="1130.16" y1="4.9313" x2="837.924" y2="110.518" gradientUnits="userSpaceOnUse">
<stop stop-color="#E2EFF4"/>
<stop offset="1" stop-color="#EEF5F5"/>
</linearGradient>
<linearGradient id="paint11_linear" x1="1321.36" y1="39.3423" x2="921.174" y2="340.321" gradientUnits="userSpaceOnUse">
<stop stop-color="#B8DAEA"/>
<stop offset="1" stop-color="#F0E3E5"/>
</linearGradient>
<linearGradient id="paint12_linear" x1="285.971" y1="-0.573242" x2="518.161" y2="84.4966" gradientUnits="userSpaceOnUse">
<stop stop-color="#C2DEEE"/>
<stop offset="0.987296" stop-color="white"/>
</linearGradient>
<linearGradient id="paint13_linear" x1="90.8096" y1="5.43188" x2="512.405" y2="292.706" gradientUnits="userSpaceOnUse">
<stop offset="0.0153947" stop-color="#ACCFE4"/>
<stop offset="0.666667" stop-color="#E7E6F5"/>
</linearGradient>
<linearGradient id="paint14_linear" x1="710.374" y1="900.177" x2="710.374" y2="6046.4" gradientUnits="userSpaceOnUse">
<stop offset="0.161458" stop-color="#F6EDEC"/>
<stop offset="0.604167" stop-color="#E9DDDC"/>
<stop offset="0.859375" stop-color="#92CDE3"/>
<stop offset="1" stop-color="#91A6D7"/>
</linearGradient>
<linearGradient id="paint15_linear" x1="386.055" y1="182.087" x2="382.551" y2="813.605" gradientUnits="userSpaceOnUse">
<stop stop-color="#97ABDE"/>
<stop offset="0.354167" stop-color="#ECEAED"/>
<stop offset="1" stop-color="#F7EDED"/>
</linearGradient>
<linearGradient id="paint16_linear" x1="274.315" y1="13.81" x2="273.314" y2="367.1" gradientUnits="userSpaceOnUse">
<stop stop-color="#A7AFD9" stop-opacity="0"/>
<stop offset="1" stop-color="white"/>
</linearGradient>
<linearGradient id="paint17_linear" x1="90.8889" y1="804.525" x2="130.236" y2="821.139" gradientUnits="userSpaceOnUse">
<stop offset="0.11184" stop-color="#7FA8C6"/>
<stop offset="1" stop-color="#6C96B2"/>
</linearGradient>
<linearGradient id="paint18_linear" x1="92.7859" y1="805.472" x2="110.552" y2="819.467" gradientUnits="userSpaceOnUse">
<stop stop-color="white" stop-opacity="0.54"/>
<stop offset="1" stop-color="white" stop-opacity="0"/>
</linearGradient>
<linearGradient id="paint19_linear" x1="1226.44" y1="306.525" x2="1265.79" y2="323.139" gradientUnits="userSpaceOnUse">
<stop offset="0.11184" stop-color="#7FA8C6"/>
<stop offset="1" stop-color="#6C96B2"/>
</linearGradient>
<linearGradient id="paint20_linear" x1="1228.34" y1="307.472" x2="1246.11" y2="321.467" gradientUnits="userSpaceOnUse">
<stop stop-color="white" stop-opacity="0.54"/>
<stop offset="1" stop-color="white" stop-opacity="0"/>
</linearGradient>
<linearGradient id="paint21_linear" x1="177.889" y1="368.525" x2="217.236" y2="385.139" gradientUnits="userSpaceOnUse">
<stop offset="0.11184" stop-color="#7FA8C6"/>
<stop offset="1" stop-color="#6C96B2"/>
</linearGradient>
<linearGradient id="paint22_linear" x1="179.786" y1="369.472" x2="197.552" y2="383.467" gradientUnits="userSpaceOnUse">
<stop stop-color="white" stop-opacity="0.54"/>
<stop offset="1" stop-color="white" stop-opacity="0"/>
</linearGradient>
<linearGradient id="paint23_linear" x1="1171.45" y1="123.254" x2="1202" y2="260" gradientUnits="userSpaceOnUse">
<stop stop-color="#92B7D2"/>
<stop offset="0.957954" stop-color="#749EBD"/>
</linearGradient>
<linearGradient id="paint24_linear" x1="720.445" y1="117.5" x2="720.445" y2="168.5" gradientUnits="userSpaceOnUse">
<stop stop-color="#FCEDD5"/>
<stop offset="1" stop-color="#92B7D2"/>
</linearGradient>
<linearGradient id="paint25_linear" x1="484.944" y1="205" x2="441.444" y2="286" gradientUnits="userSpaceOnUse">
<stop stop-color="#758BCB"/>
<stop offset="1" stop-color="#B0BBD8" stop-opacity="0"/>
</linearGradient>
<linearGradient id="paint26_linear" x1="365.082" y1="300.412" x2="345.944" y2="407.5" gradientUnits="userSpaceOnUse">
<stop stop-color="#96A6D3"/>
<stop offset="1" stop-color="#E2E9F2" stop-opacity="0"/>
</linearGradient>
<linearGradient id="paint27_linear" x1="844" y1="295" x2="863.778" y2="355.174" gradientUnits="userSpaceOnUse">
<stop stop-color="#8FA3D8"/>
<stop offset="0.685817" stop-color="#E2E3EF" stop-opacity="0"/>
</linearGradient>
<linearGradient id="paint28_linear" x1="1430.44" y1="241.5" x2="1430.44" y2="152" gradientUnits="userSpaceOnUse">
<stop stop-color="#6975A5"/>
<stop offset="1" stop-color="#6975A5" stop-opacity="0"/>
</linearGradient>
<linearGradient id="paint29_linear" x1="1285.95" y1="220" x2="1285.95" y2="119" gradientUnits="userSpaceOnUse">
<stop stop-color="#6975A5"/>
<stop offset="1" stop-color="#6975A5" stop-opacity="0"/>
</linearGradient>
<linearGradient id="paint30_linear" x1="1380.89" y1="594.515" x2="1420.24" y2="611.13" gradientUnits="userSpaceOnUse">
<stop offset="0.11184" stop-color="#6490AF"/>
<stop offset="1" stop-color="#628EAB"/>
</linearGradient>
<linearGradient id="paint31_linear" x1="1382.79" y1="595.463" x2="1400.55" y2="609.458" gradientUnits="userSpaceOnUse">
<stop stop-color="white" stop-opacity="0.54"/>
<stop offset="1" stop-color="white" stop-opacity="0"/>
</linearGradient>
<linearGradient id="paint32_linear" x1="1298.45" y1="560" x2="1298.45" y2="221" gradientUnits="userSpaceOnUse">
<stop stop-color="#6975A5"/>
<stop offset="1" stop-color="#6975A5" stop-opacity="0"/>
</linearGradient>
<linearGradient id="paint33_linear" x1="137.885" y1="438.593" x2="137.885" y2="198" gradientUnits="userSpaceOnUse">
<stop stop-color="#6975A5"/>
<stop offset="1" stop-color="#6975A5" stop-opacity="0"/>
</linearGradient>
<linearGradient id="paint34_linear" x1="522.446" y1="164.5" x2="522.446" y2="269" gradientUnits="userSpaceOnUse">
<stop stop-color="#E4C99B"/>
<stop offset="1" stop-color="#B2BCDB"/>
</linearGradient>
<linearGradient id="paint35_linear" x1="794.946" y1="188" x2="794.946" y2="315.5" gradientUnits="userSpaceOnUse">
<stop stop-color="#8B4E4E"/>
<stop offset="1" stop-color="#ABB8DF"/>
</linearGradient>
<linearGradient id="paint36_linear" x1="809.445" y1="193" x2="809.445" y2="319.316" gradientUnits="userSpaceOnUse">
<stop stop-color="#8B4E4E"/>
<stop offset="1" stop-color="#ABB8DF"/>
</linearGradient>
<linearGradient id="paint37_linear" x1="266.444" y1="247" x2="227.5" y2="284" gradientUnits="userSpaceOnUse">
<stop stop-color="#7D8FC4"/>
<stop offset="1" stop-color="#B0BBD8" stop-opacity="0"/>
</linearGradient>
<linearGradient id="paint38_linear" x1="354.444" y1="193" x2="298.944" y2="200" gradientUnits="userSpaceOnUse">
<stop stop-color="#EFE1CC"/>
<stop offset="1" stop-color="#C18B79"/>
</linearGradient>
<linearGradient id="paint39_linear" x1="354.444" y1="193" x2="298.944" y2="200" gradientUnits="userSpaceOnUse">
<stop stop-color="#EFE1CC"/>
<stop offset="1" stop-color="#C18B79"/>
</linearGradient>
<linearGradient id="paint40_linear" x1="298.944" y1="144" x2="410.944" y2="154.5" gradientUnits="userSpaceOnUse">
<stop stop-color="#C9A280"/>
<stop offset="1" stop-color="#F9E6D4"/>
</linearGradient>
<linearGradient id="paint41_linear" x1="332.376" y1="56.9998" x2="361.791" y2="67.7614" gradientUnits="userSpaceOnUse">
<stop stop-color="#D2B091"/>
<stop offset="1" stop-color="#E0CBB7"/>
</linearGradient>
<linearGradient id="paint42_linear" x1="332.376" y1="56.9998" x2="361.791" y2="67.7614" gradientUnits="userSpaceOnUse">
<stop stop-color="#D2B091"/>
<stop offset="1" stop-color="#E0CBB7"/>
</linearGradient>
<linearGradient id="paint43_linear" x1="329.944" y1="153" x2="329.944" y2="175" gradientUnits="userSpaceOnUse">
<stop stop-color="#CD9A8A"/>
<stop offset="1" stop-color="#C29898" stop-opacity="0"/>
</linearGradient>
<linearGradient id="paint44_linear" x1="341.944" y1="153" x2="341.944" y2="175" gradientUnits="userSpaceOnUse">
<stop stop-color="#CD9A8A"/>
<stop offset="1" stop-color="#C29898" stop-opacity="0"/>
</linearGradient>
<linearGradient id="paint45_linear" x1="336.694" y1="125" x2="336.694" y2="133" gradientUnits="userSpaceOnUse">
<stop stop-color="#BF8977"/>
<stop offset="1" stop-color="#BF8977" stop-opacity="0"/>
</linearGradient>
</defs>
</svg>
