<svg width="174" height="177" viewBox="0 0 174 177" fill="none" xmlns="http://www.w3.org/2000/svg">
<path d="M95.3145 143.016L108.16 150.607V158.782L95.3145 166.664L82.1768 158.782V150.607L95.3145 143.016Z" fill="#606060"/>
<path fill-rule="evenodd" clip-rule="evenodd" d="M108.16 150.607L95.3145 143.016L82.1768 150.607L95.3145 157.906V166.664L108.16 158.782V150.607Z" fill="#3B3B3B"/>
<path d="M103.724 149.354L92.9507 155.691L85.9795 151.889V115.765L92.9507 118.934L103.724 112.597V149.354Z" fill="#3B3B3B"/>
<path fill-rule="evenodd" clip-rule="evenodd" d="M92.9507 118.934L85.9795 115.765V151.889L92.9507 155.691V118.934Z" fill="#606060"/>
<path d="M15 166.465V151.889H17.535V165.831L23.8724 170.268L163.296 90.4158L153.79 84.7121V73.3047H156.325V84.0784L169 91.6833L27.0412 175.338L15 166.465Z" fill="#3B3B3B"/>
<path d="M15 165.198V150.621H17.535V164.564L23.8724 169L161.395 87.8807L153.79 83.4445V72.0371H156.325V82.8108L169 90.4157L27.0412 174.07L15 165.198Z" fill="#606060"/>
<path d="M46.687 136.679V150.622L51.1232 153.79" stroke="#606060" stroke-width="1.26749"/>
<path d="M96.1191 107.527V121.469L101.189 124.638" stroke="#606060" stroke-width="1.26749"/>
<path d="M132.877 85.9795V99.9219L139.214 103.724" stroke="#606060" stroke-width="1.26749"/>
<path d="M20.7036 168.366L158.86 86.6133" stroke="#606060" stroke-width="1.26749"/>
<g filter="url(#filter0_d)">
<path d="M157.913 80.4594L20.07 161.395L15.2535 157.783C15.0939 157.663 15 157.475 15 157.276V94.8518L152.211 15.1808C152.404 15.0687 152.642 15.0664 152.837 15.1748L158.226 18.1687V79.9129C158.226 80.1377 158.107 80.3456 157.913 80.4594Z" fill="#FFD154"/>
</g>
<path fill-rule="evenodd" clip-rule="evenodd" d="M158.226 18.1687L20.07 98.0206V161.395L15.2535 157.783C15.0939 157.663 15 157.475 15 157.276V94.8518L152.211 15.1808C152.404 15.0687 152.642 15.0664 152.837 15.1748L158.226 18.1687Z" fill="#3B3B3B"/>
<path fill-rule="evenodd" clip-rule="evenodd" d="M20.07 98.0206L158.226 18.1687L152.837 15.1748C152.642 15.0664 152.404 15.0687 152.211 15.1808L15 94.8518L20.07 98.0206Z" fill="#606060"/>
<path d="M48.9448 119.083L51.8546 117.403L47.2072 103.449L44.5052 105.009L39.3007 124.651L42.2106 122.971L43.3362 118.399L47.9504 115.735L48.9448 119.083ZM45.7878 108.356L47.2291 113.3L44.153 115.076L45.7878 108.356ZM63.5189 104.679C63.5806 100.96 62.0012 99.3759 58.8419 101.2C57.5533 101.944 56.5837 103.312 56.2823 104.104L56.303 102.856L53.7257 104.344L53.444 121.334L56.0213 119.846L56.1208 113.846C56.5669 114.254 57.575 114.29 58.635 113.678C61.7943 111.854 63.4573 108.399 63.5189 104.679ZM60.8169 106.239C60.7771 108.639 59.6749 110.559 58.3239 111.339C56.9729 112.119 55.9343 111.435 55.9741 109.035C56.0139 106.635 57.0954 104.728 58.4464 103.948C59.7974 103.168 60.8567 103.839 60.8169 106.239ZM75.9207 97.5189C75.9824 93.7994 74.4029 92.2157 71.2437 94.0397C69.955 94.7837 68.9854 96.1516 68.6841 96.9435L68.7048 95.6957L66.1275 97.1837L65.8458 114.173L68.4231 112.685L68.5225 106.686C68.9686 107.094 69.9767 107.13 71.0368 106.518C74.196 104.694 75.859 101.238 75.9207 97.5189ZM73.2187 99.0789C73.1789 101.479 72.0766 103.398 70.7256 104.178C69.3746 104.958 68.3361 104.275 68.3759 101.875C68.4157 99.4752 69.4972 97.5674 70.8482 96.7874C72.1992 96.0074 73.2585 96.6792 73.2187 99.0789ZM78.5283 85.1757L78.2465 102.165L80.8238 100.677L81.1055 83.6877L78.5283 85.1757ZM82.4497 87.7601L86.0655 96.8905L84.1633 103.598L86.6575 102.158L92.3432 82.0481L89.7659 83.5361L87.3539 92.439L85.0478 86.2601L82.4497 87.7601ZM99.2124 78.0821L99.0118 90.1765L101.589 88.6885L101.669 83.8651C101.722 80.6736 102.894 78.2858 104.141 77.5658C105.014 77.0618 105.628 77.2537 105.604 78.6936L105.476 86.4445L108.053 84.9565L108.196 76.3177C108.237 73.894 106.906 73.4502 105.035 74.5302C103.684 75.3102 102.548 76.8221 101.757 78.5379L101.79 76.5941L99.2124 78.0821ZM110.461 77.5772C110.403 81.0807 112.311 82.6884 115.678 80.7444C119.045 78.8004 121.044 74.9367 121.102 71.4332C121.16 67.9297 119.252 66.3221 115.885 68.2661C112.518 70.2101 110.519 74.0737 110.461 77.5772ZM113.163 76.0172C113.196 74.0255 114.18 71.7697 115.843 70.8097C117.506 69.8497 118.433 71.0015 118.4 72.9932C118.367 74.985 117.383 77.2407 115.72 78.2007C114.057 79.1607 113.13 78.009 113.163 76.0172ZM134.771 57.5525L132.762 66.9354L131.133 59.6525L128.722 61.0445L126.818 70.3674L125.085 63.1445L122.487 64.6445L125.633 74.8068L127.919 73.4868L129.857 64.6199L131.536 71.3988L133.822 70.0788L137.369 56.0525L134.771 57.5525Z" fill="#262662"/>
<defs>
<filter id="filter0_d" x="0" y="0.0949707" width="173.226" height="176.3" filterUnits="userSpaceOnUse" color-interpolation-filters="sRGB">
<feFlood flood-opacity="0" result="BackgroundImageFix"/>
<feColorMatrix in="SourceAlpha" type="matrix" values="0 0 0 0 0 0 0 0 0 0 0 0 0 0 0 0 0 0 127 0"/>
<feOffset/>
<feGaussianBlur stdDeviation="7.5"/>
<feColorMatrix type="matrix" values="0 0 0 0 1 0 0 0 0 0.819608 0 0 0 0 0.352941 0 0 0 1 0"/>
<feBlend mode="normal" in2="BackgroundImageFix" result="effect1_dropShadow"/>
<feBlend mode="normal" in="SourceGraphic" in2="effect1_dropShadow" result="shape"/>
</filter>
</defs>
</svg>
