<svg width="305" height="259" viewBox="0 0 305 259" fill="none" xmlns="http://www.w3.org/2000/svg">
<g style="mix-blend-mode:multiply">
<path d="M11.0858 216.385C9.88423 208.622 21.5996 209.725 27.6074 211.248C37.2868 206.871 57.4467 198.118 60.6509 198.118C64.6561 198.118 118.727 211.248 127.739 211.248C136.75 211.248 145.262 204.968 161.783 186.701C178.305 168.434 218.858 180.422 237.883 186.701C256.908 192.981 299.463 211.248 297.961 224.948C296.76 235.908 259.745 238.268 241.387 238.077L207.843 238.077C202.837 238.077 189.82 247.782 178.805 248.923C167.791 250.065 152.771 238.077 145.262 238.077C137.752 238.077 115.222 224.948 92.1921 224.948C69.162 224.948 12.5878 226.09 11.0858 216.385Z" fill="#E2E3EF" fill-opacity="0.6"/>
</g>
<path d="M72.725 159.328C109.542 164.308 116.415 162.335 116.415 162.335L134.519 202.149C134.519 202.149 104.498 214.226 83.947 216.48C66.0353 218.445 54.7001 220.384 37.8242 214.868C24.8664 210.632 15.1167 208.11 8.53694 197.358C-5.74134 174.024 35.908 154.348 72.725 159.328Z" fill="#854C44"/>
<path d="M69.0353 154.718C103.748 159.825 110.222 157.847 110.222 157.847L127.37 198.085C127.37 198.085 99.0998 210.216 79.7343 212.449C62.8558 214.395 52.1759 216.328 36.2577 210.722C24.0353 206.418 14.8403 203.851 8.61568 192.98C-4.892 169.389 34.3228 149.611 69.0353 154.718Z" fill="url(#paint0_linear)"/>
<g style="mix-blend-mode:multiply">
<path d="M14.5859 169.102C24.3622 179.047 32.903 189.703 39.7268 201.753C42.0696 205.889 45.8244 210.222 47.4914 214.588" stroke="url(#paint1_linear)" stroke-width="1.70987" stroke-linecap="round" stroke-linejoin="round"/>
<path d="M7.40039 184.053C13.4853 189.358 18.7958 195.048 23.0286 201.489C24.4818 203.701 26.8174 206.013 27.8474 208.35" stroke="url(#paint2_linear)" stroke-width="1.70987" stroke-linecap="round" stroke-linejoin="round"/>
<path d="M29.1543 160.448C41.0907 172.465 51.518 185.344 59.8475 199.905C62.7072 204.905 67.2915 210.141 69.3257 215.417" stroke="url(#paint3_linear)" stroke-width="1.70987" stroke-linecap="round" stroke-linejoin="round"/>
<path d="M48.7002 156.08C60.3616 168.313 70.5517 181.418 78.6973 196.233C81.4939 201.319 85.9733 206.648 87.9649 212.015" stroke="url(#paint4_linear)" stroke-width="1.70987" stroke-linecap="round" stroke-linejoin="round"/>
<path d="M68.3945 156.394C79.7684 168.091 88.6915 179.378 96.6324 193.548C99.3587 198.413 103.727 203.509 105.668 208.642" stroke="url(#paint5_linear)" stroke-width="1.70987" stroke-linecap="round" stroke-linejoin="round"/>
<path d="M91.5459 159.437C100.57 169.047 108.456 179.342 114.762 190.979C116.927 194.974 120.393 199.16 121.936 203.375" stroke="url(#paint6_linear)" stroke-width="1.70987" stroke-linecap="round" stroke-linejoin="round"/>
<path d="M110.391 165.825C101.073 176.456 93.0595 187.723 86.8836 200.28C84.7633 204.592 81.2177 209.191 79.8002 213.689" stroke="url(#paint7_linear)" stroke-width="1.70987" stroke-linecap="round" stroke-linejoin="round"/>
<path d="M116.131 183.603C109.785 189.742 104.321 196.242 100.097 203.477C98.6468 205.961 96.2303 208.615 95.2556 211.204" stroke="url(#paint8_linear)" stroke-width="1.70987" stroke-linecap="round" stroke-linejoin="round"/>
<path d="M95.7168 160.303C85.8189 172.271 77.3101 184.96 70.7605 199.108C68.5119 203.965 64.7465 209.144 63.2464 214.213" stroke="url(#paint9_linear)" stroke-width="1.70987" stroke-linecap="round" stroke-linejoin="round"/>
<path d="M78 156.873C68.4341 169.49 60.2173 182.873 53.9045 197.802C51.7371 202.928 48.0997 208.389 46.6589 213.741" stroke="url(#paint10_linear)" stroke-width="1.70987" stroke-linecap="round" stroke-linejoin="round"/>
<path d="M62.7461 155.635C52.6874 167.316 44.0374 179.697 37.3735 193.498C35.0856 198.237 31.2583 203.29 29.7297 208.235" stroke="url(#paint11_linear)" stroke-width="1.70987" stroke-linecap="round" stroke-linejoin="round"/>
<path d="M42.957 156.874C34.5765 167.104 27.3728 177.951 21.8288 190.045C19.9255 194.197 16.7375 198.624 15.4682 202.958" stroke="url(#paint12_linear)" stroke-width="1.70987" stroke-linecap="round" stroke-linejoin="round"/>
</g>
<path d="M275.441 160.03C270.706 146.526 251.871 120.73 245.953 118.44L242.838 148.227L266.54 164.68L267.477 166.55L269.351 164.68L270.756 166.55L272.63 163.778L274.504 163.778L275.441 160.03Z" fill="url(#paint13_linear)"/>
<path d="M215.253 47.8283C211.351 54.8723 210.702 55.3026 213.7 58.2614C216.334 60.8605 223.435 58.6337 223.435 58.6337C223.435 58.6337 232.046 54.7483 232.236 50.0922C232.439 45.1374 228.589 41.8391 226.098 41.5314C223.607 41.2237 219.154 40.7844 215.253 47.8283Z" fill="#DE997C"/>
<path d="M165.137 50.3525C165.137 50.3525 157.477 58.585 153.921 64.0242C142.777 81.0739 128.751 107.878 128.751 107.878C128.751 107.878 106.185 138.443 108.503 160.01C111.69 189.674 128.153 206.819 158.653 213.463C172.649 216.512 181.1 213.389 195.425 212.299C211.826 211.052 218.571 214.015 232.001 204.927C248.824 193.543 255.152 178.455 256.635 158.871C257.847 142.874 248.376 118.739 248.376 118.739C248.376 118.739 228.002 63.8981 227.001 61.7104C226 59.5227 223.486 53.8814 219.654 50.402C216.336 47.39 211.064 44.0157 211.064 44.0157L199.809 41.7087C186.05 41.1152 182.484 41.1843 173.361 45.2094L165.137 50.3525Z" fill="url(#paint14_radial)"/>
<ellipse cx="184.804" cy="10.8055" rx="8.54936" ry="7.26695" transform="rotate(-1.81344 184.804 10.8055)" fill="#9AE1FF"/>
<path d="M177.988 8.13989L177.523 6.94515L178.803 6.90463L178.764 5.69637L180.898 5.62883L185.139 4.68825L185.966 3.85573L185.992 4.66123C186.259 4.11522 186.885 3.18161 187.246 3.8152C187.608 4.4488 187.448 5.6902 187.323 6.2317L191.666 8.51313L192.519 8.48611L191.704 9.72138C191.98 9.44388 192.622 9.04726 192.984 9.68086C193.346 10.3145 192.893 11.2964 192.621 11.7081L193.073 12.5001L190.94 12.5677L191.592 14.966L181.255 16.9059L179.913 16.9483L180.302 15.9866L179.096 16.1679L179.497 15.3489L177.689 12.1809L177.227 11.5753L177.65 10.9727" stroke="#9AE1FF" stroke-width="0.854936"/>
<path d="M164.578 33.8748C163.505 37.664 162.943 42.7921 162.943 42.7921L161.901 49.9176L184.425 44.861L195.015 43.1065L203.744 44.2493L216.545 45.9711C216.545 45.9711 217.287 37.7309 214.867 32.2826C212.789 27.6054 207.91 23.2099 202.984 20.247C197.884 17.1789 191.442 16.632 191.442 16.632C191.442 16.632 185.549 14.9835 179.848 18.3199C174.42 21.496 166.066 28.6197 164.578 33.8748Z" fill="url(#paint15_linear)"/>
<path d="M182.938 36.8635C176.355 37.545 165.948 42.623 165.948 42.623L173.165 49.5188C173.165 49.5188 177.341 47.9417 181.047 46.9831C184.752 46.0245 192.862 44.5039 200.445 44.9971C207.273 45.4412 216.082 47.451 216.082 47.451C216.082 47.451 220.487 42.9487 218.376 39.6801C216.929 37.4396 205.035 36.2911 203.705 36.206C196.294 35.7319 190.323 36.0989 182.938 36.8635Z" fill="url(#paint16_linear)"/>
<path d="M158.278 55.691C161.306 60.4101 165.376 59.2634 165.376 59.2634L173.928 53.3351C173.928 53.3351 174.232 48.5903 171.221 45.659C167.461 41.9987 162.513 38.8511 158.053 41.7443C153.308 44.8218 155.297 51.0459 158.278 55.691Z" fill="url(#paint17_linear)"/>
<path d="M158.713 52.2872C160.076 54.9773 164.498 56.6509 164.498 56.6509L168.764 53.6392C168.764 53.6392 168.707 50.0501 167.197 48.2794C165.311 46.0684 162.683 44.0157 159.809 45.1073C156.752 46.2684 157.372 49.6393 158.713 52.2872Z" fill="#EAC6BE"/>
<path d="M207.986 196.218L214.6 214.157L215.73 217.219L229.468 214.826L225.787 199.132L207.986 196.218Z" fill="url(#paint18_linear)"/>
<path d="M160.148 200.795L162.472 219.736L162.869 222.97L176.619 223.943L175.196 208.358L160.148 200.795Z" fill="url(#paint19_linear)"/>
<path d="M161.739 218.177L162.522 228.301C162.522 228.301 163.461 238.865 165.547 242.085C166.263 243.189 177.495 241.299 177.495 241.299C177.495 241.299 189.91 240.017 190.226 234.785C190.368 232.44 189.585 230.973 188.191 229.07C185.679 225.64 178.33 225.15 178.33 225.15L176.609 216.351L161.739 218.177Z" fill="url(#paint20_linear)"/>
<path d="M213.682 212.837L215.889 220.093C215.889 220.093 218.184 230.447 220.669 233.37C221.522 234.373 232.416 231.048 232.416 231.048C232.416 231.048 244.561 228.174 244.199 222.946C244.037 220.602 243.071 219.248 241.443 217.541C238.51 214.464 231.159 214.927 231.159 214.927L228.192 209.106L213.682 212.837Z" fill="url(#paint21_linear)"/>
<path d="M189.358 152.07L199.468 141.094L202.89 143.933L192.78 154.91L191.784 157.66L175.672 175.279C172.983 174.68 171.786 173.795 170.469 170.773L186.646 153.211L189.358 152.07Z" fill="url(#paint22_linear)"/>
<path d="M206.965 146.607L202.67 145.895L198.46 142.402C198.46 142.402 198.305 140.128 196.44 137.875C193.275 134.051 185.015 131.212 185.015 131.212L190.211 129.855C190.211 129.855 198.727 129.833 203.096 131.993C206.353 133.604 210.113 137.815 210.113 137.815L210.215 141.053L213.493 144.896L215.64 145.252L218.447 147.581C217.085 149.904 215.951 151.114 213.33 153.124L210.524 150.795L209.771 148.936L206.965 146.607Z" fill="url(#paint23_radial)"/>
<path d="M191.547 160.547C182.654 159.495 168.348 126.719 162.882 124.112C157.416 121.505 147.059 129.435 145.052 135.346C142.889 141.713 145.516 150.001 147.454 152.308C147.454 152.308 163.202 163.667 169.794 165.681C176.386 167.695 185.674 166.512 185.674 166.512L187.989 165.994L187.439 163.344L190.7 163.241L189.246 161.509L191.547 160.547Z" fill="url(#paint24_linear)"/>
<path d="M265.925 166.029L268.819 70.533C269.253 69.9775 269.794 70.2139 272.062 70.1696C272.172 71.7157 272.574 72.1932 272.985 73.8686L272.985 70.1975C274.058 69.8721 277.314 68.2473 277.314 68.2473C277.314 68.2473 278.549 69.4426 278.912 72.6859C279.555 66.7026 279.381 70.9035 280.416 67.2408C284.716 66.3569 291.41 67.3962 298.394 68.2473L293.353 220.886C292.595 222.58 288.533 223.229 286.214 223.768L286.937 204.068L285.277 223.768C282.019 223.992 281.959 224.211 278.719 223.768L276.899 215.308L278.719 224.705C271.366 223.559 269.692 221.538 265.135 219.552L265.925 166.029Z" fill="url(#paint25_linear)"/>
<path d="M265.951 169.863L268.888 72.9408C269.329 72.377 269.878 72.6169 272.18 72.5719C272.292 74.1411 272.387 81.2008 272.804 82.9012L273.117 72.6003C274.206 72.27 278.281 72.2882 278.281 72.2882C278.281 72.2882 278.764 71.8341 279.133 75.1259C279.785 69.0532 279.543 72.8698 280.593 69.1524C290.43 70.5895 295.583 70.121 298.528 69.1525L293.789 225.539C293.02 227.258 289.971 227.616 287.617 228.163L287.277 208.47L286.681 228.135C283.374 228.362 281.541 228.329 278.253 227.88L277.089 219.877L275.909 227.516C268.446 226.353 268.931 226.191 264.306 224.177L265.951 169.863Z" fill="url(#paint26_linear)"/>
<path d="M287.059 107.176C287.059 107.176 283.774 107.767 282.774 109.39C282.033 110.592 282.07 112.557 282.164 114.058C282.343 116.916 285.299 118.839 285.299 118.839" stroke="#7D3728" stroke-width="1.40531"/>
<path d="M282.57 104.287C282.57 104.287 280.914 106.338 280.474 107.914C279.857 110.122 278.567 111.82 279.353 113.973C280.043 115.863 279.539 117.36 281.091 118.641C283.096 120.296 285.233 121.239 286.084 124.076" stroke="#7D3728" stroke-width="1.40531"/>
<path d="M286.534 109.035C287.243 109.789 287.941 110.014 288.35 110.965C288.856 112.141 288.653 113.027 288.251 114.242C287.836 115.495 287.611 117.035 286.293 116.995C284.974 116.955 284.505 114.129 284.505 114.129C284.505 114.129 283.32 112.467 284.59 111.319C285.861 110.171 286.742 111.457 286.435 112.313" stroke="#7D3728" stroke-width="1.40531"/>
<path d="M288.521 105.346C289.911 105.857 290.716 106.683 292.113 107.839C293.51 108.995 293.258 112.329 291.906 114.679C290.949 116.341 288.137 117.988 288.137 117.988" stroke="#7D3728" stroke-width="1.40531"/>
<path d="M287.361 81.9363L286.78 101.133" stroke="url(#paint27_linear)" stroke-width="1.40531"/>
<path d="M290.866 74.5441L290.327 92.3365" stroke="url(#paint28_linear)" stroke-width="1.40531"/>
<path d="M286.312 132.05L284.354 196.665" stroke="#7D3728" stroke-width="1.40531"/>
<path d="M273.925 138.705L271.655 213.62" stroke="#7D3728" stroke-width="1.68637"/>
<path d="M289.76 126.531L288.852 156.497" stroke="#7D3728" stroke-width="1.40531"/>
<path d="M210.138 75.3262C205.562 75.4899 199.297 75.6997 195.576 75.782C194.306 75.8102 193.518 77.2691 194.302 78.2683C195.081 79.2607 196.042 80.3401 197.01 81.0658C198.804 82.4115 202.017 83.5869 203.347 84.0401C203.733 84.1714 204.152 84.1377 204.51 83.9446C205.616 83.349 208.085 81.9423 209.385 80.5963C210.213 79.7395 210.964 78.4956 211.526 77.4219C212.053 76.4163 211.273 75.2856 210.138 75.3262Z" fill="url(#paint29_linear)"/>
<path d="M204.348 84.6937L195.633 86.6457L197.044 94.0998C200.135 95.0444 207.418 95.3159 209.326 94.1978L210.364 86.8858L204.348 84.6937Z" fill="#FFFAFA"/>
<path d="M189.292 82.7167C190.605 84.3565 197.708 89.066 202.724 84.1142C203.017 83.8245 203.48 83.7731 203.819 84.0073C210.101 88.3425 213.301 84.5245 214.945 83.2081" stroke="#964747" stroke-width="1.57119" stroke-linecap="round" stroke-linejoin="round"/>
<path d="M179.402 72.3408C181.986 70.7957 184.905 69.8186 187.545 71.9165C187.727 72.0604 189.755 73.9649 188.711 74.0437C187.759 74.1156 180.035 73.141 180.038 73.116C180.264 71.6668 184.021 72.1946 184.824 72.1691C184.866 72.1678 188.52 71.9983 188.11 72.9159C187.583 74.0991 183.575 73.5366 182.733 73.4931C182.357 73.4737 178.207 73.3991 179.812 72.4018C181.637 71.2676 184.904 70.4992 186.804 71.7735C188.514 72.9212 183.846 72.8367 183.432 72.8051C176.777 72.2968 186.414 69.7298 186.976 72.2675C187.148 73.0419 179.711 71.4004 186.256 71.8094C187.798 71.9058 184.831 72.3081 184.388 72.257C183.355 72.138 186.192 72.1258 186.736 72.1086" stroke="black" stroke-width="0.785596" stroke-linecap="round" stroke-linejoin="round"/>
<path d="M185.364 71.6165C186.081 71.8353 187.439 71.9991 187.888 72.7145C188.24 73.2773 187.033 72.4189 186.93 72.3467C186.423 71.991 187.954 72.729 187.49 72.7437" stroke="black" stroke-width="0.785596" stroke-linecap="round" stroke-linejoin="round"/>
<path d="M181.999 71.9964C183.61 71.9454 184.721 72.0813 186.23 72.3814C186.64 72.463 187.275 72.9203 187.646 72.8459C189.191 72.5366 185.591 71.5368 185.655 71.5348C186.816 71.498 187.644 71.4267 188.427 72.1389C188.773 72.4538 189.393 72.9984 188.574 73.1625C187.702 73.3371 186.936 72.532 185.917 72.5643" stroke="black" stroke-width="0.785596" stroke-linecap="round" stroke-linejoin="round"/>
<path d="M180.546 72.1072C180.378 72.168 177.758 72.96 178.526 71.6502C179.389 70.1771 181.94 70.1432 183.413 70.5056C184.005 70.6514 185.709 71.2404 184.245 71.2868C183.007 71.326 180.969 70.9676 180.02 71.9415C179.117 72.867 179.868 71.2229 180.985 71.1556C181.749 71.1095 184.919 70.5646 185.42 71.3798C185.721 71.8695 182.67 71.5711 182.418 71.5791C181.845 71.5972 181.273 71.6153 180.7 71.6334C179.976 71.6564 182.149 71.5876 182.873 71.5646" stroke="black" stroke-width="0.785596" stroke-linecap="round" stroke-linejoin="round"/>
<path d="M186.681 73.3344C185.852 72.7338 186.796 72.932 187.369 72.9138C187.699 72.9034 186.379 72.6941 186.144 72.7015C185.492 72.7222 186.213 73.1802 186.529 73.1989C187.257 73.2419 187.255 72.7804 186.577 72.6066C186.299 72.5355 184.259 72.0049 184.557 72.7296C184.747 73.1916 185.837 73.2274 186.042 72.749C186.383 71.9541 181.49 71.0733 181.353 72.3067C181.276 73.002 183.189 72.5018 183.408 72.3672C184.494 71.7002 182.394 71.2468 182.043 71.2436C181.072 71.2347 180.273 71.6548 179.688 72.4185C179.333 72.8817 181.479 72.4939 181.716 72.3469C182.678 71.7526 182.516 71.4424 181.47 71.3134C180.695 71.2179 179.76 71.1735 179.393 71.97C178.77 73.3219 183.617 71.8344 181.226 71.0701C180.353 70.7913 178.68 71.1896 178.807 72.3578C178.915 73.3461 182.048 71.953 180.377 71.5695C179.941 71.4693 179.381 71.5201 179.057 71.8477C178.959 71.9468 178.603 72.3541 178.941 72.3831C179.243 72.4089 179.37 72.6353 179.717 72.6244C179.948 72.6171 180.179 72.6097 180.41 72.6024C180.908 72.5867 180.822 72.5984 180.373 72.3673C179.986 72.1678 179.273 71.8527 178.826 72.0175C177.975 72.3314 179.036 72.9002 179.43 72.8993C180.394 72.8971 181.173 72.5783 182.136 72.5478" stroke="black" stroke-width="0.785596" stroke-linecap="round" stroke-linejoin="round"/>
<path d="M188.52 72.6116C189.494 73.3247 189.056 72.7469 189.089 73.79" stroke="black" stroke-width="0.785596" stroke-linecap="round" stroke-linejoin="round"/>
<path d="M182.477 70.6761C184.204 70.6502 186.41 70.9117 187.582 72.3755" stroke="black" stroke-width="0.785596" stroke-linecap="round" stroke-linejoin="round"/>
<path d="M182.335 70.4146C184.54 69.9502 186.866 71.0943 188.644 72.3417" stroke="black" stroke-width="0.785596" stroke-linecap="round" stroke-linejoin="round"/>
<path d="M220.951 70.2708C218.515 68.9822 215.84 68.291 213.722 70.6318C213.576 70.7924 211.978 72.8821 212.908 72.86C213.755 72.8399 220.474 71.1277 220.468 71.1032C220.122 69.6833 216.86 70.5695 216.149 70.6214C216.112 70.6242 212.87 70.8069 213.324 71.6804C213.909 72.8067 217.389 71.8617 218.128 71.7374C218.458 71.6819 222.112 71.2088 220.596 70.3709C218.871 69.4181 215.91 68.9679 214.362 70.4182C212.968 71.7244 217.079 71.1914 217.441 71.1203C223.264 69.9746 214.5 68.3477 214.259 70.9262C214.186 71.7131 220.584 69.365 214.849 70.4012C213.498 70.6454 216.157 70.7603 216.543 70.6668C217.442 70.4492 214.937 70.7099 214.456 70.7451" stroke="black" stroke-width="0.785596" stroke-linecap="round" stroke-linejoin="round"/>
<path d="M215.617 70.1236C215.006 70.4102 213.824 70.7037 213.501 71.4585C213.246 72.0523 214.225 71.0822 214.309 71.0005C214.72 70.598 213.444 71.4793 213.854 71.4493" stroke="black" stroke-width="0.785596" stroke-linecap="round" stroke-linejoin="round"/>
<path d="M218.625 70.1779C217.198 70.2821 216.232 70.524 214.93 70.9677C214.576 71.0884 214.062 71.6042 213.726 71.566C212.332 71.4068 215.409 70.066 215.352 70.0702C214.323 70.1453 213.585 70.154 212.966 70.9377C212.693 71.2842 212.2 71.8857 212.94 71.9701C213.727 72.06 214.322 71.1854 215.224 71.1195" stroke="black" stroke-width="0.785596" stroke-linecap="round" stroke-linejoin="round"/>
<path d="M219.918 70.1484C220.073 70.1927 222.465 70.7287 221.655 69.4995C220.745 68.1171 218.49 68.3287 217.227 68.8308C216.719 69.0328 215.274 69.7826 216.571 69.6879C217.668 69.6079 219.43 69.0554 220.366 69.933C221.256 70.7669 220.428 69.2035 219.435 69.2439C218.756 69.2715 215.903 69.0344 215.543 69.8935C215.327 70.4095 217.99 69.8193 218.213 69.803C218.72 69.766 219.227 69.7289 219.735 69.6919C220.376 69.6451 218.451 69.7856 217.81 69.8324" stroke="black" stroke-width="0.785596" stroke-linecap="round" stroke-linejoin="round"/>
<path d="M214.627 71.9592C215.298 71.282 214.485 71.5699 213.978 71.607C213.686 71.6283 214.829 71.2932 215.038 71.278C215.615 71.2358 215.025 71.7609 214.748 71.8098C214.11 71.9225 214.065 71.4632 214.646 71.2251C214.884 71.1277 216.631 70.4037 216.441 71.1533C216.32 71.6312 215.361 71.7716 215.132 71.3155C214.751 70.5575 218.981 69.2107 219.226 70.4245C219.364 71.1088 217.625 70.7952 217.418 70.6823C216.393 70.1232 218.201 69.4701 218.51 69.4333C219.366 69.331 220.113 69.6722 220.707 70.3756C221.067 70.8022 219.134 70.6228 218.909 70.4994C218.001 70.0007 218.113 69.6765 219.023 69.4476C219.697 69.2781 220.518 69.144 220.922 69.9011C221.608 71.186 217.18 70.1724 219.214 69.182C219.956 68.8209 221.473 69.0562 221.478 70.2305C221.483 71.224 218.577 70.1394 220.013 69.5974C220.388 69.4556 220.887 69.4524 221.206 69.7471C221.303 69.8363 221.658 70.2073 221.363 70.2685C221.099 70.3233 221.009 70.5608 220.702 70.5832C220.498 70.5981 220.293 70.6131 220.088 70.628C219.647 70.6602 219.724 70.6636 220.097 70.3905C220.419 70.1548 221.016 69.7728 221.427 69.8938C222.21 70.1243 221.331 70.7921 220.983 70.8291C220.132 70.9196 219.413 70.6773 218.559 70.7397" stroke="black" stroke-width="0.785596" stroke-linecap="round" stroke-linejoin="round"/>
<path d="M212.933 71.4168C212.144 72.22 212.473 71.6029 212.549 72.6438" stroke="black" stroke-width="0.785596" stroke-linecap="round" stroke-linejoin="round"/>
<path d="M218.07 68.9105C216.543 69.0508 214.623 69.523 213.736 71.0919" stroke="black" stroke-width="0.785596" stroke-linecap="round" stroke-linejoin="round"/>
<path d="M218.17 68.6366C216.177 68.3866 214.239 69.7485 212.796 71.1604" stroke="black" stroke-width="0.785596" stroke-linecap="round" stroke-linejoin="round"/>
<defs>
<linearGradient id="paint0_linear" x1="123.73" y1="186.98" x2="-28.1223" y2="172.104" gradientUnits="userSpaceOnUse">
<stop stop-color="#964747"/>
<stop offset="1" stop-color="#CBA2A2"/>
</linearGradient>
<linearGradient id="paint1_linear" x1="29.8374" y1="167.505" x2="31.3443" y2="215.099" gradientUnits="userSpaceOnUse">
<stop stop-color="#6F5B5B" stop-opacity="0.51"/>
<stop offset="1" stop-color="#BD4545" stop-opacity="0.21"/>
</linearGradient>
<linearGradient id="paint2_linear" x1="16.9415" y1="183.153" x2="17.7494" y2="208.669" gradientUnits="userSpaceOnUse">
<stop stop-color="#6F5B5B" stop-opacity="0.51"/>
<stop offset="1" stop-color="#BD4545" stop-opacity="0.21"/>
</linearGradient>
<linearGradient id="paint3_linear" x1="47.7826" y1="158.512" x2="49.6041" y2="216.041" gradientUnits="userSpaceOnUse">
<stop stop-color="#6F5B5B" stop-opacity="0.51"/>
<stop offset="1" stop-color="#BD4545" stop-opacity="0.21"/>
</linearGradient>
<linearGradient id="paint4_linear" x1="66.8724" y1="154.136" x2="68.7242" y2="212.624" gradientUnits="userSpaceOnUse">
<stop stop-color="#6F5B5B" stop-opacity="0.51"/>
<stop offset="1" stop-color="#BD4545" stop-opacity="0.21"/>
</linearGradient>
<linearGradient id="paint5_linear" x1="85.6588" y1="154.568" x2="87.3892" y2="209.221" gradientUnits="userSpaceOnUse">
<stop stop-color="#6F5B5B" stop-opacity="0.51"/>
<stop offset="1" stop-color="#BD4545" stop-opacity="0.21"/>
</linearGradient>
<linearGradient id="paint6_linear" x1="105.6" y1="157.917" x2="107.055" y2="203.846" gradientUnits="userSpaceOnUse">
<stop stop-color="#6F5B5B" stop-opacity="0.51"/>
<stop offset="1" stop-color="#BD4545" stop-opacity="0.21"/>
</linearGradient>
<linearGradient id="paint7_linear" x1="94.7572" y1="165.197" x2="96.2759" y2="213.167" gradientUnits="userSpaceOnUse">
<stop stop-color="#6F5B5B" stop-opacity="0.51"/>
<stop offset="1" stop-color="#BD4545" stop-opacity="0.21"/>
</linearGradient>
<linearGradient id="paint8_linear" x1="105.544" y1="183.294" x2="106.417" y2="210.851" gradientUnits="userSpaceOnUse">
<stop stop-color="#6F5B5B" stop-opacity="0.51"/>
<stop offset="1" stop-color="#BD4545" stop-opacity="0.21"/>
</linearGradient>
<linearGradient id="paint9_linear" x1="79.0725" y1="159.564" x2="80.7851" y2="213.658" gradientUnits="userSpaceOnUse">
<stop stop-color="#6F5B5B" stop-opacity="0.51"/>
<stop offset="1" stop-color="#BD4545" stop-opacity="0.21"/>
</linearGradient>
<linearGradient id="paint10_linear" x1="61.8566" y1="156.046" x2="63.6662" y2="213.202" gradientUnits="userSpaceOnUse">
<stop stop-color="#6F5B5B" stop-opacity="0.51"/>
<stop offset="1" stop-color="#BD4545" stop-opacity="0.21"/>
</linearGradient>
<linearGradient id="paint11_linear" x1="45.8577" y1="154.936" x2="47.5273" y2="207.671" gradientUnits="userSpaceOnUse">
<stop stop-color="#6F5B5B" stop-opacity="0.51"/>
<stop offset="1" stop-color="#BD4545" stop-opacity="0.21"/>
</linearGradient>
<linearGradient id="paint12_linear" x1="28.8591" y1="156.237" x2="30.3234" y2="202.488" gradientUnits="userSpaceOnUse">
<stop stop-color="#6F5B5B" stop-opacity="0.51"/>
<stop offset="1" stop-color="#BD4545" stop-opacity="0.21"/>
</linearGradient>
<linearGradient id="paint13_linear" x1="251.219" y1="140.915" x2="287.918" y2="181.485" gradientUnits="userSpaceOnUse">
<stop stop-color="#D58D6E"/>
<stop offset="1" stop-color="#D18361"/>
</linearGradient>
<radialGradient id="paint14_radial" cx="0" cy="0" r="1" gradientUnits="userSpaceOnUse" gradientTransform="translate(201.11 70.1744) rotate(106.125) scale(68.4399 58.8213)">
<stop stop-color="#EDAC88"/>
<stop offset="1" stop-color="#D58D6E"/>
</radialGradient>
<linearGradient id="paint15_linear" x1="216.38" y1="37.554" x2="54.7023" y2="72.1802" gradientUnits="userSpaceOnUse">
<stop stop-color="#54D3D3"/>
<stop offset="1" stop-color="#54A5D3"/>
</linearGradient>
<linearGradient id="paint16_linear" x1="222.009" y1="41.5708" x2="155.61" y2="40.2497" gradientUnits="userSpaceOnUse">
<stop stop-color="#70E6E6"/>
<stop offset="1" stop-color="#86DDDD"/>
</linearGradient>
<linearGradient id="paint17_linear" x1="162.331" y1="59.2168" x2="175.3" y2="54.568" gradientUnits="userSpaceOnUse">
<stop stop-color="#DB9574"/>
<stop offset="1" stop-color="#E29E7C"/>
</linearGradient>
<linearGradient id="paint18_linear" x1="217.78" y1="203.632" x2="185.657" y2="264.827" gradientUnits="userSpaceOnUse">
<stop stop-color="#D58D6E"/>
<stop offset="1" stop-color="#29150C"/>
</linearGradient>
<linearGradient id="paint19_linear" x1="167.896" y1="210.313" x2="122.683" y2="261.346" gradientUnits="userSpaceOnUse">
<stop stop-color="#D58D6E"/>
<stop offset="1" stop-color="#29150C"/>
</linearGradient>
<linearGradient id="paint20_linear" x1="187.03" y1="224.015" x2="162.084" y2="232.896" gradientUnits="userSpaceOnUse">
<stop stop-color="#FFE55A"/>
<stop offset="1" stop-color="#F3AD44"/>
</linearGradient>
<linearGradient id="paint21_linear" x1="240.169" y1="213.717" x2="216.579" y2="225.745" gradientUnits="userSpaceOnUse">
<stop stop-color="#FFE55A"/>
<stop offset="1" stop-color="#F3AD44"/>
</linearGradient>
<linearGradient id="paint22_linear" x1="193.133" y1="151.676" x2="173.572" y2="174.798" gradientUnits="userSpaceOnUse">
<stop stop-color="#C2B6B6"/>
<stop offset="1" stop-color="#9942CE"/>
</linearGradient>
<radialGradient id="paint23_radial" cx="0" cy="0" r="1" gradientUnits="userSpaceOnUse" gradientTransform="translate(214.435 146.125) rotate(-160.588) scale(44.0555 134.524)">
<stop stop-color="#C4C4C4"/>
<stop offset="1" stop-color="#F3E8E8"/>
</radialGradient>
<linearGradient id="paint24_linear" x1="158.065" y1="148.715" x2="202.444" y2="156.083" gradientUnits="userSpaceOnUse">
<stop stop-color="#D58D6E"/>
<stop offset="1" stop-color="#C56F4D"/>
</linearGradient>
<linearGradient id="paint25_linear" x1="283.519" y1="65.426" x2="278.73" y2="223.463" gradientUnits="userSpaceOnUse">
<stop stop-color="#CAAC9C"/>
<stop offset="1" stop-color="#AE7360"/>
</linearGradient>
<linearGradient id="paint26_linear" x1="283.808" y1="67.7575" x2="278.947" y2="228.155" gradientUnits="userSpaceOnUse">
<stop stop-color="#C4815B"/>
<stop offset="1" stop-color="#974C34"/>
</linearGradient>
<linearGradient id="paint27_linear" x1="287.861" y1="81.9515" x2="287.279" y2="101.149" gradientUnits="userSpaceOnUse">
<stop stop-color="#A6623F"/>
<stop offset="1" stop-color="#7D3728"/>
</linearGradient>
<linearGradient id="paint28_linear" x1="291.366" y1="74.5592" x2="290.827" y2="92.3517" gradientUnits="userSpaceOnUse">
<stop stop-color="#A6623F"/>
<stop offset="1" stop-color="#7D3728"/>
</linearGradient>
<linearGradient id="paint29_linear" x1="202.275" y1="81.0021" x2="202.041" y2="73.6225" gradientUnits="userSpaceOnUse">
<stop stop-color="#964747"/>
<stop offset="1" stop-color="#D58D6E"/>
</linearGradient>
</defs>
</svg>
