<svg width="1440" height="1064" viewBox="0 0 1440 1064" fill="none" xmlns="http://www.w3.org/2000/svg">
<path d="M-17.5 0C-17.5 0 -33.5894 44.0917 -52.0309 102.478C-69.6207 255.435 76.2955 346 76.2955 346C245.047 469.957 1032.58 608.215 1442.42 608.215V870.931C402.619 747.33 -75.7186 441.579 -101.795 372.022C-117.916 329.022 -81.8902 197.013 -52.0309 102.478C-48.3991 70.8957 -37.7966 36.6539 -17.5 0Z" fill="url(#paint0_linear)"/>
<path d="M1148.58 943H1091.67C1091.67 943 1088.44 938.405 1090.01 936.133C1091.74 933.619 1094.92 937.062 1097.83 936.133C1099.26 935.675 1097.47 932.512 1099.02 931.396C1100.6 930.254 1102.86 932.721 1104 931.87C1110.2 927.25 1111.77 915.166 1118.7 918.609C1123.69 921.088 1119.82 928.099 1123.92 931.87C1125.38 933.217 1127.44 932.122 1128.9 932.817C1130.48 933.57 1131.48 936.133 1133.64 936.133C1135.3 936.133 1137.08 928.258 1141.23 929.975C1145.53 931.759 1148.58 943 1148.58 943Z" fill="url(#paint1_linear)"/>
<path d="M1148.58 943H1091.67C1091.67 943 1088.44 938.405 1090.01 936.133C1091.74 933.619 1094.92 937.062 1097.83 936.133C1099.26 935.675 1097.47 932.512 1099.02 931.396C1100.6 930.254 1102.86 932.721 1104 931.87C1110.2 927.25 1111.77 915.166 1118.7 918.609C1123.69 921.088 1119.82 928.099 1123.92 931.87C1125.38 933.217 1127.44 932.122 1128.9 932.817C1130.48 933.57 1131.48 936.133 1133.64 936.133C1135.3 936.133 1137.08 928.258 1141.23 929.975C1145.53 931.759 1148.58 943 1148.58 943Z" fill="url(#paint2_linear)" fill-opacity="0.6"/>
<path d="M113.578 1064H56.6673C56.6673 1064 53.4405 1059.4 55.0074 1057.13C56.7405 1054.62 59.9218 1058.06 62.8326 1057.13C64.2642 1056.68 62.4704 1053.51 64.0183 1052.4C65.6021 1051.25 67.8554 1053.72 68.998 1052.87C75.1992 1048.25 76.7738 1036.17 83.6999 1039.61C88.6878 1042.09 84.8197 1049.1 88.9167 1052.87C90.3807 1054.22 92.436 1053.12 93.8964 1053.82C95.4779 1054.57 96.4832 1057.13 98.639 1057.13C100.299 1057.13 102.081 1049.26 106.227 1050.98C110.532 1052.76 113.578 1064 113.578 1064Z" fill="url(#paint3_linear)"/>
<path d="M113.578 1064H56.6673C56.6673 1064 53.4405 1059.4 55.0074 1057.13C56.7405 1054.62 59.9218 1058.06 62.8326 1057.13C64.2642 1056.68 62.4704 1053.51 64.0183 1052.4C65.6021 1051.25 67.8554 1053.72 68.998 1052.87C75.1992 1048.25 76.7738 1036.17 83.6999 1039.61C88.6878 1042.09 84.8197 1049.1 88.9167 1052.87C90.3807 1054.22 92.436 1053.12 93.8964 1053.82C95.4779 1054.57 96.4832 1057.13 98.639 1057.13C100.299 1057.13 102.081 1049.26 106.227 1050.98C110.532 1052.76 113.578 1064 113.578 1064Z" fill="url(#paint4_linear)" fill-opacity="0.6"/>
<path d="M852.578 524H795.667C795.667 524 792.441 519.405 794.007 517.133C795.741 514.619 798.922 518.062 801.833 517.133C803.264 516.675 801.47 513.512 803.018 512.396C804.602 511.254 806.855 513.721 807.998 512.87C814.199 508.25 815.774 496.166 822.7 499.609C827.688 502.088 823.82 509.099 827.917 512.87C829.381 514.217 831.436 513.122 832.896 513.817C834.478 514.57 835.483 517.133 837.639 517.133C839.299 517.133 841.081 509.258 845.227 510.975C849.532 512.759 852.578 524 852.578 524Z" fill="url(#paint5_linear)"/>
<path d="M852.578 524H795.667C795.667 524 792.441 519.405 794.007 517.133C795.741 514.619 798.922 518.062 801.833 517.133C803.264 516.675 801.47 513.512 803.018 512.396C804.602 511.254 806.855 513.721 807.998 512.87C814.199 508.25 815.774 496.166 822.7 499.609C827.688 502.088 823.82 509.099 827.917 512.87C829.381 514.217 831.436 513.122 832.896 513.817C834.478 514.57 835.483 517.133 837.639 517.133C839.299 517.133 841.081 509.258 845.227 510.975C849.532 512.759 852.578 524 852.578 524Z" fill="url(#paint6_linear)" fill-opacity="0.6"/>
<path d="M200.578 708H143.667C143.667 708 140.441 703.405 142.007 701.133C143.741 698.619 146.922 702.062 149.833 701.133C151.264 700.675 149.47 697.512 151.018 696.396C152.602 695.254 154.855 697.721 155.998 696.87C162.199 692.25 163.774 680.166 170.7 683.609C175.688 686.088 171.82 693.099 175.917 696.87C177.381 698.217 179.436 697.122 180.896 697.817C182.478 698.57 183.483 701.133 185.639 701.133C187.299 701.133 189.081 693.258 193.227 694.975C197.532 696.759 200.578 708 200.578 708Z" fill="url(#paint7_linear)"/>
<path d="M200.578 708H143.667C143.667 708 140.441 703.405 142.007 701.133C143.741 698.619 146.922 702.062 149.833 701.133C151.264 700.675 149.47 697.512 151.018 696.396C152.602 695.254 154.855 697.721 155.998 696.87C162.199 692.25 163.774 680.166 170.7 683.609C175.688 686.088 171.82 693.099 175.917 696.87C177.381 698.217 179.436 697.122 180.896 697.817C182.478 698.57 183.483 701.133 185.639 701.133C187.299 701.133 189.081 693.258 193.227 694.975C197.532 696.759 200.578 708 200.578 708Z" fill="url(#paint8_linear)" fill-opacity="0.6"/>
<g style="mix-blend-mode:multiply">
<path d="M174.038 289.052C180.431 286 193.389 280.755 200.077 278.489C214.153 273.721 216.577 270.71 230.202 269.551C268.425 266.301 263.354 278.489 263.354 278.489C263.354 278.489 244.58 285.043 232.152 287.427C209.824 291.711 153.4 298.908 174.038 289.052Z" fill="#E2EDEF"/>
</g>
<path d="M247.577 263H256.577V274.869C253.062 276.415 251.092 276.339 247.577 274.869V263Z" fill="#C18989"/>
<path d="M251.235 174.766C251.606 174.034 252.651 174.035 253.02 174.768L272.979 214.371C273.314 215.036 272.831 215.821 272.086 215.821H267.709C266.929 215.821 266.449 216.674 266.854 217.341L278.099 235.838C278.504 236.504 278.025 237.357 277.245 237.357H271.051C270.271 237.357 269.791 238.21 270.196 238.876L282.781 259.585C283.156 260.203 282.766 261.003 282.049 261.095C258.902 264.063 245.26 264.035 222.108 261.093C221.39 261.002 220.999 260.201 221.375 259.584L233.958 238.876C234.363 238.21 233.883 237.357 233.104 237.357H226.91C226.13 237.357 225.65 236.504 226.055 235.838L237.3 217.341C237.705 216.674 237.225 215.821 236.445 215.821H232.072C231.326 215.821 230.843 215.035 231.18 214.37L251.235 174.766Z" fill="#92B7D2"/>
<path d="M268.984 262.456C268.747 262.481 268.525 262.336 268.454 262.109L260.786 237.702C260.722 237.496 260.797 237.271 260.973 237.146L265.591 233.848C265.79 233.705 265.857 233.44 265.749 233.22L257.335 216.152C257.238 215.955 257.281 215.718 257.44 215.567L261.992 211.267C262.125 211.142 262.179 210.953 262.132 210.776L253.355 177.632C253.202 177.051 254.015 176.742 254.285 177.279L273.344 215.095C273.511 215.428 273.269 215.82 272.897 215.82H266.819C266.429 215.82 266.189 216.247 266.392 216.58L278.56 236.597C278.763 236.93 278.523 237.356 278.133 237.356H270.161C269.771 237.356 269.531 237.783 269.734 238.116L283.167 260.222C283.358 260.536 283.158 260.94 282.793 260.979L268.984 262.456Z" fill="#BFC2CE"/>
<g style="mix-blend-mode:multiply">
<path d="M1141.91 239.698C1136.89 237.382 1126.77 233.501 1121.56 231.88C1110.62 228.466 1108.61 225.988 1098.21 225.667C1069.03 224.767 1073.57 235.034 1073.57 235.034C1073.57 235.034 1088.18 239.754 1097.74 241.193C1114.92 243.777 1158.13 247.175 1141.91 239.698Z" fill="#E2EDEF"/>
</g>
<path d="M1090.15 221.429H1083.01V230.849C1085.8 232.075 1087.36 232.015 1090.15 230.849V221.429Z" fill="#C18989"/>
<path d="M1086.98 150.883C1086.8 150.517 1086.28 150.518 1086.09 150.884L1069.77 183.26C1069.61 183.593 1069.85 183.985 1070.22 183.985H1074.69C1075.08 183.985 1075.32 184.412 1075.12 184.745L1065.65 200.317C1065.45 200.651 1065.69 201.077 1066.08 201.077H1072.04C1072.43 201.077 1072.67 201.504 1072.47 201.837L1061.98 219.104C1061.79 219.412 1061.99 219.813 1062.34 219.859C1081.14 222.292 1092.01 222.269 1110.81 219.858C1111.17 219.812 1111.37 219.412 1111.18 219.103L1100.69 201.837C1100.48 201.504 1100.72 201.077 1101.11 201.077H1107.07C1107.46 201.077 1107.7 200.651 1107.5 200.317L1098.03 184.745C1097.83 184.412 1098.07 183.985 1098.46 183.985H1102.93C1103.31 183.985 1103.55 183.592 1103.38 183.259L1086.98 150.883Z" fill="#92B7D2"/>
<path d="M1073.07 220.988C1073.31 221.013 1073.53 220.868 1073.61 220.641L1079.64 201.422C1079.71 201.216 1079.63 200.991 1079.46 200.866L1075.92 198.343C1075.72 198.2 1075.66 197.935 1075.77 197.715L1082.37 184.316C1082.47 184.119 1082.42 183.882 1082.27 183.731L1078.75 180.413C1078.62 180.287 1078.57 180.099 1078.61 179.922L1085.31 154.632C1085.46 154.051 1084.65 153.742 1084.38 154.279L1069.77 183.259C1069.61 183.592 1069.85 183.985 1070.22 183.985H1074.69C1075.08 183.985 1075.32 184.411 1075.12 184.744L1065.65 200.317C1065.45 200.65 1065.69 201.076 1066.08 201.076H1072.04C1072.43 201.076 1072.67 201.503 1072.47 201.836L1061.99 219.085C1061.8 219.398 1062 219.803 1062.36 219.842L1073.07 220.988Z" fill="#BFC2CE"/>
<g style="mix-blend-mode:multiply">
<path d="M69.0773 317C65.5389 314.22 75.5771 308 84.5772 305C92.0772 302.5 111.792 293.709 125.462 294.009C163.814 294.852 160.077 305 160.077 305C160.077 305 138.074 313.954 125.462 315C102.805 316.88 76.0773 322.5 69.0773 317Z" fill="#E2E9F2"/>
</g>
<path d="M137.248 227.609C137.628 226.914 138.626 226.915 139.004 227.611L158.219 262.929C158.581 263.595 158.099 264.407 157.341 264.407H153.343C152.548 264.407 152.071 265.29 152.507 265.955L163.151 282.174C163.588 282.839 163.111 283.722 162.315 283.722H156.579C155.784 283.722 155.307 284.606 155.743 285.271L167.694 303.488C168.101 304.108 167.709 304.941 166.972 305.028C144.677 307.67 131.484 307.645 109.184 305.026C108.447 304.94 108.055 304.107 108.462 303.487L120.412 285.271C120.848 284.606 120.371 283.722 119.575 283.722H113.839C113.044 283.722 112.567 282.839 113.003 282.174L123.647 265.955C124.084 265.29 123.606 264.407 122.811 264.407H118.818C118.058 264.407 117.576 263.593 117.94 262.927L137.248 227.609Z" fill="#92B7D2"/>
<path d="M154.844 306.195C154.381 306.241 153.948 305.961 153.799 305.521L146.653 284.452C146.507 284.022 146.669 283.547 147.048 283.296L150.739 280.855C151.169 280.571 151.312 280.006 151.07 279.551L143.383 265.106C143.165 264.696 143.258 264.19 143.608 263.884L147.41 260.557C147.701 260.302 147.819 259.902 147.713 259.53L140.619 234.712C140.29 233.564 141.888 232.911 142.458 233.96L158.219 262.928C158.581 263.594 158.099 264.406 157.34 264.406H153.343C152.548 264.406 152.071 265.29 152.507 265.955L163.151 282.173C163.587 282.838 163.11 283.722 162.315 283.722H156.579C155.783 283.722 155.306 284.605 155.743 285.27L167.671 303.453C168.083 304.082 167.681 304.923 166.934 304.997L154.844 306.195Z" fill="#92B7D2"/>
<g style="mix-blend-mode:multiply">
<path d="M1454.16 334.926C1447.6 331.794 1434.31 326.415 1427.45 324.092C1413.01 319.202 1410.53 316.112 1396.55 314.924C1357.35 311.591 1362.55 324.092 1362.55 324.092C1362.55 324.092 1381.8 330.813 1394.55 333.259C1417.45 337.653 1475.32 345.034 1454.16 334.926Z" fill="#E2E3EF"/>
</g>
<g style="mix-blend-mode:multiply">
<path d="M1384.75 293.913C1378.66 289.518 1376.29 289.976 1367.84 285.766C1354 278.866 1344.28 277.418 1329.88 276.735C1289.51 274.819 1294.86 282.006 1294.86 282.006C1294.86 282.006 1327.76 298.86 1340.89 300.267C1360.2 302.335 1404.14 307.912 1384.75 293.913Z" fill="#E2E3EF"/>
</g>
<path d="M1370.53 306.154H1379.76V317.391C1376.15 318.854 1374.13 318.782 1370.53 317.391V306.154Z" fill="#C18989"/>
<path d="M1374.78 215.965C1375.13 215.161 1376.27 215.162 1376.62 215.966L1394.07 256.369C1394.35 257.029 1393.87 257.765 1393.15 257.765H1389.48C1388.73 257.765 1388.25 258.562 1388.59 259.228L1398.58 278.391C1398.93 279.057 1398.44 279.854 1397.69 279.854H1392.42C1391.67 279.854 1391.19 280.65 1391.53 281.315L1402.7 302.758C1403.02 303.366 1402.64 304.105 1401.96 304.207C1381.64 307.251 1369.67 307.134 1349.36 304.2C1348.68 304.102 1348.29 303.36 1348.61 302.751L1359.78 281.315C1360.12 280.65 1359.64 279.854 1358.89 279.854H1353.61C1352.86 279.854 1352.38 279.057 1352.73 278.391L1362.71 259.228C1363.06 258.562 1362.58 257.765 1361.83 257.765H1358.16C1357.44 257.765 1356.96 257.028 1357.24 256.367L1374.78 215.965Z" fill="#71BFD8"/>
<path d="M1389.88 305.539C1389.37 305.597 1388.9 305.263 1388.79 304.764L1383.35 280.449C1383.27 280.083 1383.4 279.702 1383.68 279.462L1387.27 276.476C1387.61 276.194 1387.72 275.724 1387.55 275.318L1380.38 258.353C1380.23 257.994 1380.3 257.58 1380.56 257.292L1384.21 253.271C1384.43 253.029 1384.52 252.696 1384.45 252.378L1378.09 224.384C1377.82 223.198 1379.5 222.65 1379.99 223.766L1394.07 256.368C1394.35 257.028 1393.87 257.765 1393.15 257.765H1389.48C1388.73 257.765 1388.25 258.561 1388.59 259.227L1398.58 278.391C1398.93 279.056 1398.44 279.853 1397.69 279.853H1392.42C1391.67 279.853 1391.19 280.649 1391.53 281.315L1402.67 302.706C1403 303.328 1402.6 304.081 1401.9 304.161L1389.88 305.539Z" fill="url(#paint9_linear)"/>
<path d="M1319.38 182.443C1319.71 181.586 1320.92 181.587 1321.25 182.445L1338.77 228.4C1339.02 229.055 1338.54 229.757 1337.84 229.757H1334.01C1333.28 229.757 1332.8 230.512 1333.1 231.175L1343.31 253.363C1343.61 254.025 1343.13 254.781 1342.4 254.781H1336.95C1336.22 254.781 1335.73 255.536 1336.04 256.198L1347.42 280.952C1347.69 281.549 1347.32 282.244 1346.68 282.354C1326.26 285.825 1314.29 285.692 1293.87 282.347C1293.22 282.241 1292.85 281.543 1293.12 280.944L1304.5 256.198C1304.81 255.536 1304.32 254.781 1303.59 254.781H1298.14C1297.41 254.781 1296.93 254.025 1297.23 253.363L1307.44 231.175C1307.74 230.512 1307.26 229.757 1306.53 229.757H1302.71C1302.01 229.757 1301.52 229.054 1301.77 228.399L1319.38 182.443Z" fill="#71BFD8"/>
<path d="M1334.53 283.875C1334.01 283.943 1333.52 283.594 1333.42 283.077L1327.94 255.322C1327.87 254.984 1327.98 254.636 1328.23 254.401L1331.97 250.871C1332.26 250.595 1332.36 250.171 1332.22 249.795L1324.95 230.288C1324.82 229.958 1324.88 229.588 1325.1 229.313L1328.88 224.592C1329.07 224.362 1329.14 224.061 1329.08 223.771L1322.67 191.747C1322.43 190.545 1324.15 190.049 1324.58 191.195L1338.77 228.4C1339.02 229.054 1338.54 229.756 1337.84 229.756H1334.01C1333.28 229.756 1332.8 230.511 1333.1 231.174L1343.31 253.362C1343.61 254.024 1343.13 254.78 1342.4 254.78H1336.95C1336.22 254.78 1335.73 255.535 1336.04 256.197L1347.39 280.897C1347.68 281.509 1347.28 282.219 1346.61 282.306L1334.53 283.875Z" fill="url(#paint10_linear)"/>
<g style="mix-blend-mode:multiply">
<path d="M1594.33 644C1634.06 644 1567.3 578.398 1534.02 568.406C1428.37 536.692 1463.44 540.803 1393.39 536.692C1196.86 525.16 1222.93 568.406 1222.93 568.406C1222.93 568.406 1285.51 610.388 1349.41 618.849C1464.21 634.049 1568.24 644 1594.33 644Z" fill="#E2E3EF" fill-opacity="0.6"/>
</g>
<path d="M1256.41 523.467H1281.95V547.465C1271.97 550.59 1266.38 550.437 1256.41 547.465V523.467Z" fill="#DD9E9E"/>
<path d="M1267.47 251.204C1268.16 249.577 1270.47 249.579 1271.15 251.207L1324.05 376.511C1324.6 377.83 1323.63 379.289 1322.2 379.289H1308.33C1306.84 379.289 1305.87 380.866 1306.55 382.197L1337.5 442.987C1338.18 444.318 1337.21 445.895 1335.72 445.895H1316.99C1315.49 445.895 1314.53 447.471 1315.2 448.802L1349.52 516.229C1350.14 517.444 1349.37 518.911 1348.02 519.113C1286.1 528.393 1250.68 528.154 1190.34 519.112C1188.99 518.91 1188.22 517.443 1188.83 516.228L1223.15 448.802C1223.83 447.471 1222.86 445.895 1221.37 445.895H1202.64C1201.15 445.895 1200.18 444.318 1200.86 442.987L1231.81 382.197C1232.49 380.866 1231.52 379.289 1230.03 379.289H1216.16C1214.73 379.289 1213.76 377.827 1214.32 376.508L1267.47 251.204Z" fill="#71BFD8"/>
<path d="M1314.57 523.123C1314.08 523.183 1313.62 522.879 1313.49 522.407L1291.64 446.511C1291.53 446.134 1291.65 445.728 1291.95 445.474L1304.53 434.749C1304.86 434.468 1304.97 434.006 1304.81 433.606L1282.62 379.864C1282.47 379.511 1282.54 379.105 1282.79 378.819L1295.09 364.956C1295.3 364.716 1295.38 364.389 1295.31 364.076L1271.7 257.601C1271.43 256.412 1273.12 255.874 1273.6 256.996L1324.63 377.898C1324.91 378.557 1324.43 379.287 1323.71 379.287H1306.7C1305.95 379.287 1305.47 380.075 1305.81 380.74L1338.24 444.438C1338.58 445.104 1338.1 445.892 1337.35 445.892H1315.35C1314.61 445.892 1314.12 446.68 1314.46 447.346L1350.13 517.421C1350.45 518.039 1350.05 518.782 1349.36 518.867L1314.57 523.123Z" fill="url(#paint11_linear)"/>
<path d="M1338.58 898.638C1338.58 898.708 1338.58 898.778 1338.57 898.847C1338.56 898.884 1338.58 898.921 1338.58 898.957C1338.58 899.311 1335.79 899.597 1332.34 899.597C1328.9 899.597 1326.11 899.311 1326.11 898.957C1326.11 898.921 1326.13 898.884 1326.12 898.847C1326.11 898.778 1326.11 898.708 1326.11 898.638C1326.11 896.872 1328.9 895.44 1332.34 895.44C1335.79 895.44 1338.58 896.872 1338.58 898.638Z" fill="#E4C7C7"/>
<path d="M1303.25 902.269C1303.25 902.53 1303.23 902.79 1303.2 903.047C1303.19 903.183 1303.25 903.319 1303.25 903.457C1303.25 904.769 1293.94 905.832 1282.46 905.832C1270.98 905.832 1261.68 904.769 1261.68 903.457C1261.68 903.319 1261.74 903.183 1261.72 903.047C1261.69 902.789 1261.68 902.53 1261.68 902.269C1261.68 895.71 1270.98 890.392 1282.46 890.392C1293.94 890.392 1303.25 895.71 1303.25 902.269Z" fill="#E4C7C7"/>
<path d="M1324.03 895.668C1324.03 895.739 1324.03 895.808 1324.02 895.878C1324.02 895.914 1324.03 895.951 1324.03 895.988C1324.03 896.341 1322.17 896.628 1319.87 896.628C1317.58 896.628 1315.72 896.341 1315.72 895.988C1315.72 895.951 1315.73 895.914 1315.73 895.878C1315.72 895.808 1315.72 895.739 1315.72 895.668C1315.72 893.902 1317.58 892.471 1319.87 892.471C1322.17 892.471 1324.03 893.902 1324.03 895.668Z" fill="#E4C7C7"/>
<path d="M1261.68 908.139C1261.68 908.209 1261.67 908.279 1261.67 908.348C1261.66 908.385 1261.68 908.422 1261.68 908.459C1261.68 908.812 1258.89 909.098 1255.44 909.098C1252 909.098 1249.21 908.812 1249.21 908.459C1249.21 908.422 1249.23 908.385 1249.22 908.348C1249.21 908.279 1249.21 908.209 1249.21 908.139C1249.21 906.373 1252 904.941 1255.44 904.941C1258.89 904.941 1261.68 906.373 1261.68 908.139Z" fill="#E4C7C7"/>
<path d="M1242.97 883.198C1242.97 883.268 1242.97 883.338 1242.96 883.407C1242.96 883.444 1242.97 883.48 1242.97 883.517C1242.97 883.871 1241.11 884.157 1238.82 884.157C1236.52 884.157 1234.66 883.871 1234.66 883.517C1234.66 883.48 1234.67 883.444 1234.67 883.407C1234.66 883.338 1234.66 883.268 1234.66 883.198C1234.66 881.432 1236.52 880 1238.82 880C1241.11 880 1242.97 881.432 1242.97 883.198Z" fill="#E4C7C7"/>
<path d="M1267.91 914.374C1267.91 914.444 1267.91 914.514 1267.9 914.583C1267.9 914.62 1267.91 914.657 1267.91 914.694C1267.91 915.047 1266.05 915.333 1263.76 915.333C1261.46 915.333 1259.6 915.047 1259.6 914.694C1259.6 914.657 1259.61 914.62 1259.61 914.583C1259.6 914.514 1259.6 914.444 1259.6 914.374C1259.6 912.608 1261.46 911.177 1263.76 911.177C1266.05 911.177 1267.91 912.608 1267.91 914.374Z" fill="#E4C7C7"/>
<path d="M1319.87 916.453C1319.87 916.523 1319.87 916.593 1319.86 916.662C1319.86 916.699 1319.87 916.735 1319.87 916.772C1319.87 917.125 1317.08 917.412 1313.64 917.412C1310.19 917.412 1307.4 917.125 1307.4 916.772C1307.4 916.735 1307.42 916.699 1307.42 916.662C1307.41 916.593 1307.4 916.523 1307.4 916.453C1307.4 914.687 1310.19 913.255 1313.64 913.255C1317.08 913.255 1319.87 914.687 1319.87 916.453Z" fill="#E4C7C7"/>
<path d="M1255.44 915.973C1255.44 916.078 1255.43 916.183 1255.42 916.287C1255.41 916.342 1255.44 916.397 1255.44 916.453C1255.44 916.982 1250.32 917.412 1244.01 917.412C1237.7 917.412 1232.58 916.982 1232.58 916.453C1232.58 916.397 1232.61 916.342 1232.6 916.287C1232.59 916.183 1232.58 916.078 1232.58 915.973C1232.58 913.324 1237.7 911.177 1244.01 911.177C1250.32 911.177 1255.44 913.324 1255.44 915.973Z" fill="#E4C7C7"/>
<path d="M1311.56 886.395C1311.56 886.536 1311.55 886.676 1311.54 886.814C1311.54 886.887 1311.56 886.961 1311.56 887.035C1311.56 887.741 1307.84 888.314 1303.25 888.314C1298.65 888.314 1294.93 887.741 1294.93 887.035C1294.93 886.961 1294.96 886.887 1294.95 886.814C1294.94 886.676 1294.93 886.536 1294.93 886.395C1294.93 882.863 1298.65 880 1303.25 880C1307.84 880 1311.56 882.863 1311.56 886.395Z" fill="#E4C7C7"/>
<path d="M17.5782 759.638C17.5782 759.708 17.5827 759.778 17.5914 759.847C17.596 759.884 17.5782 759.92 17.5782 759.957C17.5782 760.311 20.3699 760.597 23.8135 760.597C27.2572 760.597 30.0488 760.311 30.0488 759.957C30.0488 759.92 30.0311 759.884 30.0357 759.847C30.0444 759.778 30.0488 759.708 30.0488 759.638C30.0488 757.872 27.2572 756.44 23.8135 756.44C20.3699 756.44 17.5782 757.872 17.5782 759.638Z" fill="#E4C7C7"/>
<path d="M32.1277 756.668C32.1277 756.739 32.1306 756.808 32.1364 756.878C32.1395 756.914 32.1277 756.951 32.1277 756.988C32.1277 757.341 33.9888 757.627 36.2845 757.627C38.5803 757.627 40.4414 757.341 40.4414 756.988C40.4414 756.951 40.4296 756.914 40.4326 756.878C40.4385 756.808 40.4414 756.739 40.4414 756.668C40.4414 754.902 38.5803 753.471 36.2845 753.471C33.9888 753.471 32.1277 754.902 32.1277 756.668Z" fill="#E4C7C7"/>
<path d="M94.4806 769.139C94.4806 769.209 94.485 769.279 94.4937 769.348C94.4984 769.385 94.4806 769.422 94.4806 769.459C94.4806 769.812 97.2722 770.098 100.716 770.098C104.16 770.098 106.951 769.812 106.951 769.459C106.951 769.422 106.933 769.385 106.938 769.348C106.947 769.279 106.951 769.209 106.951 769.139C106.951 767.373 104.16 765.941 100.716 765.941C97.2722 765.941 94.4806 767.373 94.4806 769.139Z" fill="#E4C7C7"/>
<path d="M113.186 744.198C113.186 744.268 113.189 744.338 113.195 744.407C113.198 744.444 113.186 744.48 113.186 744.517C113.186 744.871 115.047 745.157 117.343 745.157C119.639 745.157 121.5 744.871 121.5 744.517C121.5 744.48 121.488 744.444 121.491 744.407C121.497 744.338 121.5 744.268 121.5 744.198C121.5 742.432 119.639 741 117.343 741C115.047 741 113.186 742.432 113.186 744.198Z" fill="#E4C7C7"/>
<path d="M88.2449 775.374C88.2449 775.444 88.2478 775.514 88.2536 775.583C88.2567 775.62 88.2449 775.657 88.2449 775.694C88.2449 776.047 90.106 776.333 92.4017 776.333C94.6975 776.333 96.5586 776.047 96.5586 775.694C96.5586 775.657 96.5467 775.62 96.5498 775.583C96.5556 775.514 96.5586 775.444 96.5586 775.374C96.5586 773.608 94.6975 772.176 92.4017 772.176C90.106 772.176 88.2449 773.608 88.2449 775.374Z" fill="#E4C7C7"/>
<path d="M36.2833 777.452C36.2833 777.523 36.2877 777.593 36.2965 777.662C36.3011 777.699 36.2833 777.735 36.2833 777.772C36.2833 778.125 39.075 778.412 42.5186 778.412C45.9623 778.412 48.7539 778.125 48.7539 777.772C48.7539 777.735 48.7361 777.699 48.7408 777.662C48.7495 777.593 48.7539 777.523 48.7539 777.452C48.7539 775.686 45.9623 774.255 42.5186 774.255C39.075 774.255 36.2833 775.686 36.2833 777.452Z" fill="#E4C7C7"/>
<path d="M100.715 776.973C100.715 777.078 100.724 777.183 100.739 777.287C100.748 777.342 100.715 777.397 100.715 777.452C100.715 777.982 105.833 778.412 112.147 778.412C118.46 778.412 123.578 777.982 123.578 777.452C123.578 777.397 123.546 777.342 123.554 777.287C123.57 777.183 123.578 777.078 123.578 776.973C123.578 774.324 118.46 772.176 112.147 772.176C105.833 772.176 100.715 774.324 100.715 776.973Z" fill="#E4C7C7"/>
<path d="M44.5972 747.395C44.5972 747.536 44.6031 747.675 44.6147 747.814C44.6209 747.887 44.5972 747.961 44.5972 748.035C44.5972 748.741 48.3193 749.314 52.9109 749.314C57.5024 749.314 61.2246 748.741 61.2246 748.035C61.2246 747.961 61.2009 747.887 61.2071 747.814C61.2187 747.675 61.2246 747.536 61.2246 747.395C61.2246 743.863 57.5024 741 52.9109 741C48.3193 741 44.5972 743.863 44.5972 747.395Z" fill="#E4C7C7"/>
<path d="M-17.9223 609C5.57732 623.5 42.578 630.977 56.0781 623C91.0783 602.318 130.895 582.5 168.395 557.999L3.72334 555.746C3.72334 555.746 -5.10499 561.5 -21.7767 582.5C-38.4484 603.501 -27.0676 603.357 -17.9223 609Z" fill="#E6DDE3"/>
<path d="M167.683 556.196L113.055 465.474C112.866 465.16 112.574 464.921 112.228 464.797L85.2967 455.179C84.9718 455.063 84.618 455.056 84.2887 455.159L53.4456 464.797C53.0535 464.92 52.7242 465.189 52.5266 465.549L2.79759 556.232C2.32553 557.093 2.73959 558.171 3.66643 558.495L84.2753 586.66C84.6126 586.777 84.9798 586.778 85.3176 586.662L166.841 558.517C167.796 558.187 168.204 557.061 167.683 556.196Z" fill="url(#paint12_linear)"/>
<path d="M83.7969 586.842V472.978L52.8341 464.988L1.89526 557.876L83.7969 586.842Z" fill="url(#paint13_linear)"/>
<path d="M76.5529 489.703L59.663 483.592L20.957 549.449L76.5529 567.78V553.523L37.8469 542.66L48.4031 524.328L67.8164 529.965V517.744L54.0331 513.465L64.5892 496.492L76.5529 500.566V489.703Z" fill="#B76767"/>
<path d="M114.929 482.595L95.3955 488L96.7727 569.165L152.258 549.236L144.615 537.2L110.022 549.236L109.106 528.102L127.637 522.306L121.085 511.99L108.035 515.914L107.847 495.926L119.695 492.517L114.929 482.595Z" fill="#D28989"/>
<defs>
<linearGradient id="paint0_linear" x1="260.483" y1="-747.553" x2="259.482" y2="-394.262" gradientUnits="userSpaceOnUse">
<stop stop-color="#A7AFD9" stop-opacity="0"/>
<stop offset="1" stop-color="white"/>
</linearGradient>
<linearGradient id="paint1_linear" x1="1109.02" y1="926.525" x2="1148.37" y2="943.14" gradientUnits="userSpaceOnUse">
<stop offset="0.11184" stop-color="#7FA8C6"/>
<stop offset="1" stop-color="#6C96B2"/>
</linearGradient>
<linearGradient id="paint2_linear" x1="1110.92" y1="927.472" x2="1128.69" y2="941.467" gradientUnits="userSpaceOnUse">
<stop stop-color="white" stop-opacity="0.54"/>
<stop offset="1" stop-color="white" stop-opacity="0"/>
</linearGradient>
<linearGradient id="paint3_linear" x1="74.0227" y1="1047.53" x2="113.37" y2="1064.14" gradientUnits="userSpaceOnUse">
<stop offset="0.11184" stop-color="#7FA8C6"/>
<stop offset="1" stop-color="#6C96B2"/>
</linearGradient>
<linearGradient id="paint4_linear" x1="75.9197" y1="1048.47" x2="93.686" y2="1062.47" gradientUnits="userSpaceOnUse">
<stop stop-color="white" stop-opacity="0.54"/>
<stop offset="1" stop-color="white" stop-opacity="0"/>
</linearGradient>
<linearGradient id="paint5_linear" x1="813.023" y1="507.525" x2="852.37" y2="524.14" gradientUnits="userSpaceOnUse">
<stop offset="0.11184" stop-color="#7FA8C6"/>
<stop offset="1" stop-color="#6C96B2"/>
</linearGradient>
<linearGradient id="paint6_linear" x1="814.92" y1="508.472" x2="832.686" y2="522.467" gradientUnits="userSpaceOnUse">
<stop stop-color="white" stop-opacity="0.54"/>
<stop offset="1" stop-color="white" stop-opacity="0"/>
</linearGradient>
<linearGradient id="paint7_linear" x1="161.023" y1="691.525" x2="200.37" y2="708.14" gradientUnits="userSpaceOnUse">
<stop offset="0.11184" stop-color="#7FA8C6"/>
<stop offset="1" stop-color="#6C96B2"/>
</linearGradient>
<linearGradient id="paint8_linear" x1="162.92" y1="692.472" x2="180.686" y2="706.467" gradientUnits="userSpaceOnUse">
<stop stop-color="white" stop-opacity="0.54"/>
<stop offset="1" stop-color="white" stop-opacity="0"/>
</linearGradient>
<linearGradient id="paint9_linear" x1="1420.78" y1="305.641" x2="1420.78" y2="213.846" gradientUnits="userSpaceOnUse">
<stop stop-color="#6975A5"/>
<stop offset="1" stop-color="#6975A5" stop-opacity="0"/>
</linearGradient>
<linearGradient id="paint10_linear" x1="1272.58" y1="283.59" x2="1272.58" y2="180" gradientUnits="userSpaceOnUse">
<stop stop-color="#6975A5"/>
<stop offset="1" stop-color="#6975A5" stop-opacity="0"/>
</linearGradient>
<linearGradient id="paint11_linear" x1="1325.76" y1="543.762" x2="1294.53" y2="246.853" gradientUnits="userSpaceOnUse">
<stop stop-color="#6A7FAC"/>
<stop offset="1" stop-color="#6FADCC"/>
</linearGradient>
<linearGradient id="paint12_linear" x1="85.2955" y1="488.959" x2="85.2955" y2="587.84" gradientUnits="userSpaceOnUse">
<stop stop-color="#FFF6F5"/>
<stop offset="1" stop-color="#FFCEC9"/>
</linearGradient>
<linearGradient id="paint13_linear" x1="42.8461" y1="464.988" x2="111.763" y2="455.999" gradientUnits="userSpaceOnUse">
<stop stop-color="#FDD1CD"/>
<stop offset="1" stop-color="#FFE5E2" stop-opacity="0"/>
</linearGradient>
</defs>
</svg>
