<svg width="145" height="55" viewBox="0 0 145 55" fill="none" xmlns="http://www.w3.org/2000/svg">
<path d="M33.166 2.68514C49.7775 3.02214 78.3673 5.3531 91.2214 6.05519C93.764 6.19407 99.6967 6.05521 104.782 2.68515C135.293 -7.84616 167.922 36.3856 116.223 49.4443C63.2531 55.7632 49.269 53.6569 25.9621 49.4443C5.62147 43.968 2.65515 28.3817 1.80763 25.8541C0.960105 23.3266 4.3502 2.26388 33.166 2.68514Z" fill="white"/>
<path d="M92.2859 4.53832L92.2861 4.53833C92.8513 4.56353 93.1657 4.96911 93.1657 5.38382C93.1657 5.58695 93.0895 5.79241 92.9312 5.94415C92.7708 6.09791 92.5424 6.1811 92.2673 6.16883M92.2859 4.53832L92.2767 5.95842M92.2859 4.53832C85.3357 4.23591 78.3736 3.92342 71.4114 3.61092C64.4492 3.29842 57.4869 2.98592 50.5364 2.6835L92.2859 4.53832ZM92.2673 6.16883L92.2767 5.95842M92.2673 6.16883C92.2674 6.16884 92.2675 6.16884 92.2675 6.16884L92.2767 5.95842M92.2673 6.16883C85.317 5.86642 78.3548 5.55392 71.3927 5.24143L71.3925 5.24142C64.4304 4.92892 57.4684 4.61644 50.5183 4.31403M92.2767 5.95842C85.3264 5.656 78.3641 5.3435 71.4019 5.031C64.4397 4.7185 57.4775 4.40601 50.5273 4.10359M50.5183 4.31403C50.5184 4.31403 50.5184 4.31403 50.5184 4.31403L50.5273 4.10359M50.5183 4.31403C48.998 4.25013 47.4532 4.1696 45.8924 4.08824C41.0395 3.83526 36.0316 3.5742 31.1192 3.77976C24.6307 4.05129 18.3356 5.13696 12.8296 8.11927M50.5183 4.31403C50.5183 4.31403 50.5182 4.31402 50.5181 4.31402L50.5273 4.10359M50.5273 4.10359L12.8296 8.11927M12.8296 8.11927C12.8297 8.11921 12.8298 8.11915 12.8299 8.11909L12.729 7.93421L12.8293 8.11941C12.8294 8.11937 12.8295 8.11932 12.8296 8.11927ZM12.8296 8.11927C3.69421 13.1052 1.01431 22.7855 4.59215 31.239L4.5922 31.2392C8.03299 39.3836 16.8189 45.1616 26.1249 48.2583L26.1253 48.2584C37.0403 51.9163 49.1979 52.5217 60.8597 52.6426M12.8296 8.11927L4.39818 31.3211C7.87333 39.5469 16.7278 45.3533 26.0584 48.4581C37.0075 52.1274 49.1943 52.7323 60.8575 52.8532M60.8597 52.6426C60.8597 52.6426 60.8596 52.6426 60.8596 52.6426L60.8575 52.8532M60.8597 52.6426L60.8575 52.8532M60.8597 52.6426C73.0841 52.7635 85.2628 51.998 97.3494 50.7888L97.3497 50.7888C98.4078 50.6843 99.4766 50.5834 100.553 50.4819C110.292 49.5627 120.627 48.5872 129.076 44.3585L129.076 44.3584C137.248 40.2773 142.005 32.8447 142.146 24.8658L142.357 24.8696M60.8575 52.8532C73.0919 52.9742 85.2788 52.2081 97.3704 50.9984C98.4284 50.8939 99.4977 50.7931 100.575 50.6914C110.307 49.7734 120.684 48.7944 129.17 44.5468C137.406 40.434 142.214 32.934 142.357 24.8696M142.357 24.8696L142.146 24.8657C142.288 17.0927 137.819 9.94448 129.932 5.90409M142.357 24.8696C142.5 17.0067 137.977 9.78903 130.027 5.71648M129.932 5.90409L94.5617 52.4903C95.8663 52.3691 97.1867 52.2538 98.5178 52.1376C108.698 51.2487 119.5 50.3056 128.552 46.2404C136.93 42.4501 142.357 35.5953 143.547 27.6115C144.785 19.0228 140.786 10.5552 132.36 5.55519M129.932 5.90409C122.317 2.01825 112.573 1.21834 104.397 4.34015M129.932 5.90409C129.932 5.90406 129.931 5.90398 129.931 5.90394L130.027 5.71648M129.932 5.90409L130.027 5.71648M129.932 5.90409L50.5364 2.68349C49.1163 2.62144 47.6787 2.54684 46.2293 2.47164C41.5668 2.2297 36.782 1.98141 32.0621 2.12392C25.8717 2.31082 19.7724 3.16977 14.1685 5.60394L14.1678 5.60423C4.71248 9.75094 -0.0161772 18.1038 1.42919 27.0001L1.42932 27.0009C2.87312 35.6837 9.98672 42.6235 18.5849 46.9527L18.585 46.9527C29.0534 52.2162 41.4697 53.5474 53.3743 54.0717C67.1452 54.6771 80.9134 53.9505 94.5809 52.7001L94.5812 52.7001C95.8842 52.579 97.204 52.4638 98.5352 52.3476C108.711 51.4595 119.551 50.5135 128.638 46.4325L128.638 46.4323C137.073 42.6164 142.553 35.7059 143.755 27.6425L143.756 27.6415C145.006 18.9634 140.962 10.4149 132.468 5.37413M130.027 5.71648C122.363 1.80522 112.556 0.998775 104.321 4.14391M104.321 4.14391C103.511 4.46649 102.75 3.41811 103.607 3.09553M104.321 4.14391L104.396 4.34068C104.396 4.3405 104.397 4.34033 104.397 4.34015M104.321 4.14391L104.399 4.33957C104.398 4.33977 104.398 4.33996 104.397 4.34015M103.607 3.09553C112.842 -0.452828 124.029 0.595552 132.36 5.55519M103.607 3.09553L103.532 2.89841C103.532 2.89849 103.532 2.89858 103.532 2.89866M103.607 3.09553L103.531 2.89892C103.531 2.89883 103.532 2.89875 103.532 2.89866M132.36 5.55519L132.468 5.37421C132.468 5.37418 132.468 5.37416 132.468 5.37413M132.36 5.55519L132.467 5.37406C132.467 5.37408 132.468 5.37411 132.468 5.37413M132.468 5.37413C124.082 0.382057 112.828 -0.67281 103.532 2.89866M103.532 2.89866C103.272 2.99666 103.097 3.16627 103.039 3.38723C102.983 3.60152 103.049 3.81595 103.167 3.98289C103.399 4.31356 103.891 4.54122 104.397 4.34015" fill="#425E96" stroke="#425E96" stroke-width="0.421255"/>
</svg>
