<svg width="1440" height="976" viewBox="0 0 1440 976" fill="none" xmlns="http://www.w3.org/2000/svg">
<rect x="-11" width="1462" height="976" fill="url(#paint0_linear)"/>
<g style="mix-blend-mode:soft-light">
<path d="M900.89 826.917C912.095 809.707 917.303 799.755 923.454 781.121C923.454 781.121 921.672 802.705 918.209 806.579C914.745 810.453 900.89 826.917 900.89 826.917Z" fill="#AB95AE"/>
</g>
<g style="mix-blend-mode:soft-light">
<path d="M1075.65 802.778L764.516 690.778L703.621 709.801L637.336 737.053L614.183 738.763L428.646 802.778H1075.65Z" fill="#7C91C3"/>
<path d="M784.179 719.206L800.989 721.877C800.989 721.877 786.544 712.454 779.422 706.381C772.3 700.309 764.516 690.778 764.516 690.778L1075.65 802.778C1030.93 800.854 996.332 785.164 943.709 774.885C921.825 770.61 859.345 747.74 866.64 753.297C873.935 758.854 888.602 769.207 906.602 778.625C925.623 788.578 961.787 802.778 961.787 802.778H918.02C861.265 770.621 833.504 752.019 784.179 719.206Z" fill="url(#paint1_linear)"/>
<path d="M1078.72 804.002L1268.32 598.616L1305.43 633.5L1345.82 683.475L1359.93 686.61L1473 804.002H1078.72Z" fill="url(#paint2_linear)"/>
<path d="M1251.65 653.671H1241.91C1241.91 653.671 1254.71 635.463 1259.04 625.14C1263.38 614.817 1268.12 598.616 1268.12 598.616L1077 803.588C1109.76 803.588 1127.42 752.101 1159.45 734.626C1172.78 727.359 1209.62 683.202 1205.18 692.649C1200.74 702.097 1192.58 731.941 1181.62 747.952C1170.04 764.871 1148.03 789.01 1148.03 789.01H1174.67C1193.19 744.371 1246.41 682.905 1251.65 653.671Z" fill="url(#paint3_linear)"/>
<path d="M828.645 793.778L888.625 730.995L900.364 741.659L913.143 756.935L917.606 757.894L953.374 793.778H828.645Z" fill="#7C91C3"/>
<path d="M884.834 746.931L881.593 748.428C881.593 748.428 884.378 743.146 885.751 739.742C887.124 736.338 888.625 730.995 888.625 730.995L828.645 793.778C837.266 792.7 843.935 783.904 854.08 778.142C858.298 775.746 870.343 762.926 868.937 766.041C867.531 769.156 864.703 774.96 861.233 780.239C857.566 785.818 850.594 793.778 850.594 793.778H859.032C869.973 775.752 875.325 765.325 884.834 746.931Z" fill="url(#paint4_linear)"/>
<path d="M387 804.381L173.007 591.002L131.125 627.244L85.5343 679.163L69.6103 682.421L-58 804.381H387Z" fill="url(#paint5_linear)"/>
<path d="M755 801L505.422 691L456.575 709.683L403.403 736.448L384.831 738.128L236 801H755Z" fill="#7C91C3"/>
<path d="M194 644.002L223 661.002C223 661.002 188.158 632.297 183.26 620.728C178.362 609.159 173.007 591.002 173.007 591.002L387 804.381C356.243 800.716 308.689 745.502 308.689 745.502L268 721.502L305 771.502L308.689 804.381H278.586C239.551 743.116 227.925 706.518 194 644.002Z" fill="url(#paint6_linear)"/>
<path d="M1538.65 813.778L1362.16 646.778L1327.62 675.143L1290.02 715.777L1276.89 718.327L1171.65 813.778H1538.65Z" fill="url(#paint7_linear)"/>
<path d="M1373.32 689.165L1382.85 693.149C1382.85 693.149 1374.66 679.098 1370.62 670.043C1366.58 660.989 1362.16 646.778 1362.16 646.778L1538.65 813.778C1513.28 810.91 1493.66 787.515 1463.81 772.187C1451.39 765.813 1415.95 731.712 1420.09 739.998C1424.23 748.285 1432.55 763.722 1442.76 777.765C1453.55 792.605 1474.06 813.778 1474.06 813.778H1449.24C1417.04 765.83 1401.3 738.093 1373.32 689.165Z" fill="url(#paint8_linear)"/>
<path d="M934.646 802.778L1060.98 675.778L1085.71 697.349L1112.62 728.25L1122.02 730.189L1197.36 802.778H934.646Z" fill="#7C91C3"/>
<path d="M1053 708.013L1046.17 711.042C1046.17 711.042 1052.04 700.357 1054.93 693.471C1057.82 686.585 1060.98 675.778 1060.98 675.778L934.646 802.778C952.805 800.597 966.852 782.805 988.22 771.149C997.106 766.302 1022.48 740.369 1019.51 746.67C1016.55 752.972 1010.6 764.711 1003.29 775.391C995.563 786.676 980.879 802.778 980.879 802.778H998.651C1021.7 766.314 1032.97 745.221 1053 708.013Z" fill="url(#paint9_linear)"/>
<path d="M493.811 718.985L508.853 721.615C508.853 721.615 495.927 712.339 489.553 706.361C483.18 700.384 476.214 691.002 476.214 691.002L754.645 801.251C714.625 799.357 683.666 783.913 636.574 773.794C616.99 769.586 561.077 747.073 567.605 752.544C574.133 758.014 587.258 768.205 603.367 777.476C620.389 787.273 652.752 801.251 652.752 801.251H613.584C562.795 769.597 537.952 751.286 493.811 718.985Z" fill="url(#paint10_linear)"/>
<path d="M245 802.731L79.8865 658.641L47.5707 683.114L4.84531 718.174L-2 722.028V802.731H245Z" fill="url(#paint11_linear)"/>
<path d="M90.3218 695.213L99.2423 698.651C99.2423 698.651 91.5766 686.527 87.7971 678.714C84.0176 670.902 79.8865 658.641 79.8865 658.641L245 802.731C221.268 800.256 202.909 780.071 174.982 766.846C163.369 761.346 130.212 731.923 134.083 739.073C137.954 746.222 145.737 759.542 155.29 771.658C165.385 784.462 184.5 828 184.5 828L161.349 802.731C131.23 761.361 116.498 737.429 90.3218 695.213Z" fill="url(#paint12_linear)"/>
</g>
<path d="M733.612 243.655L704.502 360.729" stroke="#8F553C" stroke-width="3.92798" stroke-linecap="round" stroke-linejoin="round"/>
<path d="M754.697 253.601C746.794 252.18 736.002 247.203 732.209 245.374C731.436 245.001 730.506 245.3 730.128 246.07C727.037 252.369 715.037 278.625 723.719 290.289C730.067 298.818 739.852 300.57 747.529 299.619C758.558 298.254 766.938 296.241 775.458 303.97L778.316 306.577C779.134 307.323 780.446 307.012 780.842 305.978L797.028 263.719C797.273 263.078 797.077 262.355 796.537 261.934C794.002 259.957 786.788 254.43 783.415 252.886C773.159 248.189 765.693 255.579 754.697 253.601Z" fill="url(#paint13_linear)"/>
<path d="M747.277 280.521C747.245 280.724 747.104 280.901 746.854 281.053C746.613 281.205 746.308 281.334 745.938 281.44C745.579 281.538 745.181 281.621 744.744 281.689C744.318 281.749 743.899 281.793 743.488 281.819C743.085 281.847 742.716 281.857 742.382 281.851C742.047 281.853 741.799 281.841 741.64 281.817C741.339 281.77 741.066 281.691 740.821 281.58C740.584 281.471 740.384 281.331 740.22 281.161C740.058 280.981 739.942 280.768 739.871 280.522C739.81 280.277 739.805 279.991 739.856 279.663C740.224 277.302 740.599 274.951 740.982 272.61C741.364 270.269 741.741 267.909 742.112 265.53C742.17 265.159 742.218 264.791 742.257 264.425C742.295 264.06 742.344 263.692 742.402 263.32C742.415 263.232 742.436 263.131 742.462 263.017C742.491 262.895 742.53 262.788 742.58 262.696C742.632 262.595 742.699 262.515 742.781 262.455C742.863 262.395 742.965 262.375 743.089 262.395C743.213 262.414 743.339 262.452 743.466 262.508C743.602 262.565 743.722 262.638 743.826 262.727C743.938 262.817 744.031 262.922 744.103 263.042C744.185 263.154 744.238 263.28 744.261 263.42C744.281 263.586 744.271 263.761 744.234 263.945C744.206 264.122 744.178 264.303 744.149 264.489C743.827 266.848 743.494 269.188 743.151 271.508C742.816 273.829 742.466 276.166 742.099 278.518C742.058 278.784 742.017 279.049 741.975 279.314C741.943 279.581 741.919 279.849 741.905 280.118C742.145 280.147 742.443 280.153 742.799 280.135C743.155 280.118 743.513 280.084 743.875 280.031C744.246 279.971 744.598 279.895 744.93 279.802C745.261 279.708 745.528 279.596 745.729 279.464C745.821 279.397 745.918 279.331 746.019 279.265C746.121 279.19 746.238 279.163 746.371 279.184C746.486 279.202 746.599 279.26 746.711 279.359C746.831 279.459 746.934 279.579 747.021 279.72C747.109 279.851 747.179 279.989 747.229 280.133C747.279 280.276 747.295 280.406 747.277 280.521ZM760.594 274.008C760.532 274.406 760.386 274.673 760.156 274.809C759.928 274.937 759.623 275.007 759.24 275.02C759.108 276.394 758.946 277.755 758.754 279.102C758.571 280.45 758.374 281.805 758.161 283.167C758.128 283.379 758.059 283.536 757.952 283.637C757.846 283.739 757.678 283.771 757.448 283.735C757.253 283.705 757.062 283.653 756.875 283.578C756.696 283.505 756.538 283.413 756.401 283.301C756.266 283.18 756.162 283.037 756.088 282.871C756.024 282.698 756.01 282.497 756.046 282.267L756.691 278.128C756.772 277.606 756.853 277.085 756.935 276.563C757.016 276.041 757.088 275.518 757.152 274.993C756.375 274.981 755.6 274.955 754.827 274.916C754.055 274.869 753.287 274.799 752.522 274.707C752.256 276.595 752.015 278.487 751.801 280.383C751.767 280.776 751.735 281.161 751.703 281.536C751.681 281.913 751.641 282.287 751.583 282.659C751.555 282.836 751.486 282.961 751.375 283.034C751.264 283.107 751.12 283.13 750.943 283.103C750.81 283.082 750.67 283.051 750.523 283.01C750.376 282.96 750.232 282.897 750.09 282.82C749.957 282.745 749.835 282.658 749.723 282.559C749.612 282.46 749.53 282.348 749.477 282.222C749.457 282.174 749.456 282.038 749.472 281.814C749.489 281.59 749.515 281.309 749.55 280.97C749.593 280.632 749.643 280.251 749.701 279.825C749.758 279.399 749.822 278.96 749.892 278.509C749.962 278.058 750.031 277.616 750.099 277.183C750.168 276.741 750.231 276.334 750.289 275.962C750.347 275.591 750.397 275.268 750.44 274.994C750.482 274.72 750.512 274.53 750.528 274.423C750.405 274.404 750.298 274.36 750.209 274.292C750.122 274.215 750.088 274.11 750.109 273.978C750.134 273.818 750.201 273.675 750.312 273.547C750.432 273.412 750.567 273.306 750.714 273.23L751.963 265.217C751.99 265.04 752.043 264.904 752.122 264.807C752.209 264.712 752.345 264.679 752.531 264.708C752.832 264.755 753.064 264.836 753.227 264.952C753.399 265.069 753.516 265.215 753.58 265.388C753.654 265.553 753.687 265.748 753.679 265.974C753.681 266.191 753.668 266.425 753.638 266.674C753.496 267.757 753.346 268.839 753.187 269.919C753.028 270.999 752.877 272.081 752.736 273.164C753.507 273.212 754.274 273.259 755.037 273.305C755.801 273.343 756.575 273.345 757.359 273.314C757.461 272.369 757.548 271.432 757.621 270.501C757.702 269.571 757.754 268.628 757.776 267.672C757.774 267.218 757.758 266.768 757.729 266.319C757.7 265.862 757.721 265.408 757.791 264.957C757.816 264.797 757.89 264.705 758.011 264.678C758.142 264.653 758.274 264.651 758.407 264.672C758.619 264.705 758.826 264.773 759.027 264.877C759.237 264.982 759.394 265.134 759.5 265.331C759.561 265.459 759.607 265.715 759.638 266.1C759.67 266.477 759.682 266.922 759.674 267.437C759.675 267.954 759.666 268.509 759.646 269.104C759.625 269.699 759.6 270.27 759.569 270.818C759.539 271.357 759.508 271.846 759.476 272.285C759.454 272.716 759.433 273.03 759.411 273.226C759.521 273.216 759.635 273.211 759.753 273.211C759.872 273.202 759.985 273.206 760.091 273.223C760.303 273.256 760.448 273.346 760.524 273.494C760.602 273.633 760.625 273.804 760.594 274.008ZM772.503 276.705C772.356 277.651 772.126 278.571 771.815 279.465C771.505 280.35 771.093 281.16 770.58 281.895C770.076 282.632 769.459 283.278 768.729 283.835C768.001 284.383 767.149 284.794 766.173 285.067C765.926 285.138 765.659 285.196 765.371 285.241C765.092 285.289 764.802 285.32 764.5 285.337C764.208 285.355 763.917 285.359 763.629 285.35C763.34 285.342 763.072 285.318 762.824 285.28C762.727 285.264 762.617 285.243 762.495 285.215C762.38 285.197 762.272 285.162 762.172 285.11C762.07 285.067 761.989 285.004 761.929 284.923C761.869 284.841 761.849 284.738 761.868 284.614C761.885 284.508 761.924 284.401 761.986 284.293C762.048 284.185 762.123 284.083 762.21 283.988C762.307 283.894 762.405 283.815 762.506 283.749C762.608 283.674 762.711 283.622 762.815 283.593C762.782 283.516 762.769 283.31 762.776 282.976C762.791 282.643 762.821 282.222 762.864 281.712C762.916 281.204 762.977 280.638 763.047 280.015C763.118 279.383 763.192 278.733 763.269 278.066C763.354 277.4 763.439 276.738 763.524 276.081C763.618 275.416 763.704 274.805 763.782 274.246C763.86 273.688 763.926 273.204 763.981 272.796C764.046 272.38 764.093 272.08 764.122 271.894C764.251 271.063 764.392 270.247 764.544 269.446C764.696 268.645 764.836 267.829 764.966 266.998C764.868 266.983 764.78 266.942 764.7 266.875C764.628 266.81 764.601 266.724 764.617 266.618C764.639 266.476 764.695 266.353 764.783 266.249C764.873 266.137 764.978 266.044 765.098 265.972C765.227 265.902 765.361 265.855 765.501 265.831C765.65 265.8 765.787 265.794 765.911 265.814C766.035 265.833 766.152 265.865 766.263 265.909C766.375 265.945 766.491 265.986 766.611 266.031C767.743 266.498 768.724 267.09 769.554 267.808C770.385 268.526 771.045 269.345 771.536 270.263C772.036 271.184 772.369 272.187 772.535 273.272C772.701 274.358 772.69 275.502 772.503 276.705ZM770.577 276.161C770.715 275.276 770.738 274.428 770.647 273.617C770.557 272.797 770.35 272.031 770.027 271.319C769.713 270.6 769.276 269.943 768.717 269.349C768.167 268.747 767.502 268.217 766.722 267.761L766.714 267.814C766.358 270.096 766.041 272.365 765.762 274.622C765.493 276.872 765.257 279.145 765.053 281.442C765.026 281.791 764.994 282.139 764.958 282.487C764.932 282.827 764.92 283.169 764.92 283.514C765.794 283.369 766.559 283.053 767.215 282.566C767.87 282.08 768.423 281.496 768.874 280.814C769.334 280.125 769.7 279.376 769.971 278.566C770.252 277.75 770.454 276.948 770.577 276.161Z" fill="white"/>
<g opacity="0.6">
<g style="mix-blend-mode:screen">
<path d="M1060.42 382.624C587.362 488.756 264 302.165 264 302.165L1425.46 204.214L1639.3 204.214C1639.3 204.214 1533.48 276.492 1060.42 382.624Z" fill="url(#paint14_linear)" fill-opacity="0.8"/>
</g>
<g style="mix-blend-mode:screen">
<path d="M414.347 508.991C887.405 615.123 1317.48 426.622 1317.48 426.622L156.019 328.671L-60.78 282.499C-60.78 282.499 -58.7103 402.859 414.347 508.991Z" fill="url(#paint15_linear)"/>
</g>
<g style="mix-blend-mode:lighten">
<path d="M1418.67 197.458C1446.76 177.811 1448.37 171 1448.37 171H1552C1552 171 1407.02 232.111 1325.16 259.194C1231.59 290.147 1104 314 1104 314C1104 314 1325.2 262.841 1418.67 197.458Z" fill="url(#paint16_linear)"/>
</g>
<g style="mix-blend-mode:lighten" opacity="0.7">
<path d="M1076.86 484.948C1047.21 514.685 828.573 540.378 828.573 540.378C828.573 540.378 980.166 533.575 1073.55 517.375C1160.47 502.298 1209.14 491.34 1289.02 463.113C1393.9 426.054 1533.68 338.959 1533.68 338.959C1533.68 338.959 1413.68 387.381 1328.18 399.888C1286.15 406.037 1242.61 377.898 1218.54 408.464C1213.94 414.306 1214.02 418.687 1209.3 424.468C1188.51 449.902 1143.48 442.68 1111.33 460.223C1087.53 473.211 1094.47 467.291 1076.86 484.948Z" fill="url(#paint17_linear)"/>
</g>
<path d="M17.1053 240.142C14.309 225.766 9.47935 217.23 -6.26316 201H-101C-56.2513 228.292 -30.2643 242.323 17.1053 264.764C90.2516 299.418 211 338 211 338C211 338 19.9015 254.519 17.1053 240.142Z" fill="url(#paint18_linear)"/>
<path opacity="0.7" d="M-15.3302 357.36C-53.9178 330.836 -75 302 -75 302C-75 302 -50.9126 326.209 -15.3302 357.36C21.2027 382.471 73.4264 405.511 138.306 400.047C221.136 393.07 238.728 449.755 238.728 449.755C238.728 449.755 317.682 445.845 328.888 491.644C337.551 527.049 453.697 556.886 513.439 568.64C537.934 572.313 551.235 574.018 547.325 574C543.655 573.983 530.977 572.091 513.439 568.64C436.634 557.122 249.771 526.249 138.306 468.439C84.9012 440.742 26.748 394.197 -15.3302 357.36Z" fill="url(#paint19_linear)"/>
</g>
<path d="M512.996 709.913L712.081 325.001L751.046 390.378L793.461 484.035L808.275 489.911L926.996 709.913H512.996Z" fill="#7C91C3"/>
<path d="M699.499 422.699L688.743 431.881C688.743 431.881 697.986 399.494 702.543 378.625C707.1 357.755 712.081 325.001 712.081 325.001L512.996 709.913C541.611 703.302 563.747 649.38 597.42 614.053C611.423 599.361 651.402 520.763 646.734 539.862C642.067 558.96 632.682 594.54 621.164 626.908C608.992 661.111 585.852 709.913 585.852 709.913H613.858C650.174 599.399 667.937 535.47 699.499 422.699Z" fill="url(#paint20_linear)"/>
<path d="M459.495 462.502L1016.99 461.502" stroke="#CCCCCC" stroke-width="2.5"/>
<path d="M274 795.002L459.729 461.002L496.079 517.731L535.648 599L549.469 604.1L660.225 795.002H274Z" fill="#7C91C3"/>
<path d="M447.99 545.777L437.956 553.745C437.956 553.745 446.579 525.642 450.83 507.533C455.082 489.424 459.729 461.002 459.729 461.002L274 795.002C300.695 789.265 321.346 742.476 352.76 711.821C365.823 699.073 403.12 630.871 398.766 647.443C394.411 664.016 385.656 694.889 374.911 722.975C363.556 752.655 341.968 795.002 341.968 795.002H368.095C401.974 699.106 418.546 643.633 447.99 545.777Z" fill="url(#paint21_linear)"/>
<path d="M830.996 795.002L1016.72 461.002L1053.08 517.731L1092.64 599L1106.47 604.1L1217.22 795.002H830.996Z" fill="#7C91C3"/>
<path d="M1004.99 545.777L994.952 553.745C994.952 553.745 1003.58 525.642 1007.83 507.533C1012.08 489.424 1016.72 461.002 1016.72 461.002L830.996 795.002C857.691 789.265 878.342 742.476 909.756 711.821C922.819 699.073 960.116 630.871 955.762 647.443C951.407 664.016 942.652 694.889 931.907 722.975C920.552 752.655 898.964 795.002 898.964 795.002H925.091C958.97 699.106 975.542 643.633 1004.99 545.777Z" fill="url(#paint22_linear)"/>
<path d="M54 980.503C54 980.503 224.5 666.503 720.5 666.503C1216.5 666.503 1387 980.503 1387 980.503H54Z" fill="url(#paint23_linear)"/>
<g style="mix-blend-mode:multiply">
<path d="M231.387 821.288C227.815 818.816 234.491 813.142 246.945 811.571C254.723 810.589 260.702 808.449 274.357 808.898C312.663 810.16 307.178 816.232 307.178 816.232C307.178 816.232 285.331 823.734 272.752 824.472C250.154 825.799 238.452 826.178 231.387 821.288Z" fill="#DDE6F2"/>
</g>
<path d="M273.496 727.838C273.863 727.091 274.928 727.092 275.293 727.84L294.59 767.385C294.914 768.049 294.43 768.824 293.691 768.824H289.508C288.735 768.824 288.254 769.664 288.647 770.331L299.549 788.852C299.941 789.519 299.461 790.36 298.687 790.36H292.744C291.971 790.36 291.49 791.2 291.882 791.867L304.083 812.603C304.446 813.219 304.057 814.006 303.349 814.1C280.952 817.065 267.746 817.037 245.345 814.098C244.636 814.005 244.247 813.217 244.609 812.601L256.809 791.867C257.201 791.2 256.721 790.36 255.947 790.36H250.004C249.231 790.36 248.75 789.519 249.143 788.852L260.045 770.331C260.437 769.664 259.957 768.824 259.183 768.824H255.004C254.264 768.824 253.78 768.048 254.106 767.383L273.496 727.838Z" fill="url(#paint24_linear)"/>
<path d="M255.286 815.407C255.713 815.464 256.128 815.242 256.317 814.856L268.616 789.749C268.916 789.136 268.527 788.409 267.851 788.318L259.578 787.207C258.861 787.111 258.481 786.309 258.859 785.692L268.575 769.882C268.91 769.338 268.655 768.624 268.052 768.414L263.454 766.815C262.95 766.64 262.672 766.101 262.823 765.589L274.449 726.002L254.256 767.384C253.932 768.049 254.416 768.823 255.155 768.823H259.337C260.111 768.823 260.592 769.664 260.199 770.33L249.297 788.852C248.905 789.518 249.385 790.359 250.159 790.359H256.102C256.875 790.359 257.356 791.199 256.964 791.866L244.764 812.599C244.401 813.216 244.784 814.003 245.494 814.098L255.286 815.407Z" fill="url(#paint25_linear)"/>
<g style="mix-blend-mode:multiply">
<path d="M1102.46 806.625C1106.03 804.153 1099.36 798.479 1086.9 796.908C1079.12 795.926 1073.14 793.785 1059.49 794.235C1021.18 795.497 1026.67 801.569 1026.67 801.569C1026.67 801.569 1048.52 809.071 1061.09 809.809C1083.69 811.136 1095.39 811.515 1102.46 806.625Z" fill="#EAF0F8"/>
</g>
<g style="mix-blend-mode:multiply">
<path d="M926.46 701.625C930.031 699.153 923.355 693.479 910.901 691.908C903.124 690.926 897.145 688.785 883.49 689.235C845.184 690.497 850.668 696.569 850.668 696.569C850.668 696.569 872.516 704.071 885.095 704.809C907.693 706.136 919.395 706.515 926.46 701.625Z" fill="#DAE3F0"/>
</g>
<path d="M1054.49 714.838C1054.86 714.091 1055.92 714.092 1056.29 714.84L1075.59 754.385C1075.91 755.049 1075.43 755.824 1074.69 755.824H1070.5C1069.73 755.824 1069.25 756.664 1069.64 757.331L1080.54 775.852C1080.94 776.519 1080.46 777.36 1079.68 777.36H1073.74C1072.97 777.36 1072.49 778.2 1072.88 778.867L1085.08 799.603C1085.44 800.219 1085.05 801.006 1084.35 801.1C1061.95 804.065 1048.74 804.037 1026.34 801.098C1025.63 801.005 1025.24 800.217 1025.61 799.601L1037.81 778.867C1038.2 778.2 1037.72 777.36 1036.94 777.36H1031C1030.23 777.36 1029.75 776.519 1030.14 775.852L1041.04 757.331C1041.43 756.664 1040.95 755.824 1040.18 755.824H1036C1035.26 755.824 1034.78 755.048 1035.1 754.383L1054.49 714.838Z" fill="url(#paint26_linear)"/>
<path d="M1079.9 800.898C1079.55 800.898 1079.23 800.718 1079.05 800.423L1064.48 776.814C1064.1 776.197 1064.48 775.394 1065.2 775.297L1073.32 774.207C1074.03 774.111 1074.42 773.309 1074.04 772.692L1064.32 756.882C1063.99 756.338 1064.24 755.624 1064.84 755.414L1069.38 753.837C1069.91 753.653 1070.18 753.071 1069.99 752.546L1055.39 713.002L1075.59 754.384C1075.91 755.049 1075.43 755.823 1074.69 755.823H1070.5C1069.73 755.823 1069.25 756.664 1069.64 757.33L1080.54 775.852C1080.94 776.518 1080.46 777.359 1079.68 777.359H1073.74C1072.97 777.359 1072.49 778.199 1072.88 778.866L1084.95 799.391C1085.35 800.058 1084.87 800.898 1084.09 800.898H1079.9Z" fill="url(#paint27_linear)"/>
<g style="mix-blend-mode:multiply">
<path d="M388.387 732.625C384.815 730.153 391.491 724.479 403.945 722.908C411.723 721.927 417.702 719.786 431.357 720.235C469.663 721.497 464.178 727.569 464.178 727.569C464.178 727.569 442.331 735.071 429.752 735.81C407.154 737.136 395.452 737.516 388.387 732.625Z" fill="#EAF0F8"/>
</g>
<path d="M433.651 639.838C434.017 639.091 435.082 639.092 435.447 639.84L454.744 679.385C455.068 680.05 454.584 680.824 453.845 680.824H449.663C448.889 680.824 448.409 681.665 448.801 682.331L459.703 700.853C460.096 701.519 459.615 702.36 458.841 702.36H452.898C452.125 702.36 451.644 703.2 452.037 703.867L464.238 724.603C464.6 725.219 464.212 726.006 463.503 726.1C441.107 729.065 427.901 729.037 405.499 726.098C404.79 726.005 404.401 725.218 404.763 724.601L416.963 703.867C417.356 703.2 416.875 702.36 416.102 702.36H410.159C409.385 702.36 408.904 701.519 409.297 700.853L420.199 682.331C420.591 681.665 420.111 680.824 419.337 680.824H415.158C414.418 680.824 413.935 680.048 414.26 679.384L433.651 639.838Z" fill="url(#paint28_linear)"/>
<path d="M415.789 727.411C416.214 727.466 416.627 727.244 416.815 726.859L428.63 702.715C428.909 702.144 428.592 701.461 427.976 701.306L420.149 699.335C419.494 699.17 419.188 698.417 419.541 697.842L429.394 681.81C429.713 681.29 429.497 680.607 428.936 680.367L421.939 677.368C421.458 677.162 421.218 676.62 421.387 676.125L434.449 638.003L414.256 679.385C413.932 680.049 414.416 680.823 415.155 680.823H419.337C420.111 680.823 420.592 681.664 420.199 682.33L409.297 700.852C408.905 701.518 409.385 702.359 410.159 702.359H416.102C416.875 702.359 417.356 703.2 416.964 703.866L404.769 724.592C404.405 725.211 404.791 726 405.503 726.091L415.789 727.411Z" fill="url(#paint29_linear)"/>
<g style="mix-blend-mode:multiply">
<path d="M1270.58 848.055C1265.68 845.002 1255.76 839.757 1250.63 837.492C1239.85 832.724 1237.99 829.712 1227.56 828.554C1198.28 825.303 1202.16 837.492 1202.16 837.492C1202.16 837.492 1216.54 844.045 1226.06 846.43C1243.17 850.714 1286.39 857.91 1270.58 848.055Z" fill="#E2E3EF"/>
</g>
<g style="mix-blend-mode:multiply">
<path d="M1202.96 800.124C1208.61 803.128 1197.58 796.065 1199.39 798.32C1188.54 793.131 1180.13 791.921 1168.24 791.319C1131.31 789.45 1136.21 796.459 1136.21 796.459C1136.21 796.459 1134.49 800.124 1148.99 805.502C1153.82 807.293 1225.73 819.152 1207.99 805.502C1202.44 801.223 1200.05 799.146 1199.39 798.32C1200.55 798.875 1201.73 799.475 1202.96 800.124Z" fill="#E2E3EF"/>
</g>
<path d="M1209.99 820.002H1218.99V830.959C1215.48 832.385 1213.51 832.315 1209.99 830.959V820.002Z" fill="#C18989"/>
<path d="M1214.12 732.121C1214.47 731.318 1215.61 731.319 1215.95 732.123L1232.93 771.427C1233.22 772.087 1232.73 772.824 1232.02 772.824H1228.52C1227.77 772.824 1227.28 773.62 1227.63 774.286L1237.33 792.897C1237.68 793.563 1237.19 794.36 1236.44 794.36H1231.38C1230.63 794.36 1230.15 795.156 1230.49 795.822L1241.35 816.661C1241.67 817.268 1241.29 818.008 1240.61 818.109C1220.83 821.07 1209.17 820.957 1189.39 818.103C1188.71 818.004 1188.33 817.263 1188.64 816.653L1199.49 795.822C1199.84 795.156 1199.36 794.36 1198.61 794.36H1193.55C1192.8 794.36 1192.31 793.563 1192.66 792.897L1202.36 774.286C1202.7 773.62 1202.22 772.824 1201.47 772.824H1197.98C1197.26 772.824 1196.77 772.086 1197.06 771.426L1214.12 732.121Z" fill="#71BFD8"/>
<path d="M1228.89 819.4C1228.38 819.458 1227.91 819.124 1227.8 818.625L1222.5 794.955C1222.42 794.589 1222.55 794.208 1222.84 793.968L1226.3 791.078C1226.64 790.796 1226.76 790.326 1226.59 789.92L1219.61 773.411C1219.46 773.052 1219.53 772.638 1219.79 772.35L1223.33 768.451C1223.55 768.21 1223.64 767.876 1223.56 767.558L1217.43 740.54C1217.16 739.354 1218.84 738.806 1219.32 739.922L1232.93 771.426C1233.22 772.087 1232.73 772.823 1232.01 772.823H1228.52C1227.77 772.823 1227.28 773.619 1227.63 774.285L1237.33 792.897C1237.68 793.562 1237.19 794.359 1236.44 794.359H1231.38C1230.63 794.359 1230.15 795.155 1230.49 795.821L1241.32 816.608C1241.65 817.23 1241.25 817.984 1240.55 818.064L1228.89 819.4Z" fill="url(#paint30_linear)"/>
<g style="mix-blend-mode:multiply">
<path d="M990.817 715.44C986.26 713.242 977.024 709.466 972.257 707.835C962.224 704.402 960.496 702.233 950.785 701.399C923.541 699.059 927.155 707.835 927.155 707.835C927.155 707.835 940.536 712.553 949.395 714.27C965.309 717.355 1005.53 722.536 990.817 715.44Z" fill="#E2E3EF"/>
</g>
<path d="M941.996 697.002H950.996V707.959C947.481 709.385 945.511 709.315 941.996 707.959V697.002Z" fill="#C18989"/>
<path d="M946.121 609.121C946.47 608.318 947.609 608.319 947.957 609.123L964.935 648.427C965.22 649.087 964.736 649.824 964.017 649.824H960.519C959.769 649.824 959.285 650.62 959.632 651.286L969.331 669.897C969.678 670.563 969.194 671.36 968.444 671.36H963.384C962.633 671.36 962.15 672.156 962.497 672.822L973.351 693.661C973.668 694.268 973.288 695.008 972.61 695.109C952.831 698.07 941.168 697.957 921.391 695.103C920.711 695.004 920.327 694.263 920.645 693.653L931.495 672.822C931.842 672.156 931.359 671.36 930.609 671.36H925.548C924.798 671.36 924.315 670.563 924.662 669.897L934.36 651.286C934.707 650.62 934.224 649.824 933.473 649.824H929.978C929.258 649.824 928.774 649.086 929.061 648.426L946.121 609.121Z" fill="#71BFD8"/>
<path d="M960.89 696.4C960.382 696.458 959.912 696.124 959.8 695.625L954.502 671.955C954.42 671.589 954.55 671.208 954.838 670.968L958.306 668.078C958.645 667.796 958.759 667.326 958.587 666.92L951.612 650.411C951.461 650.052 951.531 649.638 951.793 649.35L955.33 645.451C955.55 645.21 955.637 644.876 955.565 644.558L949.433 617.54C949.164 616.354 950.844 615.806 951.326 616.922L964.935 648.426C965.22 649.087 964.736 649.823 964.017 649.823H960.519C959.768 649.823 959.285 650.619 959.632 651.285L969.33 669.897C969.677 670.562 969.194 671.359 968.444 671.359H963.384C962.633 671.359 962.15 672.155 962.497 672.821L973.324 693.608C973.648 694.23 973.248 694.984 972.551 695.064L960.89 696.4Z" fill="url(#paint31_linear)"/>
<path d="M1160.1 699.446C1160.43 698.589 1161.64 698.59 1161.97 699.447L1179.02 744.159C1179.27 744.814 1178.79 745.515 1178.08 745.515H1174.43C1173.7 745.515 1173.22 746.271 1173.52 746.933L1183.44 768.496C1183.74 769.158 1183.26 769.914 1182.53 769.914H1177.29C1176.56 769.914 1176.08 770.669 1176.39 771.331L1187.45 795.402C1187.73 795.998 1187.36 796.693 1186.71 796.803C1166.84 800.18 1155.16 800.051 1135.29 796.796C1134.64 796.69 1134.27 795.992 1134.54 795.393L1145.6 771.331C1145.91 770.669 1145.42 769.914 1144.69 769.914H1139.46C1138.73 769.914 1138.25 769.158 1138.55 768.496L1148.47 746.933C1148.77 746.271 1148.29 745.515 1147.56 745.515H1143.91C1143.2 745.515 1142.72 744.812 1142.97 744.157L1160.1 699.446Z" fill="#71BFD8"/>
<path d="M1174.92 798.278C1174.4 798.345 1173.92 797.997 1173.81 797.48L1168.47 770.455C1168.41 770.117 1168.52 769.769 1168.77 769.533L1172.39 766.113C1172.68 765.837 1172.78 765.413 1172.64 765.037L1165.56 746.046C1165.44 745.716 1165.5 745.346 1165.72 745.071L1169.39 740.489C1169.57 740.258 1169.64 739.957 1169.59 739.667L1163.39 708.75C1163.15 707.547 1164.87 707.051 1165.31 708.197L1179.02 744.158C1179.27 744.813 1178.79 745.514 1178.08 745.514H1174.43C1173.7 745.514 1173.22 746.27 1173.52 746.932L1183.44 768.495C1183.74 769.157 1183.26 769.913 1182.53 769.913H1177.29C1176.56 769.913 1176.08 770.668 1176.38 771.33L1187.43 795.346C1187.71 795.959 1187.32 796.669 1186.65 796.755L1174.92 798.278Z" fill="url(#paint32_linear)"/>
<path d="M880.633 597.05C880.986 596.26 882.108 596.261 882.46 597.051L902.503 642.109C902.797 642.77 902.313 643.515 901.589 643.515H897.021C896.265 643.515 895.782 644.322 896.14 644.988L907.652 666.441C908.009 667.107 907.526 667.914 906.77 667.914H900.363C899.607 667.914 899.124 668.72 899.482 669.386L912.325 693.33C912.652 693.939 912.268 694.69 911.583 694.79C888.315 698.185 874.684 698.055 851.418 694.784C850.731 694.687 850.343 693.934 850.672 693.322L863.511 669.386C863.868 668.72 863.385 667.914 862.629 667.914H856.222C855.466 667.914 854.983 667.107 855.341 666.441L866.852 644.988C867.21 644.322 866.727 643.515 865.971 643.515H861.406C860.681 643.515 860.197 642.769 860.493 642.107L880.633 597.05Z" fill="#71BFD8"/>
<path d="M897.548 696.3C897.044 696.356 896.577 696.025 896.463 695.53L890.238 668.522C890.152 668.149 890.286 667.76 890.583 667.52L894.765 664.137C895.114 663.854 895.232 663.373 895.053 662.96L886.854 644.116C886.695 643.751 886.768 643.326 887.04 643.035L891.263 638.515C891.491 638.271 891.583 637.93 891.507 637.605L883.951 605.279C883.675 604.098 885.345 603.537 885.838 604.645L902.503 642.108C902.797 642.769 902.313 643.514 901.59 643.514H897.021C896.265 643.514 895.783 644.321 896.14 644.987L907.652 666.44C908.009 667.106 907.527 667.913 906.771 667.913H900.363C899.607 667.913 899.125 668.719 899.482 669.385L912.297 693.277C912.632 693.901 912.23 694.666 911.527 694.744L897.548 696.3Z" fill="url(#paint33_linear)"/>
<path d="M388.891 805.627C371.47 778.077 380 726.502 380 726.502C380 726.502 369.352 730.504 358.5 735.002C347.675 739.489 330.999 747.002 330.999 747.002C330.999 747.002 328.296 777.93 331.362 796.067C335.046 817.859 338.824 830.883 351.8 849.015C370.755 875.502 391.685 882.615 422.196 895.344C452.708 908.073 498.888 910.052 548.608 910.052C572.83 910.052 629.563 916.141 671.603 940.938C735.187 978.442 742 998.298 742 998.298H807.854C807.854 998.298 794.987 950.413 742 910.052C695.027 874.271 609.669 860.002 572.5 860.002C535.33 860.002 429.265 869.477 388.891 805.627Z" fill="url(#paint34_linear)"/>
<defs>
<linearGradient id="paint0_linear" x1="720" y1="0" x2="720" y2="976" gradientUnits="userSpaceOnUse">
<stop stop-color="#F6EDEC"/>
<stop offset="0.546875" stop-color="#92CDE3"/>
<stop offset="1" stop-color="#91A6D7"/>
</linearGradient>
<linearGradient id="paint1_linear" x1="972.836" y1="802.778" x2="960.304" y2="671.944" gradientUnits="userSpaceOnUse">
<stop offset="0.619792" stop-color="#B5A2B8"/>
<stop offset="1" stop-color="white"/>
</linearGradient>
<linearGradient id="paint2_linear" x1="1275.86" y1="598.616" x2="1276" y2="789.5" gradientUnits="userSpaceOnUse">
<stop stop-color="#7C91C3"/>
<stop offset="1" stop-color="#7C91C3" stop-opacity="0"/>
</linearGradient>
<linearGradient id="paint3_linear" x1="1141.3" y1="789.01" x2="1197.33" y2="579.544" gradientUnits="userSpaceOnUse">
<stop offset="0.619792" stop-color="#B5A2B8"/>
<stop offset="1" stop-color="white"/>
</linearGradient>
<linearGradient id="paint4_linear" x1="848.465" y1="793.778" x2="867.594" y2="725.093" gradientUnits="userSpaceOnUse">
<stop offset="0.619792" stop-color="#B5A2B8"/>
<stop offset="1" stop-color="white"/>
</linearGradient>
<linearGradient id="paint5_linear" x1="164.5" y1="591.002" x2="164" y2="775" gradientUnits="userSpaceOnUse">
<stop stop-color="#7C91C3"/>
<stop offset="1" stop-color="#7C91C3" stop-opacity="0"/>
</linearGradient>
<linearGradient id="paint6_linear" x1="316.288" y1="804.381" x2="253.938" y2="569.375" gradientUnits="userSpaceOnUse">
<stop offset="0.619792" stop-color="#B5A2B8"/>
<stop offset="1" stop-color="white"/>
</linearGradient>
<linearGradient id="paint7_linear" x1="1338" y1="652" x2="1355" y2="789.5" gradientUnits="userSpaceOnUse">
<stop stop-color="#2E388C"/>
<stop offset="1" stop-color="#7C91C3" stop-opacity="0"/>
</linearGradient>
<linearGradient id="paint8_linear" x1="1480.33" y1="813.778" x2="1433.72" y2="628.642" gradientUnits="userSpaceOnUse">
<stop offset="0.619792" stop-color="#B5A2B8"/>
<stop offset="1" stop-color="white"/>
</linearGradient>
<linearGradient id="paint9_linear" x1="976.393" y1="802.778" x2="1013.77" y2="663.057" gradientUnits="userSpaceOnUse">
<stop offset="0.619792" stop-color="#B5A2B8"/>
<stop offset="1" stop-color="white"/>
</linearGradient>
<linearGradient id="paint10_linear" x1="662.639" y1="801.251" x2="649.096" y2="672.708" gradientUnits="userSpaceOnUse">
<stop offset="0.619792" stop-color="#B5A2B8"/>
<stop offset="1" stop-color="white"/>
</linearGradient>
<linearGradient id="paint11_linear" x1="52.5" y1="672" x2="125.274" y2="802.731" gradientUnits="userSpaceOnUse">
<stop stop-color="#37559D"/>
<stop offset="1" stop-color="#7C91C3" stop-opacity="0"/>
</linearGradient>
<linearGradient id="paint12_linear" x1="190.439" y1="802.731" x2="153.015" y2="641.556" gradientUnits="userSpaceOnUse">
<stop offset="0.619792" stop-color="#B5A2B8"/>
<stop offset="1" stop-color="white"/>
</linearGradient>
<linearGradient id="paint13_linear" x1="767.021" y1="263.966" x2="618.434" y2="289.819" gradientUnits="userSpaceOnUse">
<stop stop-color="#FF7676"/>
<stop offset="1" stop-color="#F0FBAB"/>
</linearGradient>
<linearGradient id="paint14_linear" x1="904.288" y1="177.706" x2="954.482" y2="435.935" gradientUnits="userSpaceOnUse">
<stop offset="0.46875" stop-color="#C4C4C4" stop-opacity="0"/>
<stop offset="1" stop-color="#D0D9E3"/>
</linearGradient>
<linearGradient id="paint15_linear" x1="677.196" y1="302.163" x2="627.001" y2="560.392" gradientUnits="userSpaceOnUse">
<stop offset="0.46875" stop-color="#C4C4C4" stop-opacity="0"/>
<stop offset="1" stop-color="#D0D9E3"/>
</linearGradient>
<linearGradient id="paint16_linear" x1="1498.92" y1="177.93" x2="1130.17" y2="311.568" gradientUnits="userSpaceOnUse">
<stop stop-color="#E2EFF4"/>
<stop offset="1" stop-color="#EEF5F5"/>
</linearGradient>
<linearGradient id="paint17_linear" x1="1486.11" y1="350.484" x2="944.115" y2="677.845" gradientUnits="userSpaceOnUse">
<stop stop-color="#B8DAEA"/>
<stop offset="1" stop-color="#E3EFFA"/>
</linearGradient>
<linearGradient id="paint18_linear" x1="-101" y1="201" x2="192.026" y2="308.399" gradientUnits="userSpaceOnUse">
<stop stop-color="#C2DEEE"/>
<stop offset="0.987296" stop-color="white"/>
</linearGradient>
<linearGradient id="paint19_linear" x1="-75" y1="302" x2="458.105" y2="665.586" gradientUnits="userSpaceOnUse">
<stop offset="0.0153947" stop-color="#ACCFE4"/>
<stop offset="1" stop-color="#C2DEF5"/>
</linearGradient>
<linearGradient id="paint20_linear" x1="578.782" y1="709.913" x2="763.365" y2="351.105" gradientUnits="userSpaceOnUse">
<stop offset="0.619792" stop-color="#B5A2B8"/>
<stop offset="1" stop-color="white"/>
</linearGradient>
<linearGradient id="paint21_linear" x1="335.373" y1="795.002" x2="488.676" y2="474.612" gradientUnits="userSpaceOnUse">
<stop offset="0.619792" stop-color="#B5A2B8"/>
<stop offset="1" stop-color="white"/>
</linearGradient>
<linearGradient id="paint22_linear" x1="892.369" y1="795.002" x2="1045.67" y2="474.612" gradientUnits="userSpaceOnUse">
<stop offset="0.619792" stop-color="#B5A2B8"/>
<stop offset="1" stop-color="white"/>
</linearGradient>
<linearGradient id="paint23_linear" x1="720.5" y1="666.503" x2="720.5" y2="980.503" gradientUnits="userSpaceOnUse">
<stop stop-color="#97ABDE"/>
<stop offset="1" stop-color="#E8E0E2"/>
</linearGradient>
<linearGradient id="paint24_linear" x1="274.346" y1="726.002" x2="274.346" y2="816.313" gradientUnits="userSpaceOnUse">
<stop stop-color="#71BFD8"/>
<stop offset="1" stop-color="#8CB9D3"/>
</linearGradient>
<linearGradient id="paint25_linear" x1="259.225" y1="726.002" x2="259.225" y2="813.898" gradientUnits="userSpaceOnUse">
<stop stop-color="#6FA8C8"/>
<stop offset="1" stop-color="#6A81AE"/>
</linearGradient>
<linearGradient id="paint26_linear" x1="1055.34" y1="713.002" x2="1055.34" y2="803.313" gradientUnits="userSpaceOnUse">
<stop stop-color="#71BFD8"/>
<stop offset="1" stop-color="#8EB8D3"/>
</linearGradient>
<linearGradient id="paint27_linear" x1="1070.62" y1="713.002" x2="1070.62" y2="800.898" gradientUnits="userSpaceOnUse">
<stop stop-color="#6EA4C5"/>
<stop offset="1" stop-color="#82A0CC"/>
</linearGradient>
<linearGradient id="paint28_linear" x1="434.5" y1="638.003" x2="434.5" y2="728.313" gradientUnits="userSpaceOnUse">
<stop stop-color="#71BFD8"/>
<stop offset="1" stop-color="#8EB8D3"/>
</linearGradient>
<linearGradient id="paint29_linear" x1="419.225" y1="638.003" x2="419.225" y2="725.898" gradientUnits="userSpaceOnUse">
<stop stop-color="#6EA4C5"/>
<stop offset="1" stop-color="#6184B8"/>
</linearGradient>
<linearGradient id="paint30_linear" x1="1258.99" y1="819.502" x2="1258.99" y2="730.002" gradientUnits="userSpaceOnUse">
<stop stop-color="#6C9AD0"/>
<stop offset="1" stop-color="#6975A5" stop-opacity="0"/>
</linearGradient>
<linearGradient id="paint31_linear" x1="990.996" y1="696.502" x2="990.996" y2="607.002" gradientUnits="userSpaceOnUse">
<stop stop-color="#6975A5"/>
<stop offset="1" stop-color="#6975A5" stop-opacity="0"/>
</linearGradient>
<linearGradient id="paint32_linear" x1="1114.49" y1="798.002" x2="1114.49" y2="697.002" gradientUnits="userSpaceOnUse">
<stop stop-color="#6092BF"/>
<stop offset="1" stop-color="#6975A5" stop-opacity="0"/>
</linearGradient>
<linearGradient id="paint33_linear" x1="827.247" y1="696.002" x2="827.247" y2="595.002" gradientUnits="userSpaceOnUse">
<stop stop-color="#6975A5"/>
<stop offset="1" stop-color="#6975A5" stop-opacity="0"/>
</linearGradient>
<linearGradient id="paint34_linear" x1="299" y1="742.502" x2="659" y2="1072.5" gradientUnits="userSpaceOnUse">
<stop stop-color="white"/>
<stop offset="1" stop-color="white" stop-opacity="0"/>
</linearGradient>
</defs>
</svg>
