<svg width="85" height="136" viewBox="0 0 85 136" fill="none" xmlns="http://www.w3.org/2000/svg">
<path fill-rule="evenodd" clip-rule="evenodd" d="M17 0H70V4H47.9961V39.3311L54.2544 47.2524H31.7378L37.9961 39.3311V4H17V0Z" fill="#FB9D86"/>
<rect x="0.996094" y="47.0024" width="84" height="88" rx="7" fill="url(#paint0_linear)"/>
<rect x="3.99609" y="57.0024" width="11" height="32" rx="1" fill="white"/>
<rect x="4.99609" y="61.0024" width="5" height="26" fill="url(#paint1_linear)" fill-opacity="0.7"/>
<rect x="68.9961" y="57.0024" width="11" height="32" rx="1" fill="white"/>
<rect x="73.9961" y="61.0024" width="5" height="26" fill="url(#paint2_linear)" fill-opacity="0.7"/>
<rect x="18.9961" y="57.0024" width="42" height="32" rx="1" fill="white"/>
<rect x="21.9961" y="61.0024" width="25" height="26" fill="url(#paint3_linear)" fill-opacity="0.7"/>
<defs>
<linearGradient id="paint0_linear" x1="-25.0039" y1="101.002" x2="166.996" y2="115.502" gradientUnits="userSpaceOnUse">
<stop stop-color="#FF7676"/>
<stop offset="1" stop-color="#F2AAAA"/>
</linearGradient>
<linearGradient id="paint1_linear" x1="4.99609" y1="72.5024" x2="9.99609" y2="72.5024" gradientUnits="userSpaceOnUse">
<stop stop-color="#8EA3D4"/>
<stop offset="1" stop-color="#8EA3D4" stop-opacity="0"/>
</linearGradient>
<linearGradient id="paint2_linear" x1="73.9961" y1="72.5024" x2="78.9961" y2="72.5024" gradientUnits="userSpaceOnUse">
<stop stop-color="#8EA3D4"/>
<stop offset="1" stop-color="#8EA3D4" stop-opacity="0"/>
</linearGradient>
<linearGradient id="paint3_linear" x1="21.9961" y1="72.5024" x2="46.9961" y2="72.5024" gradientUnits="userSpaceOnUse">
<stop stop-color="#8EA3D4"/>
<stop offset="1" stop-color="#8EA3D4" stop-opacity="0"/>
</linearGradient>
</defs>
</svg>
