<?xml version="1.0" encoding="utf-8"?>
<!-- Generator: Adobe Illustrator 23.0.3, SVG Export Plug-In . SVG Version: 6.00 Build 0)  -->
<svg version="1.1" id="Layer_1" xmlns="http://www.w3.org/2000/svg" xmlns:xlink="http://www.w3.org/1999/xlink" x="0px" y="0px"
	 viewBox="0 0 1440 864" style="enable-background:new 0 0 1440 864;" xml:space="preserve">
<style type="text/css">
	.st0{clip-path:url(#SVGID_2_);}
	.st1{fill:#ABD8EC;}
	.st2{opacity:0.3;}
	.st3{fill:#7C91C3;}
	.st4{fill:url(#SVGID_3_);}
	.st5{opacity:0.8;}
	.st6{fill:url(#SVGID_4_);}
	.st7{fill:#AB95AE;}
	.st8{opacity:0.4;}
	.st9{fill:url(#SVGID_5_);}
	.st10{opacity:0.2;}
	.st11{fill:url(#SVGID_6_);}
	.st12{fill:url(#SVGID_7_);}
	.st13{fill:url(#SVGID_8_);}
	.st14{fill:url(#SVGID_9_);}
	.st15{opacity:0.8;fill:#7C91C3;enable-background:new    ;}
	.st16{fill:url(#SVGID_10_);}
	.st17{fill:url(#SVGID_11_);}
	.st18{fill:url(#SVGID_12_);}
	.st19{fill:url(#SVGID_13_);}
	.st20{opacity:0.7;}
	.st21{fill:url(#SVGID_14_);}
	.st22{fill:url(#SVGID_15_);}
	.st23{opacity:0.7;fill:url(#SVGID_16_);enable-background:new    ;}
	.st24{fill:url(#SVGID_17_);}
	.st25{fill:url(#SVGID_18_);}
	.st26{fill:url(#SVGID_19_);}
	.st27{fill:url(#SVGID_20_);fill-opacity:0.6;}
	.st28{fill:url(#SVGID_21_);}
	.st29{fill:url(#SVGID_22_);fill-opacity:0.6;}
	.st30{fill:url(#SVGID_23_);}
	.st31{fill:url(#SVGID_24_);fill-opacity:0.6;}
	.st32{fill:#96A5D1;}
	.st33{fill:#C18989;}
	.st34{fill:#78AFC9;}
	.st35{fill:#BFC2CE;}
	.st36{fill:url(#SVGID_25_);}
	.st37{fill:#8194CB;}
	.st38{fill:#92B7D2;}
	.st39{fill:#DFD9D3;}
	.st40{fill:#8FA3D8;}
	.st41{fill:url(#SVGID_26_);}
	.st42{fill:url(#SVGID_27_);fill-opacity:0.5;}
	.st43{fill:url(#SVGID_28_);}
	.st44{fill:#71BFD8;}
	.st45{fill:#D3D4D9;}
	.st46{fill:#6FAECC;}
	.st47{fill:#92A1D3;}
	.st48{fill:url(#SVGID_29_);fill-opacity:0.5;}
	.st49{fill:url(#SVGID_30_);}
	.st50{fill:url(#SVGID_31_);}
	.st51{fill:#E0D8DF;}
	.st52{fill:url(#SVGID_32_);}
	.st53{fill:url(#SVGID_33_);fill-opacity:0.6;}
	.st54{fill:#DD9E9E;}
	.st55{fill:url(#SVGID_34_);}
	.st56{fill:#D6D3E3;}
	.st57{fill:url(#SVGID_35_);}
	.st58{fill:url(#SVGID_36_);}
	.st59{fill:#FFFFFF;}
	.st60{fill:none;stroke:#E4C99B;stroke-width:1.322;}
	.st61{fill:none;stroke:#E4C99B;stroke-width:1.7627;}
	.st62{fill:#B58349;}
	.st63{fill:#E4C7C7;}
	.st64{fill:#E8DADA;}
	.st65{fill:#E1CDE1;}
	.st66{fill:#FFE0CA;fill-opacity:0.2;}
	.st67{fill:#FFE2B6;fill-opacity:0.67;}
	.st68{fill:#FFF0D9;fill-opacity:0.8;}
	.st69{fill:none;stroke:url(#SVGID_37_);stroke-width:5;}
	.st70{fill:none;stroke:url(#SVGID_38_);stroke-width:5;}
	.st71{fill:url(#SVGID_39_);fill-opacity:0.5;}
	.st72{fill:url(#SVGID_40_);}
	.st73{fill:url(#SVGID_41_);}
	.st74{fill:url(#SVGID_42_);}
	.st75{fill:url(#SVGID_43_);}
	.st76{fill:url(#SVGID_44_);}
	.st77{fill:url(#SVGID_45_);}
	.st78{fill:url(#SVGID_46_);}
	.st79{fill:url(#SVGID_47_);}
	.st80{fill:#CE9E8E;}
	.st81{fill:#EFE1CC;fill-opacity:0.8;}
</style>
<g>
	<g>
		<defs>
			<rect id="SVGID_1_" y="0.5" width="1440" height="864"/>
		</defs>
		<clipPath id="SVGID_2_">
			<use xlink:href="#SVGID_1_"  style="overflow:visible;"/>
		</clipPath>
		<g class="st0">
			<rect x="-13.9" y="-256.4" class="st1" width="1461.5" height="595.7"/>
			<g class="st2">
				<path class="st3" d="M1076.1,239.2L764.7,127.1l-60.9,19l-66.3,27.3l-23.2,1.7l-185.7,64.1H1076.1z"/>
				
					<linearGradient id="SVGID_3_" gradientUnits="userSpaceOnUse" x1="926.1557" y1="620.271" x2="913.6137" y2="751.2131" gradientTransform="matrix(1 0 0 -1 0 864)">
					<stop  offset="0.6198" style="stop-color:#B5A2B8"/>
					<stop  offset="1" style="stop-color:#FFFFFF"/>
				</linearGradient>
				<path class="st4" d="M784.3,155.6l16.8,2.7c0,0-14.5-9.4-21.6-15.5c-7.1-6.1-14.9-15.6-14.9-15.6l311.4,112.1
					c-44.8-1.9-79.4-17.6-132-27.9c-21.9-4.3-84.4-27.2-77.1-21.6c7.3,5.6,22,15.9,40,25.3c19,10,55.2,24.2,55.2,24.2h-43.8
					C861.5,207,833.7,188.4,784.3,155.6z"/>
			</g>
			<g class="st5">
				<path class="st3" d="M828.8,230.2l60-62.8l11.7,10.7l12.8,15.3l4.5,1l35.8,35.9H828.8z"/>
				
					<linearGradient id="SVGID_4_" gradientUnits="userSpaceOnUse" x1="850.3102" y1="633.3264" x2="869.4551" y2="702.0684" gradientTransform="matrix(1 0 0 -1 0 864)">
					<stop  offset="0.6198" style="stop-color:#B5A2B8"/>
					<stop  offset="1" style="stop-color:#FFFFFF"/>
				</linearGradient>
				<path class="st6" d="M885.1,183.3l-3.2,1.5c0,0,2.8-5.3,4.2-8.7c1.4-3.4,2.9-8.8,2.9-8.8l-60,62.8c8.6-1.1,15.3-9.9,25.5-15.6
					c4.2-2.4,16.3-15.2,14.9-12.1c-1.4,3.1-4.2,8.9-7.7,14.2c-3.7,5.6-10.6,13.6-10.6,13.6h8.4C870.2,212.2,875.6,201.7,885.1,183.3
					z"/>
				<path class="st7" d="M901.1,263.3c11.2-17.2,16.4-27.2,22.6-45.8c0,0-1.8,21.6-5.2,25.5C914.9,246.8,901.1,263.3,901.1,263.3z"
					/>
			</g>
			<g class="st8">
				<path class="st3" d="M125.3,190.6l86.1-120.5l16.9,20.5l18.4,29.3l6.4,1.8l51.4,68.9H125.3z"/>
				
					<linearGradient id="SVGID_5_" gradientUnits="userSpaceOnUse" x1="149.4792" y1="675.0157" x2="195.9012" y2="799.7709" gradientTransform="matrix(1 0 0 -1 0 864)">
					<stop  offset="0.6198" style="stop-color:#B5A2B8"/>
					<stop  offset="1" style="stop-color:#FFFFFF"/>
				</linearGradient>
				<path class="st9" d="M206,100.7l-4.7,2.9c0,0,4-10.1,6-16.7s4.1-16.8,4.1-16.8l-86.1,120.5c12.4-2.1,22-18.9,36.5-30
					c6.1-4.6,23.4-29.2,21.3-23.2c-2,6-6.1,17.1-11.1,27.2c-5.3,10.7-15.3,26-15.3,26h12.1C184.6,156,192.3,136,206,100.7z"/>
				<path class="st7" d="M197.5,166c11.2-17.2,16.4-27.2,22.6-45.8c0,0-1.8,21.6-5.2,25.5C211.4,149.5,197.5,166,197.5,166z"/>
			</g>
			<g class="st10">
				<path class="st3" d="M1539.4,250.2L1362.8,83.1l-34.6,28.4l-37.6,40.7l-13.1,2.6l-105.3,95.5H1539.4z"/>
				
					<linearGradient id="SVGID_6_" gradientUnits="userSpaceOnUse" x1="1472.6921" y1="611.6534" x2="1426.0321" y2="796.9423" gradientTransform="matrix(1 0 0 -1 0 864)">
					<stop  offset="0.6198" style="stop-color:#B5A2B8"/>
					<stop  offset="1" style="stop-color:#FFFFFF"/>
				</linearGradient>
				<path class="st11" d="M1374,125.5l9.5,4c0,0-8.2-14.1-12.3-23.1c-4-9.1-8.5-23.3-8.5-23.3l176.6,167.1
					c-25.4-2.9-45-26.3-74.9-41.6c-12.4-6.4-47.9-40.5-43.8-32.2c4.1,8.3,12.5,23.7,22.7,37.8c10.8,14.9,31.3,36,31.3,36H1450
					C1417.7,202.2,1402,174.5,1374,125.5z"/>
			</g>
			<g class="st5">
				<path class="st3" d="M934.9,239.2l126.4-127.1l24.8,21.6l26.9,30.9l9.4,1.9l75.4,72.6H934.9z"/>
				
					<linearGradient id="SVGID_7_" gradientUnits="userSpaceOnUse" x1="981.1575" y1="623.5851" x2="1018.5605" y2="763.4211" gradientTransform="matrix(1 0 0 -1 0 864)">
					<stop  offset="0.6198" style="stop-color:#B5A2B8"/>
					<stop  offset="1" style="stop-color:#FFFFFF"/>
				</linearGradient>
				<path class="st12" d="M1053.4,144.4l-6.8,3c0,0,5.9-10.7,8.8-17.6c2.9-6.9,6-17.7,6-17.7L934.9,239.2
					c18.2-2.2,32.2-20,53.6-31.7c8.9-4.9,34.3-30.8,31.3-24.5c-3,6.3-8.9,18.1-16.2,28.7c-7.7,11.3-22.4,27.4-22.4,27.4H999
					C1022.1,202.7,1033.3,181.6,1053.4,144.4z"/>
			</g>
			<g class="st8">
				<path class="st3" d="M1154.1,189.2l126.6-137.1l24.8,23.3l27,33.4l9.4,2.1l75.5,78.4H1154.1z"/>
				
					<linearGradient id="SVGID_8_" gradientUnits="userSpaceOnUse" x1="1200.3319" y1="683.6345" x2="1237.7419" y2="823.4701" gradientTransform="matrix(1 0 0 -1 0 864)">
					<stop  offset="0.6198" style="stop-color:#B5A2B8"/>
					<stop  offset="1" style="stop-color:#FFFFFF"/>
				</linearGradient>
				<path class="st13" d="M1272.6,84.3l-6.8,3c0,0,5.9-10.7,8.8-17.6c2.9-6.9,6.1-17.7,6.1-17.7l-126.4,127.1
					c18.2-2.2,32.2-20,53.6-31.7c8.9-4.9,34.3-30.8,31.3-24.5c-3,6.3-8.9,18.1-16.2,28.7c-7.7,11.3-22.4,27.4-22.4,27.4h17.8
					C1241.2,142.7,1252.5,121.6,1272.6,84.3z"/>
			</g>
			<g class="st2">
				<path class="st3" d="M175.3,211.5L454,101.1l54.5,18.7l59.4,26.8l20.7,1.7l166.2,63.1H175.3z"/>
				
					<linearGradient id="SVGID_9_" gradientUnits="userSpaceOnUse" x1="308.3689" y1="648.2288" x2="321.9229" y2="776.8778" gradientTransform="matrix(1 0 0 -1 0 864)">
					<stop  offset="0.6198" style="stop-color:#B5A2B8"/>
					<stop  offset="1" style="stop-color:#FFFFFF"/>
				</linearGradient>
				<path class="st14" d="M436.4,129.1l-15.1,2.6c0,0,12.9-9.3,19.3-15.3c6.4-6,13.4-15.4,13.4-15.4L175.3,211.5
					c40.1-1.9,71-17.4,118.2-27.5c19.6-4.2,75.6-26.7,69-21.3c-6.5,5.5-19.7,15.7-35.8,25c-17,9.8-49.4,23.8-49.4,23.8h39.2
					C367.3,179.8,392.2,161.4,436.4,129.1z"/>
			</g>
			<g class="st5">
				<path class="st15" d="M164,226.5L37.6,116.1l-24.7,18.7l-26.9,26.8l-5.2,3v61.8H164z"/>
				
					<linearGradient id="SVGID_10_" gradientUnits="userSpaceOnUse" x1="114.0425" y1="635.6326" x2="85.3845" y2="759.0556" gradientTransform="matrix(1 0 0 -1 0 864)">
					<stop  offset="0.6198" style="stop-color:#B5A2B8"/>
					<stop  offset="1" style="stop-color:#FFFFFF"/>
				</linearGradient>
				<path class="st16" d="M45.6,144.1l6.8,2.6c0,0-5.9-9.3-8.8-15.3c-2.9-6-6.1-15.4-6.1-15.4L164,226.5
					c-18.2-1.9-32.2-17.4-53.6-27.5c-8.9-4.2-34.3-26.7-31.3-21.3c3,5.5,8.9,15.7,16.2,25c7.7,9.8,22.4,23.8,22.4,23.8H100
					C76.9,194.8,65.6,176.5,45.6,144.1z"/>
			</g>
			<g>
				
					<linearGradient id="SVGID_11_" gradientUnits="userSpaceOnUse" x1="817.3381" y1="907.8029" x2="857.0401" y2="703.553" gradientTransform="matrix(1 0 0 -1 0 864)">
					<stop  offset="0.4688" style="stop-color:#C4C4C4;stop-opacity:0"/>
					<stop  offset="1" style="stop-color:#D0D9E3"/>
				</linearGradient>
				<path class="st17" d="M915.9,123.1C541.7,207.1,286,59.5,286,59.5L1204.7-18l169.1,0C1373.8-18,1290.1,39.2,915.9,123.1z"/>
			</g>
			<g>
				
					<linearGradient id="SVGID_12_" gradientUnits="userSpaceOnUse" x1="661.0015" y1="861.6583" x2="621.2995" y2="657.4081" gradientTransform="matrix(1 0 0 -1 0 864)">
					<stop  offset="0.4688" style="stop-color:#C4C4C4;stop-opacity:0"/>
					<stop  offset="1" style="stop-color:#D0D9E3"/>
				</linearGradient>
				<path class="st18" d="M482.6,171.7c374.2,83.9,714.3-65.2,714.3-65.2L278.2,29L106.8-7.5C106.8-7.5,108.4,87.7,482.6,171.7z"/>
			</g>
			<g>
				
					<linearGradient id="SVGID_13_" gradientUnits="userSpaceOnUse" x1="1129.8235" y1="878.6146" x2="837.5874" y2="773.028" gradientTransform="matrix(1 0 0 -1 0 864)">
					<stop  offset="0" style="stop-color:#E2EFF4"/>
					<stop  offset="1" style="stop-color:#EEF5F5"/>
				</linearGradient>
				<path class="st19" d="M1067,3c22.3-15.6,23.5-21,23.5-21h82.1c0,0-114.8,48.5-179.6,70.1c-74.1,24.6-175.1,43.5-175.1,43.5
					S993,55,1067,3z"/>
			</g>
			<g class="st20">
				
					<linearGradient id="SVGID_14_" gradientUnits="userSpaceOnUse" x1="1283.2147" y1="893.3703" x2="883.0287" y2="592.3917" gradientTransform="matrix(1 0 0 -1 0 864)">
					<stop  offset="0" style="stop-color:#B8DAEA"/>
					<stop  offset="1" style="stop-color:#F0E3E5"/>
				</linearGradient>
				<path class="st21" d="M1010.7,160.6c-20.9,25.8-190.9,63.6-190.9,63.6s118.7-17.5,190.9-37.8c67.1-18.9,104.5-31.4,165.1-60
					C1255.3,88.8,1358.3,9,1358.3,9s-90.5,47.8-156.8,64.5c-32.6,8.2-69.1-10.4-85.5,15.6c-3.2,5-2.7,8.4-6,13.3
					c-14.3,21.7-50.3,19.6-74.2,36C1018.1,150.5,1023.1,145.3,1010.7,160.6z"/>
			</g>
			
				<linearGradient id="SVGID_15_" gradientUnits="userSpaceOnUse" x1="287.683" y1="885.4891" x2="519.873" y2="800.4193" gradientTransform="matrix(1 0 0 -1 0 864)">
				<stop  offset="0" style="stop-color:#C2DEEE"/>
				<stop  offset="0.9873" style="stop-color:#FFFFFF"/>
			</linearGradient>
			<path class="st22" d="M380,13c-2.2-11.4-6-18.2-18.5-31h-75.1c35.5,21.6,56,32.8,93.6,50.5c58,27.5,153.6,58,153.6,58
				S382.2,24.4,380,13z"/>
			
				<linearGradient id="SVGID_16_" gradientUnits="userSpaceOnUse" x1="114.6149" y1="910.2916" x2="536.2103" y2="623.0175" gradientTransform="matrix(1 0 0 -1 0 864)">
				<stop  offset="1.539470e-02" style="stop-color:#ACCFE4"/>
				<stop  offset="0.6667" style="stop-color:#E7E6F5"/>
			</linearGradient>
			<path class="st23" d="M138.4,31.8C107.9,10.8,91.2-12,91.2-12S110.3,7.2,138.4,31.8c28.9,19.9,70.2,38.1,121.4,33.8
				c65.5-5.5,79.4,39.3,79.4,39.3s62.4-3.1,71.3,33.1c6.8,28,98.6,51.6,145.9,60.9c19.4,2.9,29.9,4.3,26.8,4.2
				c-2.9,0-12.9-1.5-26.8-4.2c-60.7-9.1-208.4-33.5-296.5-79.3C217.6,97.8,171.7,60.9,138.4,31.8z"/>
			
				<linearGradient id="SVGID_17_" gradientUnits="userSpaceOnUse" x1="712.9824" y1="697.5219" x2="709.4784" y2="66.004" gradientTransform="matrix(1 0 0 -1 0 864)">
				<stop  offset="0" style="stop-color:#97ABDE"/>
				<stop  offset="0.3542" style="stop-color:#ECEAED"/>
				<stop  offset="1" style="stop-color:#F7EDED"/>
			</linearGradient>
			<path class="st24" d="M52.2,222.6c-64.9,0-66.6-39.8-72.1-59.5v720.6h812.7h649V192.6c0,0-84.4-38.1-157.6-41.5
				c-118.4-5.5-176.2,70.9-294.7,72.6c-83.8,1.2-199.1-31.1-212.2-31.1c-13.1,0-85.1-23.4-140.9-23.8
				c-71.6-0.5-133.5,36.3-179.7,36.3c-111.3,0-168.7-56.9-228.6-56.9C160.4,148.9,101.6,222.6,52.2,222.6z"/>
			
				<linearGradient id="SVGID_18_" gradientUnits="userSpaceOnUse" x1="382.3419" y1="867.3057" x2="381.3409" y2="514.0156" gradientTransform="matrix(1 0 0 -1 0 864)">
				<stop  offset="0" style="stop-color:#A7AFD9;stop-opacity:0"/>
				<stop  offset="1" style="stop-color:#FFFFFF"/>
			</linearGradient>
			<path class="st25" d="M442.9,261.1c-121.5-5.8-121.6,68.1-243.2,64.1c-49-1.6-124.4-16.5-124.4-16.5l-124.4-16.5l561.5-64.1
				c0,0,33-1.2,54,0c24.5,1.4,57.8,6.4,77,10c4,0.9,8.1,1.9,12.1,3c20,5.3,40.3,12.4,64.6,22c33,13,51.8,26.7,78.6,41.6
				c6.4,3.6,13.3,7.2,21,10.9c81.6,39.5,36,95.5-4.5,120.1C774.6,460.3,625.3,511,583,515.8c-42.3,4.9-311.9,23.8-464.4,130.6
				C16.5,718-6,781-6,781c-190.8,187.9-43.1-281.7-43.1-281.7c42-13.5,82.4-30.7,167.6-58c126.6-40.6,295.1-60.1,447.9-60.1
				c46,0,98.5-30.3,108.7-65.5c1.7-5.9,1.7-13.6-0.6-23.5c-3.1-13.5-11.7-22.6-24.1-28.7C598.1,248.8,492.2,263.5,442.9,261.1z"/>
			
				<linearGradient id="SVGID_19_" gradientUnits="userSpaceOnUse" x1="89.2087" y1="71.8947" x2="128.5558" y2="55.2808" gradientTransform="matrix(1 0 0 -1 0 864)">
				<stop  offset="0.1118" style="stop-color:#7FA8C6"/>
				<stop  offset="1" style="stop-color:#6C96B2"/>
			</linearGradient>
			<path class="st26" d="M130.9,803.6H74c0,0-3.2-4.6-1.7-6.9c1.7-2.5,4.9,0.9,7.8,0c1.4-0.5-0.4-3.6,1.2-4.7c1.6-1.1,3.8,1.3,5,0.5
				c6.2-4.6,7.8-16.7,14.7-13.3c5,2.5,1.1,9.5,5.2,13.3c1.5,1.3,3.5,0.3,5,0.9c1.6,0.8,2.6,3.3,4.7,3.3c1.7,0,3.4-7.9,7.6-6.2
				C127.8,792.3,130.9,803.6,130.9,803.6z"/>
			
				<linearGradient id="SVGID_20_" gradientUnits="userSpaceOnUse" x1="90.9988" y1="73.1324" x2="108.7649" y2="59.1374" gradientTransform="matrix(1 0 0 -1 0 864)">
				<stop  offset="0" style="stop-color:#FFFFFF;stop-opacity:0.54"/>
				<stop  offset="1" style="stop-color:#FFFFFF;stop-opacity:0"/>
			</linearGradient>
			<path class="st27" d="M130.9,803.6H74c0,0-3.2-4.6-1.7-6.9c1.7-2.5,4.9,0.9,7.8,0c1.4-0.5-0.4-3.6,1.2-4.7c1.6-1.1,3.8,1.3,5,0.5
				c6.2-4.6,7.8-16.7,14.7-13.3c5,2.5,1.1,9.5,5.2,13.3c1.5,1.3,3.5,0.3,5,0.9c1.6,0.8,2.6,3.3,4.7,3.3c1.7,0,3.4-7.9,7.6-6.2
				C127.8,792.3,130.9,803.6,130.9,803.6z"/>
			
				<linearGradient id="SVGID_21_" gradientUnits="userSpaceOnUse" x1="1224.7605" y1="569.8962" x2="1264.1106" y2="553.2822" gradientTransform="matrix(1 0 0 -1 0 864)">
				<stop  offset="0.1118" style="stop-color:#7FA8C6"/>
				<stop  offset="1" style="stop-color:#6C96B2"/>
			</linearGradient>
			<path class="st28" d="M1266.4,305.6h-56.9c0,0-3.2-4.6-1.7-6.9c1.7-2.5,4.9,0.9,7.8,0c1.4-0.5-0.4-3.6,1.2-4.7
				c1.6-1.1,3.8,1.3,5,0.5c6.2-4.6,7.8-16.7,14.7-13.3c5,2.5,1.1,9.5,5.2,13.3c1.5,1.3,3.5,0.3,5,0.9c1.6,0.8,2.6,3.3,4.7,3.3
				c1.7,0,3.4-7.9,7.6-6.2C1263.4,294.3,1266.4,305.6,1266.4,305.6z"/>
			
				<linearGradient id="SVGID_22_" gradientUnits="userSpaceOnUse" x1="1226.5533" y1="571.1323" x2="1244.3234" y2="557.1373" gradientTransform="matrix(1 0 0 -1 0 864)">
				<stop  offset="0" style="stop-color:#FFFFFF;stop-opacity:0.54"/>
				<stop  offset="1" style="stop-color:#FFFFFF;stop-opacity:0"/>
			</linearGradient>
			<path class="st29" d="M1266.4,305.6h-56.9c0,0-3.2-4.6-1.7-6.9c1.7-2.5,4.9,0.9,7.8,0c1.4-0.5-0.4-3.6,1.2-4.7
				c1.6-1.1,3.8,1.3,5,0.5c6.2-4.6,7.8-16.7,14.7-13.3c5,2.5,1.1,9.5,5.2,13.3c1.5,1.3,3.5,0.3,5,0.9c1.6,0.8,2.6,3.3,4.7,3.3
				c1.7,0,3.4-7.9,7.6-6.2C1263.4,294.3,1266.4,305.6,1266.4,305.6z"/>
			
				<linearGradient id="SVGID_23_" gradientUnits="userSpaceOnUse" x1="176.2087" y1="507.8946" x2="215.5557" y2="491.2806" gradientTransform="matrix(1 0 0 -1 0 864)">
				<stop  offset="0.1118" style="stop-color:#7FA8C6"/>
				<stop  offset="1" style="stop-color:#6C96B2"/>
			</linearGradient>
			<path class="st30" d="M217.9,367.6H161c0,0-3.2-4.6-1.7-6.9c1.7-2.5,4.9,0.9,7.8,0c1.4-0.5-0.4-3.6,1.2-4.7
				c1.6-1.1,3.8,1.3,5,0.5c6.2-4.6,7.8-16.7,14.7-13.3c5,2.5,1.1,9.5,5.2,13.3c1.5,1.3,3.5,0.3,5,0.9c1.6,0.8,2.6,3.3,4.7,3.3
				c1.7,0,3.4-7.9,7.6-6.2C214.8,356.3,217.9,367.6,217.9,367.6z"/>
			
				<linearGradient id="SVGID_24_" gradientUnits="userSpaceOnUse" x1="177.9988" y1="509.1322" x2="195.7648" y2="495.1372" gradientTransform="matrix(1 0 0 -1 0 864)">
				<stop  offset="0" style="stop-color:#FFFFFF;stop-opacity:0.54"/>
				<stop  offset="1" style="stop-color:#FFFFFF;stop-opacity:0"/>
			</linearGradient>
			<path class="st31" d="M217.9,367.6H161c0,0-3.2-4.6-1.7-6.9c1.7-2.5,4.9,0.9,7.8,0c1.4-0.5-0.4-3.6,1.2-4.7
				c1.6-1.1,3.8,1.3,5,0.5c6.2-4.6,7.8-16.7,14.7-13.3c5,2.5,1.1,9.5,5.2,13.3c1.5,1.3,3.5,0.3,5,0.9c1.6,0.8,2.6,3.3,4.7,3.3
				c1.7,0,3.4-7.9,7.6-6.2C214.8,356.3,217.9,367.6,217.9,367.6z"/>
			<path class="st32" d="M187.3,206.6c6.4-3.1,19.4-8.3,26-10.6c14.1-4.8,16.5-7.8,30.1-8.9c38.2-3.3,33.2,8.9,33.2,8.9
				s-18.8,6.6-31.2,8.9C223.1,209.3,166.7,216.5,187.3,206.6z"/>
			<path class="st33" d="M260.9,180.6h9v11.9c-3.5,1.5-5.5,1.5-9,0V180.6z"/>
			<path class="st34" d="M264.5,92.3c0.4-0.7,1.4-0.7,1.8,0l20,39.6c0.3,0.7-0.1,1.4-0.9,1.4H281c-0.8,0-1.3,0.9-0.9,1.5l11.2,18.5
				c0.4,0.7-0.1,1.5-0.9,1.5h-6.2c-0.8,0-1.3,0.9-0.9,1.5l12.6,20.7c0.4,0.6,0,1.4-0.7,1.5c-23.1,3-36.8,2.9-59.9,0
				c-0.7-0.1-1.1-0.9-0.7-1.5l12.6-20.7c0.4-0.7-0.1-1.5-0.9-1.5h-6.2c-0.8,0-1.3-0.9-0.9-1.5l11.2-18.5c0.4-0.7-0.1-1.5-0.9-1.5
				h-4.4c-0.7,0-1.2-0.8-0.9-1.5L264.5,92.3z"/>
			<path class="st35" d="M282.7,180c-0.5,0.1-0.9-0.2-1.1-0.7l-7.4-23.7c-0.1-0.4,0-0.9,0.4-1.1l4-2.8c0.4-0.3,0.5-0.8,0.3-1.3
				l-8.1-16.4c-0.2-0.4-0.1-0.9,0.2-1.2l4.1-3.8c0.3-0.3,0.4-0.6,0.3-1l-9.4-35.6c-0.1-0.2,0.3-0.4,0.4-0.1l20,39.7
				c0.3,0.7-0.1,1.5-0.9,1.5H281c-0.8,0-1.3,0.9-0.9,1.5l11.2,18.5c0.4,0.7-0.1,1.5-0.9,1.5h-6.2c-0.8,0-1.3,0.9-0.9,1.5l12.6,20.7
				c0.4,0.6,0,1.4-0.7,1.5L282.7,180z"/>
			<path class="st32" d="M1227.2,195.5c-5-2.3-15.2-6.2-20.3-7.8c-11-3.4-13-5.9-23.4-6.2c-29.2-0.9-24.6,9.4-24.6,9.4
				s14.6,4.7,24.2,6.2C1200.2,199.6,1243.4,203,1227.2,195.5z"/>
			<path class="st33" d="M1175.5,177.3h-7.2v9.4c2.8,1.2,4.4,1.2,7.2,0V177.3z"/>
			
				<linearGradient id="SVGID_25_" gradientUnits="userSpaceOnUse" x1="1157.3656" y1="754.9236" x2="1187.9156" y2="618.1776" gradientTransform="matrix(1 0 0 -1 0 864)">
				<stop  offset="0" style="stop-color:#92B7D2"/>
				<stop  offset="0.958" style="stop-color:#749EBD"/>
			</linearGradient>
			<path class="st36" d="M1172.3,106.7c-0.2-0.4-0.7-0.4-0.9,0l-16.3,32.4c-0.2,0.3,0.1,0.7,0.4,0.7h4.5c0.4,0,0.6,0.4,0.4,0.8
				l-9.5,15.6c-0.2,0.3,0,0.8,0.4,0.8h6c0.4,0,0.6,0.4,0.4,0.8l-10.5,17.3c-0.2,0.3,0,0.7,0.4,0.8c18.8,2.4,29.7,2.4,48.5,0
				c0.4,0,0.5-0.4,0.4-0.8l-10.5-17.3c-0.2-0.3,0-0.8,0.4-0.8h6c0.4,0,0.6-0.4,0.4-0.8l-9.5-15.6c-0.2-0.3,0-0.8,0.4-0.8h4.5
				c0.4,0,0.6-0.4,0.4-0.7L1172.3,106.7z"/>
			<path class="st35" d="M1158.4,176.8c0.2,0,0.5-0.1,0.5-0.3l6-19.2c0.1-0.2,0-0.4-0.2-0.6l-3.5-2.5c-0.2-0.1-0.3-0.4-0.2-0.6
				l6.6-13.4c0.1-0.2,0.1-0.4-0.1-0.6l-3.5-3.3c-0.1-0.1-0.2-0.3-0.1-0.5l6.7-25.3c0.1-0.6-0.7-0.9-0.9-0.4l-14.6,29
				c-0.2,0.3,0.1,0.7,0.4,0.7h4.5c0.4,0,0.6,0.4,0.4,0.8l-9.5,15.6c-0.2,0.3,0,0.8,0.4,0.8h6c0.4,0,0.6,0.4,0.4,0.8l-10.5,17.2
				c-0.2,0.3,0,0.7,0.4,0.8L1158.4,176.8z"/>
			<path class="st37" d="M625.4,215.9c-3.6-2.5,3.1-8.1,15.6-9.7c7.8-1,13.8-3.1,27.4-2.7c38.3,1.3,32.8,7.3,32.8,7.3
				s-21.8,7.5-34.4,8.2C644.2,220.4,632.5,220.8,625.4,215.9z"/>
			<path class="st38" d="M667.5,122.4c0.4-0.7,1.4-0.7,1.8,0l19.3,39.5c0.3,0.7-0.2,1.4-0.9,1.4h-4.2c-0.8,0-1.3,0.8-0.9,1.5
				l10.9,18.5c0.4,0.7-0.1,1.5-0.9,1.5h-5.9c-0.8,0-1.3,0.8-0.9,1.5l12.2,20.7c0.4,0.6,0,1.4-0.7,1.5c-22.4,3-35.6,2.9-58,0
				c-0.7-0.1-1.1-0.9-0.7-1.5l12.2-20.7c0.4-0.7-0.1-1.5-0.9-1.5H644c-0.8,0-1.3-0.8-0.9-1.5l10.9-18.5c0.4-0.7-0.1-1.5-0.9-1.5H649
				c-0.7,0-1.2-0.8-0.9-1.4L667.5,122.4z"/>
			<path class="st39" d="M692.9,208.5c-0.3,0-0.7-0.2-0.9-0.5l-14.6-23.6c-0.4-0.6,0-1.4,0.7-1.5l8.1-1.1c0.7-0.1,1.1-0.9,0.7-1.5
				l-9.7-15.8c-0.3-0.5-0.1-1.3,0.5-1.5l4.5-1.6c0.5-0.2,0.8-0.8,0.6-1.3l-14.6-39.5l20.2,41.4c0.3,0.7-0.2,1.4-0.9,1.4h-4.2
				c-0.8,0-1.3,0.8-0.9,1.5l10.9,18.5c0.4,0.7-0.1,1.5-0.9,1.5h-5.9c-0.8,0-1.3,0.8-0.9,1.5L698,207c0.4,0.7-0.1,1.5-0.9,1.5H692.9z
				"/>
			<path class="st40" d="M758.4,229.5c3.3-2.1,0.2-5-5-7.9c-5.8-3.2-19.9-5.2-32.3-4.8c-34.9,1.3-31.7,8.8-31.7,8.8
				s-3.6,5.3,31.3,6.9C741.3,233.4,752,233.7,758.4,229.5z"/>
			<path class="st33" d="M713.9,219h13v8.7c-5.1,1.1-7.9,1.1-13,0V219z"/>
			
				<linearGradient id="SVGID_26_" gradientUnits="userSpaceOnUse" x1="720.3769" y1="763.9205" x2="720.3769" y2="712.9205" gradientTransform="matrix(1 0 0 -1 0 864)">
				<stop  offset="0" style="stop-color:#FCEDD5"/>
				<stop  offset="1" style="stop-color:#92B7D2"/>
			</linearGradient>
			<path class="st41" d="M719.5,115.8c0.3-0.8,1.5-0.8,1.8,0l20.1,47.7c0.3,0.7-0.2,1.4-0.9,1.4h-4.6c-0.7,0-1.2,0.8-0.9,1.5
				l11.6,22.9c0.3,0.7-0.1,1.5-0.9,1.5h-6.5c-0.7,0-1.2,0.8-0.9,1.5l12.9,25.5c0.3,0.6-0.1,1.3-0.7,1.4c-23.3,3.6-37,3.6-60.3,0
				c-0.7-0.1-1.1-0.8-0.7-1.4l12.9-25.5c0.3-0.7-0.1-1.5-0.9-1.5h-6.5c-0.7,0-1.2-0.8-0.9-1.5l11.6-22.9c0.3-0.7-0.1-1.5-0.9-1.5
				h-4.6c-0.7,0-1.2-0.7-0.9-1.4L719.5,115.8z"/>
			
				<linearGradient id="SVGID_27_" gradientUnits="userSpaceOnUse" x1="463.3915" y1="688.2266" x2="419.8916" y2="607.2266" gradientTransform="matrix(1 0 0 -1 0 864)">
				<stop  offset="0" style="stop-color:#758BCB"/>
				<stop  offset="1" style="stop-color:#B0BBD8;stop-opacity:0"/>
			</linearGradient>
			<path class="st42" d="M548.9,223.6l-49-2l-205,61l108.5,15L548.9,223.6z"/>
			
				<linearGradient id="SVGID_28_" gradientUnits="userSpaceOnUse" x1="368.5208" y1="580.4711" x2="349.3828" y2="473.383" gradientTransform="matrix(1 0 0 -1 0 864)">
				<stop  offset="0" style="stop-color:#96A6D3"/>
				<stop  offset="1" style="stop-color:#E2E9F2;stop-opacity:0"/>
			</linearGradient>
			<path class="st43" d="M278.9,350.1c-4.1,0,96.7-50.5,102-54.5c5.9-4.5,20.4-7.1,32.7-7c34.6,0.5,29.1,15.2,29.1,15.2
				s-30,13.6-41.3,14.7C380.9,320.7,285.7,350.1,278.9,350.1z"/>
			<path class="st33" d="M414.9,280.6h10v12.8c-3.9,1.7-6.1,1.6-10,0V280.6z"/>
			<path class="st44" d="M417.8,169.5c0.4-0.8,1.4-0.8,1.8,0L444,221c0.3,0.7-0.2,1.4-0.9,1.4h-6c-0.8,0-1.2,0.8-0.9,1.5l14,24.6
				c0.4,0.7-0.1,1.5-0.9,1.5H441c-0.8,0-1.2,0.8-0.9,1.5l15.6,27.4c0.3,0.6,0,1.4-0.7,1.5c-28.1,3.9-44.5,3.8-72.7,0
				c-0.7-0.1-1.1-0.9-0.7-1.5l15.6-27.4c0.4-0.7-0.1-1.5-0.9-1.5h-8.3c-0.8,0-1.2-0.8-0.9-1.5l14-24.6c0.4-0.7-0.1-1.5-0.9-1.5h-6
				c-0.7,0-1.2-0.8-0.9-1.4L417.8,169.5z"/>
			<path class="st45" d="M445.6,281.5c-0.4,0.1-0.8-0.2-1-0.5l-15.1-30.2c-0.2-0.4-0.1-1,0.3-1.2l5-3.8c0.4-0.3,0.5-0.8,0.3-1.2
				l-9.9-21.4c-0.2-0.4-0.1-0.8,0.2-1.1l5.2-5.2c0.2-0.2,0.3-0.6,0.3-0.9l-11.5-46.3c-0.1-0.2,0.3-0.4,0.4-0.1l24.4,51.6
				c0.3,0.7-0.2,1.4-0.9,1.4h-6c-0.8,0-1.2,0.8-0.9,1.5l14,24.6c0.4,0.7-0.1,1.5-0.9,1.5h-8.3c-0.8,0-1.2,0.8-0.9,1.5l15.6,27.4
				c0.4,0.6,0,1.4-0.8,1.5L445.6,281.5z"/>
			<path class="st32" d="M82.4,234.6c-3.5-2.8,6.5-9,15.5-12c7.5-2.5,27.2-11.3,40.9-11c38.4,0.8,34.6,11,34.6,11s-22,9-34.6,10
				C116.1,234.5,89.4,240.1,82.4,234.6z"/>
			<path class="st46" d="M150.5,145.2c0.4-0.7,1.4-0.7,1.8,0l19.2,35.3c0.4,0.7-0.1,1.5-0.9,1.5h-4c-0.8,0-1.3,0.9-0.8,1.5
				l10.6,16.2c0.4,0.7,0,1.5-0.8,1.5h-5.7c-0.8,0-1.3,0.9-0.8,1.5l12,18.2c0.4,0.6,0,1.5-0.7,1.5c-22.3,2.6-35.5,2.6-57.8,0
				c-0.7-0.1-1.1-0.9-0.7-1.5l12-18.2c0.4-0.7,0-1.5-0.8-1.5h-5.7c-0.8,0-1.3-0.9-0.8-1.5l10.6-16.2c0.4-0.7,0-1.5-0.8-1.5h-4
				c-0.8,0-1.2-0.8-0.9-1.5L150.5,145.2z"/>
			<path class="st35" d="M168.1,223.8c-0.5,0-0.9-0.2-1-0.7L160,202c-0.1-0.4,0-0.9,0.4-1.2l3.7-2.4c0.4-0.3,0.6-0.8,0.3-1.3
				l-7.7-14.4c-0.2-0.4-0.1-0.9,0.2-1.2l3.8-3.3c0.3-0.3,0.4-0.7,0.3-1l-9.1-31.8c-0.1-0.2,0.3-0.4,0.4-0.2l19.2,35.3
				c0.4,0.7-0.1,1.5-0.9,1.5h-4c-0.8,0-1.3,0.9-0.8,1.5l10.6,16.2c0.4,0.7,0,1.5-0.8,1.5h-5.7c-0.8,0-1.3,0.9-0.8,1.5L181,221
				c0.4,0.6,0,1.5-0.7,1.5L168.1,223.8z"/>
			<path class="st47" d="M1463.4,252.6c-6.4-3.1-19.3-8.3-26-10.6c-14.1-4.8-16.5-7.8-30.1-8.9c-38.2-3.3-33.1,8.9-33.1,8.9
				s18.8,6.6,31.2,8.9C1427.6,255.3,1484.1,262.5,1463.4,252.6z"/>
			
				<linearGradient id="SVGID_29_" gradientUnits="userSpaceOnUse" x1="820.6619" y1="578.608" x2="840.4399" y2="518.434" gradientTransform="matrix(1 0 0 -1 0 864)">
				<stop  offset="0" style="stop-color:#8FA3D8"/>
				<stop  offset="0.6858" style="stop-color:#E2E3EF;stop-opacity:0"/>
			</linearGradient>
			<path class="st48" d="M858.1,306c0,0-10-13.1-31.4-27c-4.9-3.2-11.4-7.8-19.6-7.2c-22.9,1.7-18.4,9.9-18.4,9.9s5.1,6.9,14.6,10.7
				C809,294.7,842,308.9,858.1,306z"/>
			<path class="st47" d="M1399.9,216.1c-12.5-9-11.8-8.9-20-13c-13.5-6.7-23.7-6.5-37.7-7.2c-39.4-1.9-34.1,5.1-34.1,5.1
				s32.1,16.4,44.9,17.8C1371.8,220.9,1418.8,229.7,1399.9,216.1z"/>
			<path class="st33" d="M1381.9,224.6h9v11c-3.5,1.4-5.5,1.4-9,0V224.6z"/>
			<path class="st44" d="M1386,136.7c0.4-0.8,1.5-0.8,1.8,0l17,39.3c0.3,0.7-0.2,1.4-0.9,1.4h-3.5c-0.8,0-1.2,0.8-0.9,1.5l9.7,18.6
				c0.3,0.7-0.1,1.5-0.9,1.5h-5.1c-0.8,0-1.2,0.8-0.9,1.5l10.9,20.8c0.3,0.6-0.1,1.3-0.7,1.4c-19.8,3-31.4,2.8-51.2,0
				c-0.7-0.1-1.1-0.8-0.8-1.5l10.8-20.8c0.4-0.7-0.1-1.5-0.9-1.5h-5.1c-0.8,0-1.2-0.8-0.9-1.5l9.7-18.6c0.3-0.7-0.1-1.5-0.9-1.5
				h-3.5c-0.7,0-1.2-0.7-0.9-1.4L1386,136.7z"/>
			
				<linearGradient id="SVGID_30_" gradientUnits="userSpaceOnUse" x1="1400.8514" y1="639.9683" x2="1400.8514" y2="729.4683" gradientTransform="matrix(1 0 0 -1 0 864)">
				<stop  offset="0" style="stop-color:#6975A5"/>
				<stop  offset="1" style="stop-color:#6975A5;stop-opacity:0"/>
			</linearGradient>
			<path class="st49" d="M1400.3,224c-0.3,0-0.5-0.1-0.5-0.4l-5.5-24.4c0-0.2,0-0.4,0.2-0.5l4-3.3c0.2-0.1,0.2-0.4,0.1-0.6
				l-7.2-17.1c-0.1-0.2,0-0.4,0.1-0.5l3.9-4.3c0.1-0.1,0.2-0.3,0.1-0.4l-7.4-32.5c-0.1-0.6,0.7-0.9,0.9-0.3l16.1,37.2
				c0.1,0.3-0.1,0.7-0.5,0.7h-5.1c-0.4,0-0.6,0.4-0.4,0.7l10.5,20.1c0.2,0.3-0.1,0.7-0.4,0.7h-6.7c-0.4,0-0.6,0.4-0.4,0.7l11.5,22.2
				c0.2,0.3,0,0.7-0.4,0.7L1400.3,224z"/>
			<path class="st44" d="M1332,104c0.3-0.9,1.5-0.9,1.9,0l17,44.7c0.3,0.7-0.2,1.4-0.9,1.4h-3.7c-0.7,0-1.2,0.8-0.9,1.4l9.9,21.6
				c0.3,0.7-0.2,1.4-0.9,1.4h-5.2c-0.7,0-1.2,0.8-0.9,1.4l11.1,24.1c0.3,0.6-0.1,1.3-0.7,1.4c-19.9,3.4-31.6,3.2-51.4,0
				c-0.7-0.1-1-0.8-0.8-1.4l11.1-24.1c0.3-0.7-0.2-1.4-0.9-1.4h-5.2c-0.7,0-1.2-0.8-0.9-1.4l9.9-21.6c0.3-0.7-0.2-1.4-0.9-1.4h-3.7
				c-0.7,0-1.2-0.7-0.9-1.4L1332,104z"/>
			
				<linearGradient id="SVGID_31_" gradientUnits="userSpaceOnUse" x1="1346.8639" y1="661.4205" x2="1346.8639" y2="762.4205" gradientTransform="matrix(1 0 0 -1 0 864)">
				<stop  offset="0" style="stop-color:#6975A5"/>
				<stop  offset="1" style="stop-color:#6975A5;stop-opacity:0"/>
			</linearGradient>
			<path class="st50" d="M1346.4,203c-0.3,0-0.5-0.1-0.6-0.4l-5.5-27.9c0-0.2,0-0.3,0.2-0.5l4.1-3.8c0.2-0.1,0.2-0.3,0.1-0.5
				l-7.3-19.6c-0.1-0.2,0-0.4,0.1-0.5l4-5c0.1-0.1,0.1-0.3,0.1-0.4l-7.4-37c-0.1-0.6,0.7-0.8,0.9-0.3l16.1,42.2
				c0.1,0.3-0.1,0.7-0.5,0.7h-5.2c-0.4,0-0.6,0.4-0.4,0.7l10.6,23c0.2,0.3-0.1,0.7-0.5,0.7h-6.8c-0.4,0-0.6,0.4-0.4,0.7l11.7,25.3
				c0.1,0.3-0.1,0.7-0.4,0.7L1346.4,203z"/>
			<path class="st51" d="M1737.4,726.6c46.4,0-31.6-111.7-70.5-128.7c-123.5-54-82.5-47-164.4-54c-229.7-19.6-206.5,43.3-199.3,54
				c7.2,10.7,71.6,75,147.8,85.9C1586.4,703,1706.9,726.6,1737.4,726.6z"/>
			
				<linearGradient id="SVGID_32_" gradientUnits="userSpaceOnUse" x1="1379.2095" y1="281.9039" x2="1418.5594" y2="265.2889" gradientTransform="matrix(1 0 0 -1 0 864)">
				<stop  offset="0.1118" style="stop-color:#6490AF"/>
				<stop  offset="1" style="stop-color:#628EAB"/>
			</linearGradient>
			<path class="st52" d="M1420.9,593.6H1364c0,0-3.2-4.6-1.7-6.9c1.7-2.5,4.9,0.9,7.8,0c1.4-0.5-0.4-3.6,1.2-4.7
				c1.6-1.1,3.8,1.3,5,0.5c6.2-4.6,7.8-16.7,14.7-13.3c5,2.5,1.1,9.5,5.2,13.3c1.5,1.3,3.5,0.3,5,0.9c1.6,0.8,2.6,3.3,4.8,3.3
				c1.7,0,3.4-7.9,7.6-6.2C1417.8,582.3,1420.9,593.6,1420.9,593.6z"/>
			
				<linearGradient id="SVGID_33_" gradientUnits="userSpaceOnUse" x1="1381.0012" y1="283.1401" x2="1398.7612" y2="269.1451" gradientTransform="matrix(1 0 0 -1 0 864)">
				<stop  offset="0" style="stop-color:#FFFFFF;stop-opacity:0.54"/>
				<stop  offset="1" style="stop-color:#FFFFFF;stop-opacity:0"/>
			</linearGradient>
			<path class="st53" d="M1420.9,593.6H1364c0,0-3.2-4.6-1.7-6.9c1.7-2.5,4.9,0.9,7.8,0c1.4-0.5-0.4-3.6,1.2-4.7
				c1.6-1.1,3.8,1.3,5,0.5c6.2-4.6,7.8-16.7,14.7-13.3c5,2.5,1.1,9.5,5.2,13.3c1.5,1.3,3.5,0.3,5,0.9c1.6,0.8,2.6,3.3,4.8,3.3
				c1.7,0,3.4-7.9,7.6-6.2C1417.8,582.3,1420.9,593.6,1420.9,593.6z"/>
			<path class="st54" d="M1342.3,526.9h29.8v28c-11.7,3.7-18.2,3.5-29.8,0V526.9z"/>
			<path class="st44" d="M1355.6,207.9c0.7-1.6,3-1.6,3.7,0l62.3,147.6c0.6,1.3-0.4,2.8-1.8,2.8h-17.3c-1.5,0-2.5,1.6-1.8,2.9
				l36.7,72c0.7,1.3-0.3,2.9-1.8,2.9h-23c-1.5,0-2.5,1.6-1.8,2.9l40.6,79.7c0.6,1.2-0.2,2.7-1.5,2.9c-72.8,10.9-114.3,10.7-185.2,0
				c-1.3-0.2-2.1-1.7-1.5-2.9l40.6-79.7c0.7-1.3-0.3-2.9-1.8-2.9h-23c-1.5,0-2.5-1.6-1.8-2.9l36.7-72c0.7-1.3-0.3-2.9-1.8-2.9h-17.3
				c-1.4,0-2.4-1.5-1.8-2.8L1355.6,207.9z"/>
			
				<linearGradient id="SVGID_34_" gradientUnits="userSpaceOnUse" x1="1405.9177" y1="321.4205" x2="1405.9177" y2="660.4205" gradientTransform="matrix(1 0 0 -1 0 864)">
				<stop  offset="0" style="stop-color:#6975A5"/>
				<stop  offset="1" style="stop-color:#6975A5;stop-opacity:0"/>
			</linearGradient>
			<path class="st55" d="M1410.2,526.5c-0.5,0.1-0.9-0.2-1.1-0.7l-25.6-88.9c-0.1-0.4,0-0.8,0.3-1l14.9-12.7
				c0.3-0.3,0.4-0.7,0.3-1.1l-26-63c-0.2-0.4-0.1-0.8,0.2-1l14.5-16.3c0.2-0.2,0.3-0.6,0.2-0.9l-28-126.3c-0.3-1.2,1.4-1.7,1.9-0.6
				l60.5,143.2c0.3,0.7-0.2,1.4-0.9,1.4h-20.4c-0.8,0-1.2,0.8-0.9,1.5l38.2,74.9c0.3,0.7-0.1,1.5-0.9,1.5h-26.3
				c-0.7,0-1.2,0.8-0.9,1.5L1452,520c0.3,0.6-0.1,1.4-0.8,1.4L1410.2,526.5z"/>
			<path class="st56" d="M-97.8,467.3c13.3-6.4,40.3-17.3,54.2-22c29.3-9.9,34.3-16.2,62.7-18.6c79.6-6.8,69,18.6,69,18.6
				c-4.6,9.8-43.5,17.4-64.9,18.6C-24.1,466.5-140.8,487.8-97.8,467.3z"/>
			<path class="st54" d="M49.7,420.3h24.7v20.1c-9.6,2.6-15,2.5-24.7,0V420.3z"/>
			<path class="st44" d="M60.8,184.6c0.7-1.6,2.9-1.6,3.6,0l48.5,108c0.6,1.3-0.4,2.8-1.8,2.8H99c-1.5,0-2.5,1.6-1.8,3l28.1,51.9
				c0.7,1.3-0.2,3-1.8,3H107c-1.5,0-2.5,1.6-1.8,3l31.3,57.8c0.6,1.2-0.1,2.6-1.4,2.9c-57.2,12-90,12.4-145.5,0
				c-1.3-0.3-2-1.7-1.3-2.9l31.4-57.9c0.7-1.3-0.2-3-1.8-3H1.4c-1.5,0-2.5-1.6-1.8-3l28.1-51.9c0.7-1.3-0.2-3-1.8-3H13.9
				c-1.5,0-2.4-1.5-1.8-2.8L60.8,184.6z"/>
			
				<linearGradient id="SVGID_35_" gradientUnits="userSpaceOnUse" x1="23.8623" y1="442.8275" x2="23.8623" y2="683.4205" gradientTransform="matrix(1 0 0 -1 0 864)">
				<stop  offset="0" style="stop-color:#6975A5"/>
				<stop  offset="1" style="stop-color:#6975A5;stop-opacity:0"/>
			</linearGradient>
			<path class="st57" d="M20.5,422.9c0.5,0.1,1-0.2,1.2-0.7l20.1-68.4c0.1-0.4,0-0.8-0.3-1.1L30,343.6c-0.4-0.3-0.5-0.8-0.3-1.2
				L50.1,296c0.2-0.4,0.1-0.8-0.2-1.1l-11.2-11.9c-0.2-0.2-0.3-0.6-0.2-0.9L60,190.8c0.3-1.2-1.4-1.7-1.9-0.6L11.4,294
				c-0.3,0.7,0.2,1.4,0.9,1.4h15.4c0.8,0,1.2,0.8,0.9,1.5l-29.7,54.8c-0.4,0.7,0.1,1.5,0.9,1.5h20c0.8,0,1.2,0.8,0.9,1.5l-32.8,60.5
				c-0.3,0.6,0,1.3,0.7,1.5L20.5,422.9z"/>
			
				<linearGradient id="SVGID_36_" gradientUnits="userSpaceOnUse" x1="522.8774" y1="716.9205" x2="522.8774" y2="612.4205" gradientTransform="matrix(1 0 0 -1 0 864)">
				<stop  offset="0" style="stop-color:#E4C99B"/>
				<stop  offset="1" style="stop-color:#B2BCDB"/>
			</linearGradient>
			<rect x="496.9" y="9.6" class="st58" width="52" height="214.2"/>
			<ellipse class="st59" cx="523.3" cy="45.3" rx="21.2" ry="21.6"/>
			<path class="st60" d="M542,45.3c0,10.6-8.4,19.2-18.7,19.2c-10.3,0-18.7-8.6-18.7-19.2s8.4-19.2,18.7-19.2
				C533.6,26.1,542,34.7,542,45.3z"/>
			<line class="st61" x1="524.2" y1="28.1" x2="524.2" y2="34.3"/>
			<line class="st61" x1="524.2" y1="55.4" x2="524.2" y2="61.6"/>
			<line class="st61" x1="533.9" y1="44" x2="540.1" y2="44"/>
			<line class="st61" x1="506.6" y1="44" x2="512.7" y2="44"/>
			<rect x="508.9" y="72.6" class="st62" width="6" height="30"/>
			<rect x="519.9" y="72.6" class="st62" width="6" height="30"/>
			<rect x="530.9" y="72.6" class="st62" width="6" height="30"/>
			<path class="st63" d="M1336.9,745.2c0,0.1,0,0.1,0,0.2c0,0,0,0.1,0,0.1c0,0.4-2.8,0.6-6.2,0.6c-3.4,0-6.2-0.3-6.2-0.6
				c0,0,0-0.1,0-0.1c0-0.1,0-0.1,0-0.2c0-1.8,2.8-3.2,6.2-3.2C1334.1,742,1336.9,743.5,1336.9,745.2z"/>
			<path class="st63" d="M1301.5,748.8c0,0.3,0,0.5,0,0.8c0,0.1,0,0.3,0,0.4c0,1.3-9.3,2.4-20.8,2.4c-11.5,0-20.8-1.1-20.8-2.4
				c0-0.1,0.1-0.3,0-0.4c0-0.3,0-0.5,0-0.8c0-6.6,9.3-11.9,20.8-11.9C1292.2,737,1301.5,742.3,1301.5,748.8z"/>
			<path class="st63" d="M1322.3,742.2c0,0.1,0,0.1,0,0.2c0,0,0,0.1,0,0.1c0,0.4-1.9,0.6-4.2,0.6c-2.3,0-4.2-0.3-4.2-0.6
				c0,0,0-0.1,0-0.1c0-0.1,0-0.1,0-0.2c0-1.8,1.9-3.2,4.2-3.2C1320.5,739,1322.3,740.5,1322.3,742.2z"/>
			<path class="st63" d="M1260,754.7c0,0.1,0,0.1,0,0.2c0,0,0,0.1,0,0.1c0,0.4-2.8,0.6-6.2,0.6c-3.4,0-6.2-0.3-6.2-0.6
				c0,0,0-0.1,0-0.1c0-0.1,0-0.1,0-0.2c0-1.8,2.8-3.2,6.2-3.2C1257.2,751.5,1260,753,1260,754.7z"/>
			<path class="st63" d="M1241.3,729.8c0,0.1,0,0.1,0,0.2c0,0,0,0.1,0,0.1c0,0.4-1.9,0.6-4.2,0.6c-2.3,0-4.2-0.3-4.2-0.6
				c0,0,0-0.1,0-0.1c0-0.1,0-0.1,0-0.2c0-1.8,1.9-3.2,4.2-3.2C1239.4,726.6,1241.3,728,1241.3,729.8z"/>
			<path class="st63" d="M1266.2,761c0,0.1,0,0.1,0,0.2c0,0,0,0.1,0,0.1c0,0.4-1.9,0.6-4.2,0.6c-2.3,0-4.2-0.3-4.2-0.6
				c0,0,0-0.1,0-0.1c0-0.1,0-0.1,0-0.2c0-1.8,1.9-3.2,4.2-3.2C1264.4,757.8,1266.2,759.2,1266.2,761z"/>
			<path class="st63" d="M1318.2,763c0,0.1,0,0.1,0,0.2c0,0,0,0.1,0,0.1c0,0.4-2.8,0.6-6.2,0.6c-3.4,0-6.2-0.3-6.2-0.6
				c0,0,0-0.1,0-0.1c0-0.1,0-0.1,0-0.2c0-1.8,2.8-3.2,6.2-3.2C1315.4,759.8,1318.2,761.3,1318.2,763z"/>
			<path class="st63" d="M1253.7,762.6c0,0.1,0,0.2,0,0.3c0,0.1,0,0.1,0,0.2c0,0.5-5.1,1-11.4,1c-6.3,0-11.4-0.4-11.4-1
				c0-0.1,0-0.1,0-0.2c0-0.1,0-0.2,0-0.3c0-2.6,5.1-4.8,11.4-4.8C1248.6,757.8,1253.7,759.9,1253.7,762.6z"/>
			<path class="st63" d="M1309.9,733c0,0.1,0,0.3,0,0.4c0,0.1,0,0.1,0,0.2c0,0.7-3.7,1.3-8.3,1.3c-4.6,0-8.3-0.6-8.3-1.3
				c0-0.1,0-0.1,0-0.2c0-0.1,0-0.3,0-0.4c0-3.5,3.7-6.4,8.3-6.4C1306.1,726.6,1309.9,729.4,1309.9,733z"/>
			<path class="st64" d="M901.9,506.2c0,0.1,0,0.1,0,0.2c0,0,0,0.1,0,0.1c0,0.4-2.8,0.6-6.2,0.6c-3.4,0-6.2-0.3-6.2-0.6
				c0,0,0-0.1,0-0.1c0-0.1,0-0.1,0-0.2c0-1.8,2.8-3.2,6.2-3.2C899.1,503,901.9,504.5,901.9,506.2z"/>
			<path class="st64" d="M866.5,509.8c0,0.3,0,0.5,0,0.8c0,0.1,0,0.3,0,0.4c0,1.3-9.3,2.4-20.8,2.4S825,512.3,825,511
				c0-0.1,0.1-0.3,0-0.4c0-0.3,0-0.5,0-0.8c0-6.6,9.3-11.9,20.8-11.9S866.5,503.3,866.5,509.8z"/>
			<path class="st64" d="M887.3,503.2c0,0.1,0,0.1,0,0.2c0,0,0,0.1,0,0.1c0,0.4-1.9,0.6-4.2,0.6s-4.2-0.3-4.2-0.6c0,0,0-0.1,0-0.1
				c0-0.1,0-0.1,0-0.2c0-1.8,1.9-3.2,4.2-3.2S887.3,501.5,887.3,503.2z"/>
			<path class="st64" d="M825,515.7c0,0.1,0,0.1,0,0.2c0,0,0,0.1,0,0.1c0,0.4-2.8,0.6-6.2,0.6c-3.4,0-6.2-0.3-6.2-0.6
				c0,0,0-0.1,0-0.1c0-0.1,0-0.1,0-0.2c0-1.8,2.8-3.2,6.2-3.2C822.2,512.5,825,514,825,515.7z"/>
			<path class="st64" d="M806.3,490.8c0,0.1,0,0.1,0,0.2c0,0,0,0.1,0,0.1c0,0.4-1.9,0.6-4.2,0.6c-2.3,0-4.2-0.3-4.2-0.6
				c0,0,0-0.1,0-0.1c0-0.1,0-0.1,0-0.2c0-1.8,1.9-3.2,4.2-3.2C804.4,487.6,806.3,489,806.3,490.8z"/>
			<path class="st64" d="M831.2,522c0,0.1,0,0.1,0,0.2c0,0,0,0.1,0,0.1c0,0.4-1.9,0.6-4.2,0.6c-2.3,0-4.2-0.3-4.2-0.6
				c0,0,0-0.1,0-0.1c0-0.1,0-0.1,0-0.2c0-1.8,1.9-3.2,4.2-3.2C829.3,518.8,831.2,520.2,831.2,522z"/>
			<path class="st64" d="M883.2,524c0,0.1,0,0.1,0,0.2c0,0,0,0.1,0,0.1c0,0.4-2.8,0.6-6.2,0.6c-3.4,0-6.2-0.3-6.2-0.6
				c0,0,0-0.1,0-0.1c0-0.1,0-0.1,0-0.2c0-1.8,2.8-3.2,6.2-3.2C880.4,520.8,883.2,522.3,883.2,524z"/>
			<path class="st64" d="M818.7,523.6c0,0.1,0,0.2,0,0.3c0,0.1,0,0.1,0,0.2c0,0.5-5.1,1-11.4,1c-6.3,0-11.4-0.4-11.4-1
				c0-0.1,0-0.1,0-0.2c0-0.1,0-0.2,0-0.3c0-2.6,5.1-4.8,11.4-4.8C813.6,518.8,818.7,520.9,818.7,523.6z"/>
			<path class="st64" d="M874.9,494c0,0.1,0,0.3,0,0.4c0,0.1,0,0.1,0,0.2c0,0.7-3.7,1.3-8.3,1.3c-4.6,0-8.3-0.6-8.3-1.3
				c0-0.1,0-0.1,0-0.2c0-0.1,0-0.3,0-0.4c0-3.5,3.7-6.4,8.3-6.4C871.1,487.6,874.9,490.4,874.9,494z"/>
			<path class="st65" d="M8.9,590.2c0,0.1,0,0.1,0,0.2c0,0,0,0.1,0,0.1c0,0.4,2.8,0.6,6.2,0.6c3.4,0,6.2-0.3,6.2-0.6
				c0,0,0-0.1,0-0.1c0-0.1,0-0.1,0-0.2c0-1.8-2.8-3.2-6.2-3.2C11.7,587,8.9,588.5,8.9,590.2z"/>
			<path class="st65" d="M23.4,587.2c0,0.1,0,0.1,0,0.2c0,0,0,0.1,0,0.1c0,0.4,1.9,0.6,4.2,0.6c2.3,0,4.2-0.3,4.2-0.6
				c0,0,0-0.1,0-0.1c0-0.1,0-0.1,0-0.2c0-1.8-1.9-3.2-4.2-3.2C25.3,584,23.4,585.5,23.4,587.2z"/>
			<path class="st65" d="M85.8,599.7c0,0.1,0,0.1,0,0.2c0,0,0,0.1,0,0.1c0,0.4,2.8,0.6,6.2,0.6c3.4,0,6.2-0.3,6.2-0.6
				c0,0,0-0.1,0-0.1c0-0.1,0-0.1,0-0.2c0-1.8-2.8-3.2-6.2-3.2C88.6,596.5,85.8,598,85.8,599.7z"/>
			<path class="st65" d="M104.5,574.8c0,0.1,0,0.1,0,0.2c0,0,0,0.1,0,0.1c0,0.4,1.9,0.6,4.2,0.6c2.3,0,4.2-0.3,4.2-0.6
				c0,0,0-0.1,0-0.1c0-0.1,0-0.1,0-0.2c0-1.8-1.9-3.2-4.2-3.2C106.3,571.6,104.5,573,104.5,574.8z"/>
			<path class="st65" d="M79.5,606c0,0.1,0,0.1,0,0.2c0,0,0,0.1,0,0.1c0,0.4,1.9,0.6,4.2,0.6c2.3,0,4.2-0.3,4.2-0.6c0,0,0-0.1,0-0.1
				c0-0.1,0-0.1,0-0.2c0-1.8-1.9-3.2-4.2-3.2C81.4,602.8,79.5,604.2,79.5,606z"/>
			<path class="st65" d="M27.6,608c0,0.1,0,0.1,0,0.2c0,0,0,0.1,0,0.1c0,0.4,2.8,0.6,6.2,0.6s6.2-0.3,6.2-0.6c0,0,0-0.1,0-0.1
				c0-0.1,0-0.1,0-0.2c0-1.8-2.8-3.2-6.2-3.2S27.6,606.3,27.6,608z"/>
			<path class="st65" d="M92,607.6c0,0.1,0,0.2,0,0.3c0,0.1,0,0.1,0,0.2c0,0.5,5.1,1,11.4,1c6.3,0,11.4-0.4,11.4-1
				c0-0.1,0-0.1,0-0.2c0-0.1,0-0.2,0-0.3c0-2.6-5.1-4.8-11.4-4.8C97.1,602.8,92,604.9,92,607.6z"/>
			<path class="st65" d="M35.9,578c0,0.1,0,0.3,0,0.4c0,0.1,0,0.1,0,0.2c0,0.7,3.7,1.3,8.3,1.3c4.6,0,8.3-0.6,8.3-1.3
				c0-0.1,0-0.1,0-0.2c0-0.1,0-0.3,0-0.4c0-3.5-3.7-6.4-8.3-6.4C39.6,571.6,35.9,574.4,35.9,578z"/>
			<circle class="st66" cx="693.9" cy="58.6" r="49"/>
			<circle class="st67" cx="693.9" cy="53.6" r="33"/>
			<circle class="st68" cx="693.9" cy="48.6" r="25"/>
			
				<linearGradient id="SVGID_37_" gradientUnits="userSpaceOnUse" x1="796.8768" y1="693.4205" x2="796.8768" y2="565.9205" gradientTransform="matrix(1 0 0 -1 0 864)">
				<stop  offset="0" style="stop-color:#8B4E4E"/>
				<stop  offset="1" style="stop-color:#ABB8DF"/>
			</linearGradient>
			<path class="st69" d="M797.4,170.6v43.1c0,0-16.5,3.5-13,12.3c1.6,4.1,23,6.2,24.7,7.9s0,9.7,0,14.9c0,5.3,0,23.7,0,23.7"/>
			
				<linearGradient id="SVGID_38_" gradientUnits="userSpaceOnUse" x1="809.8766" y1="688.4205" x2="809.8766" y2="562.1045" gradientTransform="matrix(1 0 0 -1 0 864)">
				<stop  offset="0" style="stop-color:#8B4E4E"/>
				<stop  offset="1" style="stop-color:#ABB8DF"/>
			</linearGradient>
			<path class="st70" d="M809,175.6v44.9c0,0,12.8,2.8,14.6,9.3c3.3,12.1-27.8,13.9-27.8,13.9v9.6v28.4"/>
			
				<linearGradient id="SVGID_39_" gradientUnits="userSpaceOnUse" x1="269.4273" y1="631.7344" x2="230.4833" y2="594.7344" gradientTransform="matrix(1 0 0 -1 0 864)">
				<stop  offset="0" style="stop-color:#7D8FC4"/>
				<stop  offset="1" style="stop-color:#B0BBD8;stop-opacity:0"/>
			</linearGradient>
			<path class="st71" d="M346.9,228.6l-22.5-5l-182,59.5l44,17L346.9,228.6z"/>
			
				<linearGradient id="SVGID_40_" gradientUnits="userSpaceOnUse" x1="354.4522" y1="691.7754" x2="298.9522" y2="684.7754" gradientTransform="matrix(1 0 0 -1 0 864)">
				<stop  offset="0" style="stop-color:#EFE1CC"/>
				<stop  offset="1" style="stop-color:#C18B79"/>
			</linearGradient>
			<path class="st72" d="M318.9,169.9c0-6,6-4,6-4l2,18.5l-8,3V169.9z"/>
			
				<linearGradient id="SVGID_41_" gradientUnits="userSpaceOnUse" x1="354.9546" y1="687.7922" x2="299.4546" y2="680.7922" gradientTransform="matrix(1 0 0 -1 0 864)">
				<stop  offset="0" style="stop-color:#EFE1CC"/>
				<stop  offset="1" style="stop-color:#C18B79"/>
			</linearGradient>
			<path class="st73" d="M354.9,169.9c0-6-6-4-6-4l-2,18.5l8,3V169.9z"/>
			
				<linearGradient id="SVGID_42_" gradientUnits="userSpaceOnUse" x1="297.5181" y1="717.6104" x2="409.5181" y2="707.1104" gradientTransform="matrix(1 0 0 -1 0 864)">
				<stop  offset="0" style="stop-color:#C9A280"/>
				<stop  offset="1" style="stop-color:#F9E6D4"/>
			</linearGradient>
			<path class="st74" d="M324.9,74.6c0-2.8,2.2-5,5-5h14c2.8,0,5,2.2,5,5v35.9c0,0.8-0.3,1.6-0.8,2.3c-1,1.3-1,3.1-0.1,4.4l0.1,0.1
				c0.5,0.7,0.8,1.5,0.8,2.3v106c0,2.8-2.2,5-5,5h-14c-2.8,0-5-2.2-5-5V119.7c0-0.9,0.4-1.7,1-2.4l0.1-0.1c1.3-1.3,1.2-3.3-0.1-4.6
				c-0.6-0.6-1-1.4-1-2.3V74.6z"/>
			
				<linearGradient id="SVGID_43_" gradientUnits="userSpaceOnUse" x1="326.9227" y1="808.336" x2="356.3376" y2="797.5744" gradientTransform="matrix(1 0 0 -1 0 864)">
				<stop  offset="0" style="stop-color:#D2B091"/>
				<stop  offset="1" style="stop-color:#E0CBB7"/>
			</linearGradient>
			<path class="st75" d="M332.8,44.7c-0.1-3.5,4.4-5.1,4.4-5.1v30.3h-6.6c0,0,3.5-3.2,0.9-4.7c-3-1.6-8,3.1-8,3.1s-0.1,0.2-0.5,1.6
				c-0.5,1.6-4,2.7-4,2.7s-2.3-12.7,0-18.8c1.9-5,2.1-7.9,6.3-6.2c2.1,0.9,1.8,1,3.9,2.2c2.3,1.3,4.7,0,4.7,0S332.9,47.5,332.8,44.7
				z"/>
			
				<linearGradient id="SVGID_44_" gradientUnits="userSpaceOnUse" x1="328.4308" y1="812.4583" x2="357.8458" y2="801.6967" gradientTransform="matrix(1 0 0 -1 0 864)">
				<stop  offset="0" style="stop-color:#D2B091"/>
				<stop  offset="1" style="stop-color:#E0CBB7"/>
			</linearGradient>
			<path class="st76" d="M341.2,44.7c0.1-3.5-4-5.1-4-5.1v30.3h6.6c0,0-3.5-3.2-0.9-4.7c3-1.6,8,3.1,8,3.1s0,0,0.5,1.6
				c0.5,1.6,4.4,2.7,4.4,2.7s2.3-12.7,0-18.8c-1.9-5-2.2-7.9-6.3-6.2c-2.1,0.9-2.1,1-4.2,2.2c-2.3,1.3-4.7,0-4.7,0
				S341.1,47.5,341.2,44.7z"/>
			
				<linearGradient id="SVGID_45_" gradientUnits="userSpaceOnUse" x1="330.3753" y1="728.4205" x2="330.3753" y2="706.4205" gradientTransform="matrix(1 0 0 -1 0 864)">
				<stop  offset="0" style="stop-color:#CD9A8A"/>
				<stop  offset="1" style="stop-color:#C29898;stop-opacity:0"/>
			</linearGradient>
			<path class="st77" d="M324.9,157.6v-22c8.2,7.4,10.8,12.2,11,22H324.9z"/>
			
				<linearGradient id="SVGID_46_" gradientUnits="userSpaceOnUse" x1="342.3753" y1="728.4205" x2="342.3753" y2="706.4205" gradientTransform="matrix(1 0 0 -1 0 864)">
				<stop  offset="0" style="stop-color:#CD9A8A"/>
				<stop  offset="1" style="stop-color:#C29898;stop-opacity:0"/>
			</linearGradient>
			<path class="st78" d="M347.9,157.6v-22c-8.2,7.4-10.8,12.2-11,22H347.9z"/>
			
				<linearGradient id="SVGID_47_" gradientUnits="userSpaceOnUse" x1="337.1253" y1="756.4205" x2="337.1253" y2="748.4205" gradientTransform="matrix(1 0 0 -1 0 864)">
				<stop  offset="0" style="stop-color:#BF8977"/>
				<stop  offset="1" style="stop-color:#BF8977;stop-opacity:0"/>
			</linearGradient>
			<path class="st79" d="M326.9,111.6l1.5,4h17.5l1.5-4l-10.5-4L326.9,111.6z"/>
			<path class="st80" d="M326.9,167.6v-3c7.7,1.8,12.1,1.8,20,0v3C339.2,168.9,334.8,168.9,326.9,167.6z"/>
			<path class="st81" d="M344.9,114.2l-3-5V74.1l-2-4.5c0,0,6,0,7.5,1.5c1.8,1.8,1.5,4.5,1.5,4.5v33.6l-2,6l2,7v95.3c0,0,0,9-1,11
				s-4.5,2-4.5,2V193v-22.1l-3-2l3-0.5l2.5-2l-2.5-1v-20.6v-26.6l-3.5-3L344.9,114.2z"/>
		</g>
	</g>
</g>
</svg>
