<svg width="195" height="240" viewBox="0 0 195 240" fill="none" xmlns="http://www.w3.org/2000/svg">
<g clip-path="url(#clip0)">
<path d="M161.114 217.772C160.698 219.202 159.894 220.489 158.791 221.491C157.688 222.494 156.329 223.173 154.863 223.454C153.37 223.67 151.857 223.71 150.354 223.575C149.004 223.495 148.505 223.885 148.559 225.312C148.653 228.45 148.559 231.587 148.559 234.738C148.559 236.636 148.181 237 146.331 237H138.798C136.894 237 136.624 236.717 136.611 234.751C136.611 231.52 136.611 228.288 136.611 225.057C136.611 223.899 136.219 223.522 135.099 223.602C133.978 223.683 133.006 223.602 131.953 223.602C130.903 223.644 129.856 223.474 128.873 223.101C127.891 222.729 126.995 222.162 126.238 221.435C125.481 220.707 124.88 219.835 124.47 218.87C124.06 217.905 123.85 216.868 123.853 215.82C123.731 208.36 123.853 200.887 123.853 193.427C123.853 191.811 124.285 191.448 125.918 191.434C128.429 191.434 130.941 191.434 133.452 191.434C135.058 191.434 135.45 191.838 135.463 193.481C135.463 199.298 135.463 205.128 135.463 210.986C135.463 212.938 135.612 213.086 137.569 213.086H147.978C149.531 213.086 149.814 212.803 149.814 211.241C149.814 205.317 149.814 199.406 149.814 193.481C149.814 191.663 150.03 191.461 151.893 191.448C154.35 191.448 156.821 191.448 159.278 191.448C159.618 191.397 159.965 191.429 160.289 191.542C160.614 191.654 160.906 191.844 161.141 192.094L161.114 217.772Z" fill="#333333"/>
<path d="M33.8867 214.083V193.724C33.8867 191.677 34.1297 191.434 36.1683 191.434H64.9377C65.9547 191.42 66.9644 191.608 67.9076 191.988C68.8507 192.368 69.7083 192.932 70.4301 193.647C71.1519 194.362 71.7233 195.213 72.1108 196.151C72.4983 197.089 72.6942 198.095 72.6869 199.11C72.6869 209.172 72.6869 219.235 72.6869 229.298C72.6998 230.314 72.5077 231.322 72.1222 232.263C71.7366 233.203 71.1654 234.057 70.4425 234.773C69.7196 235.489 68.8598 236.053 67.9141 236.431C66.9684 236.809 65.9562 236.993 64.9377 236.973H36.1683C34.1432 236.973 33.8867 236.731 33.8867 234.698V214.083ZM60.766 214.217C60.766 210.891 60.766 207.566 60.766 204.24C60.766 203.095 60.3745 202.745 59.254 202.759C55.2039 202.759 51.1537 202.759 47.2116 202.759C46.1451 202.759 45.7671 203.109 45.7806 204.186C45.7806 210.864 45.7806 217.552 45.7806 224.249C45.7806 225.339 46.1586 225.676 47.2116 225.662C51.2617 225.662 55.3119 225.662 59.2675 225.662C60.388 225.662 60.793 225.312 60.766 224.181C60.7255 220.855 60.766 217.53 60.766 214.217Z" fill="#333333"/>
<path d="M79.1123 216.964V199.89C79.1123 194.653 82.3254 191.434 87.5231 191.434C95.1103 191.434 102.684 191.434 110.258 191.434C112.192 191.435 114.056 192.16 115.479 193.467C116.902 194.774 117.78 196.567 117.939 198.49C118.079 200.304 118.124 202.125 118.075 203.943C118.075 213.593 118.075 223.248 118.075 232.907V233.836C118.075 236.731 117.845 236.96 114.996 236.96H108.422C106.451 236.96 106.032 236.556 106.019 234.549C106.019 231.412 106.019 228.261 106.019 225.124C106.019 223.158 105.87 223.01 103.926 223.01H92.9772C91.2627 223.01 91.0602 223.212 91.0602 224.882C91.0602 228.207 91.0602 231.533 91.0602 234.859C91.0602 236.623 90.7227 236.96 88.9946 236.96H81.6099C79.3553 236.96 79.1393 236.744 79.1393 234.415L79.1123 216.964ZM98.4719 213.005C100.524 213.005 102.522 213.005 104.628 213.005C105.587 213.005 106.046 212.75 105.978 211.659C105.978 208.845 105.978 206.017 105.978 203.203C105.978 202.193 105.587 201.856 104.628 201.856C100.578 201.856 96.4198 201.856 92.3292 201.856C91.4112 201.856 90.9792 202.139 90.9792 203.109C90.9792 205.963 90.9792 208.827 90.9792 211.699C90.9792 212.655 91.3572 212.965 92.3292 212.938C94.3678 212.978 96.4198 213.005 98.4719 213.005Z" fill="#333333"/>
<path d="M19.0625 151.495V131.809C19.0695 131.173 19.1237 130.538 19.2245 129.91C19.252 129.609 19.398 129.33 19.6308 129.136C19.8636 128.942 20.1641 128.847 20.4666 128.873C23.6122 128.873 26.7713 128.873 29.9168 128.873C31.1319 128.873 31.2669 129.735 31.2669 130.678V143.106C31.2669 145.449 31.4289 145.597 33.7375 145.597H44.8483C46.6574 145.597 46.7789 145.462 46.7789 143.631C46.7789 139.592 46.7789 135.552 46.7789 131.513C46.7789 129.25 47.1569 128.9 49.3979 128.9C52.0035 128.9 54.6091 128.9 57.2012 128.9C57.4628 128.853 57.7321 128.868 57.9867 128.944C58.2413 129.021 58.4739 129.157 58.6653 129.342C58.8566 129.526 59.0012 129.753 59.087 130.004C59.1728 130.255 59.1974 130.523 59.1588 130.785C59.1588 135.741 59.1588 140.709 59.1588 145.678C59.1121 146.313 58.9473 146.934 58.6727 147.509C57.0257 151.899 55.4056 156.302 53.7046 160.664C53.2456 161.836 53.5426 162.105 54.6901 162.011C55.8376 161.916 56.7962 162.011 57.8357 162.011C58.8752 162.011 59.1857 162.347 59.1857 163.29C59.1857 166.293 59.1857 169.295 59.1857 172.311C59.1857 173.766 58.6592 174.197 57.1337 174.21H49.1954C47.2649 174.21 46.8464 173.82 46.8329 171.908C46.8329 167.801 46.8329 163.707 46.8329 159.601C46.8329 159.197 46.8329 158.793 46.8329 158.375C46.8329 157.419 46.3468 157.029 45.3883 157.029H33.0624C31.7124 157.029 31.3479 157.823 31.3479 158.968C31.3479 163.209 31.3479 167.437 31.3479 171.679C31.3479 174.237 31.3479 174.264 28.7423 174.264H21.4791C19.5215 174.264 19.184 173.927 19.1705 171.948C19.1705 166.023 19.1705 160.112 19.1705 154.188L19.0625 151.495Z" fill="#333333"/>
<path d="M147.924 147.644C151.084 143.308 154.234 138.963 157.375 134.61C158.387 133.263 159.427 131.822 160.426 130.395C160.747 129.897 161.195 129.492 161.724 129.222C162.252 128.953 162.843 128.828 163.436 128.86C166.812 128.86 170.187 128.86 173.575 128.86C174.007 128.86 174.561 128.712 174.831 129.183C175.101 129.654 174.642 130.112 174.358 130.53C170.173 136.05 165.988 141.571 161.749 147.051C161.416 147.379 161.217 147.818 161.192 148.284C161.167 148.75 161.318 149.208 161.614 149.569C166.222 157.056 170.79 164.569 175.317 172.109C175.614 172.594 176.14 173.079 175.83 173.712C175.519 174.345 174.709 174.183 174.115 174.183C171.01 174.183 167.892 174.183 164.8 174.183C164.075 174.255 163.346 174.093 162.721 173.719C162.096 173.346 161.608 172.781 161.33 172.109C158.63 166.979 155.93 161.89 153.23 156.786C152.528 155.44 152.515 155.44 151.61 156.786L151.543 156.908C147.911 160.57 147.33 165.067 147.654 169.982C147.951 174.695 147.83 174.183 143.496 174.197H137.745C135.801 174.197 135.518 173.914 135.518 171.988C135.518 159.053 135.518 146.118 135.518 133.182C135.518 132.401 135.518 131.634 135.518 130.853C135.518 129.264 135.882 128.914 137.448 128.9H145.548C147.384 128.9 147.722 129.237 147.722 131.041C147.722 136.05 147.722 141.059 147.722 146.068V147.563L147.924 147.644Z" fill="#333333"/>
<path d="M69.9995 186.8C70.3775 184.039 70.256 181.306 70.364 178.6C70.499 175.462 70.7015 172.325 70.8365 169.174C70.958 166.481 70.985 163.788 71.147 161.001C71.228 159.654 70.7015 159.277 69.419 159.304C66.4084 159.304 63.3843 159.304 60.3737 159.304C58.7942 159.304 58.7132 159.197 59.2397 157.796C62.6688 148.627 66.1249 139.47 69.5405 130.287C69.6573 129.859 69.925 129.487 70.2945 129.24C70.664 128.992 71.1104 128.886 71.552 128.941C78.5723 128.941 85.606 128.941 92.6397 128.941C94.1787 128.941 94.3003 129.129 93.6117 130.61C90.9116 136.346 88.2116 142.078 85.5115 147.805C84.634 149.677 84.6204 149.69 86.7535 149.69H96.4873C96.8653 149.69 97.3919 149.502 97.6079 149.946C97.8239 150.39 97.3514 150.687 97.1218 150.996L76.7362 178.425L70.7825 186.423C70.7015 186.625 70.58 186.827 69.9995 186.8Z" fill="#425E96"/>
<path d="M115.86 174.156C112.201 174.156 108.556 174.156 104.898 174.156C102.891 174.138 100.973 173.33 99.5619 171.907C98.1507 170.485 97.3608 168.563 97.3644 166.562C97.3644 164.098 97.3644 161.647 97.3644 159.183C97.3386 158.363 97.6066 157.561 98.1204 156.921C100.308 154.013 102.468 151.077 104.641 148.142C104.83 147.899 105.181 147.657 105.046 147.334C104.911 147.011 104.412 147.078 104.074 147.078C102.333 147.078 100.605 147.078 98.8765 147.078C97.7559 147.078 97.3374 146.728 97.3509 145.583C97.4184 142.487 97.3509 139.39 97.3509 136.293C97.4181 134.387 98.1956 132.574 99.5313 131.21C100.867 129.845 102.665 129.027 104.574 128.914C112.201 128.833 119.816 128.914 127.443 128.914C127.683 128.877 127.929 128.896 128.16 128.969C128.392 129.042 128.604 129.168 128.779 129.336C128.954 129.504 129.087 129.71 129.17 129.938C129.252 130.166 129.28 130.41 129.252 130.651C129.252 133.196 129.252 135.741 129.252 138.299C129.252 139.713 128.334 140.171 127.092 140.184H111.648C109.758 140.184 109.582 140.359 109.582 142.19V161.041C109.582 162.724 109.866 163.034 111.567 163.048H126.768C128.942 163.048 129.293 163.384 129.293 165.579C129.293 167.774 129.293 169.955 129.293 172.136C129.293 173.725 128.807 174.17 127.241 174.183H115.86V174.156Z" fill="#333333"/>
<path d="M75.2781 91.1284C75.2781 96.1194 75.2781 101.124 75.2781 106.142C75.3057 107.169 75.1242 108.19 74.7446 109.145C74.3649 110.1 73.795 110.968 73.0694 111.697C72.3437 112.425 71.4773 113 70.5227 113.385C69.5681 113.77 68.545 113.958 67.5154 113.938H44.2272C43.2078 113.953 42.1959 113.763 41.2509 113.382C40.306 113 39.4472 112.434 38.725 111.716C38.0029 110.998 37.4321 110.144 37.0462 109.203C36.6603 108.261 36.4671 107.253 36.478 106.236C36.478 96.1822 36.478 86.1239 36.478 76.0611C36.4761 75.0447 36.677 74.0381 37.0689 73.0999C37.4609 72.1617 38.0362 71.3106 38.7611 70.5963C39.4861 69.882 40.3463 69.3187 41.2917 68.9393C42.2371 68.5598 43.2488 68.3717 44.2677 68.386H67.5424C68.5595 68.3752 69.5686 68.567 70.5104 68.9503C71.4522 69.3335 72.3078 69.9004 73.027 70.6178C73.7463 71.3351 74.3147 72.1885 74.6989 73.1278C75.0832 74.0672 75.2755 75.0735 75.2647 76.088C75.2827 81.1239 75.2871 86.1374 75.2781 91.1284ZM48.3853 91.1284C48.3853 94.4946 48.3853 97.8609 48.3853 101.227C48.3853 102.304 48.7633 102.654 49.8164 102.574C53.8845 102.574 57.9346 102.574 61.9667 102.574C62.9523 102.574 63.3168 102.25 63.3168 101.227C63.3168 94.4946 63.3168 87.7621 63.3168 81.0296C63.3168 80.0198 62.9523 79.6831 61.9667 79.6831C57.9076 79.6831 53.8575 79.6831 49.8164 79.6831C48.7633 79.6831 48.3583 80.0198 48.3853 81.0296C48.4123 84.4497 48.3853 87.7756 48.3853 91.1015V91.1284Z" fill="#333333"/>
<path d="M118.115 93.6194C118.115 87.8429 118.115 82.053 118.115 76.2765C118.081 75.2265 118.264 74.1808 118.653 73.2044C119.042 72.2281 119.628 71.3422 120.376 70.6019C121.123 69.8615 122.015 69.2827 122.997 68.9015C123.978 68.5202 125.028 68.3448 126.081 68.386H148.95C150.003 68.3507 151.052 68.5307 152.032 68.9147C153.013 69.2987 153.904 69.8787 154.651 70.6191C155.399 71.3594 155.986 72.2444 156.378 73.2197C156.77 74.1949 156.957 75.2398 156.929 76.29C156.929 88.0853 156.929 99.8807 156.929 111.676C156.929 113.642 156.619 113.938 154.593 113.938H147.344C145.305 113.938 144.995 113.628 144.995 111.541C144.995 108.391 144.995 105.253 144.995 102.116C144.995 100.123 144.873 99.9884 142.929 99.9884C139.329 99.9884 135.765 99.9884 132.237 99.9884C130.185 99.9884 130.036 100.123 130.036 102.129C130.036 105.267 130.036 108.417 130.036 111.555C130.036 113.628 129.699 113.938 127.674 113.938C125.109 113.938 122.557 113.938 119.992 113.938C118.493 113.938 118.156 113.601 118.156 112.066C118.129 105.908 118.115 99.7595 118.115 93.6194ZM137.421 89.957C139.527 89.957 141.62 89.957 143.712 89.957C144.644 89.957 145.062 89.6607 145.062 88.7047C145.062 85.8367 145.062 82.9821 145.062 80.114C145.062 79.1311 144.644 78.8618 143.712 78.8753C139.662 78.8753 135.504 78.8753 131.4 78.8753C130.414 78.8753 130.05 79.2253 130.05 80.2218C130.05 83.0359 130.05 85.8501 130.05 88.6643C130.05 89.728 130.509 90.0108 131.467 90.0108C133.411 89.93 135.423 89.957 137.421 89.957Z" fill="#333333"/>
<path d="M80.867 91.0745C80.867 86.2945 80.867 81.5144 80.867 76.7343C80.7991 75.6146 80.9714 74.4933 81.3723 73.4452C81.7733 72.3971 82.3937 71.4463 83.1922 70.6563C83.9907 69.8662 84.9489 69.2551 86.003 68.8636C87.057 68.4721 88.1826 68.3093 89.3047 68.386H110.257C112.147 68.386 112.512 68.7496 112.525 70.6077C112.525 72.8295 112.525 75.0647 112.525 77.3402C112.525 79.2523 112.026 79.7505 110.082 79.7639H95.1504C93.2063 79.7639 93.0714 79.8986 93.0714 81.8779C93.0714 88.1616 93.0714 94.4453 93.0714 100.729C93.0714 102.412 93.2738 102.614 94.9614 102.614H109.893C112.107 102.614 112.525 103.031 112.525 105.307C112.525 107.583 112.525 109.764 112.525 112.04C112.525 113.588 112.093 114.046 110.608 114.046C103.17 114.046 95.7579 114.046 88.2922 114.046C86.2808 113.958 84.3828 113.092 83.0014 111.632C81.6199 110.171 80.864 108.23 80.894 106.223C80.84 101.146 80.867 96.0835 80.867 91.0745Z" fill="#333333"/>
<path d="M163.341 91.0341V70.675C163.341 68.6284 163.584 68.3995 165.636 68.386H173.44C175.006 68.386 175.33 68.7226 175.451 70.298C175.451 70.7962 175.451 71.3079 175.451 71.8061V100.365C175.451 102.547 175.451 102.601 177.665 102.601C182.606 102.601 187.534 102.601 192.516 102.601C194.554 102.601 195 103.072 195.013 105.105C195.013 107.381 195.013 109.656 195.013 111.932C195.013 113.521 194.541 113.938 192.948 113.938H165.407C163.719 113.938 163.382 113.615 163.382 111.932C163.328 104.97 163.341 97.9955 163.341 91.0341Z" fill="#333333"/>
<path d="M0 91.1822V70.4192C0 68.588 0.202505 68.3995 2.06556 68.386H9.7473C11.7184 68.386 11.9614 68.6284 11.9614 70.5808C11.9614 80.4551 11.9614 90.3294 11.9614 100.204C11.9614 102.506 12.0289 102.574 14.3644 102.574C19.2516 102.574 24.1387 102.574 29.0259 102.574C31.078 102.574 31.537 103.004 31.5775 105.038C31.5775 107.313 31.5775 109.589 31.5775 111.864C31.51 113.575 31.0915 113.911 29.3904 113.911H1.97106C0.229506 113.911 0 113.682 0 111.918V91.1822Z" fill="#333333"/>
<path d="M73.5904 8.04664C73.5904 6.21541 73.3878 6.02689 71.5248 6.01343H63.8566C61.872 6.01343 61.629 6.2558 61.629 8.20822V37.8312C61.629 40.1337 61.629 40.201 59.2394 40.201H49.1411C46.792 40.201 46.738 40.201 46.738 37.8312V8.20822C46.738 6.2558 46.495 6.02689 44.5105 6.01343H36.8423C34.9792 6.01343 34.7767 6.21541 34.7767 8.04664C34.7767 14.9676 34.7767 21.8887 34.7767 28.8097V43.5538C34.7767 36.8213 34.7767 30.0888 34.7767 23.3563C34.7767 30.0888 34.7767 36.8213 34.7767 43.5538V43.9308C34.7676 44.9482 34.9625 45.9571 35.3499 46.8983C35.7373 47.8395 36.3094 48.694 37.0326 49.4115C37.7558 50.1291 38.6155 50.6952 39.5612 51.0767C40.5068 51.4581 41.5194 51.6472 42.5394 51.6328H65.8141C66.8438 51.6512 67.8666 51.4619 68.8211 51.0761C69.7756 50.6903 70.642 50.116 71.3684 49.3878C72.0947 48.6596 72.6659 47.7925 73.0478 46.8385C73.4296 45.8846 73.6142 44.8635 73.5904 43.8366V43.5538V28.8097C73.5904 21.8887 73.6039 14.9676 73.5904 8.04664Z" fill="#333333"/>
<path d="M128.551 28.7423V14.3347C128.483 13.2155 128.655 12.0947 129.056 11.0473C129.457 9.99981 130.078 9.04981 130.876 8.2608C131.675 7.47178 132.634 6.86194 133.688 6.47205C134.742 6.08215 135.867 5.92118 136.988 5.99991H157.941C159.831 5.99991 160.196 6.36346 160.209 8.20817C160.209 10.4434 160.209 12.6785 160.209 14.9407C160.209 16.8662 159.71 17.3644 157.766 17.3778H142.848C140.904 17.3778 140.769 17.5259 140.769 19.5053C140.769 25.789 140.769 32.0726 140.769 38.3563C140.769 40.0394 140.971 40.2414 142.659 40.2414H157.59C159.804 40.2414 160.29 40.6588 160.29 42.9344C160.29 45.21 160.29 47.3913 160.29 49.6669C160.29 51.2154 159.845 51.6732 158.36 51.6732C150.921 51.6732 143.509 51.6732 136.043 51.6732C133.99 51.6064 132.048 50.7292 130.643 49.2345C129.238 47.7397 128.485 45.7497 128.551 43.7019C128.551 38.6929 128.551 33.6974 128.551 28.7423Z" fill="#333333"/>
<path d="M112.782 28.7424H110.514C111.256 28.7424 111.999 28.7424 112.741 28.7424C114.745 28.7749 116.679 28.0159 118.124 26.631C119.568 25.2462 120.404 23.3478 120.45 21.3501V13.7155C120.468 11.708 119.692 9.77444 118.289 8.33485C116.886 6.89525 114.97 6.06591 112.957 6.02698H108.61V51.5521H112.66C113.69 51.5723 114.713 51.3847 115.668 51.0005C116.624 50.6164 117.491 50.0437 118.219 49.3167C118.946 48.5898 119.519 47.7236 119.902 46.7703C120.286 45.817 120.472 44.7963 120.45 43.7693V36.0135C120.363 34.0477 119.515 32.1921 118.086 30.8363C116.656 29.4805 114.755 28.73 112.782 28.7424Z" fill="#333333"/>
<path d="M108.638 6.01343H83.9993C81.9608 6.01343 81.7178 6.24234 81.7178 8.28901V49.2764C81.7178 51.3097 81.9743 51.5655 83.9993 51.5655H108.678L108.638 6.01343ZM105.938 21.8079H95.4612C94.5432 21.8079 94.2057 21.7136 94.2057 21.3904C94.2057 19.3617 94.2057 17.3285 94.2057 15.2908C94.2057 14.9676 94.5297 14.8599 95.4612 14.8599C98.9443 14.8599 102.441 14.8599 105.924 14.8599C106.896 14.8599 107.274 14.9676 107.274 15.3177C107.274 16.3276 107.274 17.324 107.274 18.3339C107.274 19.3438 107.274 20.3536 107.274 21.3635C107.247 21.7136 106.95 21.8213 105.924 21.8079H105.938ZM106.748 41.2917H95.5422C94.5702 41.2917 94.1922 41.184 94.1922 40.8204C94.1922 38.5942 94.1922 36.3501 94.1922 34.0879C94.1922 33.7378 94.5432 33.6167 95.5422 33.6301C99.2863 33.6301 103.017 33.6301 106.734 33.6301C107.774 33.6301 108.165 33.7513 108.084 34.1283C108.084 35.2325 108.084 36.3366 108.084 37.4407C108.084 38.5448 108.084 39.649 108.084 40.7531C108.152 41.184 107.774 41.2917 106.734 41.2917H106.748Z" fill="#333333"/>
</g>
<defs>
<clipPath id="clip0">
<rect width="195" height="240" fill="white"/>
</clipPath>
</defs>
</svg>
