<svg width="30" height="23" viewBox="0 0 30 23" fill="none" xmlns="http://www.w3.org/2000/svg">
<path d="M29.5029 3.61632H27.9089C27.4938 3.61632 26.4078 4.06987 26.4078 4.45597V18.4772C26.4078 18.8643 27.4938 19.1816 27.9089 19.1816H29.5029V22.2946H19.1857V19.1816H21.2496V4.6535H20.8904L15.9239 22.2946H12.0787L7.1764 4.6535H6.80511V19.1815H8.86817V22.2946H0.614746V19.1815H1.75944C2.20883 19.1815 2.67786 18.8643 2.67786 18.4771V4.45597C2.67786 4.06981 2.20889 3.61632 1.75944 3.61632H0.614746V0.50293H11.3109L14.8034 12.9552H14.8973L18.4242 0.50293H29.5029V3.61632Z" fill="#2C0A92"/>
</svg>
