<svg width="375" height="476" viewBox="0 0 375 476" fill="none" xmlns="http://www.w3.org/2000/svg">
<rect width="375" height="476" fill="url(#paint0_linear)"/>
<path d="M193.663 111.2L179.27 169.085" stroke="#8F553C" stroke-width="1.94214" stroke-linecap="round" stroke-linejoin="round"/>
<path d="M204.089 116.118C200.181 115.415 194.845 112.954 192.97 112.05C192.588 111.865 192.128 112.013 191.941 112.394C190.412 115.508 184.48 128.49 188.772 134.257C191.911 138.474 196.749 139.34 200.545 138.87C205.998 138.196 210.141 137.2 214.354 141.022L215.767 142.31C216.171 142.679 216.82 142.525 217.016 142.014L225.019 121.12C225.14 120.803 225.043 120.446 224.776 120.237C223.522 119.26 219.956 116.527 218.288 115.764C213.217 113.441 209.526 117.095 204.089 116.118Z" fill="url(#paint1_linear)"/>
<path d="M200.325 130.026C200.31 130.126 200.24 130.214 200.116 130.289C199.997 130.364 199.846 130.428 199.663 130.48C199.486 130.529 199.289 130.57 199.073 130.603C198.862 130.633 198.655 130.655 198.452 130.668C198.253 130.682 198.07 130.687 197.905 130.683C197.739 130.684 197.617 130.679 197.538 130.667C197.39 130.643 197.255 130.604 197.133 130.55C197.016 130.496 196.917 130.427 196.836 130.342C196.756 130.254 196.699 130.148 196.664 130.027C196.633 129.905 196.631 129.764 196.656 129.602C196.838 128.435 197.023 127.272 197.213 126.115C197.402 124.957 197.588 123.79 197.771 122.614C197.8 122.431 197.824 122.248 197.843 122.068C197.862 121.887 197.886 121.705 197.915 121.521C197.922 121.478 197.932 121.428 197.945 121.371C197.959 121.311 197.978 121.258 198.003 121.213C198.029 121.163 198.062 121.123 198.102 121.094C198.143 121.064 198.194 121.054 198.255 121.064C198.316 121.073 198.378 121.092 198.441 121.12C198.508 121.148 198.568 121.184 198.619 121.228C198.675 121.272 198.72 121.324 198.756 121.384C198.797 121.439 198.823 121.501 198.834 121.57C198.844 121.653 198.839 121.739 198.821 121.83C198.807 121.918 198.793 122.007 198.779 122.099C198.619 123.266 198.455 124.423 198.285 125.57C198.12 126.717 197.947 127.873 197.765 129.036C197.745 129.167 197.725 129.298 197.704 129.429C197.688 129.561 197.676 129.694 197.669 129.827C197.788 129.841 197.935 129.844 198.111 129.835C198.287 129.827 198.464 129.81 198.643 129.784C198.827 129.754 199.001 129.716 199.165 129.67C199.329 129.624 199.461 129.569 199.56 129.504C199.606 129.47 199.653 129.437 199.703 129.405C199.754 129.368 199.812 129.355 199.877 129.365C199.934 129.374 199.99 129.403 200.045 129.451C200.105 129.501 200.156 129.561 200.199 129.63C200.243 129.695 200.277 129.763 200.302 129.834C200.326 129.905 200.334 129.969 200.325 130.026ZM206.91 126.806C206.879 127.002 206.807 127.134 206.693 127.202C206.581 127.265 206.43 127.3 206.241 127.306C206.175 127.986 206.095 128.658 206 129.324C205.91 129.991 205.812 130.661 205.707 131.334C205.691 131.439 205.656 131.517 205.604 131.567C205.551 131.617 205.468 131.633 205.354 131.615C205.258 131.6 205.164 131.574 205.071 131.538C204.982 131.501 204.904 131.456 204.837 131.4C204.77 131.341 204.718 131.27 204.682 131.188C204.65 131.103 204.643 131.003 204.661 130.889L204.98 128.843C205.02 128.585 205.06 128.327 205.101 128.069C205.141 127.811 205.177 127.552 205.208 127.293C204.824 127.287 204.441 127.274 204.058 127.255C203.677 127.231 203.297 127.197 202.919 127.151C202.787 128.085 202.668 129.02 202.562 129.958C202.546 130.152 202.529 130.342 202.514 130.528C202.503 130.714 202.483 130.899 202.454 131.083C202.441 131.17 202.406 131.232 202.351 131.269C202.297 131.305 202.225 131.316 202.138 131.302C202.072 131.292 202.003 131.277 201.93 131.257C201.858 131.232 201.787 131.201 201.716 131.163C201.65 131.126 201.59 131.083 201.535 131.034C201.48 130.985 201.439 130.929 201.413 130.867C201.403 130.843 201.403 130.776 201.411 130.665C201.419 130.555 201.432 130.415 201.449 130.248C201.471 130.081 201.495 129.892 201.524 129.682C201.552 129.471 201.584 129.254 201.618 129.031C201.653 128.808 201.687 128.59 201.721 128.375C201.755 128.157 201.786 127.956 201.815 127.772C201.843 127.588 201.868 127.429 201.889 127.293C201.91 127.158 201.925 127.064 201.933 127.011C201.872 127.002 201.819 126.98 201.775 126.946C201.732 126.908 201.715 126.856 201.726 126.791C201.738 126.712 201.771 126.641 201.826 126.578C201.886 126.511 201.952 126.459 202.025 126.421L202.642 122.459C202.656 122.372 202.682 122.304 202.721 122.256C202.764 122.209 202.831 122.193 202.923 122.207C203.072 122.231 203.187 122.271 203.267 122.328C203.352 122.386 203.41 122.458 203.442 122.543C203.478 122.625 203.495 122.722 203.491 122.833C203.492 122.941 203.485 123.056 203.47 123.179C203.4 123.715 203.326 124.25 203.247 124.784C203.169 125.318 203.094 125.853 203.024 126.388C203.406 126.412 203.785 126.435 204.162 126.458C204.54 126.477 204.923 126.478 205.31 126.462C205.361 125.995 205.404 125.532 205.44 125.072C205.48 124.612 205.506 124.146 205.517 123.673C205.516 123.449 205.508 123.226 205.493 123.004C205.479 122.778 205.489 122.553 205.524 122.33C205.536 122.252 205.573 122.206 205.633 122.193C205.698 122.18 205.763 122.179 205.828 122.19C205.933 122.206 206.035 122.24 206.135 122.291C206.239 122.343 206.317 122.418 206.369 122.516C206.399 122.579 206.422 122.705 206.437 122.896C206.453 123.082 206.459 123.302 206.455 123.557C206.456 123.812 206.451 124.087 206.441 124.381C206.431 124.675 206.418 124.958 206.403 125.228C206.388 125.495 206.373 125.737 206.357 125.954C206.346 126.167 206.336 126.322 206.325 126.419C206.379 126.414 206.436 126.412 206.494 126.412C206.553 126.407 206.609 126.409 206.661 126.418C206.766 126.434 206.837 126.479 206.875 126.552C206.914 126.62 206.925 126.705 206.91 126.806ZM212.798 128.139C212.725 128.607 212.612 129.062 212.458 129.504C212.305 129.941 212.101 130.342 211.847 130.705C211.598 131.07 211.293 131.389 210.932 131.665C210.572 131.935 210.151 132.139 209.668 132.274C209.546 132.309 209.414 132.337 209.272 132.36C209.134 132.383 208.99 132.399 208.841 132.407C208.697 132.416 208.553 132.418 208.41 132.414C208.268 132.41 208.135 132.398 208.013 132.379C207.965 132.371 207.91 132.361 207.85 132.347C207.793 132.338 207.74 132.321 207.69 132.295C207.639 132.274 207.599 132.243 207.57 132.202C207.54 132.162 207.53 132.111 207.54 132.05C207.548 131.997 207.567 131.944 207.598 131.891C207.629 131.838 207.666 131.787 207.709 131.74C207.757 131.694 207.805 131.655 207.855 131.622C207.906 131.585 207.957 131.559 208.008 131.545C207.992 131.507 207.985 131.405 207.989 131.24C207.996 131.075 208.011 130.867 208.032 130.615C208.058 130.364 208.088 130.084 208.123 129.776C208.158 129.463 208.194 129.142 208.232 128.812C208.275 128.483 208.317 128.156 208.358 127.831C208.405 127.502 208.448 127.2 208.486 126.924C208.525 126.647 208.558 126.408 208.584 126.207C208.616 126.001 208.64 125.852 208.654 125.761C208.718 125.349 208.788 124.946 208.863 124.55C208.938 124.154 209.007 123.751 209.071 123.34C209.023 123.332 208.979 123.312 208.94 123.279C208.904 123.247 208.891 123.204 208.899 123.152C208.91 123.082 208.937 123.021 208.981 122.97C209.026 122.914 209.078 122.868 209.137 122.833C209.201 122.798 209.267 122.775 209.336 122.763C209.41 122.748 209.478 122.745 209.539 122.754C209.6 122.764 209.658 122.78 209.713 122.801C209.768 122.819 209.826 122.839 209.885 122.862C210.445 123.092 210.93 123.385 211.34 123.74C211.751 124.095 212.077 124.5 212.32 124.954C212.567 125.409 212.732 125.905 212.814 126.442C212.896 126.979 212.891 127.545 212.798 128.139ZM211.846 127.87C211.914 127.433 211.925 127.014 211.88 126.612C211.836 126.207 211.734 125.828 211.574 125.476C211.419 125.121 211.203 124.796 210.926 124.502C210.654 124.204 210.326 123.943 209.94 123.717L209.936 123.743C209.76 124.871 209.603 125.993 209.465 127.11C209.332 128.222 209.215 129.346 209.114 130.481C209.101 130.654 209.085 130.826 209.068 130.998C209.055 131.166 209.049 131.335 209.049 131.506C209.481 131.434 209.859 131.278 210.183 131.037C210.507 130.797 210.781 130.508 211.004 130.171C211.231 129.83 211.412 129.46 211.546 129.06C211.685 128.656 211.785 128.259 211.846 127.87Z" fill="white"/>
<g opacity="0.6">
<g style="mix-blend-mode:screen">
<path d="M355.249 179.911C121.352 232.387 -38.5303 140.13 -38.5303 140.13L535.74 91.699L641.47 91.699C641.47 91.699 589.146 127.436 355.249 179.911Z" fill="url(#paint2_linear)" fill-opacity="0.8"/>
</g>
<g style="mix-blend-mode:screen">
<path d="M35.8071 242.392C269.704 294.868 482.351 201.666 482.351 201.666L-91.9199 153.235L-199.113 130.406C-199.113 130.406 -198.09 189.916 35.8071 242.392Z" fill="url(#paint3_linear)"/>
</g>
<g style="mix-blend-mode:lighten" opacity="0.7">
<path d="M363.379 230.504C348.715 245.207 240.614 257.911 240.614 257.911C240.614 257.911 315.567 254.547 361.742 246.537C404.715 239.082 428.779 233.664 468.276 219.708C520.132 201.385 589.245 158.322 589.245 158.322C589.245 158.322 529.914 182.264 487.639 188.447C466.855 191.488 445.328 177.575 433.428 192.688C431.154 195.576 431.196 197.742 428.86 200.601C418.581 213.176 396.316 209.605 380.422 218.279C368.654 224.701 372.086 221.774 363.379 230.504Z" fill="url(#paint4_linear)"/>
</g>
<path opacity="0.7" d="M-176.642 167.42C-195.721 154.306 -206.145 140.048 -206.145 140.048C-206.145 140.048 -194.235 152.018 -176.642 167.42C-158.578 179.836 -132.757 191.228 -100.678 188.526C-59.7243 185.077 -51.026 213.104 -51.026 213.104C-51.026 213.104 -11.9884 211.17 -6.44757 233.815C-2.16422 251.321 55.2625 266.073 84.8011 271.885C96.9126 273.701 103.489 274.544 101.556 274.535C99.7409 274.526 93.4728 273.591 84.8011 271.885C46.826 266.19 -45.5659 250.925 -100.678 222.342C-127.084 208.647 -155.837 185.634 -176.642 167.42Z" fill="url(#paint5_linear)"/>
</g>
<path d="M84.583 341.735L183.018 151.42L202.284 183.745L223.255 230.052L230.58 232.958L289.28 341.735H84.583Z" fill="#7C91C3"/>
<path d="M176.797 199.725L171.479 204.265C171.479 204.265 176.049 188.252 178.302 177.934C180.555 167.615 183.018 151.42 183.018 151.42L84.583 341.735C98.7312 338.466 109.676 311.805 126.325 294.338C133.249 287.074 153.016 248.212 150.708 257.655C148.4 267.098 143.76 284.69 138.065 300.694C132.047 317.605 120.606 341.735 120.606 341.735H134.453C152.409 287.093 161.191 255.484 176.797 199.725Z" fill="url(#paint6_linear)"/>
<path d="M58.1299 219.406L333.778 218.911" stroke="#CCCCCC" stroke-width="1.23609"/>
<path d="M-33.5869 383.806L58.2441 218.664L76.2172 246.713L95.7816 286.896L102.615 289.417L157.377 383.806H-33.5869Z" fill="#7C91C3"/>
<path d="M52.4403 260.58L47.479 264.519C47.479 264.519 51.7425 250.624 53.8445 241.671C55.9465 232.717 58.2441 218.664 58.2441 218.664L-33.5869 383.806C-20.388 380.97 -10.1771 357.835 5.35469 342.678C11.8138 336.375 30.2549 302.653 28.1018 310.847C25.9488 319.041 21.6199 334.307 16.307 348.193C10.6927 362.868 0.0189438 383.806 0.0189438 383.806H12.9371C29.6883 336.391 37.8819 308.963 52.4403 260.58Z" fill="url(#paint7_linear)"/>
<path d="M241.813 383.806L333.645 218.664L351.618 246.713L371.182 286.896L378.015 289.417L432.777 383.806H241.813Z" fill="#7C91C3"/>
<path d="M327.841 260.58L322.879 264.519C322.879 264.519 327.143 250.624 329.245 241.671C331.347 232.717 333.645 218.664 333.645 218.664L241.813 383.806C255.012 380.97 265.223 357.835 280.755 342.678C287.214 336.375 305.655 302.653 303.502 310.847C301.349 319.041 297.02 334.307 291.707 348.193C286.093 362.868 275.419 383.806 275.419 383.806H288.337C305.089 336.391 313.282 308.963 327.841 260.58Z" fill="url(#paint8_linear)"/>
<path d="M-142.362 475.524C-142.362 475.524 -58.0609 320.271 187.18 320.271C432.42 320.271 516.722 475.524 516.722 475.524H-142.362Z" fill="url(#paint9_linear)"/>
<g style="mix-blend-mode:multiply">
<path d="M376.034 389.553C377.8 388.331 374.499 385.526 368.341 384.749C364.496 384.263 361.539 383.205 354.788 383.427C335.848 384.051 338.56 387.054 338.56 387.054C338.56 387.054 349.362 390.763 355.581 391.128C366.755 391.784 372.541 391.971 376.034 389.553Z" fill="#EAF0F8"/>
</g>
<g style="mix-blend-mode:multiply">
<path d="M289.013 337.637C290.779 336.415 287.478 333.61 281.321 332.833C277.475 332.347 274.519 331.289 267.768 331.511C248.827 332.135 251.539 335.137 251.539 335.137C251.539 335.137 262.341 338.847 268.561 339.212C279.734 339.868 285.52 340.055 289.013 337.637Z" fill="#DAE3F0"/>
</g>
<path d="M352.318 344.17C352.499 343.801 353.025 343.801 353.206 344.171L362.747 363.724C362.907 364.052 362.668 364.435 362.303 364.435H360.235C359.852 364.435 359.614 364.851 359.808 365.18L365.199 374.338C365.393 374.668 365.155 375.083 364.773 375.083H361.834C361.452 375.083 361.214 375.499 361.408 375.828L367.441 386.081C367.62 386.386 367.428 386.775 367.078 386.821C356.004 388.287 349.475 388.273 338.398 386.82C338.048 386.774 337.855 386.385 338.035 386.08L344.067 375.828C344.261 375.499 344.023 375.083 343.641 375.083H340.702C340.32 375.083 340.082 374.668 340.276 374.338L345.667 365.18C345.861 364.851 345.623 364.435 345.241 364.435H343.174C342.808 364.435 342.569 364.052 342.73 363.723L352.318 344.17Z" fill="url(#paint10_linear)"/>
<path d="M364.88 386.721C364.709 386.721 364.549 386.633 364.459 386.487L357.255 374.813C357.067 374.509 357.256 374.111 357.61 374.064L361.626 373.525C361.98 373.477 362.168 373.08 361.981 372.776L357.177 364.959C357.012 364.69 357.138 364.336 357.436 364.233L359.678 363.453C359.94 363.362 360.076 363.074 359.98 362.815L352.763 343.263L362.747 363.723C362.907 364.052 362.668 364.435 362.302 364.435H360.235C359.852 364.435 359.614 364.85 359.808 365.18L365.199 374.338C365.393 374.667 365.155 375.083 364.773 375.083H361.834C361.452 375.083 361.214 375.498 361.408 375.828L367.379 385.976C367.573 386.306 367.336 386.721 366.953 386.721H364.88Z" fill="url(#paint11_linear)"/>
<g style="mix-blend-mode:multiply">
<path d="M22.9709 352.965C21.2051 351.743 24.506 348.937 30.6637 348.16C34.5093 347.675 37.4655 346.617 44.2168 346.839C63.157 347.463 60.4451 350.465 60.4451 350.465C60.4451 350.465 49.6429 354.174 43.4234 354.539C32.2503 355.195 26.4643 355.383 22.9709 352.965Z" fill="#EAF0F8"/>
</g>
<path d="M45.3507 307.088C45.5319 306.718 46.0586 306.719 46.239 307.088L55.7801 326.641C55.9403 326.97 55.7012 327.352 55.3357 327.352H53.2677C52.8853 327.352 52.6476 327.768 52.8416 328.098L58.2321 337.255C58.4261 337.585 58.1885 338 57.806 338H54.8676C54.4852 338 54.2475 338.416 54.4415 338.746L60.4741 348.998C60.6532 349.303 60.4612 349.692 60.111 349.738C49.0374 351.204 42.5078 351.191 31.4316 349.738C31.0811 349.692 30.8886 349.302 31.0679 348.998L37.1 338.746C37.294 338.416 37.0563 338 36.6739 338H33.7355C33.353 338 33.1154 337.585 33.3094 337.255L38.6998 328.098C38.8939 327.768 38.6562 327.352 38.2738 327.352H36.2075C35.8416 327.352 35.6025 326.969 35.7636 326.64L45.3507 307.088Z" fill="url(#paint12_linear)"/>
<path d="M36.52 350.387C36.7301 350.414 36.934 350.304 37.027 350.114L42.8688 338.176C43.0069 337.894 42.8501 337.556 42.5454 337.479L38.6756 336.505C38.3518 336.424 38.2002 336.051 38.375 335.767L43.2465 327.84C43.4045 327.583 43.2973 327.245 43.02 327.126L39.5607 325.644C39.3229 325.542 39.2039 325.274 39.2877 325.029L45.7461 306.18L35.762 326.641C35.6017 326.969 35.8408 327.352 36.2063 327.352H38.2743C38.6567 327.352 38.8944 327.768 38.7003 328.097L33.3099 337.255C33.1159 337.584 33.3535 338 33.736 338H36.6744C37.0568 338 37.2945 338.416 37.1005 338.745L31.0709 348.993C30.891 349.299 31.0822 349.689 31.4341 349.734L36.52 350.387Z" fill="url(#paint13_linear)"/>
<g style="mix-blend-mode:multiply">
<path d="M320.835 344.468C318.582 343.381 314.016 341.514 311.658 340.708C306.698 339.01 305.844 337.938 301.042 337.526C287.572 336.369 289.359 340.708 289.359 340.708C289.359 340.708 295.975 343.041 300.355 343.89C308.223 345.415 328.108 347.977 320.835 344.468Z" fill="#E2E3EF"/>
</g>
<path d="M296.695 335.352H301.145V340.769C299.407 341.474 298.433 341.44 296.695 340.769V335.352Z" fill="#C18989"/>
<path d="M298.736 291.9C298.908 291.503 299.471 291.503 299.643 291.901L308.038 311.334C308.179 311.661 307.94 312.025 307.584 312.025H305.854C305.483 312.025 305.244 312.419 305.416 312.748L310.211 321.95C310.383 322.279 310.144 322.673 309.773 322.673H307.271C306.9 322.673 306.661 323.067 306.832 323.396L312.199 333.7C312.356 334 312.168 334.366 311.833 334.416C302.053 335.88 296.287 335.824 286.508 334.413C286.172 334.364 285.982 333.997 286.139 333.696L291.504 323.396C291.676 323.067 291.437 322.673 291.066 322.673H288.564C288.192 322.673 287.954 322.279 288.125 321.95L292.92 312.748C293.092 312.419 292.853 312.025 292.482 312.025H290.754C290.398 312.025 290.159 311.66 290.3 311.334L298.736 291.9Z" fill="#71BFD8"/>
<path d="M306.038 335.054C305.787 335.083 305.554 334.917 305.499 334.671L302.879 322.967C302.839 322.786 302.903 322.598 303.045 322.479L304.76 321.05C304.928 320.911 304.984 320.678 304.899 320.478L301.451 312.315C301.376 312.138 301.41 311.933 301.54 311.79L303.289 309.863C303.397 309.743 303.441 309.579 303.405 309.421L300.373 296.062C300.24 295.476 301.071 295.205 301.309 295.757L308.038 311.334C308.179 311.66 307.939 312.024 307.584 312.024H305.854C305.483 312.024 305.244 312.418 305.416 312.747L310.211 321.95C310.383 322.279 310.144 322.672 309.773 322.672H307.271C306.9 322.672 306.661 323.066 306.832 323.395L312.186 333.673C312.346 333.981 312.148 334.353 311.804 334.393L306.038 335.054Z" fill="url(#paint14_linear)"/>
<path d="M266.355 285.931C266.53 285.54 267.084 285.541 267.258 285.932L277.168 308.21C277.314 308.537 277.075 308.905 276.717 308.905H274.458C274.084 308.905 273.845 309.304 274.022 309.633L279.714 320.24C279.891 320.57 279.652 320.969 279.278 320.969H276.11C275.736 320.969 275.498 321.367 275.675 321.697L282.025 333.535C282.186 333.837 281.997 334.208 281.658 334.257C270.153 335.936 263.414 335.872 251.91 334.254C251.57 334.206 251.379 333.834 251.541 333.531L257.889 321.697C258.066 321.367 257.827 320.969 257.453 320.969H254.285C253.911 320.969 253.673 320.57 253.85 320.24L259.541 309.633C259.718 309.304 259.479 308.905 259.106 308.905H256.848C256.49 308.905 256.251 308.536 256.397 308.209L266.355 285.931Z" fill="#71BFD8"/>
<path d="M274.718 335.004C274.469 335.032 274.238 334.868 274.182 334.623L271.104 321.269C271.061 321.085 271.128 320.893 271.275 320.774L273.342 319.101C273.515 318.961 273.573 318.723 273.484 318.52L269.431 309.202C269.352 309.022 269.388 308.812 269.523 308.668L271.611 306.433C271.724 306.312 271.769 306.144 271.731 305.983L267.995 290C267.859 289.416 268.685 289.139 268.929 289.686L277.168 308.209C277.314 308.536 277.074 308.905 276.716 308.905H274.458C274.084 308.905 273.845 309.304 274.022 309.633L279.714 320.24C279.891 320.569 279.652 320.968 279.278 320.968H276.11C275.736 320.968 275.498 321.367 275.674 321.696L282.011 333.509C282.176 333.818 281.978 334.196 281.63 334.235L274.718 335.004Z" fill="url(#paint15_linear)"/>
<path d="M110.169 364.122C101.555 350.5 103.5 327 103.5 327C103.5 327 99.5 327.5 94 328.5C88.2999 329.536 80.5001 331 80.5001 331C80.5001 331 80.2082 350.428 81.7243 359.395C83.5458 370.17 85.4138 376.609 91.8294 385.575C101.201 398.671 111.55 402.188 126.636 408.481C141.722 414.775 164.555 415.753 189.138 415.753C201.115 415.753 229.166 418.764 249.952 431.025C281.39 449.568 284.758 472 284.758 472H317.319C317.319 472 310.957 435.71 284.758 415.753C261.533 398.062 219.329 391.007 200.951 391.007C182.574 391.007 130.131 395.692 110.169 364.122Z" fill="url(#paint16_linear)"/>
<defs>
<linearGradient id="paint0_linear" x1="187.5" y1="1.72083e-08" x2="187.866" y2="375.407" gradientUnits="userSpaceOnUse">
<stop stop-color="#F6ECED"/>
<stop offset="0.411458" stop-color="#AED9EC"/>
<stop offset="1" stop-color="#B0D9EB"/>
</linearGradient>
<linearGradient id="paint1_linear" x1="210.182" y1="121.242" x2="136.715" y2="134.025" gradientUnits="userSpaceOnUse">
<stop stop-color="#FF7676"/>
<stop offset="1" stop-color="#F0FBAB"/>
</linearGradient>
<linearGradient id="paint2_linear" x1="278.051" y1="78.5924" x2="302.869" y2="206.27" gradientUnits="userSpaceOnUse">
<stop offset="0.46875" stop-color="#C4C4C4" stop-opacity="0"/>
<stop offset="1" stop-color="#D0D9E3"/>
</linearGradient>
<linearGradient id="paint3_linear" x1="165.769" y1="140.129" x2="140.951" y2="267.806" gradientUnits="userSpaceOnUse">
<stop offset="0.46875" stop-color="#C4C4C4" stop-opacity="0"/>
<stop offset="1" stop-color="#D0D9E3"/>
</linearGradient>
<linearGradient id="paint4_linear" x1="565.723" y1="164.02" x2="297.743" y2="325.879" gradientUnits="userSpaceOnUse">
<stop stop-color="#B8DAEA"/>
<stop offset="1" stop-color="#E3EFFA"/>
</linearGradient>
<linearGradient id="paint5_linear" x1="-206.145" y1="140.048" x2="57.4419" y2="319.818" gradientUnits="userSpaceOnUse">
<stop offset="0.0153947" stop-color="#ACCFE4"/>
<stop offset="1" stop-color="#C2DEF5"/>
</linearGradient>
<linearGradient id="paint6_linear" x1="117.11" y1="341.735" x2="208.375" y2="164.327" gradientUnits="userSpaceOnUse">
<stop offset="0.619792" stop-color="#B5A2B8"/>
<stop offset="1" stop-color="white"/>
</linearGradient>
<linearGradient id="paint7_linear" x1="-3.242" y1="383.806" x2="72.5569" y2="225.393" gradientUnits="userSpaceOnUse">
<stop offset="0.619792" stop-color="#B5A2B8"/>
<stop offset="1" stop-color="white"/>
</linearGradient>
<linearGradient id="paint8_linear" x1="272.158" y1="383.806" x2="347.957" y2="225.393" gradientUnits="userSpaceOnUse">
<stop offset="0.619792" stop-color="#B5A2B8"/>
<stop offset="1" stop-color="white"/>
</linearGradient>
<linearGradient id="paint9_linear" x1="187.18" y1="320.271" x2="187.18" y2="475.524" gradientUnits="userSpaceOnUse">
<stop stop-color="#97ABDE"/>
<stop offset="1" stop-color="#E8E0E2"/>
</linearGradient>
<linearGradient id="paint10_linear" x1="352.738" y1="343.263" x2="352.738" y2="387.915" gradientUnits="userSpaceOnUse">
<stop stop-color="#71BFD8"/>
<stop offset="1" stop-color="#8EB8D3"/>
</linearGradient>
<linearGradient id="paint11_linear" x1="360.29" y1="343.263" x2="360.29" y2="386.721" gradientUnits="userSpaceOnUse">
<stop stop-color="#6EA4C5"/>
<stop offset="1" stop-color="#82A0CC"/>
</linearGradient>
<linearGradient id="paint12_linear" x1="45.7707" y1="306.18" x2="45.7707" y2="350.833" gradientUnits="userSpaceOnUse">
<stop stop-color="#71BFD8"/>
<stop offset="1" stop-color="#8EB8D3"/>
</linearGradient>
<linearGradient id="paint13_linear" x1="38.2185" y1="306.18" x2="38.2185" y2="349.639" gradientUnits="userSpaceOnUse">
<stop stop-color="#6EA4C5"/>
<stop offset="1" stop-color="#6184B8"/>
</linearGradient>
<linearGradient id="paint14_linear" x1="320.924" y1="335.104" x2="320.924" y2="290.852" gradientUnits="userSpaceOnUse">
<stop stop-color="#6975A5"/>
<stop offset="1" stop-color="#6975A5" stop-opacity="0"/>
</linearGradient>
<linearGradient id="paint15_linear" x1="239.959" y1="334.857" x2="239.959" y2="284.919" gradientUnits="userSpaceOnUse">
<stop stop-color="#6975A5"/>
<stop offset="1" stop-color="#6975A5" stop-opacity="0"/>
</linearGradient>
<linearGradient id="paint16_linear" x1="65.7225" y1="332.911" x2="243.72" y2="496.075" gradientUnits="userSpaceOnUse">
<stop stop-color="white"/>
<stop offset="1" stop-color="white" stop-opacity="0"/>
</linearGradient>
</defs>
</svg>
