<?xml version="1.0" encoding="utf-8"?>
<!-- Generator: Adobe Illustrator 23.0.3, SVG Export Plug-In . SVG Version: 6.00 Build 0)  -->
<svg version="1.1" id="Layer_1" xmlns="http://www.w3.org/2000/svg" xmlns:xlink="http://www.w3.org/1999/xlink" x="0px" y="0px"
	 viewBox="0 0 375.1 342.7" style="enable-background:new 0 0 375.1 342.7;" xml:space="preserve">
<style type="text/css">
	.st0{clip-path:url(#SVGID_2_);}
	.st1{fill:url(#SVGID_3_);}
	.st2{opacity:0.3;}
	.st3{fill:#7C91C3;}
	.st4{fill:url(#SVGID_4_);}
	.st5{opacity:0.8;}
	.st6{fill:url(#SVGID_5_);}
	.st7{fill:#AB95AE;}
	.st8{fill:url(#SVGID_6_);}
	.st9{fill:url(#SVGID_7_);}
	.st10{fill:url(#SVGID_8_);}
	.st11{fill:url(#SVGID_9_);}
	.st12{opacity:0.7;}
	.st13{fill:url(#SVGID_10_);}
	.st14{fill:url(#SVGID_11_);}
	.st15{fill:url(#SVGID_12_);}
	.st16{fill:url(#SVGID_13_);fill-opacity:0.5;}
	.st17{fill:url(#SVGID_14_);}
	.st18{fill:url(#SVGID_15_);}
	.st19{fill:url(#SVGID_16_);}
	.st20{fill:url(#SVGID_17_);}
	.st21{fill:url(#SVGID_18_);}
	.st22{fill:url(#SVGID_19_);}
	.st23{fill:url(#SVGID_20_);}
	.st24{fill:url(#SVGID_21_);}
	.st25{fill:#CE9E8E;}
	.st26{fill:#EFE1CC;fill-opacity:0.8;}
	.st27{fill:#5B71B7;fill-opacity:0.3;}
	.st28{fill:url(#SVGID_22_);}
	.st29{fill:url(#SVGID_23_);}
	.st30{fill:#D28989;}
	.st31{fill:#C29393;}
	.st32{fill:#99A8D6;}
	.st33{fill:#95A5D3;}
	.st34{fill:#C18989;}
	.st35{fill:#71BFD8;}
	.st36{fill:url(#SVGID_24_);}
	.st37{fill:url(#SVGID_25_);}
	.st38{fill:#CFD2DD;fill-opacity:0.7;}
	.st39{fill:#DD9E9E;}
	.st40{fill:url(#SVGID_26_);}
</style>
<g>
	<defs>
		<rect id="SVGID_1_" y="-0.1" width="375.1" height="342.9"/>
	</defs>
	<clipPath id="SVGID_2_">
		<use xlink:href="#SVGID_1_"  style="overflow:visible;"/>
	</clipPath>
	<g class="st0">
		
			<linearGradient id="SVGID_3_" gradientUnits="userSpaceOnUse" x1="83.1565" y1="352.8103" x2="83.1565" y2="-218.7747" gradientTransform="matrix(1 0 0 -1 0 342)">
			<stop  offset="0" style="stop-color:#ABD8EC"/>
			<stop  offset="0.8229" style="stop-color:#F7EDED"/>
		</linearGradient>
		<rect x="-477.7" y="-10.8" class="st1" width="1121.7" height="691"/>
		<g class="st2">
			<path class="st3" d="M363,186.5l-238.9-86l-46.8,14.6L26.5,136l-17.8,1.3l-142.4,49.1H363z"/>
			
				<linearGradient id="SVGID_4_" gradientUnits="userSpaceOnUse" x1="248.0098" y1="152.0411" x2="238.3888" y2="252.487" gradientTransform="matrix(1 0 0 -1 0 342)">
				<stop  offset="0.6198" style="stop-color:#B5A2B8"/>
				<stop  offset="1" style="stop-color:#FFFFFF"/>
			</linearGradient>
			<path class="st4" d="M139.2,122.3l12.9,2.1c0,0-11.1-7.2-16.6-11.9c-5.5-4.7-11.4-12-11.4-12l238.9,86
				c-34.3-1.5-60.9-13.5-101.3-21.4c-16.8-3.3-64.8-20.8-59.2-16.6c5.6,4.3,16.9,12.2,30.7,19.4c14.6,7.6,42.4,18.5,42.4,18.5H242
				C198.4,161.8,177.1,147.5,139.2,122.3z"/>
		</g>
		<g class="st5">
			<path class="st3" d="M173.4,179.6l46-48.2l9,8.2l9.8,11.7l3.4,0.7l27.5,27.5H173.4z"/>
			
				<linearGradient id="SVGID_5_" gradientUnits="userSpaceOnUse" x1="189.83" y1="162.0579" x2="204.5159" y2="214.7899" gradientTransform="matrix(1 0 0 -1 0 342)">
				<stop  offset="0.6198" style="stop-color:#B5A2B8"/>
				<stop  offset="1" style="stop-color:#FFFFFF"/>
			</linearGradient>
			<path class="st6" d="M216.5,143.6l-2.5,1.2c0,0,2.1-4.1,3.2-6.7c1.1-2.6,2.2-6.7,2.2-6.7l-46,48.2c6.6-0.8,11.7-7.6,19.5-12
				c3.2-1.8,12.5-11.7,11.4-9.3c-1.1,2.4-3.3,6.8-5.9,10.9c-2.8,4.3-8.2,10.4-8.2,10.4h6.5C205.1,165.8,209.2,157.8,216.5,143.6z"/>
			<path class="st7" d="M245.6,227.3c11.2-17.2,16.4-27.2,22.6-45.8c0,0-1.8,21.6-5.2,25.5C259.5,210.9,245.6,227.3,245.6,227.3z"/>
		</g>
		<g class="st5">
			<path class="st3" d="M254.7,186.5l97-97.5l19,16.6l20.7,23.7l7.2,1.5l57.8,55.7H254.7z"/>
			
				<linearGradient id="SVGID_6_" gradientUnits="userSpaceOnUse" x1="290.2026" y1="154.583" x2="318.8946" y2="261.852" gradientTransform="matrix(1 0 0 -1 0 342)">
				<stop  offset="0.6198" style="stop-color:#B5A2B8"/>
				<stop  offset="1" style="stop-color:#FFFFFF"/>
			</linearGradient>
			<path class="st8" d="M345.6,113.8l-5.2,2.3c0,0,4.5-8.2,6.7-13.5c2.2-5.3,4.6-13.6,4.6-13.6l-97,97.5
				c13.9-1.7,24.7-15.3,41.1-24.3c6.8-3.7,26.3-23.6,24-18.8c-2.3,4.8-6.8,13.8-12.5,22c-5.9,8.7-17.2,21-17.2,21h13.6
				C321.6,158.5,330.2,142.3,345.6,113.8z"/>
		</g>
		<g class="st2">
			<path class="st3" d="M-328,165.2l213.8-84.6l41.8,14.4l45.5,20.6l15.9,1.3l127.5,48.4H-328z"/>
		</g>
		<g>
			
				<linearGradient id="SVGID_7_" gradientUnits="userSpaceOnUse" x1="164.5365" y1="372.6101" x2="194.9925" y2="215.9295" gradientTransform="matrix(1 0 0 -1 0 342)">
				<stop  offset="0.4688" style="stop-color:#C4C4C4;stop-opacity:0"/>
				<stop  offset="1" style="stop-color:#D0D9E3"/>
			</linearGradient>
			<path class="st9" d="M240.2,97.4c-287,64.4-483.2-48.8-483.2-48.8l704.7-59.4h129.7C591.4-10.8,527.2,33,240.2,97.4z"/>
		</g>
		<g>
			
				<linearGradient id="SVGID_8_" gradientUnits="userSpaceOnUse" x1="44.6104" y1="337.2121" x2="14.1548" y2="180.5319" gradientTransform="matrix(1 0 0 -1 0 342)">
				<stop  offset="0.4688" style="stop-color:#C4C4C4;stop-opacity:0"/>
				<stop  offset="1" style="stop-color:#D0D9E3"/>
			</linearGradient>
			<path class="st10" d="M-92.3,134.7c287,64.4,548-50,548-50L-249,25.3l-131.5-28C-380.6-2.7-379.3,70.3-92.3,134.7z"/>
		</g>
		<g>
			
				<linearGradient id="SVGID_9_" gradientUnits="userSpaceOnUse" x1="404.2472" y1="350.2188" x2="180.0692" y2="269.2229" gradientTransform="matrix(1 0 0 -1 0 342)">
				<stop  offset="0" style="stop-color:#E2EFF4"/>
				<stop  offset="1" style="stop-color:#EEF5F5"/>
			</linearGradient>
			<path class="st11" d="M356.1,5.3c17.1-12,18-16.1,18-16.1h63c0,0-88.1,37.2-137.8,53.7c-56.8,18.9-134.4,33.4-134.4,33.4
				S299.3,45.2,356.1,5.3z"/>
		</g>
		<g class="st12">
			
				<linearGradient id="SVGID_10_" gradientUnits="userSpaceOnUse" x1="521.9086" y1="361.5363" x2="214.9286" y2="130.6546" gradientTransform="matrix(1 0 0 -1 0 342)">
				<stop  offset="0" style="stop-color:#B8DAEA"/>
				<stop  offset="1" style="stop-color:#F0E3E5"/>
			</linearGradient>
			<path class="st13" d="M312.9,126.2C296.8,146,166.5,175,166.5,175s91.1-13.5,146.4-29c51.5-14.5,80.2-24.1,126.7-46
				c61-28.8,140-90,140-90s-69.4,36.6-120.2,49.5c-25,6.3-53-8-65.6,11.9c-2.4,3.8-2.1,6.4-4.6,10.2c-11,16.6-38.6,15.1-56.9,27.6
				C318.6,118.5,322.4,114.5,312.9,126.2z"/>
		</g>
		
			<linearGradient id="SVGID_11_" gradientUnits="userSpaceOnUse" x1="84.35" y1="225.8" x2="84.35" y2="-0.8" gradientTransform="matrix(1 0 0 -1 0 342)">
			<stop  offset="0" style="stop-color:#97ABDE"/>
			<stop  offset="1" style="stop-color:#F6EDEC"/>
		</linearGradient>
		<path class="st14" d="M-421,165.2c-49.8,0-51.1-26.1-55.3-39v216.6h623.4H645V145.4c0,0-64.7-25-120.9-27.2
			c-90.8-3.6-135.2,46.6-226.1,47.7c-64.2,0.8-152.8-20.5-162.8-20.5s-65.3-15.3-108.1-15.6c-54.9-0.3-102.4,23.8-137.9,23.8
			c-85.4,0-129.4-37.4-175.4-37.4C-338,116.7-383.2,165.2-421,165.2z"/>
		
			<linearGradient id="SVGID_12_" gradientUnits="userSpaceOnUse" x1="79.0397" y1="489.9083" x2="25.2778" y2="-11.3417" gradientTransform="matrix(1 0 0 -1 0 342)">
			<stop  offset="0" style="stop-color:#A7AFD9;stop-opacity:0"/>
			<stop  offset="1" style="stop-color:#FFFFFF"/>
		</linearGradient>
		<path class="st15" d="M54.9,179c-46.7-1.9-46.8,22-93.5,20.7c-18.8-0.5-47.8-5.3-47.8-5.3l-47.8-5.3l215.8-20.7
			c0,0,12.7-0.4,20.8,0c9.4,0.5,22.2,2.1,29.6,3.2c1.6,0.3,3.1,0.6,4.7,1c7.7,1.7,15.5,4,24.8,7.1c12.7,4.2,19.9,8.6,30.2,13.4
			c2.5,1.2,5.1,2.3,8.1,3.5c31.4,12.8,13.9,30.9-1.7,38.8c-15.6,7.9-73,24.3-89.3,25.9c-16.3,1.6-119.9,7.7-178.5,42.2
			c-39.2,23.1-46.1-42.2-46.1-42.2c16.2-4.4,13.4-15.3,46.1-24.1c48.7-13.1,113.4-19.4,172.2-19.4c17.7,0,37.9-9.8,41.8-21.2
			c0.7-1.9,0.6-4.4-0.2-7.6c-1.2-4.4-4.5-7.3-9.3-9.3C114.6,175,73.9,179.8,54.9,179z"/>
		
			<linearGradient id="SVGID_13_" gradientUnits="userSpaceOnUse" x1="59.3584" y1="188.2921" x2="42.3269" y2="170.6211" gradientTransform="matrix(1 0 0 -1 0 342)">
			<stop  offset="0" style="stop-color:#798EC7"/>
			<stop  offset="1" style="stop-color:#B0BBD8;stop-opacity:0"/>
		</linearGradient>
		<path class="st16" d="M92.7,152.6l-9.6-2.1L5.7,175.8l18.7,7.2L92.7,152.6z"/>
		
			<linearGradient id="SVGID_14_" gradientUnits="userSpaceOnUse" x1="95.974" y1="213.3627" x2="72.3428" y2="210.3817" gradientTransform="matrix(1 0 0 -1 0 342)">
			<stop  offset="0" style="stop-color:#EFE1CC"/>
			<stop  offset="1" style="stop-color:#C18B79"/>
		</linearGradient>
		<path class="st17" d="M80.8,127.6c0-2.6,2.6-1.7,2.6-1.7l0.9,7.9l-3.4,1.3V127.6z"/>
		
			<linearGradient id="SVGID_15_" gradientUnits="userSpaceOnUse" x1="96.188" y1="211.6665" x2="72.5568" y2="208.6855" gradientTransform="matrix(1 0 0 -1 0 342)">
			<stop  offset="0" style="stop-color:#EFE1CC"/>
			<stop  offset="1" style="stop-color:#C18B79"/>
		</linearGradient>
		<path class="st18" d="M96.2,127.6c0-2.6-2.6-1.7-2.6-1.7l-0.9,7.9l3.4,1.3V127.6z"/>
		
			<linearGradient id="SVGID_16_" gradientUnits="userSpaceOnUse" x1="71.7322" y1="224.3622" x2="119.4207" y2="219.8912" gradientTransform="matrix(1 0 0 -1 0 342)">
			<stop  offset="0" style="stop-color:#C9A280"/>
			<stop  offset="1" style="stop-color:#F9E6D4"/>
		</linearGradient>
		<path class="st19" d="M83.4,87.1c0-1.2,1-2.1,2.1-2.1h6c1.2,0,2.1,1,2.1,2.1v15.3c0,0.3-0.1,0.7-0.3,1c-0.4,0.6-0.4,1.3,0,1.9
			l0,0.1c0.2,0.3,0.3,0.6,0.3,1v45.1c0,1.2-1,2.1-2.1,2.1h-6c-1.2,0-2.1-1-2.1-2.1v-45.1c0-0.4,0.1-0.7,0.4-1l0,0
			c0.5-0.5,0.5-1.4,0-1.9c-0.3-0.3-0.4-0.6-0.4-1V87.1z"/>
		
			<linearGradient id="SVGID_17_" gradientUnits="userSpaceOnUse" x1="84.2523" y1="262.9916" x2="96.7766" y2="258.4094" gradientTransform="matrix(1 0 0 -1 0 342)">
			<stop  offset="0" style="stop-color:#D2B091"/>
			<stop  offset="1" style="stop-color:#E0CBB7"/>
		</linearGradient>
		<path class="st20" d="M86.8,74.3c0-1.5,1.9-2.2,1.9-2.2v12.9h-2.8c0,0,1.5-1.4,0.4-2c-1.3-0.7-3.4,1.3-3.4,1.3s0,0.1-0.2,0.7
			c-0.2,0.7-1.7,1.1-1.7,1.1s-1-5.4,0-8c0.8-2.1,0.9-3.4,2.7-2.6c0.9,0.4,0.8,0.4,1.6,0.9c1,0.6,2,0,2,0S86.8,75.5,86.8,74.3z"/>
		
			<linearGradient id="SVGID_18_" gradientUnits="userSpaceOnUse" x1="84.8945" y1="264.7469" x2="97.4188" y2="260.1647" gradientTransform="matrix(1 0 0 -1 0 342)">
			<stop  offset="0" style="stop-color:#D2B091"/>
			<stop  offset="1" style="stop-color:#E0CBB7"/>
		</linearGradient>
		<path class="st21" d="M90.3,74.3c0-1.5-1.7-2.2-1.7-2.2v12.9h2.8c0,0-1.5-1.4-0.4-2c1.3-0.7,3.4,1.3,3.4,1.3s0,0,0.2,0.7
			c0.2,0.7,1.9,1.1,1.9,1.1s1-5.4,0-8c-0.8-2.1-0.9-3.4-2.7-2.6C93,75.9,93,76,92.1,76.5c-1,0.6-2,0-2,0S90.3,75.5,90.3,74.3z"/>
		
			<linearGradient id="SVGID_19_" gradientUnits="userSpaceOnUse" x1="85.7224" y1="228.9653" x2="85.7224" y2="219.5983" gradientTransform="matrix(1 0 0 -1 0 342)">
			<stop  offset="0" style="stop-color:#CD9A8A"/>
			<stop  offset="1" style="stop-color:#C29898;stop-opacity:0"/>
		</linearGradient>
		<path class="st22" d="M83.4,122.4V113c3.5,3.2,4.6,5.2,4.7,9.4H83.4z"/>
		
			<linearGradient id="SVGID_20_" gradientUnits="userSpaceOnUse" x1="90.8317" y1="228.9653" x2="90.8317" y2="219.5983" gradientTransform="matrix(1 0 0 -1 0 342)">
			<stop  offset="0" style="stop-color:#CD9A8A"/>
			<stop  offset="1" style="stop-color:#C29898;stop-opacity:0"/>
		</linearGradient>
		<path class="st23" d="M93.2,122.4V113c-3.5,3.2-4.6,5.2-4.7,9.4H93.2z"/>
		
			<linearGradient id="SVGID_21_" gradientUnits="userSpaceOnUse" x1="88.5964" y1="240.8863" x2="88.5964" y2="237.4803" gradientTransform="matrix(1 0 0 -1 0 342)">
			<stop  offset="0" style="stop-color:#BF8977"/>
			<stop  offset="1" style="stop-color:#BF8977;stop-opacity:0"/>
		</linearGradient>
		<path class="st24" d="M84.2,102.8l0.6,1.7h7.5l0.6-1.7l-4.5-1.7L84.2,102.8z"/>
		<path class="st25" d="M84.2,126.7v-1.3c3.3,0.8,5.1,0.8,8.5,0v1.3C89.5,127.2,87.6,127.2,84.2,126.7z"/>
		<path class="st26" d="M91.9,103.9l-1.3-2.1V86.9l-0.9-1.9c0,0,2.6,0,3.2,0.6c0.8,0.8,0.6,1.9,0.6,1.9v14.3l-0.9,2.6l0.9,3v40.6
			c0,0,0,3.8-0.4,4.7c-0.4,0.9-1.9,0.9-1.9,0.9v-16v-9.4l-1.3-0.9l1.3-0.2l1.1-0.9l-1.1-0.4V117v-11.3l-1.5-1.3L91.9,103.9z"/>
		<path class="st27" d="M330.8,193.9c-7.1,4.7-14.5,7.6-20.1,6.7c-11.9-2-24.8-8.1-36.9-13.7l42.2-11.5c0,0,9,5.1,14.8,10.5
			C336.6,191.4,333.4,192.2,330.8,193.9z"/>
		
			<linearGradient id="SVGID_22_" gradientUnits="userSpaceOnUse" x1="300.6873" y1="176.8463" x2="300.6873" y2="144.8343" gradientTransform="matrix(1 0 0 -1 0 342)">
			<stop  offset="0" style="stop-color:#DEE2ED"/>
			<stop  offset="1" style="stop-color:#AEBADF"/>
		</linearGradient>
		<path class="st28" d="M274,186.9l17.7-29.4c0.1-0.1,0.2-0.2,0.3-0.2l8.7-3.1c0.1,0,0.2,0,0.3,0l10,3.1c0.1,0,0.2,0.1,0.3,0.2
			l16.1,29.4c0.2,0.3,0,0.6-0.3,0.7l-26.1,9.1c-0.1,0-0.2,0-0.3,0l-26.4-9.1C274,187.6,273.8,187.2,274,186.9z"/>
		
			<linearGradient id="SVGID_23_" gradientUnits="userSpaceOnUse" x1="311.7501" y1="164.1552" x2="289.4381" y2="167.0652" gradientTransform="matrix(1 0 0 -1 0 342)">
			<stop  offset="0" style="stop-color:#B0BBDF"/>
			<stop  offset="1" style="stop-color:#B0BBDF;stop-opacity:0"/>
		</linearGradient>
		<path class="st29" d="M301.2,196.8V160l10-2.6l16.5,30.1L301.2,196.8z"/>
		<path class="st30" d="M297.8,165.4l-5.5-2l-12.5,21.3l18,5.9v-4.6l-12.5-3.5l3.4-5.9l6.3,1.8v-4l-4.5-1.4l3.4-5.5l3.9,1.3V165.4z"
			/>
		<path class="st31" d="M311.2,162.6l-5.9,1.6v26.4l18-6.5l-2.5-3.9l-11.2,3.9l-0.3-6.8l6-1.9l-2.1-3.3l-4.2,1.3l-0.1-6.5l3.8-1.1
			L311.2,162.6z"/>
		<path class="st32" d="M403.4,204.9c-2.9-1.4-8.8-3.8-11.9-4.8c-6.4-2.2-7.5-3.5-13.7-4.1c-17.4-1.5-15.1,4.1-15.1,4.1
			s8.5,3,14.2,4.1C387.1,206.1,412.8,209.4,403.4,204.9z"/>
		<path class="st33" d="M382.5,193.7c-10.1-7.3-13.6-8.7-17.4-10.6c-6.1-3.1-10.5-3.7-16.8-4c-17.9-0.9-15.5,2.3-15.5,2.3
			s14.6,7.5,20.4,8.1C361.7,190.4,391.1,199.9,382.5,193.7z"/>
		<path class="st34" d="M366.3,192.1h4.1v5c-1.6,0.6-2.5,0.6-4.1,0V192.1z"/>
		<path class="st35" d="M368.1,152.1c0.2-0.4,0.7-0.4,0.8,0l7.7,17.9c0.1,0.3-0.1,0.6-0.4,0.6h-1.6c-0.3,0-0.6,0.4-0.4,0.7l4.4,8.5
			c0.2,0.3-0.1,0.7-0.4,0.7H376c-0.3,0-0.6,0.4-0.4,0.7l4.9,9.5c0.1,0.3,0,0.6-0.3,0.7c-9,1.3-14.3,1.3-23.3,0
			c-0.3,0-0.5-0.4-0.3-0.7l4.9-9.5c0.2-0.3-0.1-0.7-0.4-0.7h-2.3c-0.3,0-0.6-0.4-0.4-0.7l4.4-8.5c0.2-0.3-0.1-0.7-0.4-0.7h-1.6
			c-0.3,0-0.5-0.3-0.4-0.6L368.1,152.1z"/>
		
			<linearGradient id="SVGID_24_" gradientUnits="userSpaceOnUse" x1="375.1048" y1="150.0873" x2="375.1048" y2="190.8203" gradientTransform="matrix(1 0 0 -1 0 342)">
			<stop  offset="0" style="stop-color:#6975A5"/>
			<stop  offset="1" style="stop-color:#6975A5;stop-opacity:0"/>
		</linearGradient>
		<path class="st36" d="M374.9,191.9c-0.2,0-0.4-0.1-0.5-0.4l-2.4-10.8c0-0.2,0-0.3,0.2-0.4l1.6-1.3c0.2-0.1,0.2-0.3,0.1-0.5
			l-3.2-7.5c-0.1-0.2,0-0.4,0.1-0.5l1.6-1.8c0.1-0.1,0.1-0.3,0.1-0.4l-2.8-12.3c-0.1-0.5,0.6-0.8,0.9-0.3l6.2,14.3
			c0.1,0.3-0.1,0.6-0.4,0.6h-1.6c-0.3,0-0.6,0.4-0.4,0.7l4.4,8.5c0.2,0.3-0.1,0.7-0.4,0.7H376c-0.3,0-0.6,0.4-0.4,0.7l4.9,9.5
			c0.1,0.3,0,0.6-0.4,0.7L374.9,191.9z"/>
		<path class="st35" d="M343.6,137.3c0.1-0.4,0.7-0.4,0.9,0l7.8,20.3c0.1,0.3-0.1,0.6-0.4,0.6h-1.7c-0.3,0-0.6,0.3-0.4,0.6l4.5,9.8
			c0.1,0.3-0.1,0.6-0.4,0.6h-2.4c-0.3,0-0.6,0.3-0.4,0.6l5,11c0.1,0.3,0,0.6-0.3,0.6c-9,1.5-14.4,1.5-23.4,0c-0.3,0-0.5-0.4-0.3-0.6
			l5-11c0.1-0.3-0.1-0.6-0.4-0.6h-2.4c-0.3,0-0.6-0.3-0.4-0.6l4.5-9.8c0.1-0.3-0.1-0.6-0.4-0.6h-1.7c-0.3,0-0.5-0.3-0.4-0.6
			L343.6,137.3z"/>
		
			<linearGradient id="SVGID_25_" gradientUnits="userSpaceOnUse" x1="350.5392" y1="159.8723" x2="350.5392" y2="205.8403" gradientTransform="matrix(1 0 0 -1 0 342)">
			<stop  offset="0" style="stop-color:#6975A5"/>
			<stop  offset="1" style="stop-color:#6975A5;stop-opacity:0"/>
		</linearGradient>
		<path class="st37" d="M350.3,182.3c-0.2,0-0.5-0.1-0.5-0.4l-2.4-12.3c0-0.2,0-0.3,0.1-0.4l1.7-1.6c0.1-0.1,0.2-0.3,0.1-0.5
			l-3.2-8.6c-0.1-0.1,0-0.3,0.1-0.4l1.7-2.1c0.1-0.1,0.1-0.2,0.1-0.4l-2.8-14.1c-0.1-0.5,0.7-0.8,0.9-0.3l6.2,16.4
			c0.1,0.3-0.1,0.6-0.4,0.6h-1.7c-0.3,0-0.6,0.3-0.4,0.6l4.5,9.8c0.1,0.3-0.1,0.6-0.4,0.6h-2.4c-0.3,0-0.6,0.3-0.4,0.6l5,10.9
			c0.1,0.3,0,0.6-0.4,0.6L350.3,182.3z"/>
		<path class="st38" d="M-18.6,238.2c3.9-1.8,11.7-5,15.7-6.4c8.5-2.9,9.9-4.7,18.2-5.4c23-2,20,5.4,20,5.4s-11.3,3.9-18.8,5.4
			C2.9,239.8-31.1,244.1-18.6,238.2z"/>
		<path class="st39" d="M24.1,224.6h7.1v5.8c-2.8,0.8-4.4,0.7-7.1,0V224.6z"/>
		<path class="st35" d="M27.3,156.3c0.2-0.5,0.9-0.5,1.1,0l14.1,31.3c0.2,0.4-0.1,0.8-0.5,0.8h-3.5c-0.4,0-0.7,0.5-0.5,0.9l8.1,15
			c0.2,0.4-0.1,0.9-0.5,0.9h-4.8c-0.4,0-0.7,0.5-0.5,0.9l9.1,16.7c0.2,0.3,0,0.8-0.4,0.8c-16.6,3.5-26.1,3.6-42.1,0
			c-0.4-0.1-0.6-0.5-0.4-0.8l9.1-16.8c0.2-0.4-0.1-0.9-0.5-0.9h-4.8c-0.4,0-0.7-0.5-0.5-0.9l8.1-15c0.2-0.4-0.1-0.9-0.5-0.9h-3.5
			c-0.4,0-0.7-0.4-0.5-0.8L27.3,156.3z"/>
		
			<linearGradient id="SVGID_26_" gradientUnits="userSpaceOnUse" x1="16.6074" y1="117.2024" x2="16.6074" y2="186.8674" gradientTransform="matrix(1 0 0 -1 0 342)">
			<stop  offset="0" style="stop-color:#6975A5"/>
			<stop  offset="1" style="stop-color:#6975A5;stop-opacity:0"/>
		</linearGradient>
		<path class="st40" d="M15.6,224.8c0.1,0,0.3-0.1,0.3-0.2l5.8-19.3c0-0.1,0-0.2-0.1-0.3l-3.3-2.7c-0.1-0.1-0.1-0.2-0.1-0.3
			l5.9-13.4c0-0.1,0-0.2-0.1-0.3l-3.2-3.4c-0.1-0.1-0.1-0.2-0.1-0.3l6.2-26.5c0.1-0.3-0.4-0.5-0.5-0.2L13,188
			c-0.1,0.2,0.1,0.4,0.3,0.4h4.5c0.2,0,0.4,0.2,0.3,0.4l-8.6,15.9c-0.1,0.2,0,0.4,0.3,0.4h5.8c0.2,0,0.4,0.2,0.3,0.4l-9.5,17.5
			c-0.1,0.2,0,0.4,0.2,0.4L15.6,224.8z"/>
	</g>
</g>
</svg>
