<svg width="460" height="304" viewBox="0 0 460 304" fill="none" xmlns="http://www.w3.org/2000/svg">
<path d="M152.712 150.9L130.898 138.595L152.712 127.408L173.967 139.154L152.712 150.9Z" fill="#DFF6FF"/>
<path d="M218.154 113.09L196.34 100.784L218.154 89.5978L239.968 101.12L218.154 113.09Z" fill="#DFF6FF"/>
<path d="M174.527 213.992L152.713 201.687L174.527 190.5L196.34 202.023L174.527 213.992Z" fill="#DFF6FF"/>
<path d="M218.154 213.992L196.34 201.687L218.154 190.5L239.968 202.023L218.154 213.992Z" fill="#DFF6FF"/>
<path d="M261.782 213.992L239.968 201.687L261.782 190.5L283.595 202.023L261.782 213.992Z" fill="#DFF6FF"/>
<path d="M283.595 201.24L261.781 188.934L283.595 177.748L305.409 189.27L283.595 201.24Z" fill="#DFF6FF"/>
<path d="M305.409 188.599L283.595 176.294L305.409 165.107L327.222 176.629L305.409 188.599Z" fill="#DFF6FF"/>
<path d="M326.664 177.188L305.409 164.324L326.664 152.019L348.477 163.541L326.664 177.188Z" fill="#DFF6FF"/>
<path d="M327.782 152.019L305.968 138.595L327.782 126.29L349.596 138.93L327.782 152.019Z" fill="#DFF6FF"/>
<path d="M326.663 126.849L305.968 113.984L327.782 101.679L348.477 113.984L326.663 126.849Z" fill="#DFF6FF"/>
<path d="M43.5674 189.423L21.8962 176.961" stroke="url(#paint0_linear)" stroke-width="1.67798" stroke-linecap="round" stroke-linejoin="round"/>
<path d="M65.4953 202.143L43.5676 189.423" stroke="url(#paint1_linear)" stroke-width="1.67798" stroke-linecap="round" stroke-linejoin="round"/>
<path d="M87.0383 214.605L65.4954 202.143" stroke="url(#paint2_linear)" stroke-width="1.67798" stroke-linecap="round" stroke-linejoin="round"/>
<path d="M261.69 290.409L21.3835 151.393" stroke="url(#paint3_linear)" stroke-width="1.67798" stroke-linecap="round" stroke-linejoin="round"/>
<path d="M436.085 189.552L457.884 176.961" stroke="url(#paint4_linear)" stroke-width="1.67798" stroke-linecap="round" stroke-linejoin="round"/>
<path d="M414.286 202.143L436.085 189.552" stroke="url(#paint5_linear)" stroke-width="1.67798" stroke-linecap="round" stroke-linejoin="round"/>
<path d="M392.358 214.862L414.286 202.143" stroke="url(#paint6_linear)" stroke-width="1.67798" stroke-linecap="round" stroke-linejoin="round"/>
<path d="M370.687 227.454L392.358 214.862" stroke="url(#paint7_linear)" stroke-width="1.67798" stroke-linecap="round" stroke-linejoin="round"/>
<path d="M348.76 240.044L370.687 227.453" stroke="url(#paint8_linear)" stroke-width="1.67798" stroke-linecap="round" stroke-linejoin="round"/>
<path d="M326.96 252.636L348.759 240.045" stroke="url(#paint9_linear)" stroke-width="1.67798" stroke-linecap="round" stroke-linejoin="round"/>
<path d="M305.289 265.227L326.96 252.636" stroke="url(#paint10_linear)" stroke-width="1.67798" stroke-linecap="round" stroke-linejoin="round"/>
<path d="M283.618 277.689L305.289 265.227" stroke="url(#paint11_linear)" stroke-width="1.67798" stroke-linecap="round" stroke-linejoin="round"/>
<path d="M261.69 290.409L283.618 277.689" stroke="url(#paint12_linear)" stroke-width="1.67798" stroke-linecap="round" stroke-linejoin="round"/>
<path d="M240.019 303L261.69 290.409" stroke="url(#paint13_linear)" stroke-width="1.67798" stroke-linecap="round" stroke-linejoin="round"/>
<path d="M239.891 303L87.0386 214.605" stroke="url(#paint14_linear)" stroke-width="1.67798" stroke-linecap="round" stroke-linejoin="round"/>
<path d="M283.617 277.818L43.3105 138.802" stroke="url(#paint15_linear)" stroke-width="1.67798" stroke-linecap="round" stroke-linejoin="round"/>
<path d="M305.29 265.227L65.2395 126.339" stroke="url(#paint16_linear)" stroke-width="1.67798" stroke-linecap="round" stroke-linejoin="round"/>
<path d="M327.089 252.507L87.0386 113.748" stroke="url(#paint17_linear)" stroke-width="1.67798" stroke-linecap="round" stroke-linejoin="round"/>
<path d="M348.888 239.916L108.966 101.157" stroke="url(#paint18_linear)" stroke-width="1.67798" stroke-linecap="round" stroke-linejoin="round"/>
<path d="M370.687 227.325L130.894 88.6945" stroke="url(#paint19_linear)" stroke-width="1.67798" stroke-linecap="round" stroke-linejoin="round"/>
<path d="M392.486 214.734L152.693 76.1036" stroke="url(#paint20_linear)" stroke-width="1.67798" stroke-linecap="round" stroke-linejoin="round"/>
<path d="M458.664 151.459L239.891 25.6105" stroke="url(#paint21_linear)" stroke-width="1.67798" stroke-linecap="round" stroke-linejoin="round"/>
<path d="M457.884 176.961L218.091 38.2018" stroke="url(#paint22_linear)" stroke-width="1.67798" stroke-linecap="round" stroke-linejoin="round"/>
<path d="M436.085 189.552L196.42 50.9213" stroke="url(#paint23_linear)" stroke-width="1.67798" stroke-linecap="round" stroke-linejoin="round"/>
<path d="M414.285 202.143L174.492 63.3839" stroke="url(#paint24_linear)" stroke-width="1.67798" stroke-linecap="round" stroke-linejoin="round"/>
<path d="M87.1665 214.863L327.088 76.1036" stroke="url(#paint25_linear)" stroke-width="1.67798" stroke-linecap="round" stroke-linejoin="round"/>
<path d="M65.4954 202.143L305.289 63.5124" stroke="url(#paint26_linear)" stroke-width="1.67798" stroke-linecap="round" stroke-linejoin="round"/>
<path d="M43.9519 189.423L283.361 50.9213" stroke="url(#paint27_linear)" stroke-width="1.67798" stroke-linecap="round" stroke-linejoin="round"/>
<path d="M21.8962 176.961L261.69 38.2018" stroke="url(#paint28_linear)" stroke-width="1.67798" stroke-linecap="round" stroke-linejoin="round"/>
<path d="M174.621 265.227L414.671 126.339" stroke="url(#paint29_linear)" stroke-width="1.67798" stroke-linecap="round" stroke-linejoin="round"/>
<path d="M152.693 252.636L392.871 113.748" stroke="url(#paint30_linear)" stroke-width="1.67798" stroke-linecap="round" stroke-linejoin="round"/>
<path d="M130.894 240.045L370.815 101.157" stroke="url(#paint31_linear)" stroke-width="1.67798" stroke-linecap="round" stroke-linejoin="round"/>
<path d="M109.094 227.454L348.888 88.6945" stroke="url(#paint32_linear)" stroke-width="1.67798" stroke-linecap="round" stroke-linejoin="round"/>
<path d="M196.42 277.689L436.213 139.059" stroke="url(#paint33_linear)" stroke-width="1.67798" stroke-linecap="round" stroke-linejoin="round"/>
<path d="M218.091 290.409L458.397 151.393" stroke="url(#paint34_linear)" stroke-width="1.67798" stroke-linecap="round" stroke-linejoin="round"/>
<path d="M21.2695 151.459C103.594 103.922 159.489 72.6345 239.89 25.6106" stroke="url(#paint35_linear)" stroke-width="1.67798" stroke-linecap="round" stroke-linejoin="round"/>
<path d="M436.417 50.8962L393.224 26.0753" stroke="url(#paint36_linear)" stroke-width="1.67798" stroke-linecap="round" stroke-linejoin="round"/>
<path d="M414.82 38.5495L458.014 13.555" stroke="url(#paint37_linear)" stroke-width="1.67798" stroke-linecap="round" stroke-linejoin="round"/>
<path d="M436.416 51.0237L457.982 38.5496" stroke="url(#paint38_linear)" stroke-width="1.67798" stroke-linecap="round" stroke-linejoin="round"/>
<path d="M436.292 1L457.953 13.5224" stroke="url(#paint39_linear)" stroke-width="1.67798" stroke-linecap="round" stroke-linejoin="round"/>
<path d="M414.82 13.3468L458.014 38.5009" stroke="url(#paint40_linear)" stroke-width="1.67798" stroke-linecap="round" stroke-linejoin="round"/>
<path d="M393.224 26.0753L436.417 1.08081" stroke="url(#paint41_linear)" stroke-width="1.67798" stroke-linecap="round" stroke-linejoin="round"/>
<path d="M21.5962 296.085L62.7883 272.415" stroke="url(#paint42_linear)" stroke-width="1.60022" stroke-linecap="round" stroke-linejoin="round"/>
<path d="M42.192 284.311L1 260.475" stroke="url(#paint43_linear)" stroke-width="1.60022" stroke-linecap="round" stroke-linejoin="round"/>
<path d="M21.5966 296.207L1.03076 284.311" stroke="url(#paint44_linear)" stroke-width="1.60022" stroke-linecap="round" stroke-linejoin="round"/>
<path d="M21.7169 248.501L1.0603 260.443" stroke="url(#paint45_linear)" stroke-width="1.60022" stroke-linecap="round" stroke-linejoin="round"/>
<path d="M42.192 260.276L1 284.264" stroke="url(#paint46_linear)" stroke-width="1.60022" stroke-linecap="round" stroke-linejoin="round"/>
<path d="M62.7883 272.415L21.5962 248.578" stroke="url(#paint47_linear)" stroke-width="1.60022" stroke-linecap="round" stroke-linejoin="round"/>
<defs>
<linearGradient id="paint0_linear" x1="32.7318" y1="176.961" x2="32.7318" y2="189.423" gradientUnits="userSpaceOnUse">
<stop stop-color="#91E9EE"/>
<stop offset="1" stop-color="#06C1C0"/>
</linearGradient>
<linearGradient id="paint1_linear" x1="54.5315" y1="189.423" x2="54.5315" y2="202.143" gradientUnits="userSpaceOnUse">
<stop stop-color="#91E9EE"/>
<stop offset="1" stop-color="#06C1C0"/>
</linearGradient>
<linearGradient id="paint2_linear" x1="76.2668" y1="202.143" x2="76.2668" y2="214.605" gradientUnits="userSpaceOnUse">
<stop stop-color="#91E9EE"/>
<stop offset="1" stop-color="#06C1C0"/>
</linearGradient>
<linearGradient id="paint3_linear" x1="141.537" y1="151.393" x2="141.537" y2="290.409" gradientUnits="userSpaceOnUse">
<stop stop-color="#91E9EE"/>
<stop offset="1" stop-color="#06C1C0"/>
</linearGradient>
<linearGradient id="paint4_linear" x1="446.985" y1="176.961" x2="446.985" y2="189.552" gradientUnits="userSpaceOnUse">
<stop stop-color="#91E9EE"/>
<stop offset="1" stop-color="#06C1C0"/>
</linearGradient>
<linearGradient id="paint5_linear" x1="425.186" y1="189.552" x2="425.186" y2="202.143" gradientUnits="userSpaceOnUse">
<stop stop-color="#91E9EE"/>
<stop offset="1" stop-color="#06C1C0"/>
</linearGradient>
<linearGradient id="paint6_linear" x1="403.322" y1="202.143" x2="403.322" y2="214.862" gradientUnits="userSpaceOnUse">
<stop stop-color="#91E9EE"/>
<stop offset="1" stop-color="#06C1C0"/>
</linearGradient>
<linearGradient id="paint7_linear" x1="381.523" y1="214.862" x2="381.523" y2="227.454" gradientUnits="userSpaceOnUse">
<stop stop-color="#91E9EE"/>
<stop offset="1" stop-color="#06C1C0"/>
</linearGradient>
<linearGradient id="paint8_linear" x1="359.724" y1="227.453" x2="359.724" y2="240.044" gradientUnits="userSpaceOnUse">
<stop stop-color="#91E9EE"/>
<stop offset="1" stop-color="#06C1C0"/>
</linearGradient>
<linearGradient id="paint9_linear" x1="337.86" y1="240.045" x2="337.86" y2="252.636" gradientUnits="userSpaceOnUse">
<stop stop-color="#91E9EE"/>
<stop offset="1" stop-color="#06C1C0"/>
</linearGradient>
<linearGradient id="paint10_linear" x1="316.124" y1="252.636" x2="316.124" y2="265.227" gradientUnits="userSpaceOnUse">
<stop stop-color="#91E9EE"/>
<stop offset="1" stop-color="#06C1C0"/>
</linearGradient>
<linearGradient id="paint11_linear" x1="294.453" y1="265.227" x2="294.453" y2="277.689" gradientUnits="userSpaceOnUse">
<stop stop-color="#91E9EE"/>
<stop offset="1" stop-color="#06C1C0"/>
</linearGradient>
<linearGradient id="paint12_linear" x1="272.654" y1="277.689" x2="272.654" y2="290.409" gradientUnits="userSpaceOnUse">
<stop stop-color="#91E9EE"/>
<stop offset="1" stop-color="#06C1C0"/>
</linearGradient>
<linearGradient id="paint13_linear" x1="250.854" y1="290.409" x2="250.854" y2="303" gradientUnits="userSpaceOnUse">
<stop stop-color="#91E9EE"/>
<stop offset="1" stop-color="#06C1C0"/>
</linearGradient>
<linearGradient id="paint14_linear" x1="163.465" y1="214.605" x2="163.465" y2="303" gradientUnits="userSpaceOnUse">
<stop stop-color="#91E9EE"/>
<stop offset="1" stop-color="#06C1C0"/>
</linearGradient>
<linearGradient id="paint15_linear" x1="163.464" y1="138.802" x2="163.464" y2="277.818" gradientUnits="userSpaceOnUse">
<stop stop-color="#91E9EE"/>
<stop offset="1" stop-color="#06C1C0"/>
</linearGradient>
<linearGradient id="paint16_linear" x1="185.265" y1="126.339" x2="185.265" y2="265.227" gradientUnits="userSpaceOnUse">
<stop stop-color="#91E9EE"/>
<stop offset="1" stop-color="#06C1C0"/>
</linearGradient>
<linearGradient id="paint17_linear" x1="207.064" y1="113.748" x2="207.064" y2="252.507" gradientUnits="userSpaceOnUse">
<stop stop-color="#91E9EE"/>
<stop offset="1" stop-color="#06C1C0"/>
</linearGradient>
<linearGradient id="paint18_linear" x1="228.927" y1="101.157" x2="228.927" y2="239.916" gradientUnits="userSpaceOnUse">
<stop stop-color="#91E9EE"/>
<stop offset="1" stop-color="#06C1C0"/>
</linearGradient>
<linearGradient id="paint19_linear" x1="250.79" y1="88.6945" x2="250.79" y2="227.325" gradientUnits="userSpaceOnUse">
<stop stop-color="#91E9EE"/>
<stop offset="1" stop-color="#06C1C0"/>
</linearGradient>
<linearGradient id="paint20_linear" x1="272.589" y1="76.1036" x2="272.589" y2="214.734" gradientUnits="userSpaceOnUse">
<stop stop-color="#91E9EE"/>
<stop offset="1" stop-color="#06C1C0"/>
</linearGradient>
<linearGradient id="paint21_linear" x1="359.787" y1="25.6105" x2="359.787" y2="164.37" gradientUnits="userSpaceOnUse">
<stop stop-color="#91E9EE"/>
<stop offset="1" stop-color="#06C1C0"/>
</linearGradient>
<linearGradient id="paint22_linear" x1="337.988" y1="38.2018" x2="337.988" y2="176.961" gradientUnits="userSpaceOnUse">
<stop stop-color="#91E9EE"/>
<stop offset="1" stop-color="#06C1C0"/>
</linearGradient>
<linearGradient id="paint23_linear" x1="316.252" y1="50.9213" x2="316.252" y2="189.552" gradientUnits="userSpaceOnUse">
<stop stop-color="#91E9EE"/>
<stop offset="1" stop-color="#06C1C0"/>
</linearGradient>
<linearGradient id="paint24_linear" x1="294.388" y1="63.3839" x2="294.388" y2="202.143" gradientUnits="userSpaceOnUse">
<stop stop-color="#91E9EE"/>
<stop offset="1" stop-color="#06C1C0"/>
</linearGradient>
<linearGradient id="paint25_linear" x1="207.127" y1="76.1036" x2="207.127" y2="214.863" gradientUnits="userSpaceOnUse">
<stop stop-color="#91E9EE"/>
<stop offset="1" stop-color="#06C1C0"/>
</linearGradient>
<linearGradient id="paint26_linear" x1="185.392" y1="63.5124" x2="185.392" y2="202.143" gradientUnits="userSpaceOnUse">
<stop stop-color="#91E9EE"/>
<stop offset="1" stop-color="#06C1C0"/>
</linearGradient>
<linearGradient id="paint27_linear" x1="163.656" y1="50.9213" x2="163.656" y2="189.423" gradientUnits="userSpaceOnUse">
<stop stop-color="#91E9EE"/>
<stop offset="1" stop-color="#06C1C0"/>
</linearGradient>
<linearGradient id="paint28_linear" x1="141.793" y1="38.2018" x2="141.793" y2="176.961" gradientUnits="userSpaceOnUse">
<stop stop-color="#91E9EE"/>
<stop offset="1" stop-color="#06C1C0"/>
</linearGradient>
<linearGradient id="paint29_linear" x1="294.646" y1="126.339" x2="294.646" y2="265.227" gradientUnits="userSpaceOnUse">
<stop stop-color="#91E9EE"/>
<stop offset="1" stop-color="#06C1C0"/>
</linearGradient>
<linearGradient id="paint30_linear" x1="272.782" y1="113.748" x2="272.782" y2="252.636" gradientUnits="userSpaceOnUse">
<stop stop-color="#91E9EE"/>
<stop offset="1" stop-color="#06C1C0"/>
</linearGradient>
<linearGradient id="paint31_linear" x1="250.854" y1="101.157" x2="250.854" y2="240.045" gradientUnits="userSpaceOnUse">
<stop stop-color="#91E9EE"/>
<stop offset="1" stop-color="#06C1C0"/>
</linearGradient>
<linearGradient id="paint32_linear" x1="228.991" y1="88.6945" x2="228.991" y2="227.454" gradientUnits="userSpaceOnUse">
<stop stop-color="#91E9EE"/>
<stop offset="1" stop-color="#06C1C0"/>
</linearGradient>
<linearGradient id="paint33_linear" x1="316.316" y1="139.059" x2="316.316" y2="277.689" gradientUnits="userSpaceOnUse">
<stop stop-color="#91E9EE"/>
<stop offset="1" stop-color="#06C1C0"/>
</linearGradient>
<linearGradient id="paint34_linear" x1="338.244" y1="151.393" x2="338.244" y2="290.409" gradientUnits="userSpaceOnUse">
<stop stop-color="#91E9EE"/>
<stop offset="1" stop-color="#06C1C0"/>
</linearGradient>
<linearGradient id="paint35_linear" x1="119.673" y1="25.6106" x2="119.673" y2="164.113" gradientUnits="userSpaceOnUse">
<stop stop-color="#91E9EE"/>
<stop offset="1" stop-color="#06C1C0"/>
</linearGradient>
<linearGradient id="paint36_linear" x1="414.821" y1="26.0753" x2="414.821" y2="50.8962" gradientUnits="userSpaceOnUse">
<stop stop-color="#91E9EE"/>
<stop offset="1" stop-color="#06C1C0"/>
</linearGradient>
<linearGradient id="paint37_linear" x1="436.417" y1="13.555" x2="436.417" y2="38.5495" gradientUnits="userSpaceOnUse">
<stop stop-color="#91E9EE"/>
<stop offset="1" stop-color="#06C1C0"/>
</linearGradient>
<linearGradient id="paint38_linear" x1="447.199" y1="38.5496" x2="447.199" y2="51.0237" gradientUnits="userSpaceOnUse">
<stop stop-color="#91E9EE"/>
<stop offset="1" stop-color="#06C1C0"/>
</linearGradient>
<linearGradient id="paint39_linear" x1="447.122" y1="1" x2="447.122" y2="13.5224" gradientUnits="userSpaceOnUse">
<stop stop-color="#91E9EE"/>
<stop offset="1" stop-color="#06C1C0"/>
</linearGradient>
<linearGradient id="paint40_linear" x1="436.417" y1="13.3468" x2="436.417" y2="38.5009" gradientUnits="userSpaceOnUse">
<stop stop-color="#91E9EE"/>
<stop offset="1" stop-color="#06C1C0"/>
</linearGradient>
<linearGradient id="paint41_linear" x1="414.821" y1="1.08081" x2="414.821" y2="26.0753" gradientUnits="userSpaceOnUse">
<stop stop-color="#91E9EE"/>
<stop offset="1" stop-color="#06C1C0"/>
</linearGradient>
<linearGradient id="paint42_linear" x1="42.1922" y1="272.415" x2="42.1922" y2="296.085" gradientUnits="userSpaceOnUse">
<stop stop-color="#91E9EE"/>
<stop offset="1" stop-color="#06C1C0"/>
</linearGradient>
<linearGradient id="paint43_linear" x1="21.596" y1="260.475" x2="21.596" y2="284.311" gradientUnits="userSpaceOnUse">
<stop stop-color="#91E9EE"/>
<stop offset="1" stop-color="#06C1C0"/>
</linearGradient>
<linearGradient id="paint44_linear" x1="11.3137" y1="284.311" x2="11.3137" y2="296.207" gradientUnits="userSpaceOnUse">
<stop stop-color="#91E9EE"/>
<stop offset="1" stop-color="#06C1C0"/>
</linearGradient>
<linearGradient id="paint45_linear" x1="11.3886" y1="248.501" x2="11.3886" y2="260.443" gradientUnits="userSpaceOnUse">
<stop stop-color="#91E9EE"/>
<stop offset="1" stop-color="#06C1C0"/>
</linearGradient>
<linearGradient id="paint46_linear" x1="21.596" y1="260.276" x2="21.596" y2="284.264" gradientUnits="userSpaceOnUse">
<stop stop-color="#91E9EE"/>
<stop offset="1" stop-color="#06C1C0"/>
</linearGradient>
<linearGradient id="paint47_linear" x1="42.1922" y1="248.578" x2="42.1922" y2="272.415" gradientUnits="userSpaceOnUse">
<stop stop-color="#91E9EE"/>
<stop offset="1" stop-color="#06C1C0"/>
</linearGradient>
</defs>
</svg>
