<svg width="496" height="484" viewBox="0 0 496 484" fill="none" xmlns="http://www.w3.org/2000/svg">
<path d="M162.083 320.859C162.083 320.859 170.715 349.096 167.919 362.345C164.31 379.442 153.29 387.102 142.787 394.979M271.793 395.741C259.039 391.99 243.689 383.726 242.563 364.971C241.51 347.414 247.065 321.46 247.065 321.46" stroke="url(#paint0_linear)" stroke-width="1.5"/>
<path d="M115.78 276.448C114.127 263.031 120.463 251.408 133.035 246.44C139.444 276.888 146.41 298.22 146.41 298.22C138.908 297.095 132.285 298.954 124.032 293.327C118.781 289.747 116.677 283.73 115.78 276.448Z" stroke="url(#paint1_linear)" stroke-width="1.5"/>
<path d="M133.41 261.069C132.745 256.634 129.579 254.318 125.158 255.067C120.737 255.816 120.657 265.195 120.657 270.821C120.657 276.448 120.119 286.709 125.158 286.951C128.816 287.126 131.607 283.331 132.66 279.824C133.712 276.316 134.535 268.571 133.41 261.069Z" stroke="url(#paint2_linear)" stroke-width="1.5"/>
<path d="M120.657 282.45C124.032 282.59 126.738 276.274 126.738 270.451C126.738 266.695 125.908 257.793 122.157 258.068C118.406 258.343 116.155 264.445 115.861 269.701C115.585 274.617 115.737 282.245 120.657 282.45Z" stroke="url(#paint3_linear)" stroke-width="1.5"/>
<path d="M175.796 327.086C149.539 324.169 139.941 282.596 133.785 251.316C127.392 218.834 125.533 186.424 133.785 166.544C146.779 135.239 175.796 131.285 203.553 131.285C231.31 131.285 267.332 139.36 272.946 166.544C280.073 201.053 278.092 222.132 270.696 251.316C262.657 283.037 260.943 321.573 236.187 327.086C227.559 329.007 216.525 326.153 203.553 325.961C192.69 325.8 192.675 328.962 175.796 327.086Z" stroke="url(#paint4_linear)" stroke-width="1.5"/>
<path d="M288.326 276.448C289.979 263.031 283.93 252.251 271.358 247.284C265.549 277.291 263.957 282.548 260.038 298.656C267.54 297.531 271.821 298.954 280.074 293.327C285.325 289.747 287.429 283.73 288.326 276.448Z" stroke="url(#paint5_linear)" stroke-width="1.5"/>
<path d="M270.696 261.069C271.361 256.634 274.527 254.318 278.948 255.067C283.369 255.816 283.449 265.195 283.449 270.821C283.449 276.448 283.987 286.709 278.948 286.951C275.29 287.126 272.499 283.331 271.446 279.824C270.394 276.316 269.571 268.571 270.696 261.069Z" stroke="url(#paint6_linear)" stroke-width="1.5"/>
<path d="M283.449 282.449C280.074 282.59 277.368 276.274 277.368 270.451C277.368 266.695 278.198 257.793 281.949 258.068C285.7 258.343 287.951 264.445 288.245 269.7C288.521 274.617 288.369 282.245 283.449 282.449Z" stroke="url(#paint7_linear)" stroke-width="1.5"/>
<path d="M203.553 325.961C192.69 325.8 192.675 328.962 175.796 327.086C149.539 324.169 139.941 282.596 133.785 251.316C127.392 218.834 125.533 186.424 133.785 166.544C146.779 135.239 175.796 131.285 203.553 131.285M203.553 325.961V131.285M203.553 325.961C208.565 326.035 213.288 326.507 217.694 326.947C224.692 327.646 231.643 328.265 236.937 327.086C256.599 322.708 260.976 297.5 266.281 271.419C267.655 264.661 269.042 257.844 270.696 251.316C278.092 222.132 280.073 201.053 272.946 166.544C267.332 139.36 231.31 131.285 203.553 131.285" stroke="url(#paint8_linear)" stroke-width="1.5"/>
<path d="M395.435 367.007C395.435 367.007 424.377 337.815 431.989 313.207C439.824 287.878 436.311 271.474 431.989 245.315C425.909 208.516 395.229 157.166 395.229 157.166L435.365 132.41C435.365 132.41 468.028 188.853 480.001 228.435C488.261 255.74 493.342 271.567 494.255 300.079C495.173 328.737 493.278 345.552 484.503 372.848C477.525 394.553 461.174 422.733 461.174 422.733" stroke="url(#paint9_linear)" stroke-width="1.5"/>
<path d="M195.17 377.456C195.17 377.456 194.007 355.688 206.054 355.688C218.101 355.688 217.373 377.456 217.373 377.456M1 482.377C1 482.377 4.14993 439.906 22.7557 421.236C33.5036 410.451 47.8873 399.715 55.7644 398.73C76.7699 396.104 101.151 397.23 105.277 397.23C109.404 397.23 128.909 397.23 142.037 394.979C149.801 393.648 155.916 417.86 202.428 417.86C256.067 417.86 249.114 398.355 266.57 396.104C280.449 394.315 293.202 401.717 325.085 397.23C354.557 393.082 377.224 377.724 394.854 367.222C404.231 379.225 447.367 404.356 461.246 423.111C451.118 442.241 441.759 453.434 423.361 466.248C411.588 474.447 390.352 482.377 390.352 482.377H1Z" stroke="url(#paint10_linear)" stroke-width="1.5"/>
<path d="M169.044 244.564C195.676 235.562 192.675 212.306 203.553 212.306C214.431 212.306 221.823 237.532 235.062 244.564C247.065 250.941 269.946 255.715 275.947 249.441C279.176 246.065 279.698 238.188 279.698 234.437L275.947 234.812C274.072 227.31 285.325 184.549 274.072 163.543C260.114 137.489 249.315 128.563 203.553 128.659C157.791 128.755 143.537 144.788 132.66 163.543C121.782 182.298 130.784 222.058 129.284 234.812L125.158 234.437C125.158 234.437 122.853 247.289 128.534 250.941C139.036 257.693 154.854 249.361 169.044 244.564Z" stroke="url(#paint11_linear)" stroke-width="1.5"/>
<path d="M143.162 203.303C135.66 200.995 133.035 188.675 133.035 178.172C133.035 167.669 139.568 159.807 149.539 151.165C159.51 142.523 179.044 142.187 203.178 141.412C223.738 140.752 238.812 138.399 254.942 151.165C265.01 159.134 272.614 165.377 273.697 178.172C274.572 188.512 273.617 200.71 263.569 203.303C251.941 206.304 227.458 196.892 203.178 197.302C179.852 197.695 159.667 208.382 143.162 203.303Z" stroke="url(#paint12_linear)" stroke-width="1.5"/>
<path d="M139.036 182.298C138.809 173.106 143.031 166.187 150.289 160.542C163.793 150.039 183.298 150.039 204.679 150.039C224.468 150.039 239.219 151.059 253.441 160.542C257.943 163.543 267.376 173.113 266.945 182.298C266.65 188.583 266.079 191.312 261.319 195.426C253.782 201.939 240.313 197.677 233.561 195.426C222.66 191.792 216.166 189.5 204.679 189.8C192.567 190.116 182.789 191.594 171.295 195.426C166.794 196.927 152.395 204.134 144.288 195.426C140.08 190.907 139.189 188.471 139.036 182.298Z" stroke="url(#paint13_linear)" stroke-width="1.5"/>
<path d="M88.7732 0L141.662 189.8L265.07 189.8L311.207 0L88.7732 0Z" fill="url(#paint14_radial)" fill-opacity="0.78"/>
<path d="M195.676 234.437C194.551 233.311 196.802 225.434 198.677 225.81C200.553 226.185 201.303 228.81 200.178 231.061C199.24 232.937 196.802 235.562 195.676 234.437Z" stroke="url(#paint15_linear)" stroke-width="1.5"/>
<path d="M211.584 234.45C212.709 233.324 210.458 225.447 208.583 225.822C206.708 226.198 205.957 228.823 207.083 231.074C208.021 232.95 210.459 235.575 211.584 234.45Z" stroke="url(#paint16_linear)" stroke-width="1.5"/>
<path d="M335.355 77.9291C335.355 77.9291 329.212 67.8929 323.585 62.2664C315.455 54.1361 310.775 48.3679 301.454 41.636C294.702 36.7597 282.902 33.3838 283.45 26.2569C283.702 22.9747 283.837 20.3812 286.45 18.3798C289.064 16.3784 293.952 17.6596 296.203 18.3798C301.751 20.1552 309.967 25.8702 318.726 32.2165" stroke="url(#paint17_linear)" stroke-width="1.5"/>
<path d="M348.851 59.6441C348.851 59.6441 349.872 58.0292 345.341 49.8882C343.879 47.2625 340.464 42.7485 338.589 39.0103C333.578 37.6741 327.4 41.1906 323.585 39.0103C319.769 36.83 318.268 33.255 318.709 28.8826C319.035 25.6465 322.242 24.0855 325.085 22.506C328.461 20.6305 329.696 20.4619 334.049 20.8972" stroke="url(#paint18_linear)" stroke-width="1.5"/>
<path d="M371.925 56.1613C371.925 56.1613 368.972 45.387 362.97 38.2602C360.875 35.7723 360.345 33.759 354.718 32.2586C349.707 30.9224 344.655 32.1883 340.839 30.008C337.024 27.8277 333.647 25.378 334.088 21.0056C334.414 17.7695 335.746 16.2084 338.589 14.6289C341.965 12.7535 350.177 11.8753 358.429 12.6255" stroke="url(#paint19_linear)" stroke-width="1.5"/>
<path d="M385.476 48.3878C385.476 48.3878 383.28 37.683 377.599 32.6336C374.223 29.6328 374.016 29.6785 369.722 27.3822C365.687 25.2242 357.674 23.6945 357.344 19.1301C357.208 17.2546 357.405 13.698 359.969 11.253C364.731 6.7131 369.234 7.92091 375.724 9.00241C380.225 9.75258 390.38 18.4163 397.854 26.6321C409.505 39.4386 415.778 47.7967 421.486 64.1419C427.171 80.4221 424.862 104.278 427.487 109.529C430.113 114.78 438.283 119.657 438.74 123.783C439.237 128.268 435.364 133.16 435.364 133.16C435.364 133.16 411.358 151.54 397.104 158.292C386.226 156.041 384.554 143.667 376.474 138.787C372.143 136.171 364.471 133.91 364.471 133.91C364.471 133.91 343.84 128.659 335.213 122.657C326.142 116.347 316.557 109.154 313.082 105.028C307.791 98.744 299.579 91.149 297.328 91.149C297.328 87.0229 297.636 85.2959 298.453 84.3973C302.204 80.2711 315.192 82.2385 321.334 87.0229C325.661 90.3934 324.929 95.859 330.337 96.7755C334.665 97.5091 338.964 92.6495 338.964 92.6495L335.213 78.0206" stroke="url(#paint20_linear)" stroke-width="1.5"/>
<defs>
<linearGradient id="paint0_linear" x1="206.93" y1="338.59" x2="206.93" y2="395.741" gradientUnits="userSpaceOnUse">
<stop stop-color="#91E9EE"/>
<stop offset="1" stop-color="#06C1C0"/>
</linearGradient>
<linearGradient id="paint1_linear" x1="130.88" y1="258.701" x2="130.88" y2="298.22" gradientUnits="userSpaceOnUse">
<stop stop-color="#91E9EE"/>
<stop offset="1" stop-color="#06C1C0"/>
</linearGradient>
<linearGradient id="paint2_linear" x1="127.258" y1="262.512" x2="127.258" y2="286.956" gradientUnits="userSpaceOnUse">
<stop stop-color="#91E9EE"/>
<stop offset="1" stop-color="#06C1C0"/>
</linearGradient>
<linearGradient id="paint3_linear" x1="121.228" y1="263.837" x2="121.228" y2="282.452" gradientUnits="userSpaceOnUse">
<stop stop-color="#91E9EE"/>
<stop offset="1" stop-color="#06C1C0"/>
</linearGradient>
<linearGradient id="paint4_linear" x1="202.411" y1="177.806" x2="202.411" y2="327.748" gradientUnits="userSpaceOnUse">
<stop stop-color="#91E9EE"/>
<stop offset="1" stop-color="#06C1C0"/>
</linearGradient>
<linearGradient id="paint5_linear" x1="274.395" y1="259.448" x2="274.395" y2="298.656" gradientUnits="userSpaceOnUse">
<stop stop-color="#91E9EE"/>
<stop offset="1" stop-color="#06C1C0"/>
</linearGradient>
<linearGradient id="paint6_linear" x1="276.848" y1="262.512" x2="276.848" y2="286.956" gradientUnits="userSpaceOnUse">
<stop stop-color="#91E9EE"/>
<stop offset="1" stop-color="#06C1C0"/>
</linearGradient>
<linearGradient id="paint7_linear" x1="282.878" y1="263.837" x2="282.878" y2="282.452" gradientUnits="userSpaceOnUse">
<stop stop-color="#91E9EE"/>
<stop offset="1" stop-color="#06C1C0"/>
</linearGradient>
<linearGradient id="paint8_linear" x1="202.411" y1="177.806" x2="202.411" y2="327.748" gradientUnits="userSpaceOnUse">
<stop stop-color="#91E9EE"/>
<stop offset="1" stop-color="#06C1C0"/>
</linearGradient>
<linearGradient id="paint9_linear" x1="444.57" y1="201.156" x2="444.57" y2="422.733" gradientUnits="userSpaceOnUse">
<stop stop-color="#91E9EE"/>
<stop offset="1" stop-color="#06C1C0"/>
</linearGradient>
<linearGradient id="paint10_linear" x1="229.84" y1="385.687" x2="229.84" y2="482.377" gradientUnits="userSpaceOnUse">
<stop stop-color="#91E9EE"/>
<stop offset="1" stop-color="#06C1C0"/>
</linearGradient>
<linearGradient id="paint11_linear" x1="201.765" y1="158.214" x2="201.765" y2="253.478" gradientUnits="userSpaceOnUse">
<stop stop-color="#91E9EE"/>
<stop offset="1" stop-color="#06C1C0"/>
</linearGradient>
<linearGradient id="paint12_linear" x1="203.099" y1="155.931" x2="203.099" y2="204.67" gradientUnits="userSpaceOnUse">
<stop stop-color="#91E9EE"/>
<stop offset="1" stop-color="#06C1C0"/>
</linearGradient>
<linearGradient id="paint13_linear" x1="202.637" y1="161.787" x2="202.637" y2="199.652" gradientUnits="userSpaceOnUse">
<stop stop-color="#91E9EE"/>
<stop offset="1" stop-color="#06C1C0"/>
</linearGradient>
<radialGradient id="paint14_radial" cx="0" cy="0" r="1" gradientUnits="userSpaceOnUse" gradientTransform="translate(204.304 442.992) rotate(-89.9984) scale(445.622 592.087)">
<stop offset="0.586244" stop-color="#FFF8AA" stop-opacity="0"/>
<stop offset="0.802156" stop-color="#FFFBD0" stop-opacity="0.28"/>
<stop offset="0.9999" stop-color="#FFF8AA" stop-opacity="0"/>
<stop offset="1" stop-color="#FFF8AA" stop-opacity="0"/>
</radialGradient>
<linearGradient id="paint15_linear" x1="198.026" y1="227.907" x2="198.026" y2="234.708" gradientUnits="userSpaceOnUse">
<stop stop-color="#91E9EE"/>
<stop offset="1" stop-color="#06C1C0"/>
</linearGradient>
<linearGradient id="paint16_linear" x1="209.235" y1="227.92" x2="209.235" y2="234.721" gradientUnits="userSpaceOnUse">
<stop stop-color="#91E9EE"/>
<stop offset="1" stop-color="#06C1C0"/>
</linearGradient>
<linearGradient id="paint17_linear" x1="309.248" y1="31.6624" x2="309.248" y2="77.9292" gradientUnits="userSpaceOnUse">
<stop stop-color="#91E9EE"/>
<stop offset="1" stop-color="#06C1C0"/>
</linearGradient>
<linearGradient id="paint18_linear" x1="333.708" y1="29.9199" x2="333.708" y2="59.6441" gradientUnits="userSpaceOnUse">
<stop stop-color="#91E9EE"/>
<stop offset="1" stop-color="#06C1C0"/>
</linearGradient>
<linearGradient id="paint19_linear" x1="352.881" y1="22.7303" x2="352.881" y2="56.1613" gradientUnits="userSpaceOnUse">
<stop stop-color="#91E9EE"/>
<stop offset="1" stop-color="#06C1C0"/>
</linearGradient>
<linearGradient id="paint20_linear" x1="367.662" y1="43.5886" x2="367.662" y2="158.292" gradientUnits="userSpaceOnUse">
<stop stop-color="#91E9EE"/>
<stop offset="1" stop-color="#06C1C0"/>
</linearGradient>
</defs>
</svg>
