<?xml version="1.0" encoding="UTF-8"?>
<svg version="1.1" xmlns="http://www.w3.org/2000/svg" xmlns:xlink="http://www.w3.org/1999/xlink">
<defs>

</defs>
<symbol id="i-fb" viewBox="0 0 33 33" fill="none" xmlns="http://www.w3.org/2000/svg"><path d="M32.757 5.5c0-2.89-2.59-5.5-5.46-5.5H5.46C2.59 0 0 2.61 0 5.5v22C0 30.39 2.59 33 5.46 33h10.918V20.533h-4.003v-5.5h4.003V12.89c0-3.695 2.755-7.023 6.142-7.023h4.413v5.5H22.52c-.483 0-1.046.59-1.046 1.475v2.191h5.46v5.5h-5.46V33h5.823c2.87 0 5.46-2.61 5.46-5.5v-22z" fill="#0DEFE1"/></symbol>
<symbol id="i-insta" viewBox="0 0 33 33" fill="none" xmlns="http://www.w3.org/2000/svg"><path d="M23.942 0H8.864C3.976 0 0 4 0 8.917v15.167C0 29 3.976 33 8.864 33h15.078c4.888 0 8.864-4 8.864-8.916V8.917C32.806 4 28.83 0 23.942 0zm6.214 24.084c0 3.446-2.788 6.25-6.214 6.25H8.864c-3.426 0-6.214-2.804-6.214-6.25V8.917c0-3.447 2.788-6.251 6.214-6.251h15.078c3.426 0 6.214 2.804 6.214 6.25v15.168z" fill="#0DEFE1"/><path d="M23.746 15.349a7.364 7.364 0 00-2.075-4.147 7.29 7.29 0 00-4.123-2.088 7.309 7.309 0 00-2.158 0 7.301 7.301 0 00-4.83 2.912 7.384 7.384 0 00-1.368 5.494 7.36 7.36 0 002.895 4.858 7.273 7.273 0 005.461 1.376 7.3 7.3 0 004.83-2.912 7.383 7.383 0 001.368-5.493zm-6.586 5.768a4.653 4.653 0 01-3.494-.88 4.707 4.707 0 01-1.852-3.108 4.723 4.723 0 01.876-3.515 4.67 4.67 0 013.78-1.914 4.693 4.693 0 014.655 4.04c.38 2.582-1.399 4.994-3.965 5.377zM25.633 7.216a1.33 1.33 0 00-.937-.39 1.33 1.33 0 00-1.325 1.332 1.33 1.33 0 001.325 1.333 1.33 1.33 0 001.326-1.333c0-.35-.142-.694-.389-.942z" fill="#0DEFE1"/></symbol>
<symbol id="i-medium" viewBox="0 0 44 33" fill="none" xmlns="http://www.w3.org/2000/svg"><path d="M43.746 4.715h-2.413c-.629 0-2.274.687-2.274 1.271V27.22c0 .586 1.645 1.067 2.274 1.067h2.413V33H28.123v-4.714h3.125v-22h-.544L23.184 33H17.36L9.937 6.285h-.563v22h3.124V33H0v-4.714h1.733c.681 0 1.391-.48 1.391-1.067V5.986c0-.585-.71-1.271-1.39-1.271H0V0h16.198l5.288 18.857h.143L26.969 0h16.777v4.715z" fill="#0DEFE1"/></symbol>
<symbol id="i-twitter" viewBox="0 0 35 30" fill="none" xmlns="http://www.w3.org/2000/svg"><path d="M34.932 4.067c-1.286.58-2.665.973-4.115 1.148a7.301 7.301 0 003.15-4.032 14.295 14.295 0 01-4.553 1.77A7.089 7.089 0 0024.184.65c-3.958 0-7.167 3.266-7.167 7.29 0 .572.064 1.13.186 1.662-5.955-.304-11.235-3.207-14.77-7.619a7.335 7.335 0 00-.968 3.665 7.323 7.323 0 003.187 6.069 7.072 7.072 0 01-3.246-.915v.09c0 3.533 2.47 6.48 5.747 7.151a7.14 7.14 0 01-1.888.256c-.463 0-.91-.047-1.349-.136.912 2.9 3.558 5.007 6.693 5.065a14.22 14.22 0 01-8.9 3.116c-.578 0-1.148-.035-1.709-.1a20.002 20.002 0 0010.984 3.281c13.182 0 20.388-11.11 20.388-20.747l-.024-.944a14.451 14.451 0 003.584-3.767z" fill="#0DEFE1"/></symbol>
</svg>