<svg xmlns="http://www.w3.org/2000/svg" xmlns:xlink="http://www.w3.org/1999/xlink" width="700" height="321" fill="none"><path d="M105.983 193.075V175.86h7.426v17.216h-7.426z" stroke="url(#B)"/><path d="M121.85 193.075V175.86h7.426v17.216h-7.426z" stroke="url(#C)"/><use xlink:href="#X" stroke="url(#D)"/><use xlink:href="#X" x="15.867" stroke="url(#E)"/><path d="M160.668 162.02v-17.216h7.427v17.216h-7.427z" stroke="url(#F)"/><path d="M176.534 162.02v-17.216h7.427v17.216h-7.427z" stroke="url(#G)"/><path d="M160.668 193.075V175.86h7.427v17.216h-7.427z" stroke="url(#H)"/><path d="M176.534 193.075V175.86h7.427v17.216h-7.427z" stroke="url(#I)"/><path d="M160.668 226.156V208.94h7.427v17.216h-7.427z" stroke="url(#J)"/><path d="M176.534 226.156V208.94h7.427v17.216h-7.427z" stroke="url(#K)"/><path d="M160.668 257.212v-17.215h7.427v17.215h-7.427z" stroke="url(#L)"/><path d="M176.534 257.212v-17.215h7.427v17.215h-7.427z" stroke="url(#M)"/><path d="M160.668 288.27v-17.216h7.427v17.216h-7.427z" stroke="url(#N)"/><path d="M176.534 288.27v-17.216h7.427v17.216h-7.427z" stroke="url(#O)"/><path d="M105.983 226.156V208.94h7.426v17.216h-7.426z" stroke="url(#P)"/><path d="M121.85 226.156V208.94h7.426v17.216h-7.426z" stroke="url(#Q)"/><use xlink:href="#X" y="97.218" stroke="url(#R)"/><use xlink:href="#X" x="15.867" y="97.218" stroke="url(#S)"/><use xlink:href="#X" y="128.274" stroke="url(#R)"/><use xlink:href="#X" x="15.867" y="128.274" stroke="url(#S)"/><path d="M79.315 320v-80.34H59.06M79.315 320H38.807v-80.34H59.06M79.315 320h18.23M59.06 239.66v-60.424h38.483m0 0V137.04h36.794m-36.794 42.196V264.3m0 55.7h36.794m-36.794 0v-22.955m36.794-160.006v-22.28h-21.604l-3.713-10.802m25.317 33.08V320m21.942-182.96v-22.28h22.28l2.994-10.802m-25.274 33.08h36.12v62.45m-36.12-62.45V320m36.12 0h-36.12m36.12 0h28.355m-28.355 0v-22.955M134.338 320h12.153m9.79 0h-9.79m0-205.24V320m-37.47-216.042s17.89-7.427 37.47-7.427 35.063 7.427 35.063 7.427m-72.533 0l-3.713-10.802m76.246 10.802l2.995-10.802m-79.24 0l-3.713-10.802s6.057-5.6 20.254-9.1m-16.54 19.892s16.878-10.802 41.183-10.802 38.058 10.802 38.058 10.802m0 0l3.462-12.5s-4.6-4.896-18.228-7.88m-47.934.477c6.462-1.588 14.6-2.74 24.642-2.725 9.72.014 17.36.95 23.292 2.247m-47.934.477s4.06-7.895 8.44-11.164h13.84m25.655 10.686s-4.8-7.622-9.452-10.686h-13.84m-2.363 0v-8.777h-5.064v-5.4h5.064v-9.114h-5.064v-5.4h5.064V24.63h-3.713v-3.376h3.713V1h2.363v20.254h3.713v3.376h-3.713v8.777h4.726v5.4h-4.726v9.114h4.726v5.4h-4.726V62.1m-2.363 0h2.363m45.91 137.39h28.355V320M192.4 199.49v37.47M220.755 320h32.07l-1.592-22.955m-13.598-92.83h11.814m-11.814 0l.06 15.528m-.06-15.528s-2.693 5.157-6.63 10.802M235.27 320l2.09-57.724m12.086-58.06l-.193 15.528m.193-15.528s2.74 15.095 8.44 22.28m-20.193-6.75h11.56m-11.56 0l-.04 19.916m11.6-19.916l-.038 19.916m-11.56 0h11.56m-11.56 0l-.294 22.617m11.855-22.617l.386 22.617m-12.24 0h12.24m0 0c.264 9.108.665 18.22 1.225 28.018m0 0l.404 6.75m-.404-6.75h-19.824m19.824 0h9.085m-67.513 0v6.75m0-6.75v-53.336m0 53.336h8.1m50.73 6.75H192.4m-94.856-6.75v6.75m0-6.75V264.3m0 25.993h-5.482m-58.993 0v6.75m0-6.75l14.49-4.726m-14.49 4.726h14.49m-14.49 0v-4.726h-7.426v9.452H20.58v-7.427h-6.75v7.427H9.102v-9.452H1V320h5.4s.675-13.165 3.376-13.165S12.815 320 12.815 320h6.414s.675-13.165 3.038-13.165S25.642 320 25.642 320h7.426v-22.955m0 0h64.475m0-32.744l-5.482 2.7M192.4 236.958s3.433-.602 8.1-1.844m20.254-8.62c3.708-2.815 7.322-7.28 10.25-11.477m-10.25 11.477l5.125-5.74m-5.125 5.74c-2.19 1.663-4.898 3.118-7.764 4.374m18.013-15.85v75.277m0-75.277l-5.124 5.738m5.124 69.54h-5.124m0-69.54v69.54m0 0h-12.89m-12.5-55.18v55.18m0-55.18a104.13 104.13 0 0 0 6.414-1.921m-6.414 57.1h6.414m0-57.1v57.1m0-57.1c2.02-.68 4.087-1.454 6.076-2.325m-6.076 59.426h6.076m0-59.426v59.426m-120.93-23.292v23.292m0-23.292l-6.333 3.048m6.333 20.244H85.73m0-20.244v20.244m0-20.244c-5.244 2.493-11.445 5.36-16.878 7.65m16.878 12.594H68.85m0-12.594l-2.7 1.117-5.063 1.964m7.764-3.08v12.594m0 0h-7.764m0-9.513v9.513m0-9.513l-7.09 2.568m7.09 6.945h-7.09m0-6.945v6.945m0-6.945l-6.44 2.22m6.44 4.726h-6.44m0-4.726v4.726m210.33-63.8c3.228 4.068 9.114 8.62 9.114 8.62l-9.114-8.62z" stroke="url(#T)"/><path d="M274.09 282.192l-40.17 23.63m40.17-23.63l-7.427-49.622m7.427 49.622h15.865m-15.865 0l31.73-32.277L317.3 261.62m-83.38 44.203V320h27.68m-27.68-14.177h27.68m256.887 0V320h-29.705m29.705-14.177l-40.508-23.63m40.508 23.63h-29.705m-10.803-23.63l7.09-49.96m-7.09 49.96h-14.346m14.346 0l-31.056-32.277m2.363 32.277l39.496 23.63m-39.496-23.63H439.16m10.127 0l35.782-49.96m-35.782 49.96h14.347m25.15 23.63V320m0-14.177H465.5M488.783 320H465.5m0 0v-14.177m0 14.177h-37.132m37.132-14.177l-33.756-23.63m33.756 23.63h-37.132m3.376-23.63h-27.68m27.68 0h7.426m-35.106 0l24.304 23.63m-24.304-23.63h-13.84m38.145 23.63V320m0-14.177h-25.992M428.358 320h-25.992m-12.153-37.807l12.153 23.63m-12.153-23.63h-29.705m41.858 23.63V320m0-14.177H349.03M402.366 320H349.03m11.478-37.807l-11.478 23.63m11.478-23.63h-13.503m2.025 23.63V320m0-14.177h-24.642M349.03 320h-24.642m22.617-37.807l-22.617 23.63m22.617-23.63h-25.993m3.376 23.63V320m0-14.177H286.58M324.388 320H286.58m0 0v-14.177m0 14.177H261.6m24.98-14.177l34.43-23.63m-34.43 23.63H261.6m59.41-23.63h-10.127m-5.063 0l-44.22 23.63m44.22-23.63h5.063m-5.063 0h-4.388m-39.833 23.63V320m49.284-37.807v-10.127m128.275 10.127v-10.127m0 0c-50.103-3.405-78.145-3.342-128.275 0m128.275 0v-5.063m-128.275 5.063v-10.127l6.414-.32m167.77-29.387l-45.91 34.77m45.91-34.77l-21.435 49.96m21.435-49.96c-14.445 7.808-25.93 13.27-38.145 17.683m-39.157 10.69l31.393 1.334v5.064m-31.393-6.398c15.696-3.355 27.745-6.565 39.157-10.69m-39.157 10.69c-30.83-1.004-55.34-.685-90.468 1.015m-6.75 2.007l-43.884-31.056m0 0l23.292 49.622m-23.292-49.622l34.77 49.622m-11.478 0h11.478" stroke="url(#U)"/><mask id="A" fill="#fff"><path d="M378.736 260.33l-3.376-.078-57.09 1.35c-6.192-6.68-11.168-14.44-14.593-22.955-.755-1.877-1.435-3.79-2.036-5.738-1.282-5.426-3.244-15.802-3.244-21.604a74.49 74.49 0 0 1 .172-5.064 73.06 73.06 0 0 1 2.528-14.69c1.646-5.885 4.01-11.484 6.996-16.704a75.43 75.43 0 0 1 8.659-12.152 76.42 76.42 0 0 1 3.924-4.169 77.68 77.68 0 0 1 3.038-2.838c2.246-1.987 4.613-3.85 7.09-5.572a77.92 77.92 0 0 1 4.388-2.842 78.87 78.87 0 0 1 3.038-1.734c3.55-1.923 7.274-3.584 11.14-4.955a79.02 79.02 0 0 1 10.127-2.846c1.888-.397 3.802-.728 5.74-.99a80.55 80.55 0 0 1 7.764-.666 80.57 80.57 0 0 1 3.038-.057 80.94 80.94 0 0 1 4.447.122c4.126.226 8.165.764 12.093 1.6 4.308.907 8.482 2.16 12.5 3.727 4.126 1.614 8.076 3.562 11.815 5.808 4.62 2.777 8.92 6.012 12.828 9.638 10.048 9.324 17.518 21.24 21.266 34.64a72.65 72.65 0 0 1 1.565 6.855 73.46 73.46 0 0 1 1.136 12.899c0 3.434-.237 6.814-.697 10.126-.83 5.99-2.388 11.758-4.584 17.216-1.862 4.63-4.182 9.035-6.907 13.165-2.288 3.468-4.86 6.74-7.686 9.8l-41.513-.96c-4.576.17-9.147.1-13.553-.313z"/></mask><path d="M378.736 260.33l-.046.497.017.002h.018l.01-.5zm13.553.313l-.01.5h.015l.015-.001-.02-.5zm-19.29-36.85l.07-.495-.07.495zm68.5 28.018l.152.477.622-.2-.355-.548-.42.27zM301.64 232.908l-.468-.177-.158.42.4.203.226-.446zm78.843-96.76l.476-.156-.973.107.497.05zm-7.485 32.96l-.456-.207.456.207zm-20.592 28.018l-.36-.346-.007.007-.006.007.374.332zm-21.604 31.056l-.457-.204.457.204zm23.63 4.726l-.478.146.478-.146zm-14.515-31.056l.482-.134-.482.134zm-3.713-29.03l.5-.012-.5.012zm31.73 46.584l.366-.34-.366.34zM349.368 189.7l.494-.074-.494.074zm29.368 21.605l.397-.305-.397.305zm-16.203-32.407l-.48.14.48-.14zm27.343 12.653l.414-.28-.414.28zm-11.14-22.442l-.472.165.472-.165zm-5.738-33.025l.498-.034-.956-.168.458.202zm79.98 85.347l-.274.42.584-.81-.3.392zm-40.15-31.73l-.362.345.362-.345zm-21.266-27.005l-.434.248.434-.248zm56.83 75.952l-.433.25.884-.464-.45.215zm-12.273-25.655l-.473.162.473-.162zm-6.413-34.094l-.5.036.5-.036zm-3.04 76.852l.112.487-.112-.487zm-8.776-30.268l.49-.09-.49.09zm-1.013-78.208h.5l-1-.002.5.002zm6.414 27.573l-.295.404.295-.404zm-18.23-15.2l.382-.323-.382.323zm-12.5-21.918l.46-.195-.96.167.5.028zm-15.2 63.44l-.042.498.042-.498zm-56.71 0l.416.276-.416-.276zm23.292-26.33l.373.333-.373-.333zm21.267-23.63l-.423-.267.423.267zm12.152 27.68l-.027.5.027-.5zm1.35-19.24l.023-.5-.023.5zm-59.074 16.54l.36.347-.36-.347zm24.305-19.286l.328.377-.328-.377zm23.967 54.393l.477.148-.477-.148zm12.55-24.98l-.457-.203.457.203zm8.043-20.254l.48.136-.48-.136zm4.17 94.556l.02.5-.02-.5zm-.12-43.916l-.486-.115.486.115zm10.127-30.386l.49.098-.49-.098zm2.363-19.242l.5.035-.5-.035zm-85.404 24.468l-.496-.057.496.057zm-.04 33.386l.5-.036-.5.036zm-6.037-35.237l.497.05-.497-.05zm0-18.228l-.48-.138.48.138zm65.14 89.357l13.553.314.023-1-13.553-.313-.023 1zm-77.63-69.278l-.34.368.02.018.054.048.21.188.822.713 3.208 2.6.614-.79-3.173-2.572-.807-.7-.203-.18-.064-.06c-.001 0-.001 0-.34.367zm3.973 3.935l6.482 4.71.563-.827-6.43-4.673-.614.79zm6.482 4.71l6.865 4.405.516-.856-6.818-4.376-.563.827zm6.865 4.405l.07.043.516-.857-.07-.042-.516.856zm.07.043c.006.003.013.007.02.01l.516-.856-.02-.012-.516.857zm.02.01c5.583 3.364 12.37 6.962 20.193 10.207l.383-.924c-7.772-3.223-14.514-6.797-20.06-10.14l-.516.856zm20.193 10.207c2.633 1.092 5.385 2.145 8.248 3.135l.327-.945c-2.843-.983-5.576-2.03-8.192-3.114l-.383.924zm8.248 3.135c5.805 2.01 12.067 3.76 18.734 5.072l.193-.98c-6.618-1.3-12.836-3.04-18.6-5.036l-.327.945zm18.734 5.072a134.12 134.12 0 0 0 5.598.978l.15-.99c-1.88-.287-3.734-.612-5.556-.97l-.193.98zm5.598.978l1.65.242.14-.99-1.637-.24-.15.99zm1.65.242c6.346.89 12.607 1.23 18.665 1.168l-.01-1c-6.014.062-12.224-.277-18.516-1.16l-.14.99zm18.665 1.168l1.446-.022-.02-1-1.436.022.01 1zm1.446-.022c8.694-.18 16.948-1.178 24.4-2.557l-.18-.983c-7.418 1.37-15.618 2.36-24.25 2.54l.02 1zm24.4-2.557l2.358-.453-.196-.98-2.343.45.18.983zm2.358-.453l.362-.073-.198-.98-.36.072.196.98zm.362-.073a174.03 174.03 0 0 0 17.739-4.575l-.3-.954a173.01 173.01 0 0 1-17.636 4.549l.198.98zm17.74-4.575l.37-.118-.303-.953-.37.117.3.954zm.37-.118a166.63 166.63 0 0 0 5.825-1.966l-.337-.94c-1.732.62-3.67 1.28-5.79 1.954l.303.953zm5.825-1.966l.82-.296-.343-.94-.813.294.337.94zm.82-.296c2.84-1.035 5.08-1.945 6.6-2.596l1.75-.766.452-.207.145-.068c.01-.005.01-.005-.205-.456l-.216-.452c-.014.007-.023.012-.036.017-.024.012-.06.03-.11.052l-.44.203-1.73.757a134.83 134.83 0 0 1-6.562 2.577l.343.94zm-143.283 17.51l-.226.446.06.03.172.087.673.337 2.565 1.26.437-.9-2.556-1.255-.67-.334-.17-.086-.043-.022c-.014-.007-.014-.007-.24.44zm3.243 2.158c3.5 1.7 9.4 4.504 16.61 7.654l.4-.917c-7.185-3.143-13.082-5.94-16.573-7.637l-.437.9zm16.61 7.654l4.066 1.755.392-.92-4.057-1.752-.4.917zm4.066 1.755c10.045 4.278 21.98 8.922 33.254 12.203l.28-.96c-11.22-3.265-23.115-7.892-33.142-12.163l-.392.92zm33.254 12.203c2.78.81 5.52 1.536 8.183 2.154l.227-.974c-2.643-.613-5.365-1.335-8.13-2.14l-.28.96zm8.183 2.154c4.128.958 8.075 1.656 11.695 1.994l.093-.995c-3.563-.334-7.464-1.023-11.56-1.973l-.227.974zm13.488-122.684l-.497-.05c-.002.014-.002.023-.004.035l-.01.103-.043.404-.175 1.532a177.87 177.87 0 0 1-.734 5.406c-.67 4.44-1.712 10.26-3.202 15.8l.966.26c1.503-5.59 2.552-11.452 3.225-15.9l.738-5.436.177-1.543.043-.4.01-.106c.001-.012.002-.02.002-.027s.001-.01-.497-.058zm-4.665 23.23l-.073.273.965.263.074-.276-.966-.26zm-.073.273c-.904 3.323-1.967 6.524-3.203 9.25l.91.413c1.266-2.792 2.345-6.048 3.257-9.4l-.965-.263zm-3.203 9.25c-1.265 2.792-3.02 5.764-4.98 8.694l.83.556c1.98-2.956 3.765-5.978 5.06-8.837l-.91-.413zm-4.98 8.694c-1.282 1.916-2.65 3.8-4.024 5.62l.797.604a117.97 117.97 0 0 0 4.058-5.668l-.83-.556zm-4.024 5.62c-4.308 5.677-8.655 10.507-10.533 12.54l.735.68c1.888-2.045 6.26-6.9 10.595-12.615l-.797-.604zm-10.533 12.54l-.7.762-.186.197-.048.05c-.013.013-.014.014-.014.015s-.001.001.36.347l.36.346c.007-.008.012-.012.017-.018l.05-.052.19-.2.717-.768-.735-.68zm-.598 1.37l-.374-.332c-.008.01-.012.014-.018.02l-.054.06-.208.237-.785.908.76.65.78-.9.205-.234.053-.06.016-.018c.001-.001.001-.001-.373-.333zm-1.44.894a218.7 218.7 0 0 0-8.752 10.916l.8.6c3.67-4.902 7.058-8.94 8.7-10.865l-.76-.65zm-8.752 10.916c-1.23 1.645-2.495 3.387-3.736 5.18l.822.57c1.233-1.78 2.5-3.513 3.715-5.15l-.8-.6zm-3.736 5.18c-3.14 4.536-6.15 9.41-8.134 13.863l.914.407c1.947-4.37 4.916-9.186 8.042-13.7l-.822-.57zm-8.134 13.863c-2.055 4.612-3.755 10.44-5.077 15.92l.972.234c1.318-5.46 3-11.217 5.02-15.747l-.914-.407zm-5.077 15.92c-.867 3.594-1.575 7.047-2.115 9.924l.983.184c.538-2.864 1.242-6.3 2.104-9.874l-.972-.234zm-2.115 9.924l-.96 5.495-.243 1.56-.062.413-.015.107c-.002.012-.003.02-.004.028s-.001.01.494.08l.495.07.005-.035.015-.104.06-.4.24-1.55.956-5.47-.983-.184zm36.342 6.804l.497-.054c-.001-.008-.001-.014-.002-.02-.002-.014-.004-.034-.007-.06l-.026-.235-.103-.892-.406-3.232-.992.13.405 3.22.102.886.026.232.007.06c.002.02.002.02.5-.034zm-.047-4.493c-.768-5.808-2.33-16.14-4.538-23.37l-.957.292c2.18 7.142 3.735 17.4 4.503 23.2l.992-.13zm-4.538-23.37c-1.96-6.415-4.697-10.98-7.37-15.492l-.86.5c2.674 4.516 5.353 8.986 7.273 15.274l.957-.292zm-7.37-15.492c-1.564-2.642-3.104-5.262-4.47-8.242l-.91.417c1.39 3.033 2.956 5.694 4.52 8.335l.86-.5zm-4.47-8.242c-1.005-2.193-1.917-4.58-2.672-7.3l-.964.267c.77 2.786 1.702 5.224 2.727 7.46l.91-.417zm-2.672-7.3c-1.224-4.426-2.018-8.128-2.548-11.714l-.99.146c.536 3.634 1.34 7.376 2.573 11.835l.964-.267zm-2.548-11.714c-.36-2.45-.6-4.85-.768-7.393l-.997.066c.17 2.565.4 4.992.776 7.473l.99-.146zm-.768-7.393c-.195-2.968-.294-6.13-.38-9.802l-1 .024c.085 3.672.184 6.853.382 9.844l.997-.066zm-.38-9.802c-.038-1.636-.016-3.416.048-5.257l-1-.035c-.064 1.855-.086 3.655-.048 5.316l1-.024zm.048-5.257a155.82 155.82 0 0 1 .242-4.738l-.998-.065-.244 4.768 1 .035zm.242-4.738c.356-5.46.944-10.823 1.335-14.076l-.993-.12c-.392 3.26-.982 8.645-1.34 14.13l.998.065zm1.335-14.076l.285-2.296.103-.78c.003-.018.005-.032.006-.04s.002-.013-.494-.08l-.495-.068a1.25 1.25 0 0 1-.008.056l-.02.162-.082.625-.287 2.305.993.12zM386.5 260.25l.49-.095c-.005-.028-.01-.044-.013-.066l-.038-.188-.153-.725c-.137-.63-.345-1.546-.63-2.69a126.15 126.15 0 0 0-2.651-9.167c-2.425-7.338-6.23-16.57-11.75-24.063l-.805.593c5.428 7.37 9.195 16.488 11.606 23.783 1.204 3.644 2.067 6.826 2.63 9.095l.622 2.663.15.712.037.183.01.045c.003.015.003.015.494-.08zm-14.743-36.995c-1.084-1.472-2.236-2.88-3.457-4.19l-.732.68c1.192 1.28 2.32 2.658 3.384 4.103l.805-.593zm-3.457-4.19l-1.514-1.622-.73.684 1.512 1.62.732-.68zm-1.514-1.622c-8.922-9.52-12.77-13.106-14.97-19.266l-.94.336c2.287 6.408 6.34 10.18 15.18 19.614l.73-.684zm-14.97-19.266c-.35-.982-.66-2.032-.94-3.184l-.972.236c.287 1.18.606 2.265.97 3.284l.94-.336zm-.94-3.184c-.382-1.57-.7-3.33-1.016-5.368l-.99.148c.31 2.057.642 3.847 1.033 5.456l.972-.236zm-1.016-5.368c-.614-4.1-.855-10.282-.9-16.9l-1 .006c.035 6.63.275 12.876.9 17.052l.99-.148zm-.9-16.9l-.003-2.626-1-.003.003 2.635 1-.006zm-.003-2.626c.014-5.764.163-11.674.335-16.676l-1-.035-.336 16.708 1 .003zm.335-16.676l.03-.857-1-.036-.03.858 1 .035zm.03-.857l.36-8.58.16-3.136.01-.17.002-.043c.001-.014.001-.014-.498-.043l-.5-.028c-.002.025-.002.04-.004.058l-.01.17-.036.662-.125 2.48-.36 8.592 1 .036zm68.56 105.03l.425-.263-.03-.05-.09-.145-.35-.56-1.308-2.068-4.54-6.93c-3.68-5.474-8.42-12.17-12.635-17.015l-.754.657c4.172 4.794 8.884 11.448 12.56 16.916l4.526 6.9 1.304 2.062.347.556.112.18c.007.012.007.012.433-.25zm-18.527-27.032c-2.067-2.375-4.06-4.283-6.008-5.995l-.66.75c1.923 1.69 3.883 3.567 5.914 5.9l.754-.657zm-6.008-5.995l-1.375-1.187-.647.763 1.362 1.175.66-.75zm-1.375-1.187c-4.407-3.74-8.546-6.76-12.85-12.373l-.794.61c4.388 5.72 8.638 8.825 12.998 12.527l.647-.763zM379.133 211c-2.645-3.447-4.816-6.544-6.67-9.573l-.853.522c1.877 3.067 4.07 6.193 6.73 9.66l.794-.61zm-6.67-9.573l-.745-1.243-.862.506.754 1.26.853-.522zm-.745-1.243c-3.047-5.195-5.224-10.32-7.306-16.818l-.953.305c2.1 6.553 4.304 11.747 7.397 17.02l.862-.506zm-7.306-16.818l-1.4-4.607-.96.278 1.406 4.634.953-.305zm-1.4-4.607a51.52 51.52 0 0 1-.575-2.174l-.972.235c.184.758.38 1.498.587 2.217l.96-.278zm-.575-2.174c-1.306-5.407-2-11.77-2.348-17.777l-1 .058c.35 6.032 1.05 12.464 2.375 17.954l.972-.235zm-2.348-17.777l-.1-2.122-1 .046.1 2.134 1-.058zm-.1-2.122c-.254-5.542-.23-10.61-.153-14.106l-1-.022c-.077 3.5-.1 8.603.154 14.174l1-.046zm-.153-14.106l.108-3.527.042-.955.013-.248.004-.082c0-.001 0-.001-.5-.03l-.5-.028c-.001.01-.001.015-.002.023a.99.99 0 0 1-.003.064l-.013.25-.042.963-.11 3.546 1 .022zm38.755 88.592l18.904 26.703.816-.577-18.904-26.704-.816.578zm42.906 20.64l.42-.272-.033-.05-.097-.15-.378-.578-1.423-2.155-5.003-7.384c-4.097-5.934-9.46-13.434-14.515-19.675l-.777.63c5.032 6.21 10.378 13.686 14.47 19.614l4.993 7.37 1.42 2.15.473.724a.74.74 0 0 0 .024.038c.008.012.008.012.428-.26zm-21.03-30.264a138.76 138.76 0 0 0-3.2-3.82l-.754.656c1.034 1.187 2.098 2.46 3.177 3.794l.777-.63zm-3.2-3.82l-.152-.174-.752.66.15.17.754-.656zm-.152-.174c-3.117-3.556-6.164-6.295-9.13-8.773-2.976-2.488-5.832-4.683-8.633-7.2l-.668.743c2.816 2.532 5.727 4.774 8.66 7.225 2.944 2.46 5.95 5.162 9.02 8.665l.752-.66zm-17.762-15.974l-.964-.883-.682.73.978.895.668-.743zm-.964-.883c-2.775-2.59-5.47-5.544-8.1-9.425l-.83.56c2.668 3.955 5.417 6.966 8.237 9.597l.682-.73zm-8.1-9.425c-2.86-4.242-4.88-7.647-6.62-11.247l-.9.434c1.765 3.657 3.812 7.104 6.69 11.372l.83-.56zm-6.62-11.247l-.56-1.2-.91.418.57 1.206.9-.434zm-.56-1.2c-1.344-2.917-2.55-6.04-3.902-9.892l-.944.33c1.357 3.868 2.576 7.022 3.937 9.98l.91-.418zm-3.902-9.892c-.97-2.767-1.796-5.964-2.492-9.263l-.978.207c.7 3.322 1.536 6.565 2.526 9.387l.944-.33zm-2.492-9.263l-.06-.283-.98.204.06.286.978-.207zm-.06-.283c-1.167-5.6-1.957-11.438-2.456-15.878l-.54-5.4-.126-1.527-.03-.404-.007-.103c-.001-.01-.002-.02-.002-.026s-.001-.008-.5.026l-.5.034v.036l.008.105.03.408.126 1.538.542 5.426c.5 4.456 1.295 10.327 2.47 15.97l.98-.204zm39.82 58.953l2.828 3.88.808-.59-2.828-3.88-.808.59zm2.828 3.88l21.78 29.877.808-.59-21.78-29.877-.808.59zm33.674-.8l.274-.418-.042-.027-.126-.083-.5-.325-1.852-1.244-6.518-4.52-.578.817 6.535 4.53 1.86 1.248.62.41c.014.01.025.017.032.02s.01.008.285-.41zm-8.754-6.616c-2.75-1.948-5.94-4.258-9.286-6.787l-.602.798a378.08 378.08 0 0 0 9.31 6.806l.578-.817zm-9.286-6.787c-3.087-2.333-6.308-4.85-9.445-7.44l-.637.772c3.15 2.6 6.383 5.128 9.48 7.467l.602-.798zm-9.445-7.44c-3.117-2.574-6.148-5.217-8.88-7.82l-.7.724c2.754 2.623 5.804 5.283 8.933 7.868l.637-.772zm-8.88-7.82c-1.206-1.15-2.352-2.29-3.422-3.412l-.724.7a103.21 103.21 0 0 0 3.456 3.446l.7-.724zm-3.422-3.412l-8.998-9.69-.752.66c2.647 3.026 5.568 6.094 9.026 9.722l.724-.7zm-8.998-9.69l-2.116-2.485-.77.637c.695.84 1.405 1.672 2.135 2.507l.752-.66zm-2.116-2.485c-3.498-4.227-6.608-8.654-10.08-14.732l-.868.496c3.5 6.125 6.642 10.6 10.177 14.873l.77-.637zm-10.08-14.732c-.526-.92-1.052-1.904-1.573-2.934l-.892.452a66.12 66.12 0 0 0 1.597 2.978l.868-.496zm-1.573-2.934l-.065-.13-.893.45.066.13.892-.452zm-.065-.13c-2.468-4.892-4.818-10.738-6.554-15.368l-2.074-5.748-.573-1.674-.15-.447-.038-.115-.01-.03c-.003-.01-.003-.01-.48.146l-.475.156c.006.017.01.027.014.04.008.026.02.065.038.117l.15.45.576 1.683 2.083 5.77c1.74 4.642 4.104 10.527 6.597 15.468l.893-.45zm22.16 30.71l3.47 2.743.62-.785-3.472-2.743-.62.785zm3.47 2.743l10.64 8.41.62-.785-10.64-8.41-.62.785zm10.64 8.41l7.114 5.623.62-.785-7.114-5.623-.62.785zm7.114 5.623l10.696 8.453.62-.785-10.696-8.453-.62.785zm10.696 8.453l8.228 6.503.62-.785-8.228-6.503-.62.785zm3.954 23.326l.434-.248c-.008-.014-.012-.022-.018-.033l-.056-.097-.214-.38-.798-1.428-2.697-5.01c-2.147-4.094-4.798-9.415-6.826-14.342l-.925.38c2.045 4.97 4.713 10.322 6.866 14.427l2.707 5.028.802 1.436.216.382.056.098c.007.01.01.02.015.025s.005.01.438-.24zM438.22 217.1c-.61-1.48-1.16-2.92-1.625-4.28l-.946.323c.473 1.384 1.032 2.844 1.646 4.337l.925-.38zm-1.625-4.28l-1.48-4.55-.956.294c.45 1.463.944 2.983 1.49 4.58l.946-.323zm-1.48-4.55l-.58-1.944-.96.278.585 1.96.956-.294zm-.58-1.944c-.605-2.088-1.116-4.07-1.555-6.013l-.975.22c.443 1.964.96 3.965 1.57 6.07l.96-.278zm-1.555-6.013c-1.486-6.584-2.14-12.74-2.75-21.145l-.997.072c.613 8.42 1.27 14.635 2.773 21.293l.975-.22zm-2.75-21.145l-.023-.316-.997.072.023.316.997-.072zm-.023-.316c-.184-2.55-.258-5.54-.27-8.48l-1 .005c.013 2.952.087 5.966.274 8.548l.997-.072zm-.27-8.48c-.015-3.436.053-6.798.125-9.302l.1-3.012.034-.838.01-.22.002-.056c.001-.02.001-.02-.498-.042l-.5-.023-.003.076-.01.222-.034.842-.1 3.02-.125 9.336 1-.005zm5.735 42.827l2.005 4.192.903-.432-2.006-4.19-.902.43zm2.005 4.192l10.268 21.463.902-.43-10.267-21.464-.903.432zm-19.69 40.678a232.06 232.06 0 0 0 8.795-1.841l-.223-.974a231.45 231.45 0 0 1-8.758 1.832l.186.983zm8.795-1.84c4.464-1.023 8.176-2 10.773-2.74l3.015-.878.795-.244.205-.064c.023-.007.04-.013.052-.017.018-.005.018-.005-.134-.482l-.153-.476c-.027.01-.044.014-.067.02-.045.015-.112.036-.2.063l-.787.242-2.997.872c-2.584.727-6.28 1.71-10.725 2.73l.223.974zm14.577-4.908l-14.817 3.938.257.966 14.817-3.937-.257-.967zm-14.69 4.42l.47-.17c-.008-.02-.012-.034-.018-.052-.013-.034-.03-.086-.055-.153l-.21-.596-.768-2.22-2.486-7.558c-1.912-6.05-4.098-13.594-5.218-19.612l-.983.183c1.132 6.08 3.334 13.672 5.248 19.73l2.493 7.58.77 2.228.212.6.055.155.014.04c.005.013.005.013.475-.156zm-8.285-30.36l-.533-3.082-.987.157.537 3.108.983-.183zm-.533-3.082a113.35 113.35 0 0 1-.625-4.485l-.993.118c.174 1.467.383 2.972.63 4.524l.987-.157zm-.625-4.485c-.7-5.877-.844-11.125-.754-16.316l-1-.018c-.1 5.224.055 10.52.76 16.452l.993-.118zm-.754-16.316c.048-2.772.163-5.527.296-8.356l-1-.047-.297 8.385 1 .018zm.296-8.356l.032-.684-1-.048-.032.685 1 .047zm.032-.684c.264-5.55.582-11.404.584-18.198l-1-.001c-.002 6.766-.318 12.595-.583 18.15l1 .048zm.584-18.198l-.004-1.45-1 .006.004 1.444 1 .001zm-.004-1.45l-.013-2.556-1 .004.013 2.558 1-.006zm-.013-2.556l-.01-14.835-1-.001.01 14.84 1-.004zm-.01-14.835l.022-8.142c0-.01 0-.01-.5-.012l-.5-.002v.04.118.456l-.006 1.702-.014 5.84 1 .001zm.022 17.394v-2.548h-1v2.548h1zm0-2.548V155.42h-1v14.852h1zm0-14.852v-8.148h-1v8.148h1zm33.594 36.13l.234-.44c-.013-.008-.02-.012-.032-.018-.022-.01-.055-.03-.098-.052l-.38-.202-1.43-.773-5.005-2.77c-4.085-2.3-9.387-5.378-14.264-8.503l-.54.842c4.9 3.14 10.22 6.23 14.313 8.532l5.017 2.777 1.435.775.382.204.098.052c.012.006.02.01.026.014s.008.004.242-.438zM430 178.792c-2.3-1.467-4.483-2.942-6.41-4.35l-.6.807c1.95 1.423 4.16 2.9 6.462 4.384l.54-.842zm-6.41-4.35l-2.377-1.71-.58.815L423 175.25l.6-.807zm-2.377-1.71l-4.04-2.866-.582.813 4.044 2.868.58-.815zm-4.04-2.866l-.595.804.595-.804zm-.013-.01c-4.088-2.93-7.502-5.615-11.435-10.2l-.76.65c4.006 4.67 7.49 7.41 11.612 10.362l.582-.813zm-11.435-10.2l-.276-.324-.763.646.28.33.76-.65zm-.276-.324a36.7 36.7 0 0 1-1.209-1.512l-.797.604a36.75 36.75 0 0 0 1.243 1.554l.763-.646zm-1.21-1.512c-2.924-3.854-5.724-8.918-7.798-13.033-1.035-2.055-1.887-3.868-2.48-5.166l-.685-1.528-.225-.516c-.005-.012-.008-.02-.01-.027s-.004-.008-.464.187l-.46.196c.007.016.01.025.016.038.01.024.026.06.047.108l.18.416.69 1.54a153.45 153.45 0 0 0 2.497 5.201c2.082 4.13 4.914 9.26 7.894 13.187l.797-.604zm-96.147 17.025l-.27.42.023.014c.015.01.037.024.066.042l.257.164 1.002.622 3.795 2.26.5-.865-3.773-2.248-.992-.617-.253-.16-.063-.04c-.018-.01-.02-.012-.02-.012s-.001-.001-.272.42zm4.872 3.524l3.246 1.844.486-.873-3.23-1.836-.5.865zm3.246 1.844l1.12.62.482-.876-1.117-.618-.486.873zm1.12.62l3.667 1.974.467-.885-3.652-1.965-.482.876zm3.667 1.974a231.12 231.12 0 0 0 10.531 5.214l.42-.907a231.06 231.06 0 0 1-10.484-5.192l-.467.885zm10.53 5.214a210.09 210.09 0 0 0 5.63 2.514l.394-.92-5.604-2.502-.42.907zm5.63 2.514c4.13 1.77 8.525 3.497 13.07 5.047l.323-.946c-4.518-1.54-8.9-3.257-13-5.02l-.394.92zm13.07 5.047l3 .987.303-.953-2.97-.98-.323.946zm3 .987c5.872 1.87 11.95 3.414 18 4.36l.154-.988c-5.978-.935-12.006-2.464-17.84-4.324l-.303.953zm18 4.36l1.34.2.14-.99-1.326-.197-.154.988zm1.34.2c1.603.227 3.202.4 4.794.545l.084-.997a84.5 84.5 0 0 1-4.738-.539l-.14.99zm4.794.545c6.535.553 13.45.776 20.332.778l.001-1c-6.863-.002-13.75-.224-20.25-.775l-.084.997zm20.332.778l1.336-.003-.004-1-1.33.003-.001 1zm1.336-.003c5.783-.02 11.526-.194 16.985-.453l-.047-.998c-5.448.257-11.176.43-16.942.45l.004 1zm16.985-.453l9.212-.526-.066-.998-9.193.526.047.998zm9.212-.526l1.767-.12-.07-.997-1.763.12.066.998zm1.767-.12l5.558-.42-.08-.997-5.547.42.07.997zm5.558-.42l14.5-1.376 4.107-.472 1.368-.17.07-.01.023-.002c.001-.001.001-.001-.064-.496l-.065-.496c-.01.001-.015.002-.023.003l-.07.01-.277.035-1.083.134-4.096.47c-3.52.386-8.526.892-14.473 1.373l.08.997zm-128.858 37.716l.474.16.023-.07.07-.206.275-.796 1.052-2.947-.94-.342-1.057 2.96-.278.8-.07.21-.018.054c-.006.018-.006.018.468.177zm1.895-3.86c2.434-6.678 7.69-20.258 13.542-30.17l-.86-.508c-5.903 9.997-11.185 23.652-13.62 30.335l.94.342zm13.542-30.17c.02-.034.04-.068.06-.103l-.86-.51c-.02.034-.04.07-.062.104l.86.508zm.06-.103c.007-.01.013-.022.02-.033l-.86-.5c-.007.01-.013.022-.02.034l.86.51zm.02-.033a70.13 70.13 0 0 1 1.897-3.029l-.832-.553c-.648.973-1.3 2.002-1.925 3.072l.86.5zm1.897-3.03c3.778-5.68 7.293-9.678 11.008-13.536l-.72-.694c-3.742 3.886-7.3 7.93-11.12 13.677l.832.553zm11.008-13.536l4.84-4.92-.71-.703-4.85 4.93.72.694zm4.84-4.92c2.305-2.333 4.743-4.84 7.4-7.817l-.746-.666c-2.64 2.96-5.066 5.45-7.366 7.78l.71.703zm7.4-7.817c.9-.997 1.758-1.93 2.607-2.818l-.723-.692a112.29 112.29 0 0 0-2.63 2.844l.746.666zm2.607-2.818l1.876-1.92-.708-.705-1.89 1.934.723.692zm1.876-1.92c3.986-4 7.626-7.205 11.146-11.277l-.757-.654c-3.49 4.038-7.053 7.166-11.097 11.226l.708.705zm11.146-11.277c.49-.566.977-1.15 1.464-1.755l-.78-.627a63.34 63.34 0 0 1-1.441 1.728l.757.654zm1.464-1.755c1.4-1.754 2.81-3.69 4.223-5.924l-.845-.534c-1.392 2.2-2.77 4.106-4.158 5.83l.78.627zm4.223-5.924c1.79-2.832 3.742-6.636 5.24-9.72l1.84-3.896.527-1.16.14-.313.036-.082c.004-.01.007-.016.01-.02s.003-.008-.454-.2l-.458-.202-.012.026-.035.08-.14.31-.525 1.15-1.832 3.877c-1.495 3.08-3.426 6.84-5.186 9.624l.845.534zm-44.98 7.04l-.294.404.038.028.1.08.43.3.57-.823-.42-.293-.105-.075c-.012-.008-.02-.014-.026-.018s-.008-.006-.302.398zm.283.81c.882.6 2.75 1.863 5.437 3.46l.512-.86c-2.665-1.585-4.515-2.826-5.38-3.425l-.57.823zm5.437 3.46a128.66 128.66 0 0 0 5.839 3.266l.465-.885a127.65 127.65 0 0 1-5.792-3.24l-.512.86zm5.84 3.266c1.19.626 2.46 1.27 3.798 1.92l.437-.9c-1.33-.645-2.588-1.284-3.77-1.906l-.465.885zm3.798 1.92c3.102 1.507 6.585 3.05 10.375 4.498l.357-.934c-3.76-1.436-7.216-2.968-10.295-4.464l-.437.9zm10.375 4.498l1.895.706.34-.94-1.88-.7-.357.934zm1.895.706c4.2 1.526 8.745 2.915 13.54 4l.22-.975c-4.75-1.076-9.254-2.452-13.42-3.966l-.34.94zm13.54 4c1.978.448 3.998.844 6.055 1.177l.16-.987a98.34 98.34 0 0 1-5.994-1.165l-.22.975zm6.055 1.177c3.08.5 6.242.855 9.462 1.03l.054-.998c-3.182-.173-6.308-.525-9.356-1.02l-.16.987zm9.462 1.03c1.773.097 3.54.144 5.296.147l.001-1a100.21 100.21 0 0 1-5.243-.145l-.054.998zm5.296.147l1.107-.004-.008-1-1.098.004-.001 1zm1.107-.004c6.23-.054 12.31-.65 18.008-1.548l-.156-.988c-5.66.893-11.688 1.483-17.86 1.536l.008 1zm18.008-1.548l2.523-.422-.174-.985-2.505.42.156.988zm2.523-.422c4.556-.803 8.837-1.785 12.72-2.817l-.257-.967c-3.86 1.026-8.113 2-12.638 2.8l.174.985zm12.72-2.817l4.05-1.133-.28-.96-4.026 1.125.257.967zm4.05-1.133a161.63 161.63 0 0 0 8.539-2.765l-.334-.943c-2.407.856-5.267 1.803-8.486 2.75l.28.96zm8.54-2.765a136.03 136.03 0 0 0 6.185-2.361l1.654-.7.43-.19.1-.05c.012-.005.022-.01.028-.013s.01-.004-.2-.46l-.21-.454-.034.016-.105.047-.42.186-1.635.692c-1.43.588-3.515 1.4-6.138 2.342l.334.943zm-94.413-23.58l-.252.432.046.027.132.075.514.285c.45.246 1.116.6 1.976 1.033l.45-.893-1.947-1.018-.5-.277-.125-.072-.03-.018c-.01-.005-.01-.005-.262.426zm2.416 1.852c2.243 1.13 5.814 2.798 10.38 4.5l.35-.937c-4.525-1.688-8.063-3.34-10.28-4.457l-.45.893zm10.38 4.5l.647.24.344-.94-.642-.237-.35.937zm.647.24a111.6 111.6 0 0 0 10.724 3.328l.247-.97c-3.92-1-7.497-2.152-10.627-3.298l-.344.94zm10.724 3.328l1.57.388.232-.973-1.555-.384-.247.97zm1.57.388c4.675 1.117 9.796 2.004 15.203 2.416l.075-.997c-5.346-.408-10.414-1.285-15.046-2.392l-.232.973zm15.203 2.416l.134.01.074-.997h-.132l-.076.997zm.134.01l2.45.148.046-.998-2.42-.147-.074.997zm2.45.148c3.843.18 7.61.142 11.226-.047l-.052-1c-3.588.188-7.32.225-11.128.048l-.046.998zm11.226-.047l.092-.005-.053-1-.09.005.052 1zm.092-.005c4.97-.264 9.662-.814 13.888-1.486l-.157-.988c-4.197.667-8.853 1.214-13.784 1.475l.053 1zm13.888-1.486l1.534-.253-.168-.986-1.523.25.157.988zm1.534-.253c4.512-.768 8.437-1.658 11.53-2.453l-.248-.97a141.78 141.78 0 0 1-11.45 2.436l.168.986zm11.53-2.453c.007-.002.015-.004.023-.006l-.25-.968c-.007.002-.014.003-.02.005l.248.97zm.023-.006c2.342-.602 4.206-1.15 5.486-1.546l1.47-.47.38-.13.097-.033a.97.97 0 0 1 .026-.009c.01-.004.01-.004-.158-.475l-.168-.47c-.012.004-.02.007-.03.01l-.093.032-.372.126-1.45.464c-1.266.393-3.115.935-5.44 1.533l.25.968zM298.568 206.24l.436.246.03-.056c.022-.037.053-.093.095-.166l.37-.64 1.393-2.37a255.77 255.77 0 0 1 4.903-7.892l-.84-.543a257.14 257.14 0 0 0-4.923 7.922l-1.4 2.38-.467.814c-.01.02-.02.034-.025.043-.008.015-.008.015.427.26zm7.227-10.878c2.412-3.725 5.268-7.908 8.237-11.767l-.793-.6c-2.99 3.888-5.863 8.095-8.283 11.834l.84.543zm8.237-11.767c.927-1.206 1.865-2.38 2.804-3.496l-.766-.643c-.95 1.13-1.896 2.314-2.83 3.53l.793.6zm2.804-3.496l1.027-1.2-.753-.658-1.04 1.214.766.643zm1.027-1.2c.724-.828 1.445-1.617 2.16-2.356l-.72-.695c-.727.753-1.46 1.554-2.193 2.393l.753.658zm2.16-2.356a67.73 67.73 0 0 1 4.011-3.831l-.66-.75c-1.323 1.164-2.674 2.443-4.07 3.887l.72.695zm4.01-3.83c2.97-2.61 5.8-4.636 8.72-6.683l-.573-.82c-2.925 2.05-5.794 4.1-8.808 6.75l.66.75zm8.72-6.683l4.032-2.842-.583-.812-4.022 2.835.573.82zm4.032-2.842c2.363-1.7 4.834-3.572 7.5-5.9l-.656-.754c-2.646 2.3-5.1 4.154-7.437 5.842l.583.812zm7.5-5.9l4.203-3.762-.675-.737-4.184 3.745.656.754zm4.203-3.762l.676-.62-.678-.736-.673.62.675.737zm.676-.62c3.66-3.37 7.473-7.03 10.5-9.98l-.697-.716-10.482 9.96.678.736zm10.5-9.98l4.257-4.178 1.627-1.617c.01-.01.016-.017.02-.02s.007-.008-.346-.36l-.354-.353c-.012.01-.02.02-.028.028a3.16 3.16 0 0 0-.083.083l-1.54 1.53-4.25 4.173.697.716zm7.753 117.512l.493-.083c-.003-.014-.004-.022-.006-.034l-.017-.102-.064-.402-.23-1.543-.99.142.232 1.556.065.408.018.105c.002.012.003.02.004.027s.002.01.495-.074zm.175-2.164c-.807-5.63-2.764-21.596-1.328-35.645l-.995-.102c-1.45 14.178.524 30.247 1.334 35.89l.99-.142zm-1.328-35.645a73.46 73.46 0 0 1 .639-4.761l-.986-.167c-.267 1.572-.48 3.187-.648 4.826l.995.102zm.64-4.76c.383-2.256.875-4.414 1.497-6.416l-.954-.297c-.64 2.052-1.14 4.255-1.53 6.546l.986.167zm1.497-6.416c1.17-3.764 2.56-6.757 4.065-9.526l-.88-.478c-1.53 2.813-2.946 5.867-4.14 9.707l.954.297zm4.065-9.526l.58-1.046-.87-.49-.587 1.06.88.478zm.58-1.046c2.473-4.383 5.273-8.444 7.886-14.354l-.915-.405c-2.588 5.853-5.32 9.797-7.842 14.268l.87.49zm7.886-14.354l2.735-6.08-.912-.4-2.738 6.085.915.405zm2.735-6.08l.54-1.204-.914-.406-.537 1.2.912.4zm.54-1.204c1.794-4.037 3.285-7.72 4.792-13.036l-.963-.273c-1.49 5.257-2.96 8.893-4.743 12.903l.914.406zm4.792-13.036c.554-1.955 1.04-4.13 1.463-6.375l-.983-.186c-.42 2.228-.9 4.37-1.443 6.288l.963.273zm1.463-6.375l.026-.135-.983-.184-.026.133.983.186zm.026-.135c.955-5.097 1.6-10.58 2.005-14.784l.44-5.148.102-1.47.024-.39.007-.1c0-.012.001-.02.001-.026s.001-.01-.5-.038l-.5-.028c-.001.013-.001.022-.002.033l-.006.1-.024.387-.102 1.46-.437 5.126c-.404 4.2-1.046 9.64-1.993 14.696l.983.184zm1.812 101.445l.41-.016-.04-1-.406.016.037 1zm.41-.016c8.81-.357 17.612-1.602 25.27-3.048l-.186-.983c-7.626 1.44-16.38 2.677-25.124 3.032l.04 1zm-.02-.5l.498-.044c-.002-.025-.004-.04-.005-.06l-.016-.182-.058-.704-.2-2.624-.558-8.926c-.372-7.14-.648-16.036-.27-23.1l-.998-.053c-.38 7.12-.103 16.058.27 23.206l.56 8.947.202 2.63.077.938c.002.016.002.016.5-.027zm-.6-35.642l.072-1.197-.998-.067-.072 1.21.998.053zm.072-1.197c.182-2.74.473-5.133.904-6.963l-.973-.23c-.45 1.908-.745 4.364-.93 7.125l.998.067zm.904-6.963c1.326-5.634 3.205-10.095 5.076-14.682l-.925-.378c-1.867 4.575-3.777 9.108-5.124 14.83l.973.23zm5.076-14.682l.363-.893-.926-.375-.362.9.925.378zm.363-.893c1.785-4.4 3.522-8.98 4.692-14.827l-.98-.196c-1.15 5.754-2.86 10.264-4.637 14.648l.926.375zm4.692-14.827c.473-2.368.832-4.418 1.12-6.357l-1-.146c-.283 1.92-.64 3.953-1.1 6.307l.98.196zm1.12-6.357c.147-.997.275-1.964.39-2.93l-.993-.118a99.74 99.74 0 0 1-.386 2.901l1 .146zm.39-2.93c.363-3.06.6-6.104.863-10.02l-.998-.07c-.272 3.916-.498 6.937-.858 9.97l.993.118zm.863-10.02c.152-2.184.238-4.633.28-7.127l-1-.016c-.04 2.483-.126 4.913-.277 7.074l.998.07zm.28-7.127l.025-2.115-1-.007-.025 2.106 1 .016zm.025-2.115c.03-4.146-.046-8.254-.13-11.324l-.118-3.705-.04-1.036-.01-.273-.004-.092c0-.002 0-.002-.5.02l-.5.022c0 .01 0 .016.001.024 0 .015.001.038.003.07l.01.27.04 1.032.118 3.695.13 11.3 1 .007zm-75.067-7.76l-.47-.174-.022.06-.065.175-.246.68-.9 2.543-2.925 8.818.954.3 2.916-8.8.896-2.533.245-.675.064-.173c.007-.02.013-.034.016-.044s.006-.014-.463-.188zm-4.628 12.102c-.96 3.04-1.983 6.45-2.954 9.988l.965.265a272.8 272.8 0 0 1 2.943-9.952l-.954-.3zm-2.954 9.988c-.904 3.302-1.763 6.718-2.477 10.057l.977.21c.7-3.316 1.564-6.714 2.465-10l-.965-.265zm-2.477 10.057c-.686 3.2-1.24 6.336-1.577 9.23l.993.115c.332-2.854.88-5.956 1.56-9.137l-.977-.21zm-1.577 9.23c-.56 4.795-.838 8.852-.92 12.712l1 .02c.082-3.824.36-7.85.914-12.618l-.993-.115zm-.92 12.712c0 .015-.001.03-.001.045l1 .02c0-.015.001-.03.001-.045l-1-.02zm-.001.045l-.017 1.05 1 .012.017-1.04-1-.02zm-.017 1.05c-.075 6.192.343 11.992.897 19.672l.998-.072c-.555-7.688-.97-13.445-.895-19.588l-1-.012zm.897 19.672l.04.545.998-.072-.04-.545-.998.072zm.04.545c.367 5.086 1.164 11.143 2.036 16.82l.988-.15c-.87-5.667-1.662-11.694-2.026-16.74l-.998.072zm2.036 16.82l1.953 11.666.985-.178-1.95-11.64-.988.15zm1.953 11.666l1.016 5.46.297 1.53.1.508c.002.012.004.02.005.027s.002.01.492-.1l.5-.098c-.002-.015-.004-.023-.007-.035-.004-.023-.01-.057-.02-.103l-.08-.402-.296-1.527-1.013-5.45-.985.178zm-3-28.545l-.936-20.175-1 .047.936 20.174 1-.046zm-.936-20.175l-.044-.942-1 .046.044.943 1-.047zm-.044-.942l-.008-.192-1 .047.008.19 1-.046zm-.008-.192l-1.103-23.776-1 .047 1.103 23.776 1-.047zm-1.103-23.776l-.085-1.826-1 .047.085 1.826 1-.047zm-.085-1.826l-.62-13.377-1 .046.62 13.378 1-.047zm-.62-13.377l-.116-2.5-1 .046.116 2.5 1-.046zm-15.726 67.738l.468.176c.01-.022.014-.035.02-.053l.058-.153.22-.597.814-2.24 2.7-7.832c2.12-6.385 4.673-14.685 6.4-22.315l-.975-.22c-1.715 7.584-4.258 15.848-6.373 22.22l-2.694 7.8-.8 2.233-.22.592-.057.152a.66.66 0 0 0-.015.039c-.004.012-.005.012.463.19zm10.68-33.015c.817-3.615 1.45-7.088 1.763-10.143l-.994-.102c-.307 3-.932 6.432-1.744 10.024l.975.22zm1.763-10.143c.23-2.25.182-4.427.05-6.492l-.998.064c.13 2.037.175 4.154-.047 6.326l.994.102zm.05-6.492l-.213-2.756-.208-2.598-.997.067.21 2.616.21 2.735.998-.064zm-.42-5.354c-.16-2.38-.164-4.482.354-6.296l-.962-.275c-.57 1.993-.55 4.246-.39 6.638l.997-.067zm.354-6.296c.432-1.515 1.694-3.773 3.22-6.145l-.84-.54c-1.522 2.365-2.862 4.737-3.34 6.41l.962.275zm3.22-6.145c1.425-2.215 3.05-4.48 4.357-6.24l-.803-.596c-1.314 1.77-2.953 4.054-4.395 6.295l.84.54zm4.357-6.24l1.764-2.33.513-.66.137-.175.035-.044c.012-.015.012-.015-.38-.326l-.392-.31c-.02.027-.032.042-.048.062l-.14.177-.518.665-1.775 2.347.803.596zM375.36 260.25l.024-1h-.024-.023l.023 1zm3.376.078l.093-.996-.035-.003h-.035l-.023 1zm13.553.313l.024-1-.03-.001-.03.001.037 1zm41.513.96l-.023 1 .45.01.306-.33-.733-.68zm-132.706-70.05l.963.27-.963-.27zm140.392 60.26l.834.55-.834-.55zM301.64 232.908l-.973.23.008.032.01.032.955-.294zm20.723 28.596l-.024-1 .024 1zm-4.094.097l-.733.68.306.33.45-.01-.024-1zm62.214-125.453l-.054.998.054-.998zm-20.988 124.478l.024 1-.024-1zM338.228 145.54l.476.88-.476-.88zm11.14-4.955l.334.943-.334-.943zm10.127-2.846l.206.98-.206-.98zm13.503-1.655l.037 1-.037-1zm79.98 85.347l-1-.137 1 .137zm-4.584 17.216l.928.374-.928-.374zM429.71 156.91l.68-.733-.68.733zm-12.828-9.638l-.515.857.515-.857zm34.094 44.277l.963-.27-.963.27zm-58.4-53.812l.206-.978-.206.978zm-84.484 37.108l-.868-.496.868.496zm144.448 23.56l-.984.175.984-.175zm-148.864 40.24l-.928.374.928-.374zm17-80.12l-.702-.712.702.712zm14.515-11.252l-.515-.857.515.857zm-36.622 58.967l-.997-.068.997.068zm66.666-69.49l-.134-.99.134.99zm2.194 123.69l-.024-1 .024 1zm37.638-118.973l-.364.93.364-.93zm-74.264 8.65l.57.82-.57-.82zm-5.74 111.325l.024 1-.024-1zm-8.312-98.746l-.754-.658.754.658zm6.962-7.007l-.663-.75.663.75zm51.624 105.563l3.376.078.046-2-3.375-.078-.047 2zm16.93.39l41.513.96.046-2-41.512-.96-.047 2zm48.387-10.38c-2.257 3.42-4.796 6.65-7.584 9.66l1.466 1.36a76.83 76.83 0 0 0 7.787-9.919l-1.67-1.1zm-118.314 9.243l-4.093.097.047 2 4.093-.097-.047-2zm53.697-123.478c1.474 0 2.94.04 4.393.12l.11-1.997a82.93 82.93 0 0 0-4.502-.123v2zm-37.332 9.392c3.506-1.898 7.18-3.538 10.998-4.89l-.668-1.885c-3.916 1.388-7.686 3.07-11.282 5.018l.952 1.758zm10.998-4.89c3.236-1.148 6.575-2.1 10-2.8l-.412-1.957a79.95 79.95 0 0 0-10.255 2.882l.668 1.885zm23.333-4.445c.995-.037 1.996-.056 3-.056v-2a82.68 82.68 0 0 0-3.076.058l.075 1.998zm79.64 74.222c0 3.388-.234 6.722-.687 9.99l1.98.275c.465-3.358.706-6.784.706-10.264h-2zm-.687 9.99c-.82 5.91-2.356 11.597-4.52 16.98l1.855.747c2.226-5.533 3.805-11.38 4.647-17.452l-1.98-.275zm-4.52 16.98c-1.837 4.565-4.126 8.912-6.815 12.988l1.67 1.1c2.762-4.186 5.114-8.65 7-13.342l-1.855-.747zm-31.102-90.143a76.73 76.73 0 0 1 12.662 9.514l1.36-1.466a78.77 78.77 0 0 0-12.993-9.762l-1.03 1.714zm12.662 9.514c9.92 9.203 17.287 20.96 20.984 34.176l1.926-.54c-3.8-13.585-11.37-25.66-21.55-35.103l-1.36 1.466zm-48.6-20.498c4.074.223 8.063.755 11.94 1.57l.412-1.957c-3.978-.837-8.067-1.382-12.244-1.61l-.11 1.997zm-78.37 54.674c1.624-5.805 3.956-11.328 6.9-16.477l-1.736-.993a74.55 74.55 0 0 0-7.091 16.931l1.926.54zm147.953 0a71.96 71.96 0 0 1 1.544 6.76l1.97-.35a73.93 73.93 0 0 0-1.587-6.948l-1.926.54zm1.544 6.76a72.53 72.53 0 0 1 1.12 12.724h2c0-4.458-.394-8.826-1.15-13.075l-1.97.35zm-132.553 62.34c-6.11-6.593-11.02-14.25-14.4-22.648l-1.856.747c3.472 8.63 8.515 16.493 14.788 23.26l1.467-1.36zm-14.4-22.648a72.05 72.05 0 0 1-2.008-5.66l-1.91.59c.61 1.974 1.298 3.915 2.063 5.818l1.856-.747zm31.1-90.143c.985-.592 1.985-1.162 3-1.712l-.952-1.758c-1.04.563-2.066 1.15-3.077 1.756l1.03 1.714zm-36.31 63.174a73.16 73.16 0 0 1 .17-4.996l-1.995-.136c-.116 1.696-.175 3.407-.175 5.132h2zm.17-4.996a72.02 72.02 0 0 1 2.493-14.488l-1.926-.54a73.95 73.95 0 0 0-2.562 14.891l1.995.136zm60.135-67.59a78.62 78.62 0 0 1 5.666-.977l-.267-1.982a80.89 80.89 0 0 0-5.811 1.002l.412 1.957zm5.666-.977a79.57 79.57 0 0 1 7.668-.658l-.075-1.998c-2.656.1-5.278.326-7.86.674l.267 1.982zm9.97 121.51l-7.933.187.047 2 7.933-.188-.047-2zm-7.933.187l-7.933.188.048 2 7.932-.188-.047-2zm11.24 1.886c4.457.417 9.073.5 13.684.317l-.075-2c-4.542.17-9.07.098-13.423-.31l-.186 1.99zm13.727-122.607c4.254.895 8.375 2.132 12.332 3.68l.73-1.862a79.77 79.77 0 0 0-12.649-3.774l-.412 1.957zm12.332 3.68a77.43 77.43 0 0 1 11.664 5.734l1.03-1.714c-3.786-2.275-7.787-4.248-11.965-5.882l-.73 1.862zm-73.33 8.54c1.41-.98 2.854-1.916 4.332-2.805l-1.03-1.714c-1.517.912-3 1.872-4.445 2.878l1.143 1.64zm28.098 108.69l-34.43.814.047 2 34.432-.814-.048-2zm-34.43.814l-2.7.064.047 2 2.7-.064-.047-2zm-16.08-85.097a74.45 74.45 0 0 1 8.544-11.991l-1.507-1.316a76.47 76.47 0 0 0-8.773 12.314l1.736.993zm8.544-11.99a75.58 75.58 0 0 1 3.873-4.115l-1.404-1.424a78.06 78.06 0 0 0-3.976 4.223l1.507 1.316zm-14.9 69.326c-1.28-5.422-3.218-15.698-3.218-21.374h-2c0 5.93 1.988 16.403 3.27 21.834l1.947-.46zm18.763-73.44a76.44 76.44 0 0 1 2.999-2.801l-1.326-1.498c-1.052.932-2.078 1.9-3.077 2.875l1.404 1.424zm3-2.8c2.217-1.962 4.553-3.8 6.997-5.5l-1.143-1.64c-2.507 1.746-4.905 3.63-7.18 5.644l1.326 1.498z" fill="url(#V)" mask="url(#A)"/><path d="M518.488 320h8.44m171.82-33.757c-7.335-19.062-9-30.13-9.114-50.297m9.114 50.297h-36.12m36.12 0v9.62m-214.016-9.62h67.85m137.05-50.297c1.008 3.4-20.035 17.474-33.074 20.254m33.074-20.254c-5.947 18.948-11.846 29.117-28.166 46.246m1.16 4.05h-37.47m37.47 0l-1.16-4.05m-5.253-48.947c-12.163 12.993-21.28 18.93-35.57 22.955m35.57-22.955c-8.663 21.954-14.93 33.752-31.056 52.998m31.056-52.998c-.635 20.288.478 31.763 5.253 48.947m-36.31 4.05c-4.376-18.507-4.985-29.326-4.726-48.947m4.726 48.947H593.1m27.343-48.947c-11.4 10.843-19.77 16.31-33.363 18.904m33.363-18.904c-7.493 19.95-13.16 30.16-28.485 44.896m1.142 4.05h-40.507m40.507 0l-1.142-4.05m-5.61-48.947s-8.49 10.544-21.942 19.907m21.942-19.907c-8.633 23.06-15.208 35.088-33.756 52.998m33.756-52.998c-.092 19.708.764 31.198 5.61 48.947M461.777 243.7l2.7-10.465s12.97 22.567 41.183 31.093m0 0c3.972 1.2 8.245 2.122 12.827 2.664 8.453 1 16.574-.206 24.075-2.664m-36.902 0v-28.73c13.563 14.13 21.773 19.978 36.902 28.73m0 0l1.596-.545m0 0v-23.797c7.048 7.983 11.493 10.76 20.238 13.156m-20.238 10.64c7.5-2.662 14.345-6.538 20.238-10.64m134.35 52.332v6.752m0-6.752h-10.126m10.126 0v-9.62m0 16.372V320h-10.126m10.126-7.764h-180.26v-6.752h8.44m161.694 0V320m0-14.516h-10.127M688.622 320h-10.127m0-14.516V320m0-14.516h-8.777M678.495 320h-8.777m0-14.516V320m0-14.516h-8.25m8.25 14.516h-8.25m0-14.516V320m0-14.516h-7.616M661.468 320h-7.616m0-14.516V320m0-14.516h-8.44m8.44 14.516h-8.44m0-14.516V320m0-14.516h-8.1m8.1 14.516h-8.1m0-14.516V320m0-14.516h-7.764M637.312 320h-7.764m0-14.516V320m0-14.516h-8.904M629.548 320h-8.904m0-14.516V320m0-14.516h-7.3m7.3 14.516h-7.3m0-14.516V320m0-14.516h-8.776M613.344 320h-8.776m0-14.516V320m0-14.516h-8.777M604.568 320h-8.777m0-14.516V320m0-14.516h-8.72M595.79 320h-8.72m0-14.516V320m0-14.516h-8.832M587.07 320h-8.832m0-14.516V320m0-14.516h-7.764M578.238 320h-7.764m0-14.516V320m0-14.516h-9.115M570.474 320h-9.115m0-14.516V320m0-14.516h-8.776M561.36 320h-8.776m0-14.516V320m0-14.516h-8.424M552.583 320h-8.424m0-14.516V320m0-14.516h-8.792M544.16 320h-8.792m0-14.516V320m0-14.516h-8.44m8.44 14.516h-8.44m0-14.516V320m171.82-24.136h-198.15" stroke="url(#W)"/><defs><linearGradient id="B" x1="109.675" y1="179.936" x2="109.675" y2="193.075" xlink:href="#Y"><stop stop-color="#91e9ee"/><stop offset="1" stop-color="#06c1c0"/></linearGradient><linearGradient id="C" x1="125.541" y1="179.936" x2="125.541" y2="193.075" xlink:href="#Y"><stop stop-color="#91e9ee"/><stop offset="1" stop-color="#06c1c0"/></linearGradient><linearGradient id="D" x1="109.675" y1="148.879" x2="109.675" y2="162.019" xlink:href="#Y"><stop stop-color="#91e9ee"/><stop offset="1" stop-color="#06c1c0"/></linearGradient><linearGradient id="E" x1="109.674" y1="148.879" x2="109.674" y2="162.019" xlink:href="#Y"><stop stop-color="#91e9ee"/><stop offset="1" stop-color="#06c1c0"/></linearGradient><linearGradient id="F" x1="164.361" y1="148.879" x2="164.361" y2="162.019" xlink:href="#Y"><stop stop-color="#91e9ee"/><stop offset="1" stop-color="#06c1c0"/></linearGradient><linearGradient id="G" x1="180.227" y1="148.879" x2="180.227" y2="162.019" xlink:href="#Y"><stop stop-color="#91e9ee"/><stop offset="1" stop-color="#06c1c0"/></linearGradient><linearGradient id="H" x1="164.361" y1="179.936" x2="164.361" y2="193.075" xlink:href="#Y"><stop stop-color="#91e9ee"/><stop offset="1" stop-color="#06c1c0"/></linearGradient><linearGradient id="I" x1="180.227" y1="179.936" x2="180.227" y2="193.075" xlink:href="#Y"><stop stop-color="#91e9ee"/><stop offset="1" stop-color="#06c1c0"/></linearGradient><linearGradient id="J" x1="164.361" y1="213.017" x2="164.361" y2="226.156" xlink:href="#Y"><stop stop-color="#91e9ee"/><stop offset="1" stop-color="#06c1c0"/></linearGradient><linearGradient id="K" x1="180.227" y1="213.017" x2="180.227" y2="226.156" xlink:href="#Y"><stop stop-color="#91e9ee"/><stop offset="1" stop-color="#06c1c0"/></linearGradient><linearGradient id="L" x1="164.361" y1="244.073" x2="164.361" y2="257.212" xlink:href="#Y"><stop stop-color="#91e9ee"/><stop offset="1" stop-color="#06c1c0"/></linearGradient><linearGradient id="M" x1="180.227" y1="244.073" x2="180.227" y2="257.212" xlink:href="#Y"><stop stop-color="#91e9ee"/><stop offset="1" stop-color="#06c1c0"/></linearGradient><linearGradient id="N" x1="164.361" y1="275.129" x2="164.361" y2="288.269" xlink:href="#Y"><stop stop-color="#91e9ee"/><stop offset="1" stop-color="#06c1c0"/></linearGradient><linearGradient id="O" x1="180.227" y1="275.129" x2="180.227" y2="288.269" xlink:href="#Y"><stop stop-color="#91e9ee"/><stop offset="1" stop-color="#06c1c0"/></linearGradient><linearGradient id="P" x1="109.675" y1="213.017" x2="109.675" y2="226.156" xlink:href="#Y"><stop stop-color="#91e9ee"/><stop offset="1" stop-color="#06c1c0"/></linearGradient><linearGradient id="Q" x1="125.541" y1="213.017" x2="125.541" y2="226.156" xlink:href="#Y"><stop stop-color="#91e9ee"/><stop offset="1" stop-color="#06c1c0"/></linearGradient><linearGradient id="R" x1="109.675" y1="148.881" x2="109.675" y2="162.02" xlink:href="#Y"><stop stop-color="#91e9ee"/><stop offset="1" stop-color="#06c1c0"/></linearGradient><linearGradient id="S" x1="109.674" y1="148.881" x2="109.674" y2="162.02" xlink:href="#Y"><stop stop-color="#91e9ee"/><stop offset="1" stop-color="#06c1c0"/></linearGradient><linearGradient id="T" x1="133.259" y1="76.537" x2="133.259" y2="320" xlink:href="#Y"><stop stop-color="#91e9ee"/><stop offset="1" stop-color="#06c1c0"/></linearGradient><linearGradient id="U" x1="375.411" y1="253.015" x2="375.411" y2="319.999" xlink:href="#Y"><stop stop-color="#91e9ee"/><stop offset="1" stop-color="#06c1c0"/></linearGradient><linearGradient id="V" x1="375.603" y1="165.761" x2="375.603" y2="261.601" xlink:href="#Y"><stop stop-color="#91e9ee"/><stop offset="1" stop-color="#06c1c0"/></linearGradient><linearGradient id="W" x1="579.602" y1="253.788" x2="579.602" y2="320" xlink:href="#Y"><stop stop-color="#91e9ee"/><stop offset="1" stop-color="#06c1c0"/></linearGradient><path id="X" d="M105.983 162.02v-17.216h7.426v17.216h-7.426z"/><linearGradient id="Y" gradientUnits="userSpaceOnUse"/></defs></svg>