<svg width="27" height="40" viewBox="0 0 27 40" fill="none" xmlns="http://www.w3.org/2000/svg">
<path fill-rule="evenodd" clip-rule="evenodd" d="M22.2683 4.58479L26.8461 0L26.8464 33.011L22.3845 28.5056L22.2683 4.58479Z" fill="url(#paint0_linear)"/>
<path fill-rule="evenodd" clip-rule="evenodd" d="M0.294678 6.4187V0L26.8461 26.5918V33.0105L0.294678 6.4187Z" fill="url(#paint1_linear)"/>
<path fill-rule="evenodd" clip-rule="evenodd" d="M0.294678 0.229248L4.87251 4.5848L4.87251 28.4257L0.294678 33.0105L0.294678 0.229248Z" fill="url(#paint2_linear)"/>
<path fill-rule="evenodd" clip-rule="evenodd" d="M0.294838 33.0104L11.5105 22.0069L8.30604 18.7976L0.295034 26.3625L0.294838 33.0104Z" fill="url(#paint3_linear)"/>
<path d="M2.16962 35.8301V38.2564L0.790094 35.8301H0.2229V39.2H0.75164V36.7833L2.13117 39.2H2.69836V35.8301H2.16962Z" fill="#2C0A92"/>
<path d="M7.66751 35.8301L7.05225 38.449L6.38412 36.1864H5.90344L5.23531 38.449L4.62005 35.8301H4.06247L4.95171 39.2H5.49007L6.14378 37.0625L6.7975 39.2H7.33585L8.22509 35.8301H7.66751Z" fill="#2C0A92"/>
<path d="M9.49524 39.2H10.024V37.6498H11.3891V39.2H11.9178V35.8301H11.3891V37.1492H10.024V35.8301H9.49524V39.2Z" fill="#2C0A92"/>
<path d="M14.3229 35.8301L13.1549 39.2H13.6932L13.972 38.3623H15.1737L15.4525 39.2H15.9908L14.8228 35.8301H14.3229ZM14.5728 36.4993L15.0151 37.8617H14.1306L14.5728 36.4993Z" fill="#2C0A92"/>
<path d="M19.9436 36.8122C19.7706 36.1767 19.2995 35.7916 18.5833 35.7916C17.771 35.7916 17.0259 36.3741 17.0259 37.515C17.0259 38.656 17.771 39.2385 18.5833 39.2385C19.2995 39.2385 19.7706 38.8533 19.9436 38.2179L19.4437 38.0927C19.2755 38.5212 19.04 38.7378 18.5833 38.7378C18.0161 38.7378 17.5643 38.3382 17.5643 37.515C17.5643 36.6918 18.0161 36.2923 18.5833 36.2923C19.04 36.2923 19.2755 36.5089 19.4437 36.9374L19.9436 36.8122Z" fill="#2C0A92"/>
<path d="M21.3196 35.8301V39.2H21.8483V37.5487L23.1269 39.2H23.8047L22.3386 37.3369L23.6941 35.8301H23.05L21.8483 37.1251V35.8301H21.3196Z" fill="#2C0A92"/>
<path d="M26.8366 36.3597C26.6587 36.042 26.3703 35.7916 25.9089 35.7916C25.4186 35.7916 25.0292 36.1671 25.0292 36.6774C25.0292 37.7172 26.4616 37.5728 26.4616 38.2323C26.4616 38.5308 26.2501 38.7378 25.9473 38.7378C25.5628 38.7378 25.3657 38.4008 25.2696 38.0253L24.837 38.2997C24.9571 38.8389 25.3561 39.2385 25.9473 39.2385C26.553 39.2385 27 38.8293 27 38.2131C27 37.1733 25.558 37.3032 25.558 36.6389C25.558 36.4415 25.6926 36.273 25.9089 36.273C26.1059 36.273 26.2742 36.3886 26.4088 36.6437L26.8366 36.3597Z" fill="#2C0A92"/>
<defs>
<linearGradient id="paint0_linear" x1="22.8768" y1="1.67405" x2="22.8768" y2="33.1381" gradientUnits="userSpaceOnUse">
<stop stop-color="#1C1C87" stop-opacity="0.8"/>
<stop offset="1" stop-color="#2C0A92"/>
</linearGradient>
<linearGradient id="paint1_linear" x1="3.8238" y1="1.67402" x2="3.8238" y2="33.1376" gradientUnits="userSpaceOnUse">
<stop stop-color="#1C1C87" stop-opacity="0.8"/>
<stop offset="1" stop-color="#2C0A92"/>
</linearGradient>
<linearGradient id="paint2_linear" x1="0.903147" y1="1.89164" x2="0.903147" y2="33.1367" gradientUnits="userSpaceOnUse">
<stop stop-color="#1C1C87" stop-opacity="0.8"/>
<stop offset="1" stop-color="#2C0A92"/>
</linearGradient>
<linearGradient id="paint3_linear" x1="2.07599" y1="19.2559" x2="1.45125" y2="33.1186" gradientUnits="userSpaceOnUse">
<stop stop-color="#1C1C87" stop-opacity="0.8"/>
<stop offset="1" stop-color="#2C0A92"/>
</linearGradient>
</defs>
</svg>
