<svg xmlns="http://www.w3.org/2000/svg" xmlns:xlink="http://www.w3.org/1999/xlink" width="490" height="518" fill="none"><style><![CDATA[.B{fill:#262662}.C{stroke-linecap:round}.D{stroke-linejoin:round}.E{stroke-width:1.5}]]></style><g class="C D E"><path d="M79.418 360.6L59.472 349" stroke="url(#B)"/><path d="M98.8 371.73L79.418 360.6" stroke="url(#C)"/><path d="M118.392 383.102L98.8 371.73" stroke="url(#D)"/><path d="M137.65 394.242l-19.258-11.14" stroke="url(#E)"/><path d="M293.777 462.005L78.96 337.735" stroke="url(#F)"/><path d="M469.16 360.59l19.487-11.256" stroke="url(#G)"/><path d="M449.673 371.846L469.16 360.6" stroke="url(#H)"/><path d="M430.187 383.102l19.487-11.256" stroke="url(#I)"/><path d="M410.584 394.472l19.602-11.37" stroke="url(#J)"/><path d="M391.212 405.728l19.372-11.256" stroke="url(#K)"/><path d="M371.6 416.983l19.602-11.256" stroke="url(#L)"/><path d="M352.123 428.24l19.487-11.256" stroke="url(#M)"/><path d="M332.75 439.494l19.373-11.255" stroke="url(#N)"/><path d="M313.378 450.635l19.373-11.14" stroke="url(#O)"/><path d="M293.776 462.005l19.602-11.37" stroke="url(#P)"/><path d="M274.404 473.26l19.373-11.256" stroke="url(#Q)"/><path d="M274.29 473.26l-136.64-79.02" stroke="url(#R)"/><path d="M313.378 450.75L98.56 326.48" stroke="url(#S)"/><path d="M332.75 439.494L118.163 315.34" stroke="url(#T)"/><path d="M352.238 428.124L137.65 304.083" stroke="url(#U)"/><path d="M371.725 416.868L157.25 292.828" stroke="url(#V)"/><path d="M391.212 405.613L176.854 281.687" stroke="url(#W)"/><path d="M410.7 394.357L196.34 270.43" stroke="url(#X)"/><path d="M488.648 349.335L274.3 225.294" stroke="url(#Y)"/><path d="M469.16 360.6L254.802 236.55" stroke="url(#Z)"/><path d="M449.674 371.846L235.43 247.92" stroke="url(#a)"/><path d="M430.186 383.102L215.828 259.06" stroke="url(#b)"/><path d="M137.765 394.472l214.473-124.04" stroke="url(#c)"/><path d="M118.392 383.102l214.36-123.926" stroke="url(#d)"/><path d="M99.134 371.73L313.15 247.92" stroke="url(#e)"/><path d="M79.418 360.6l214.358-124.04" stroke="url(#f)"/><path d="M215.943 439.494L430.53 315.34" stroke="url(#g)"/><path d="M196.34 428.24l214.702-124.156" stroke="url(#h)"/><path d="M176.854 416.983L391.327 292.828" stroke="url(#i)"/><path d="M157.366 405.727l214.36-124.04" stroke="url(#j)"/><path d="M235.43 450.635L449.788 326.71" stroke="url(#k)"/><path d="M254.802 462.005l214.817-124.27" stroke="url(#l)"/><path d="M59.357 349.105l214.932-123.81" stroke="url(#m)"/><path d="M21.06 258.78l-19.946-11.6" stroke="url(#n)"/><path d="M40.433 269.92L21.06 258.78" stroke="url(#o)"/><path d="M60.034 281.292l-19.602-11.37" stroke="url(#p)"/><path d="M79.293 292.432l-19.258-11.14" stroke="url(#q)"/><path d="M235.42 360.195L20.602 235.925" stroke="url(#r)"/><path d="M410.804 258.78l19.487-11.256" stroke="url(#s)"/><path d="M391.316 270.036l19.487-11.255" stroke="url(#t)"/><path d="M371.83 281.292l19.487-11.256" stroke="url(#u)"/><path d="M352.227 292.662l19.602-11.37" stroke="url(#v)"/><path d="M332.854 303.918l19.373-11.256" stroke="url(#w)"/><path d="M313.253 315.173l19.602-11.255" stroke="url(#x)"/><path d="M293.766 326.43l19.487-11.256" stroke="url(#y)"/><path d="M274.394 337.684l19.372-11.255" stroke="url(#z)"/><path d="M255.02 348.825l19.373-11.14" stroke="url(#AA)"/><path d="M235.42 360.195l19.602-11.37" stroke="url(#AB)"/><path d="M216.047 371.45l19.372-11.255" stroke="url(#AC)"/><path d="M215.932 371.45l-136.64-79.02" stroke="url(#AD)"/><path d="M255.02 348.94L40.203 224.67" stroke="url(#AE)"/><path d="M274.394 337.684L59.806 213.53" stroke="url(#AF)"/><path d="M293.88 326.314L79.293 202.273" stroke="url(#AG)"/><path d="M313.367 315.06L98.894 191.018" stroke="url(#AH)"/><path d="M332.855 303.803L118.496 179.877" stroke="url(#AI)"/><path d="M352.342 292.547L137.983 168.62" stroke="url(#AJ)"/><path d="M430.29 247.525l-214.36-124.04" stroke="url(#AK)"/><path d="M410.803 258.78l-214.36-124.04" stroke="url(#AL)"/><path d="M391.316 270.036L177.072 146.1" stroke="url(#AM)"/><path d="M371.83 281.292L157.47 157.25" stroke="url(#AN)"/><path d="M79.407 292.662L293.88 168.62" stroke="url(#AO)"/><path d="M60.035 281.292l214.358-123.926" stroke="url(#AP)"/><path d="M40.777 269.92L254.79 146.1" stroke="url(#AQ)"/><path d="M21.06 258.78l214.36-124.04" stroke="url(#AR)"/><path d="M157.585 337.684L372.173 213.53" stroke="url(#AS)"/><path d="M137.983 326.43l214.703-124.156" stroke="url(#AT)"/><path d="M118.496 315.173L332.97 191.018" stroke="url(#AU)"/><path d="M99.01 303.918l214.36-124.04" stroke="url(#AV)"/><path d="M177.072 348.825L391.43 224.9" stroke="url(#AW)"/><path d="M196.444 360.195l214.818-124.27" stroke="url(#AX)"/><path d="M1 247.295l214.932-123.81" stroke="url(#AY)"/></g><g class="B"><path d="M124.773 222.186l-19.83-11.473V117.15l19.83 11.473v93.562z"/><path d="M104.942 117.15l19.83-11.567 19.923 11.567-19.923 11.473-19.83-11.473z"/><path d="M124.773 128.624v93.562l19.923-11.473V173.4c0-24.72 8.845-43.2 18.434-48.694 6.704-3.917 11.545-2.425 11.545 8.77v59.98l19.924-11.473v-66.8c0-18.75-10.428-22.202-24.858-13.806-10.428 6.063-19.086 17.723-25.045 30.97v-15.02l-19.923 11.287z"/><path d="M188.268 98.214L168.344 86.74c-4.47-2.612-10.893-1.4-18.434 2.892-10.427 6.063-19.086 17.724-25.044 30.97v-15.018l-19.924 11.567v93.562l19.924-11.474v-37.313c0-16.418 3.9-30.037 9.3-38.992l-2.514 12.127s12.196.373 13.127 0c.373-.187 4.842-4.758 10.148-10.355v57.182l19.924-11.473v-65.578l13.407-6.623z"/><path d="M174.675 193.362l-19.83-11.567V117.15l19.83 5.7v70.52z"/></g><g class="D E"><path d="M188.07 97.552l-19.966-11.498c-4.48-2.618-10.917-1.402-18.474 2.898-7.41 4.308-13.324 10.638-18.618 19.152m-6.48-3.167l-19.967 11.592v93.764m50.103-77.584v48.697l19.967 11.5" stroke="url(#AZ)" class="C"/><g class="B"><path d="M124.437 221.79l-19.873-11.498V116.53l19.873 11.5v93.763z" stroke="url(#Aa)"/><path d="M104.564 116.53l19.873-11.592 19.967 11.592-19.967 11.5-19.873-11.5z" stroke="url(#Ab)"/><path d="M124.438 128.028v93.763l19.966-11.498V172.9c0-24.773 8.864-43.282 18.474-48.798 6.718-3.926 11.57-2.43 11.57 8.788v60.11l19.967-11.498v-66.934c0-18.8-10.45-22.25-24.912-13.835-10.45 6.076-19.127 17.76-25.098 31.036v-15.05l-19.966 11.312z" stroke="url(#Ac)"/></g></g><path d="M236.03 157.915l-19.924-11.567-25.8-78.637 19.83 11.567 25.883 78.637zm45.526-26.4l-19.923-11.474-13.873-52.424 19.83 11.474 13.965 52.425z" class="B"/><path d="M290.587 97.002l-19.924-11.474 14.617-72.76 19.83 11.567-14.524 72.667zm-45.9 26.585l-19.924-11.567 13.686-72.107 19.83 11.474-13.593 72.2z" class="B"/><path d="M190.224 67.7l19.923-11.474L230.07 67.7l-19.924 11.567L190.223 67.7zm95.056-54.942l19.924-11.474 19.83 11.474L305.1 24.335l-19.83-11.567zm-46.83 27.145l18.528-10.727L276.9 40.66l-18.62 10.727-19.83-11.474z" class="B"/><path d="M305.018 24.428l-14.43 72.574L276.9 40.66l-18.62 10.727-13.593 72.107-14.43-55.876-20.017 11.567 25.8 78.637 17.69-10.168 13.965-68.563 13.965 52.425 17.7-10.168 25.79-108.487-20.1 11.567z" class="B"/><path d="M285.28 12.86l-14.617 72.574-13.592-56.342-18.62 10.728-13.686 72.2-14.43-55.876-20.017 11.567 25.79 78.637 17.69-10.168 13.965-68.562 13.966 52.424 17.69-10.168 25.79-108.487L285.28 12.86z" class="B"/><g class="D E"><path d="M235.986 157.507l-19.83-11.512L190.5 67.73l19.737 11.512 25.76 78.264z" stroke="url(#Ad)" class="B"/><g class="C"><path d="M267.4 79.058l13.9 52.176-19.83-11.42-1.255-4.777" stroke="url(#Ae)"/><path d="M290.285 96.883L304.74 24.56 285.003 13.05l-6.826 33.98" stroke="url(#Af)"/><path d="M244.603 123.342l13.53-71.858-19.737-11.42-6.52 34.35" stroke="url(#Ag)"/></g><g class="B"><path d="M190.398 67.73l19.83-11.42 19.83 11.42-19.83 11.512-19.83-11.512z" stroke="url(#Ah)"/><path d="M285.003 13.05l19.83-11.42 19.736 11.42-19.83 11.512-19.737-11.512z" stroke="url(#Ai)"/><path d="M238.396 40.065l18.44-10.676 19.83 11.42-18.532 10.676-19.736-11.42z" stroke="url(#Aj)"/><path d="M304.648 24.654l-14.362 72.23-13.62-56.075-18.532 10.677-13.53 71.765-14.362-55.6L210.32 79.15l25.667 78.263 17.605-10.12 13.9-68.237 13.9 52.175 17.606-10.12 25.666-107.972-20.014 11.512z" stroke="url(#Ak)"/></g></g><path d="M156.518 361.6l-19.83-11.474V220.193l19.83 11.474V361.6zM70.865 258.253L91.72 246.22l19.924 11.474-20.855 12.033-19.924-11.473z" class="B"/><path d="M136.687 220.193l20.855-12.033 19.83 11.474-20.855 12.033-19.83-11.474zM91.72 295.565l44.968-26.025 19.83 11.567-44.875 25.932-19.924-11.474z" class="B"/><path d="M90.788 399.668l20.855-12.033v-58.3l44.968-26.026v58.3l20.855-12.033V219.634l-20.855 12.033v49.346l-44.968 26.026v-49.346l-20.855 12.033v129.942z" class="B"/><path d="M70.865 388.195L91.72 376.16v-58.3l44.968-26.026v58.3l20.855-12.033V208.16l-20.855 12.033v49.347L91.72 295.565V246.22l-20.855 12.034v129.942z" class="B"/><path d="M90.788 399.668l-19.924-11.473V258.253l19.924 11.473v129.942z" class="B"/><g class="D E"><path d="M90.887 398.993L71.05 387.57V258.195l19.837 11.424v129.374z" stroke="url(#Al)" class="B"/><path d="M156.33 361.1l-19.744-11.424v-35.014m19.744-82.937l-19.744-11.423v49.316" stroke="url(#Am)" class="C"/><g class="B"><path d="M71.05 258.196l20.764-11.98 19.837 11.423-20.764 11.98-19.837-11.423z" stroke="url(#An)"/><path d="M136.586 220.303l20.764-11.98 19.744 11.424-20.764 11.98-19.744-11.423z" stroke="url(#Ao)"/></g><path d="M156.33 280.95l-19.744-11.517-24.935 14.432" stroke="url(#Ap)" class="C"/><path d="M90.888 398.994l20.763-11.98v-58.047l44.772-25.912V361.1l20.763-11.98V219.746l-20.763 11.98v49.13L111.65 306.77v-49.13l-20.763 11.98v129.374z" stroke="url(#Aq)" class="B"/></g><path d="M226.158 256.428c2.606-10.168 8.38-15.58 13.965-18.843 7.355-4.29 14.15-4.85 14.15 5.597v4.104l-13.5 7.836c-20.39 11.753-34.54 31.995-34.54 50.56s10.706 22.2 24.58 14.178c11.544-6.716 19.272-16.5 24.858-27.798l2.048 10.635 16.386-9.422v-55.876c0-29.85-14.803-30.596-33.982-19.496-16.572 9.515-28.2 26.96-30.817 43.843l16.852-5.317zm.93 36.753c0-8.396 5.306-15.112 13.78-20.056l13.313-7.742v1.865c0 12.034-9.59 24.907-18.806 30.13-5.493 3.265-8.286.28-8.286-4.197z" class="B"/><path d="M251.667 299.244l6.052 3.545-2.048-10.634-4.004 7.1zm-11.544-61.66c-.373.28-.838.466-1.2.746l15.362 8.862v-4.105c0-10.354-6.796-9.794-14.15-5.503zM227.1 293.18c0 4.477 2.7 7.556 8.38 4.3 9.124-5.317 18.806-18.097 18.806-30.13v-1.866l-13.313 7.742c-8.566 4.85-13.872 11.567-13.872 19.963zm-17.784-31.435c2.607-16.884 14.245-34.235 30.817-43.843 10.148-5.877 19.086-8.5 25.23-5.13l-19.55-11.38c-6.145-3.545-15.176-1.026-25.603 4.944-16.572 9.515-28.2 26.96-30.817 43.843l6.704 3.918 13.22 7.65z" class="B"/><path d="M240.123 237.585c-5.586 3.264-11.36 8.675-13.965 18.843l-16.852 5.317-6.6-3.825c-10.148 10.82-16.386 23.88-16.386 36.194 0 9.048 2.514 14.458 6.703 16.884l19.738 11.473c-4.097-2.425-6.6-7.835-6.6-16.8 0-18.563 14.15-38.806 34.54-50.56l13.5-7.836v-4.104c.093-10.448-6.703-9.888-14.058-5.597z" class="B"/><g class="D E B"><path d="M265.566 213.165c0-.094 0 0 0 0z" stroke="url(#Ar)"/><path d="M265.566 213.165c0-.094 0 0 0 0z" stroke="url(#Ar)"/><path d="M240.138 237.713c-5.57 3.254-11.323 8.647-13.92 18.783l-16.798 5.3-6.59-3.812c-10.116 10.786-16.334 23.804-16.334 36.078 0 9.02 2.506 14.413 6.682 16.83l19.675 11.438c-4.084-2.418-6.59-7.81-6.59-16.738 0-18.504 14.106-38.682 34.43-50.398l13.456-7.81v-4.09c.093-10.415-6.682-9.857-14.013-5.58z" stroke="url(#As)"/><path d="M226.217 256.496c2.598-10.136 8.352-15.53 13.92-18.783 7.33-4.278 14.106-4.836 14.106 5.58v4.09l-13.457 7.81c-20.324 11.716-34.43 31.894-34.43 50.398s10.673 22.13 24.5 14.134c11.508-6.695 19.21-16.46 24.78-27.7l2.042 10.6 16.334-9.392v-55.698c0-29.756-14.756-30.5-33.874-19.434-16.52 9.484-28.12 26.873-30.72 43.703l16.798-5.3zm.928 36.636c0-8.37 5.3-15.064 13.735-19.992l13.27-7.718v1.86c0 11.995-9.56 24.827-18.746 30.034-5.476 3.255-8.26.28-8.26-4.184z" stroke="url(#At)"/><path d="M251.646 299.176l6.032 3.534-2.042-10.6-4 7.067z" stroke="url(#Au)"/><path d="M240.138 237.713c-.372.28-.836.465-1.207.744l15.313 8.833v-4.09c0-10.32-6.775-9.764-14.106-5.486z" stroke="url(#Av)"/><path d="M227.145 293.132c0 4.464 2.69 7.532 8.352 4.278 9.095-5.3 18.747-18.04 18.747-30.035v-1.86l-13.27 7.717c-8.54 4.836-13.828 11.53-13.828 19.9z" stroke="url(#Aw)"/><path d="M209.42 261.796c2.6-16.83 14.2-34.125 30.72-43.703 10.115-5.858 19.025-8.462 25.15-5.114l-19.49-11.344c-6.125-3.534-15.128-1.023-25.522 4.928-16.52 9.484-28.12 26.873-30.718 43.703l6.682 3.905 13.178 7.625z" stroke="url(#Ax)"/></g><path d="M382.006 351.765c7.168-1.12 17.316-4.197 23.554-.746l-19.365-11.194c-2.234-1.4-5.027-1.96-8.1-1.865-2.234 2.425-3.9 5.7-3.9 9.234.093 4.012 2.98 5.318 7.82 4.57zm-26.162 5.877c0-14.46 10.148-33.115 25.8-42.257 8.565-4.944 16.293-5.597 21.6-2.612l-19.83-11.567c-5.307-2.985-13.034-2.332-21.6 2.612-15.734 9.142-25.882 27.798-25.882 42.257 0 8.022 2.328 12.22 5.866 14.272l19.923 11.567c-3.537-2.052-5.865-6.25-5.865-14.272zm50.276-6.342l-.186-.093c.093 0 .093.093.186.093zm-23.65 40.483c6.145-3.544 9.962-8.955 9.962-15.764 0-7.836-10.427-3.452-20.203-2.612-.745.093-1.583.093-2.328.186-1.77 2.706-4.2 4.944-7.355 6.717-1.117.653-2.234 1.12-3.258 1.492l6.9 4c2.98 7.37 8.38 10.448 16.293 5.97zm-32.12 12.967l-.56-.28-19.365-11.194c1.583 3.545 4.2 6.903 7.914 8.955l.093.093 20.1 11.66-.093-.093c-3.724-2.145-6.517-5.503-8.1-9.14z" class="B"/><path d="M359.382 381.71l-13.034-7.463-15.828 19.03 19.272 11.194.56.28.372-.467 15.548-18.563-6.89-4.01z" class="B"/><path d="M405.98 351.3c-.093 0-.093-.093-.186-.093l-.373-.187c-6.237-3.45-16.385-.373-23.554.746-4.842.747-7.728-.56-7.728-4.664 0-3.544 1.676-6.8 3.9-9.235 1.024-1.12 2.234-2.145 3.537-2.798 4.47-2.612 9.776-3.078 13.5.373l11.917-19.496c-1.024-1.306-2.327-2.332-3.724-3.172-5.307-2.985-13.034-2.332-21.6 2.612-15.735 9.142-25.8 27.798-25.8 42.257 0 8.022 2.328 12.313 5.866 14.272 2.327 1.306 5.12 1.68 8.193 1.586.745 0 1.5-.093 2.327-.186 9.776-.84 20.203-5.224 20.203 2.6 0 6.903-3.817 12.22-9.962 15.765-7.82 4.57-13.313 1.4-16.2-6.063l-15.92 19.03 8.1 9.05c5.68 3.17 13.872 3.45 24.02-2.426 17.504-10.074 28.77-30.876 28.77-47.76-.28-6.53-2.235-10.26-5.307-12.22zm-47.53 62.498l-8.1-9.048c1.583 3.638 4.376 6.996 8.1 9.048z" class="B"/><g class="D E"><path d="M350.525 404.7l.373-.466-.373.466z" stroke="url(#Ay)" class="B"/><path d="M349.967 404.4l.56.28-.56-.28z" stroke="url(#Az)" class="B"/><path d="M382.163 351.736c7.165-1.12 17.307-4.196 23.54-.746l-19.354-11.188c-2.233-1.398-5.025-1.957-8.095-1.864-2.233 2.424-3.908 5.687-3.908 9.23.093 4.008 2.977 5.314 7.816 4.568z" stroke="url(#BA)" class="B"/><path d="M356.016 357.61c0-14.45 10.142-33.097 25.774-42.233 8.56-4.94 16.284-5.594 21.588-2.61l-19.82-11.56c-5.304-2.983-13.027-2.33-21.587 2.6-15.726 9.137-25.868 27.783-25.868 42.233 0 8.018 2.326 12.214 5.862 14.265l19.913 11.56c-3.536-2.05-5.862-6.246-5.862-14.264z" stroke="url(#BB)" class="B"/><path d="M406.262 351.27l-.185-.093c.092 0 .092.093.185.093z" stroke="url(#BC)" class="B"/><path d="M382.628 391.73c6.14-3.543 9.956-8.95 9.956-15.756 0-7.83-10.42-3.45-20.192-2.6-.744.093-1.58.093-2.326.186-1.768 2.704-4.187 4.94-7.35 6.713-1.116.652-2.233 1.12-3.257 1.492l6.886 4.008c2.978 7.366 8.375 10.442 16.284 5.967z" stroke="url(#BD)" class="B"/><path d="M350.526 404.7l-.558-.28-19.355-11.187c1.582 3.542 4.187 6.9 7.91 8.95l.094.093 20.098 11.654-.093-.094c-3.722-2.144-6.513-5.5-8.095-9.136z" stroke="url(#BE)" class="B"/><path d="M350.898 404.224l15.54-18.553-15.54 18.553z" stroke="url(#BF)" class="B"/><path d="M359.552 381.662l-13.027-7.458-15.818 19.02 19.26 11.187.558.28.372-.466 15.54-18.553-6.885-4.01z" stroke="url(#BG)" class="B"/><path d="M350.572 404.597l.372-.466 15.54-18.553c2.884 7.458 8.374 10.628 16.2 6.06 6.142-3.543 9.957-8.857 9.957-15.756 0-7.83-10.422-3.45-20.192-2.6-.838.093-1.582.186-2.326.186-3.07.093-5.862-.28-8.19-1.585-3.536-1.958-5.862-6.246-5.862-14.264 0-14.45 10.05-33.097 25.775-42.233 8.56-4.94 16.283-5.594 21.587-2.61 1.396.84 2.7 1.865 3.722 3.17l-11.9 19.485c-3.722-3.45-9.026-2.983-13.492-.373-1.303.653-2.513 1.68-3.536 2.797-2.233 2.424-3.908 5.687-3.908 9.23 0 4.102 2.884 5.407 7.723 4.66 7.165-1.118 17.307-4.195 23.54-.745l.373.186c.093 0 .093.093.186.093 3.07 1.958 5.024 5.687 5.303 12.213 0 16.875-11.258 37.665-28.752 47.734-10.142 5.874-18.33 5.594-24.006 2.424" stroke="url(#BH)" class="C"/></g><g class="B"><path d="M274.102 472.94l-19.83-11.567v-131.53l19.83 11.567v131.53zm19.923-68.47l-19.83-11.474 26.254-51.958 19.924 11.473-26.348 51.96z"/><path d="M322.608 444.768l-19.924-11.474-28.5-27.705 19.83 11.567 28.583 27.612zM254.27 329.844l19.924-11.474 19.83 11.474L274.1 341.41l-19.83-11.567z"/><path d="M274.102 341.4v131.434l19.923-11.473v-44.216l28.583 27.705L347 430.775l-34.54-30.503 32.4-61.846-24.58 14.18-26.348 51.958v-74.626l-19.83 11.474zm26.348-.372l24.58-14.272 19.83 11.567-24.486 14.178-19.924-11.473z"/><path d="M254.27 329.844v131.434l19.924-11.473V405.59l28.582 27.705 24.393-14.086-34.54-30.503 32.4-61.846-24.58 14.18-26.347 51.958V318.37l-19.83 11.474z"/></g><g class="E"><g class="D"><path d="M254.364 461.178v-131.62l19.86-11.5m28.716 115.086l-8.674-8.407m30.956-98.178l-24.613 14.2" stroke="url(#BI)" class="C"/><path d="M274.223 472.854l-19.86-11.583V329.558l19.86 11.583v131.713z" stroke="url(#BJ)" class="B"/><g class="C"><path d="M294.174 404.29l26.385-52.03-19.952-11.5-6.433 12.73" stroke="url(#BK)"/><path d="M302.845 433.154l19.952 11.49-28.623-27.65" stroke="url(#BL)"/></g><g class="B"><path d="M254.364 329.558l19.952-11.5 19.86 11.5-19.952 11.584-19.86-11.584z" stroke="url(#BM)"/><path d="M274.222 341.14v131.62l19.952-11.5v-44.278l28.622 27.744 24.427-14.105-34.59-30.547 32.445-61.933-24.613 14.2-26.385 52.03v-74.73l-19.86 11.5z" stroke="url(#BN)"/><path d="M300.608 340.768l24.613-14.292 19.86 11.583-24.52 14.2-19.952-11.5z" stroke="url(#BO)"/></g></g><path d="M221.31 407.83h-.001c-26.62 15.362-39.85 45.114-39.85 71.73 0 10.593 2.177 19.442 6.543 25.207l-13.802-7.95c-7.353-4.17-11.164-14.517-11.164-28.73 0-26.088 13.025-55.384 39.1-70.43l.001-.001c11.852-6.866 21.12-8.188 27.65-4.567l14.027 8.105c-6.266-.663-13.83 1.652-22.503 6.636zm25.694-4.43a14.55 14.55 0 0 1 2.708 1.204l.083.048.002.001.023-.04.075.042c3.154 1.793 5.696 4.85 7.673 9.176l-16.742 17.565c-2.006-3.34-4.458-5.633-7.552-6.475-3.357-.914-7.272-.068-11.873 2.593-12.892 7.463-18.995 23.362-18.995 40.014 0 1.73.072 3.32.216 4.832l-.168.1.05.456c.562 5.18 1.867 9.404 4.057 12.165.568.734 1.198 1.367 1.893 1.89 3.4 2.56 8.043 2.298 13.7-.988l.002-.001c9.044-5.286 14.868-14.275 19.074-26.35l3.905-.417 12.376-1.368c-6.207 20.392-18.625 36.353-36.108 46.428l-.003.002c-12.38 7.22-21.634 7.625-27.798 3.655l-.001-.001c-6.926-4.448-10.55-14.546-10.55-28.38 0-26.088 13.025-55.384 39.1-70.432h.001c10.206-5.912 18.56-7.712 24.852-5.73zm-39.256 80.774c-1.84-2.38-3.052-6.128-3.543-11.066 7.787-5.328 13.04-13.657 16.868-24.624l10.756 6.194 7.837 4.55c-4.052 11.9-9.695 20.364-18.358 25.376h-.001c-5.423 3.15-9.322 3.12-12.02 1.088-.552-.416-1.065-.923-1.54-1.518zm30.624-37.98l17.74 10.298-15.215 1.677-8.316-4.8-9.48-5.503 15.272-1.682z" stroke="#d67dac" class="B"/><g class="D"><path d="M182.018 479.988c0-26.39 13.124-55.86 39.464-71.06 12.007-6.9 21.594-8.486 28.48-4.476l-20.01-11.564c-6.888-3.824-16.475-2.332-28.388 4.57-26.34 15.2-39.464 44.763-39.464 71.062 0 14.268 3.816 24.992 11.54 29.376l19.267 11.097c-7.167-4.663-10.9-15.2-10.9-29.003z" stroke="url(#BP)" class="B"/><path d="M221.482 485.677c9.028-5.223 14.8-14.082 18.894-26.392l-19.918-11.47c-3.91 11.564-9.308 20.143-17.405 25.46 1.396 12.87 7.353 18.838 18.43 12.403z" stroke="url(#BQ)" class="B"/><path d="M220.55 447.815l19.92 11.563 17.777-1.958-19.918-11.564-17.778 1.96z" stroke="url(#BR)" class="B"/><path d="M240.47 459.378c-4.188 12.217-9.96 21.17-18.894 26.392-11.076 6.435-17.126.466-18.336-12.403-.186-1.68-.28-3.45-.28-5.41 0-16.506 6.05-32.08 18.615-39.354 9.028-5.223 14.8-2.984 18.894 4.476l17.778-18.65c-2.048-4.663-4.747-8.02-8.19-9.98-6.887-3.916-16.567-2.424-28.48 4.477-26.34 15.2-39.464 44.763-39.464 71.06 0 13.895 3.63 24.34 10.9 29.003 6.515 4.196 16.102 3.637 28.574-3.637 17.964-10.352 30.622-26.858 36.765-47.934l-13.496 1.492-4.375.466z" stroke="url(#BS)" class="B"/><path d="M244.75 458.912l13.496-1.492-17.777 1.958 4.28-.466z" stroke="url(#BT)" class="B"/><g class="C"><path d="M63.87 453.5l19.306-11.094" stroke="url(#BU)"/><path d="M83.175 442.463l-19.306-11.17" stroke="url(#BV)"/><path d="M63.87 453.614l-19.278-11.15" stroke="url(#BW)"/><path d="M44.563 442.42l19.306-11.242" stroke="url(#BX)"/><path d="M430.452 516.957l38.612-22.188" stroke="url(#BY)"/><path d="M449.758 505.92l-38.612-22.344" stroke="url(#BZ)"/><path d="M430.452 517.07l-19.278-11.15" stroke="url(#Ba)"/><path d="M430.565 472.353l-19.362 11.194" stroke="url(#Bb)"/><path d="M449.758 483.4l-38.612 22.486" stroke="url(#Bc)"/><path d="M469.064 494.77l-38.612-22.344" stroke="url(#Bd)"/></g></g></g><mask id="A" mask-type="alpha" maskUnits="userSpaceOnUse" x="13" y="73" width="77" height="66"><g class="C D E"><path d="M51.53 117.768l37.38-21.48" stroke="url(#Be)"/><path d="M51.55 117.64v19.93" stroke="url(#Bf)"/><path d="M88.947 96.114v19.93" stroke="url(#Bg)"/><path d="M69.85 107.275v19.932" stroke="url(#Bh)"/><path d="M32.452 107.275v19.932" stroke="url(#Bi)"/><path d="M14.15 96.114v19.93" stroke="url(#Bj)"/><path d="M70.22 107.084l-37.38-21.63" stroke="url(#Bk)"/><path d="M51.53 117.88L14.206 96.29" stroke="url(#Bl)"/><path d="M51.64 74.588l-37.5 21.674" stroke="url(#Bm)"/><path d="M70.22 85.273L32.84 107.04" stroke="url(#Bn)"/><path d="M88.91 96.288l-37.38-21.63" stroke="url(#Bo)"/><path d="M51.53 137.525l37.38-21.48" stroke="url(#Bp)"/><path d="M51.53 137.635l-37.325-21.6" stroke="url(#Bq)"/></g></mask><g mask="url(#A)"><path fill="url(#Br)" d="M12.56 72.994h77.98v66.172H12.56z"/></g><defs><linearGradient id="B" x1="69.445" y1="348.99" x2="69.445" y2="360.59" xlink:href="#Bs"><stop stop-color="#91e9ee"/><stop offset="1" stop-color="#06c1c0"/></linearGradient><linearGradient id="C" x1="89.104" y1="360.59" x2="89.104" y2="371.731" xlink:href="#Bs"><stop stop-color="#91e9ee"/><stop offset="1" stop-color="#06c1c0"/></linearGradient><linearGradient id="D" x1="108.591" y1="371.731" x2="108.591" y2="383.102" xlink:href="#Bs"><stop stop-color="#91e9ee"/><stop offset="1" stop-color="#06c1c0"/></linearGradient><linearGradient id="E" x1="128.021" y1="383.102" x2="128.021" y2="394.242" xlink:href="#Bs"><stop stop-color="#91e9ee"/><stop offset="1" stop-color="#06c1c0"/></linearGradient><linearGradient id="F" x1="186.368" y1="337.735" x2="186.368" y2="462.005" xlink:href="#Bs"><stop stop-color="#91e9ee"/><stop offset="1" stop-color="#06c1c0"/></linearGradient><linearGradient id="G" x1="478.905" y1="349.335" x2="478.905" y2="360.591" xlink:href="#Bs"><stop stop-color="#91e9ee"/><stop offset="1" stop-color="#06c1c0"/></linearGradient><linearGradient id="H" x1="459.417" y1="360.59" x2="459.417" y2="371.846" xlink:href="#Bs"><stop stop-color="#91e9ee"/><stop offset="1" stop-color="#06c1c0"/></linearGradient><linearGradient id="I" x1="439.931" y1="371.846" x2="439.931" y2="383.102" xlink:href="#Bs"><stop stop-color="#91e9ee"/><stop offset="1" stop-color="#06c1c0"/></linearGradient><linearGradient id="J" x1="420.385" y1="383.102" x2="420.385" y2="394.472" xlink:href="#Bs"><stop stop-color="#91e9ee"/><stop offset="1" stop-color="#06c1c0"/></linearGradient><linearGradient id="K" x1="400.898" y1="394.472" x2="400.898" y2="405.728" xlink:href="#Bs"><stop stop-color="#91e9ee"/><stop offset="1" stop-color="#06c1c0"/></linearGradient><linearGradient id="L" x1="381.411" y1="405.727" x2="381.411" y2="416.983" xlink:href="#Bs"><stop stop-color="#91e9ee"/><stop offset="1" stop-color="#06c1c0"/></linearGradient><linearGradient id="M" x1="361.867" y1="416.983" x2="361.867" y2="428.239" xlink:href="#Bs"><stop stop-color="#91e9ee"/><stop offset="1" stop-color="#06c1c0"/></linearGradient><linearGradient id="N" x1="342.437" y1="428.239" x2="342.437" y2="439.494" xlink:href="#Bs"><stop stop-color="#91e9ee"/><stop offset="1" stop-color="#06c1c0"/></linearGradient><linearGradient id="O" x1="323.065" y1="439.494" x2="323.065" y2="450.635" xlink:href="#Bs"><stop stop-color="#91e9ee"/><stop offset="1" stop-color="#06c1c0"/></linearGradient><linearGradient id="P" x1="303.577" y1="450.635" x2="303.577" y2="462.005" xlink:href="#Bs"><stop stop-color="#91e9ee"/><stop offset="1" stop-color="#06c1c0"/></linearGradient><linearGradient id="Q" x1="284.091" y1="462.005" x2="284.091" y2="473.261" xlink:href="#Bs"><stop stop-color="#91e9ee"/><stop offset="1" stop-color="#06c1c0"/></linearGradient><linearGradient id="R" x1="205.97" y1="394.242" x2="205.97" y2="473.261" xlink:href="#Bs"><stop stop-color="#91e9ee"/><stop offset="1" stop-color="#06c1c0"/></linearGradient><linearGradient id="S" x1="205.969" y1="326.479" x2="205.969" y2="450.75" xlink:href="#Bs"><stop stop-color="#91e9ee"/><stop offset="1" stop-color="#06c1c0"/></linearGradient><linearGradient id="T" x1="225.457" y1="315.339" x2="225.457" y2="439.494" xlink:href="#Bs"><stop stop-color="#91e9ee"/><stop offset="1" stop-color="#06c1c0"/></linearGradient><linearGradient id="U" x1="244.944" y1="304.083" x2="244.944" y2="428.124" xlink:href="#Bs"><stop stop-color="#91e9ee"/><stop offset="1" stop-color="#06c1c0"/></linearGradient><linearGradient id="V" x1="264.488" y1="292.828" x2="264.488" y2="416.868" xlink:href="#Bs"><stop stop-color="#91e9ee"/><stop offset="1" stop-color="#06c1c0"/></linearGradient><linearGradient id="W" x1="284.033" y1="281.687" x2="284.033" y2="405.613" xlink:href="#Bs"><stop stop-color="#91e9ee"/><stop offset="1" stop-color="#06c1c0"/></linearGradient><linearGradient id="X" x1="303.52" y1="270.431" x2="303.52" y2="394.357" xlink:href="#Bs"><stop stop-color="#91e9ee"/><stop offset="1" stop-color="#06c1c0"/></linearGradient><linearGradient id="Y" x1="381.469" y1="225.294" x2="381.469" y2="349.335" xlink:href="#Bs"><stop stop-color="#91e9ee"/><stop offset="1" stop-color="#06c1c0"/></linearGradient><linearGradient id="Z" x1="361.981" y1="236.55" x2="361.981" y2="360.59" xlink:href="#Bs"><stop stop-color="#91e9ee"/><stop offset="1" stop-color="#06c1c0"/></linearGradient><linearGradient id="a" x1="342.552" y1="247.92" x2="342.552" y2="371.846" xlink:href="#Bs"><stop stop-color="#91e9ee"/><stop offset="1" stop-color="#06c1c0"/></linearGradient><linearGradient id="b" x1="323.007" y1="259.061" x2="323.007" y2="383.102" xlink:href="#Bs"><stop stop-color="#91e9ee"/><stop offset="1" stop-color="#06c1c0"/></linearGradient><linearGradient id="c" x1="245.001" y1="270.431" x2="245.001" y2="394.472" xlink:href="#Bs"><stop stop-color="#91e9ee"/><stop offset="1" stop-color="#06c1c0"/></linearGradient><linearGradient id="d" x1="225.571" y1="259.176" x2="225.571" y2="383.102" xlink:href="#Bs"><stop stop-color="#91e9ee"/><stop offset="1" stop-color="#06c1c0"/></linearGradient><linearGradient id="e" x1="206.141" y1="247.92" x2="206.141" y2="371.731" xlink:href="#Bs"><stop stop-color="#91e9ee"/><stop offset="1" stop-color="#06c1c0"/></linearGradient><linearGradient id="f" x1="186.597" y1="236.55" x2="186.597" y2="360.59" xlink:href="#Bs"><stop stop-color="#91e9ee"/><stop offset="1" stop-color="#06c1c0"/></linearGradient><linearGradient id="g" x1="323.237" y1="315.339" x2="323.237" y2="439.494" xlink:href="#Bs"><stop stop-color="#91e9ee"/><stop offset="1" stop-color="#06c1c0"/></linearGradient><linearGradient id="h" x1="303.692" y1="304.083" x2="303.692" y2="428.239" xlink:href="#Bs"><stop stop-color="#91e9ee"/><stop offset="1" stop-color="#06c1c0"/></linearGradient><linearGradient id="i" x1="284.09" y1="292.828" x2="284.09" y2="416.983" xlink:href="#Bs"><stop stop-color="#91e9ee"/><stop offset="1" stop-color="#06c1c0"/></linearGradient><linearGradient id="j" x1="264.546" y1="281.687" x2="264.546" y2="405.727" xlink:href="#Bs"><stop stop-color="#91e9ee"/><stop offset="1" stop-color="#06c1c0"/></linearGradient><linearGradient id="k" x1="342.609" y1="326.709" x2="342.609" y2="450.635" xlink:href="#Bs"><stop stop-color="#91e9ee"/><stop offset="1" stop-color="#06c1c0"/></linearGradient><linearGradient id="l" x1="362.21" y1="337.735" x2="362.21" y2="462.005" xlink:href="#Bs"><stop stop-color="#91e9ee"/><stop offset="1" stop-color="#06c1c0"/></linearGradient><linearGradient id="m" x1="166.823" y1="225.294" x2="166.823" y2="349.105" xlink:href="#Bs"><stop stop-color="#91e9ee"/><stop offset="1" stop-color="#06c1c0"/></linearGradient><linearGradient id="n" x1="11.088" y1="247.181" x2="11.088" y2="258.781" xlink:href="#Bs"><stop stop-color="#91e9ee"/><stop offset="1" stop-color="#06c1c0"/></linearGradient><linearGradient id="o" x1="30.747" y1="258.781" x2="30.747" y2="269.921" xlink:href="#Bs"><stop stop-color="#91e9ee"/><stop offset="1" stop-color="#06c1c0"/></linearGradient><linearGradient id="p" x1="50.234" y1="269.921" x2="50.234" y2="281.292" xlink:href="#Bs"><stop stop-color="#91e9ee"/><stop offset="1" stop-color="#06c1c0"/></linearGradient><linearGradient id="q" x1="69.664" y1="281.292" x2="69.664" y2="292.432" xlink:href="#Bs"><stop stop-color="#91e9ee"/><stop offset="1" stop-color="#06c1c0"/></linearGradient><linearGradient id="r" x1="128.011" y1="235.925" x2="128.011" y2="360.195" xlink:href="#Bs"><stop stop-color="#91e9ee"/><stop offset="1" stop-color="#06c1c0"/></linearGradient><linearGradient id="s" x1="420.547" y1="247.525" x2="420.547" y2="258.781" xlink:href="#Bs"><stop stop-color="#91e9ee"/><stop offset="1" stop-color="#06c1c0"/></linearGradient><linearGradient id="t" x1="401.059" y1="258.781" x2="401.059" y2="270.036" xlink:href="#Bs"><stop stop-color="#91e9ee"/><stop offset="1" stop-color="#06c1c0"/></linearGradient><linearGradient id="u" x1="381.573" y1="270.036" x2="381.573" y2="281.292" xlink:href="#Bs"><stop stop-color="#91e9ee"/><stop offset="1" stop-color="#06c1c0"/></linearGradient><linearGradient id="v" x1="362.028" y1="281.292" x2="362.028" y2="292.662" xlink:href="#Bs"><stop stop-color="#91e9ee"/><stop offset="1" stop-color="#06c1c0"/></linearGradient><linearGradient id="w" x1="342.541" y1="292.662" x2="342.541" y2="303.918" xlink:href="#Bs"><stop stop-color="#91e9ee"/><stop offset="1" stop-color="#06c1c0"/></linearGradient><linearGradient id="x" x1="323.054" y1="303.918" x2="323.054" y2="315.173" xlink:href="#Bs"><stop stop-color="#91e9ee"/><stop offset="1" stop-color="#06c1c0"/></linearGradient><linearGradient id="y" x1="303.509" y1="315.173" x2="303.509" y2="326.429" xlink:href="#Bs"><stop stop-color="#91e9ee"/><stop offset="1" stop-color="#06c1c0"/></linearGradient><linearGradient id="z" x1="284.08" y1="326.429" x2="284.08" y2="337.684" xlink:href="#Bs"><stop stop-color="#91e9ee"/><stop offset="1" stop-color="#06c1c0"/></linearGradient><linearGradient id="AA" x1="264.707" y1="337.684" x2="264.707" y2="348.825" xlink:href="#Bs"><stop stop-color="#91e9ee"/><stop offset="1" stop-color="#06c1c0"/></linearGradient><linearGradient id="AB" x1="245.22" y1="348.825" x2="245.22" y2="360.195" xlink:href="#Bs"><stop stop-color="#91e9ee"/><stop offset="1" stop-color="#06c1c0"/></linearGradient><linearGradient id="AC" x1="225.733" y1="360.196" x2="225.733" y2="371.451" xlink:href="#Bs"><stop stop-color="#91e9ee"/><stop offset="1" stop-color="#06c1c0"/></linearGradient><linearGradient id="AD" x1="147.612" y1="292.432" x2="147.612" y2="371.451" xlink:href="#Bs"><stop stop-color="#91e9ee"/><stop offset="1" stop-color="#06c1c0"/></linearGradient><linearGradient id="AE" x1="147.612" y1="224.669" x2="147.612" y2="348.94" xlink:href="#Bs"><stop stop-color="#91e9ee"/><stop offset="1" stop-color="#06c1c0"/></linearGradient><linearGradient id="AF" x1="167.1" y1="213.529" x2="167.1" y2="337.684" xlink:href="#Bs"><stop stop-color="#91e9ee"/><stop offset="1" stop-color="#06c1c0"/></linearGradient><linearGradient id="AG" x1="186.587" y1="202.273" x2="186.587" y2="326.314" xlink:href="#Bs"><stop stop-color="#91e9ee"/><stop offset="1" stop-color="#06c1c0"/></linearGradient><linearGradient id="AH" x1="206.131" y1="191.018" x2="206.131" y2="315.059" xlink:href="#Bs"><stop stop-color="#91e9ee"/><stop offset="1" stop-color="#06c1c0"/></linearGradient><linearGradient id="AI" x1="225.675" y1="179.877" x2="225.675" y2="303.803" xlink:href="#Bs"><stop stop-color="#91e9ee"/><stop offset="1" stop-color="#06c1c0"/></linearGradient><linearGradient id="AJ" x1="245.163" y1="168.621" x2="245.163" y2="292.547" xlink:href="#Bs"><stop stop-color="#91e9ee"/><stop offset="1" stop-color="#06c1c0"/></linearGradient><linearGradient id="AK" x1="323.111" y1="123.484" x2="323.111" y2="247.525" xlink:href="#Bs"><stop stop-color="#91e9ee"/><stop offset="1" stop-color="#06c1c0"/></linearGradient><linearGradient id="AL" x1="303.624" y1="134.74" x2="303.624" y2="258.781" xlink:href="#Bs"><stop stop-color="#91e9ee"/><stop offset="1" stop-color="#06c1c0"/></linearGradient><linearGradient id="AM" x1="284.194" y1="146.11" x2="284.194" y2="270.036" xlink:href="#Bs"><stop stop-color="#91e9ee"/><stop offset="1" stop-color="#06c1c0"/></linearGradient><linearGradient id="AN" x1="264.65" y1="157.251" x2="264.65" y2="281.292" xlink:href="#Bs"><stop stop-color="#91e9ee"/><stop offset="1" stop-color="#06c1c0"/></linearGradient><linearGradient id="AO" x1="186.644" y1="168.621" x2="186.644" y2="292.662" xlink:href="#Bs"><stop stop-color="#91e9ee"/><stop offset="1" stop-color="#06c1c0"/></linearGradient><linearGradient id="AP" x1="167.214" y1="157.366" x2="167.214" y2="281.292" xlink:href="#Bs"><stop stop-color="#91e9ee"/><stop offset="1" stop-color="#06c1c0"/></linearGradient><linearGradient id="AQ" x1="147.784" y1="146.11" x2="147.784" y2="269.921" xlink:href="#Bs"><stop stop-color="#91e9ee"/><stop offset="1" stop-color="#06c1c0"/></linearGradient><linearGradient id="AR" x1="128.24" y1="134.74" x2="128.24" y2="258.781" xlink:href="#Bs"><stop stop-color="#91e9ee"/><stop offset="1" stop-color="#06c1c0"/></linearGradient><linearGradient id="AS" x1="264.879" y1="213.529" x2="264.879" y2="337.684" xlink:href="#Bs"><stop stop-color="#91e9ee"/><stop offset="1" stop-color="#06c1c0"/></linearGradient><linearGradient id="AT" x1="245.335" y1="202.273" x2="245.335" y2="326.429" xlink:href="#Bs"><stop stop-color="#91e9ee"/><stop offset="1" stop-color="#06c1c0"/></linearGradient><linearGradient id="AU" x1="225.733" y1="191.018" x2="225.733" y2="315.173" xlink:href="#Bs"><stop stop-color="#91e9ee"/><stop offset="1" stop-color="#06c1c0"/></linearGradient><linearGradient id="AV" x1="206.188" y1="179.877" x2="206.188" y2="303.918" xlink:href="#Bs"><stop stop-color="#91e9ee"/><stop offset="1" stop-color="#06c1c0"/></linearGradient><linearGradient id="AW" x1="284.252" y1="224.899" x2="284.252" y2="348.825" xlink:href="#Bs"><stop stop-color="#91e9ee"/><stop offset="1" stop-color="#06c1c0"/></linearGradient><linearGradient id="AX" x1="303.853" y1="235.925" x2="303.853" y2="360.195" xlink:href="#Bs"><stop stop-color="#91e9ee"/><stop offset="1" stop-color="#06c1c0"/></linearGradient><linearGradient id="AY" x1="108.466" y1="123.484" x2="108.466" y2="247.295" xlink:href="#Bs"><stop stop-color="#91e9ee"/><stop offset="1" stop-color="#06c1c0"/></linearGradient><linearGradient id="AZ" x1="146.317" y1="84.682" x2="146.317" y2="210.293" xlink:href="#Bs"><stop stop-color="#91e9ee"/><stop offset="1" stop-color="#06c1c0"/></linearGradient><linearGradient id="Aa" x1="114.501" y1="116.529" x2="114.501" y2="221.791" xlink:href="#Bs"><stop stop-color="#91e9ee"/><stop offset="1" stop-color="#06c1c0"/></linearGradient><linearGradient id="Ab" x1="124.484" y1="104.937" x2="124.484" y2="128.028" xlink:href="#Bs"><stop stop-color="#91e9ee"/><stop offset="1" stop-color="#06c1c0"/></linearGradient><linearGradient id="Ac" x1="159.426" y1="96.402" x2="159.426" y2="221.791" xlink:href="#Bs"><stop stop-color="#91e9ee"/><stop offset="1" stop-color="#06c1c0"/></linearGradient><linearGradient id="Ad" x1="213.238" y1="67.731" x2="213.238" y2="157.507" xlink:href="#Bs"><stop stop-color="#91e9ee"/><stop offset="1" stop-color="#06c1c0"/></linearGradient><linearGradient id="Ae" x1="270.756" y1="79.058" x2="270.756" y2="131.234" xlink:href="#Bs"><stop stop-color="#91e9ee"/><stop offset="1" stop-color="#06c1c0"/></linearGradient><linearGradient id="Af" x1="291.458" y1="13.049" x2="291.458" y2="96.883" xlink:href="#Bs"><stop stop-color="#91e9ee"/><stop offset="1" stop-color="#06c1c0"/></linearGradient><linearGradient id="Ag" x1="245.004" y1="40.065" x2="245.004" y2="123.342" xlink:href="#Bs"><stop stop-color="#91e9ee"/><stop offset="1" stop-color="#06c1c0"/></linearGradient><linearGradient id="Ah" x1="210.228" y1="56.312" x2="210.228" y2="79.244" xlink:href="#Bs"><stop stop-color="#91e9ee"/><stop offset="1" stop-color="#06c1c0"/></linearGradient><linearGradient id="Ai" x1="304.786" y1="1.63" x2="304.786" y2="24.561" xlink:href="#Bs"><stop stop-color="#91e9ee"/><stop offset="1" stop-color="#06c1c0"/></linearGradient><linearGradient id="Aj" x1="257.53" y1="29.389" x2="257.53" y2="51.485" xlink:href="#Bs"><stop stop-color="#91e9ee"/><stop offset="1" stop-color="#06c1c0"/></linearGradient><linearGradient id="Ak" x1="267.491" y1="13.142" x2="267.491" y2="157.414" xlink:href="#Bs"><stop stop-color="#91e9ee"/><stop offset="1" stop-color="#06c1c0"/></linearGradient><linearGradient id="Al" x1="80.969" y1="258.195" x2="80.969" y2="398.993" xlink:href="#Bs"><stop stop-color="#91e9ee"/><stop offset="1" stop-color="#06c1c0"/></linearGradient><linearGradient id="Am" x1="146.458" y1="220.303" x2="146.458" y2="361.101" xlink:href="#Bs"><stop stop-color="#91e9ee"/><stop offset="1" stop-color="#06c1c0"/></linearGradient><linearGradient id="An" x1="91.351" y1="246.215" x2="91.351" y2="269.619" xlink:href="#Bs"><stop stop-color="#91e9ee"/><stop offset="1" stop-color="#06c1c0"/></linearGradient><linearGradient id="Ao" x1="156.84" y1="208.322" x2="156.84" y2="231.726" xlink:href="#Bs"><stop stop-color="#91e9ee"/><stop offset="1" stop-color="#06c1c0"/></linearGradient><linearGradient id="Ap" x1="133.99" y1="269.433" x2="133.99" y2="283.865" xlink:href="#Bs"><stop stop-color="#91e9ee"/><stop offset="1" stop-color="#06c1c0"/></linearGradient><linearGradient id="Aq" x1="134.037" y1="219.746" x2="134.037" y2="398.994" xlink:href="#Bs"><stop stop-color="#91e9ee"/><stop offset="1" stop-color="#06c1c0"/></linearGradient><linearGradient id="Ar" x1="266.066" y1="213.123" x2="266.066" y2="213.165" xlink:href="#Bs"><stop stop-color="#91e9ee"/><stop offset="1" stop-color="#06c1c0"/></linearGradient><linearGradient id="As" x1="220.324" y1="234.827" x2="220.324" y2="322.33" xlink:href="#Bs"><stop stop-color="#91e9ee"/><stop offset="1" stop-color="#06c1c0"/></linearGradient><linearGradient id="At" x1="240.184" y1="211.532" x2="240.184" y2="323.728" xlink:href="#Bs"><stop stop-color="#91e9ee"/><stop offset="1" stop-color="#06c1c0"/></linearGradient><linearGradient id="Au" x1="254.662" y1="292.109" x2="254.662" y2="302.71" xlink:href="#Bs"><stop stop-color="#91e9ee"/><stop offset="1" stop-color="#06c1c0"/></linearGradient><linearGradient id="Av" x1="246.588" y1="234.821" x2="246.588" y2="247.29" xlink:href="#Bs"><stop stop-color="#91e9ee"/><stop offset="1" stop-color="#06c1c0"/></linearGradient><linearGradient id="Aw" x1="240.694" y1="265.516" x2="240.694" y2="298.766" xlink:href="#Bs"><stop stop-color="#91e9ee"/><stop offset="1" stop-color="#06c1c0"/></linearGradient><linearGradient id="Ax" x1="227.423" y1="200.013" x2="227.423" y2="261.796" xlink:href="#Bs"><stop stop-color="#91e9ee"/><stop offset="1" stop-color="#06c1c0"/></linearGradient><linearGradient id="Ay" x1="350.712" y1="404.224" x2="350.712" y2="404.69" xlink:href="#Bs"><stop stop-color="#91e9ee"/><stop offset="1" stop-color="#06c1c0"/></linearGradient><linearGradient id="Az" x1="350.246" y1="404.41" x2="350.246" y2="404.69" xlink:href="#Bs"><stop stop-color="#91e9ee"/><stop offset="1" stop-color="#06c1c0"/></linearGradient><linearGradient id="BA" x1="390.025" y1="337.928" x2="390.025" y2="351.935" xlink:href="#Bs"><stop stop-color="#91e9ee"/><stop offset="1" stop-color="#06c1c0"/></linearGradient><linearGradient id="BB" x1="369.74" y1="299.412" x2="369.74" y2="371.873" xlink:href="#Bs"><stop stop-color="#91e9ee"/><stop offset="1" stop-color="#06c1c0"/></linearGradient><linearGradient id="BC" x1="406.169" y1="351.176" x2="406.169" y2="351.269" xlink:href="#Bs"><stop stop-color="#91e9ee"/><stop offset="1" stop-color="#06c1c0"/></linearGradient><linearGradient id="BD" x1="376.021" y1="371.387" x2="376.021" y2="393.814" xlink:href="#Bs"><stop stop-color="#91e9ee"/><stop offset="1" stop-color="#06c1c0"/></linearGradient><linearGradient id="BE" x1="344.664" y1="393.223" x2="344.664" y2="413.92" xlink:href="#Bs"><stop stop-color="#91e9ee"/><stop offset="1" stop-color="#06c1c0"/></linearGradient><linearGradient id="BF" x1="358.668" y1="385.671" x2="358.668" y2="404.224" xlink:href="#Bs"><stop stop-color="#91e9ee"/><stop offset="1" stop-color="#06c1c0"/></linearGradient><linearGradient id="BG" x1="348.572" y1="374.204" x2="348.572" y2="404.69" xlink:href="#Bs"><stop stop-color="#91e9ee"/><stop offset="1" stop-color="#06c1c0"/></linearGradient><linearGradient id="BH" x1="380.999" y1="310.972" x2="380.999" y2="415.868" xlink:href="#Bs"><stop stop-color="#91e9ee"/><stop offset="1" stop-color="#06c1c0"/></linearGradient><linearGradient id="BI" x1="289.793" y1="318.068" x2="289.793" y2="461.178" xlink:href="#Bs"><stop stop-color="#91e9ee"/><stop offset="1" stop-color="#06c1c0"/></linearGradient><linearGradient id="BJ" x1="264.294" y1="329.558" x2="264.294" y2="472.854" xlink:href="#Bs"><stop stop-color="#91e9ee"/><stop offset="1" stop-color="#06c1c0"/></linearGradient><linearGradient id="BK" x1="307.367" y1="340.768" x2="307.367" y2="404.289" xlink:href="#Bs"><stop stop-color="#91e9ee"/><stop offset="1" stop-color="#06c1c0"/></linearGradient><linearGradient id="BL" x1="308.486" y1="416.993" x2="308.486" y2="444.643" xlink:href="#Bs"><stop stop-color="#91e9ee"/><stop offset="1" stop-color="#06c1c0"/></linearGradient><linearGradient id="BM" x1="274.269" y1="318.068" x2="274.269" y2="341.142" xlink:href="#Bs"><stop stop-color="#91e9ee"/><stop offset="1" stop-color="#06c1c0"/></linearGradient><linearGradient id="BN" x1="310.723" y1="329.651" x2="310.723" y2="472.761" xlink:href="#Bs"><stop stop-color="#91e9ee"/><stop offset="1" stop-color="#06c1c0"/></linearGradient><linearGradient id="BO" x1="322.844" y1="326.476" x2="322.844" y2="352.258" xlink:href="#Bs"><stop stop-color="#91e9ee"/><stop offset="1" stop-color="#06c1c0"/></linearGradient><linearGradient id="BP" x1="206.031" y1="390.828" x2="206.031" y2="508.991" xlink:href="#Bs"><stop stop-color="#91e9ee"/><stop offset="1" stop-color="#06c1c0"/></linearGradient><linearGradient id="BQ" x1="221.714" y1="447.815" x2="221.714" y2="488.286" xlink:href="#Bs"><stop stop-color="#91e9ee"/><stop offset="1" stop-color="#06c1c0"/></linearGradient><linearGradient id="BR" x1="239.398" y1="445.856" x2="239.398" y2="459.378" xlink:href="#Bs"><stop stop-color="#91e9ee"/><stop offset="1" stop-color="#06c1c0"/></linearGradient><linearGradient id="BS" x1="220.225" y1="402.323" x2="220.225" y2="511.619" xlink:href="#Bs"><stop stop-color="#91e9ee"/><stop offset="1" stop-color="#06c1c0"/></linearGradient><linearGradient id="BT" x1="249.358" y1="457.42" x2="249.358" y2="459.378" xlink:href="#Bs"><stop stop-color="#91e9ee"/><stop offset="1" stop-color="#06c1c0"/></linearGradient><linearGradient id="BU" x1="73.522" y1="442.406" x2="73.522" y2="453.5" xlink:href="#Bs"><stop stop-color="#91e9ee"/><stop offset="1" stop-color="#06c1c0"/></linearGradient><linearGradient id="BV" x1="73.522" y1="431.292" x2="73.522" y2="442.463" xlink:href="#Bs"><stop stop-color="#91e9ee"/><stop offset="1" stop-color="#06c1c0"/></linearGradient><linearGradient id="BW" x1="54.23" y1="442.463" x2="54.23" y2="453.614" xlink:href="#Bs"><stop stop-color="#91e9ee"/><stop offset="1" stop-color="#06c1c0"/></linearGradient><linearGradient id="BX" x1="54.216" y1="431.177" x2="54.216" y2="442.419" xlink:href="#Bs"><stop stop-color="#91e9ee"/><stop offset="1" stop-color="#06c1c0"/></linearGradient><linearGradient id="BY" x1="449.758" y1="494.769" x2="449.758" y2="516.957" xlink:href="#Bs"><stop stop-color="#91e9ee"/><stop offset="1" stop-color="#06c1c0"/></linearGradient><linearGradient id="BZ" x1="430.452" y1="483.576" x2="430.452" y2="505.92" xlink:href="#Bs"><stop stop-color="#91e9ee"/><stop offset="1" stop-color="#06c1c0"/></linearGradient><linearGradient id="Ba" x1="420.813" y1="505.92" x2="420.813" y2="517.07" xlink:href="#Bs"><stop stop-color="#91e9ee"/><stop offset="1" stop-color="#06c1c0"/></linearGradient><linearGradient id="Bb" x1="420.884" y1="472.353" x2="420.884" y2="483.547" xlink:href="#Bs"><stop stop-color="#91e9ee"/><stop offset="1" stop-color="#06c1c0"/></linearGradient><linearGradient id="Bc" x1="430.452" y1="483.39" x2="430.452" y2="505.876" xlink:href="#Bs"><stop stop-color="#91e9ee"/><stop offset="1" stop-color="#06c1c0"/></linearGradient><linearGradient id="Bd" x1="449.758" y1="472.425" x2="449.758" y2="494.769" xlink:href="#Bs"><stop stop-color="#91e9ee"/><stop offset="1" stop-color="#06c1c0"/></linearGradient><linearGradient id="Be" x1="70.221" y1="96.289" x2="70.221" y2="117.768" xlink:href="#Bs"><stop stop-color="#91e9ee"/><stop offset="1" stop-color="#06c1c0"/></linearGradient><linearGradient id="Bf" x1="52.049" y1="137.571" x2="52.049" y2="117.64" xlink:href="#Bs"><stop stop-color="#91e9ee"/><stop offset="1" stop-color="#06c1c0"/></linearGradient><linearGradient id="Bg" x1="89.447" y1="116.045" x2="89.447" y2="96.114" xlink:href="#Bs"><stop stop-color="#91e9ee"/><stop offset="1" stop-color="#06c1c0"/></linearGradient><linearGradient id="Bh" x1="70.35" y1="127.207" x2="70.35" y2="107.275" xlink:href="#Bs"><stop stop-color="#91e9ee"/><stop offset="1" stop-color="#06c1c0"/></linearGradient><linearGradient id="Bi" x1="32.952" y1="127.207" x2="32.952" y2="107.275" xlink:href="#Bs"><stop stop-color="#91e9ee"/><stop offset="1" stop-color="#06c1c0"/></linearGradient><linearGradient id="Bj" x1="14.651" y1="116.045" x2="14.651" y2="96.114" xlink:href="#Bs"><stop stop-color="#91e9ee"/><stop offset="1" stop-color="#06c1c0"/></linearGradient><linearGradient id="Bk" x1="51.531" y1="85.454" x2="51.531" y2="107.084" xlink:href="#Bs"><stop stop-color="#91e9ee"/><stop offset="1" stop-color="#06c1c0"/></linearGradient><linearGradient id="Bl" x1="32.868" y1="96.289" x2="32.868" y2="117.879" xlink:href="#Bs"><stop stop-color="#91e9ee"/><stop offset="1" stop-color="#06c1c0"/></linearGradient><linearGradient id="Bm" x1="32.896" y1="74.588" x2="32.896" y2="96.262" xlink:href="#Bs"><stop stop-color="#91e9ee"/><stop offset="1" stop-color="#06c1c0"/></linearGradient><linearGradient id="Bn" x1="51.531" y1="85.273" x2="51.531" y2="107.041" xlink:href="#Bs"><stop stop-color="#91e9ee"/><stop offset="1" stop-color="#06c1c0"/></linearGradient><linearGradient id="Bo" x1="70.221" y1="74.658" x2="70.221" y2="96.288" xlink:href="#Bs"><stop stop-color="#91e9ee"/><stop offset="1" stop-color="#06c1c0"/></linearGradient><linearGradient id="Bp" x1="70.221" y1="116.045" x2="70.221" y2="137.525" xlink:href="#Bs"><stop stop-color="#06c1c0"/><stop offset="1" stop-color="#91e9ee"/></linearGradient><linearGradient id="Bq" x1="32.868" y1="116.045" x2="32.868" y2="137.635" xlink:href="#Bs"><stop stop-color="#06c1c0"/><stop offset="1" stop-color="#91e9ee"/></linearGradient><linearGradient id="Br" x1="51.549" y1="72.994" x2="51.549" y2="139.165" xlink:href="#Bs"><stop stop-color="#91e9ee"/><stop offset="1" stop-color="#06c1c0"/></linearGradient><linearGradient id="Bs" gradientUnits="userSpaceOnUse"/></defs></svg>