<svg width="53" height="46" viewBox="0 0 53 46" fill="none" xmlns="http://www.w3.org/2000/svg">
<path d="M39.3145 1H13.8145L1 23.0169L13.8145 45.1197H39.3145L52 22.9309L39.3145 1Z" fill="#C4C4C4" fill-opacity="0.8"/>
<path d="M34 11H20C17.239 11 15 13.239 15 16V30C15 32.761 17.239 35 20 35H34C36.762 35 39 32.761 39 30V16C39 13.239 36.762 11 34 11ZM23 30H20V19H23V30ZM21.5 17.732C20.534 17.732 19.75 16.942 19.75 15.968C19.75 14.994 20.534 14.204 21.5 14.204C22.466 14.204 23.25 14.994 23.25 15.968C23.25 16.942 22.467 17.732 21.5 17.732ZM35 30H32V24.396C32 21.028 28 21.283 28 24.396V30H25V19H28V20.765C29.396 18.179 35 17.988 35 23.241V30Z" fill="#0029FF"/>
</svg>
